M48
;GenerationSoftware,Autodesk,EAGLE,9.6.2*%
;CreationDate,2021-09-06T08:54:28Z*%
FMAT,2
ICI,OFF
METRIC,TZ,000.000
T2C0.350
T1C1.100
%
G90
M71
T1
X32883Y45709
X36383Y45709
X36319Y23531
X32819Y23531
T2
X45441Y37885
X48666Y37897
X20701Y32106
X25997Y40945
X39307Y42215
X28842Y30929
X24689Y25756
X21452Y38783
X23558Y38862
X40602Y30239
X40462Y45415
X42520Y37160
X44005Y30264
X26708Y25819
X44259Y27508
X46977Y38779
X25908Y43078
X29248Y45453
X37833Y27559
M30