M48
;GenerationSoftware,Autodesk,EAGLE,9.6.2*%
;CreationDate,2021-09-24T06:36:12Z*%
FMAT,2
ICI,OFF
METRIC,TZ,000.000
T2C0.350
T1C1.100
%
G90
M71
T1
X-1801Y11139
X1699Y11139
X1636Y-11038
X-1864Y-11038
T2
X11316Y3303
X13983Y3327
X-12471Y-686
X-8725Y6960
X4597Y7912
X-4064Y-3768
X9246Y-3721
X-9792Y-8509
X-13231Y4214
X-11138Y4267
X5778Y10846
X9639Y2680
X8064Y-368
X-7976Y-8750
X9576Y-7061
X12293Y4209
X-8776Y8509
X-5436Y10884
X1562Y-4483
X-559Y-4813
M30