M48
;GenerationSoftware,Autodesk,EAGLE,9.3.0*%
;CreationDate,2020-04-07T10:13:02Z*%
FMAT,2
ICI,OFF
METRIC,TZ,000.000
T2C0.350
T1C1.100
%
G90
M71
T1
X32883Y45709
X36383Y45709
X36319Y23531
X32819Y23531
T2
X45441Y37885
X48666Y37897
X20701Y32106
X25997Y38138
X39307Y42215
X31204Y31170
X24905Y26784
X21452Y38783
X23558Y38862
X40602Y30239
X40462Y45415
X42520Y37160
X44005Y30264
X26708Y25819
X44259Y27508
X46977Y38779
X25908Y43078
X29248Y45453
X37224Y28232
M30