M48
;GenerationSoftware,Autodesk,EAGLE,9.3.0*%
;CreationDate,2020-03-16T21:24:14Z*%
FMAT,2
ICI,OFF
METRIC,TZ,000.000
T3C0.350
T2C1.020
T1C1.100
%
G90
M71
T1
X36751Y23430
X33251Y23430
T2
X36233Y48006
X33693Y48006
T3
X26187Y32296
X45441Y37885
X48298Y37871
X38070Y37790
X31166Y37948
X30747Y31170
X24968Y26784
X22075Y38847
X28956Y35553
X45936Y32957
X37757Y45568
X42736Y37770
X44259Y27508
X46608Y38906
X27127Y42024
X30277Y43536
X34862Y29654
M30