G04 EAGLE Gerber RS-274X export*
G75*
%MOMM*%
%FSLAX34Y34*%
%LPD*%
%INTop Copper*%
%IPPOS*%
%AMOC8*
5,1,8,0,0,1.08239X$1,22.5*%
G01*
%ADD10R,0.800000X0.800000*%
%ADD11R,1.000000X1.100000*%
%ADD12C,0.499997*%
%ADD13C,1.000000*%
%ADD14R,1.500000X2.000000*%
%ADD15R,2.310000X2.520000*%
%ADD16R,0.558800X1.981200*%
%ADD17R,1.500000X1.300000*%
%ADD18C,1.700000*%
%ADD19R,1.100000X1.000000*%
%ADD20C,0.142500*%
%ADD21R,2.000000X1.500000*%
%ADD22R,2.200000X1.800000*%
%ADD23R,1.800000X1.120000*%
%ADD24R,1.500000X1.050000*%
%ADD25R,1.500000X2.400000*%
%ADD26C,0.756400*%
%ADD27C,0.254000*%
%ADD28C,0.304800*%
%ADD29C,0.406400*%

G36*
X278630Y195708D02*
X278630Y195708D01*
X278658Y195706D01*
X278726Y195728D01*
X278797Y195742D01*
X278820Y195758D01*
X278847Y195767D01*
X278902Y195814D01*
X278961Y195855D01*
X278976Y195879D01*
X278998Y195897D01*
X279029Y195962D01*
X279068Y196022D01*
X279073Y196050D01*
X279085Y196076D01*
X279094Y196177D01*
X279101Y196219D01*
X279099Y196229D01*
X279100Y196242D01*
X278982Y197719D01*
X413422Y197719D01*
X413304Y196242D01*
X413308Y196213D01*
X413303Y196185D01*
X413320Y196116D01*
X413328Y196044D01*
X413343Y196020D01*
X413349Y195992D01*
X413392Y195934D01*
X413428Y195872D01*
X413450Y195855D01*
X413467Y195832D01*
X413529Y195795D01*
X413586Y195752D01*
X413614Y195745D01*
X413638Y195730D01*
X413738Y195714D01*
X413779Y195703D01*
X413789Y195705D01*
X413802Y195703D01*
X432802Y195703D01*
X432878Y195718D01*
X432956Y195727D01*
X432975Y195738D01*
X432997Y195742D01*
X433061Y195786D01*
X433129Y195825D01*
X433145Y195844D01*
X433161Y195855D01*
X433185Y195893D01*
X433235Y195953D01*
X442735Y212453D01*
X442744Y212480D01*
X442760Y212504D01*
X442775Y212574D01*
X442798Y212642D01*
X442795Y212670D01*
X442801Y212698D01*
X442788Y212769D01*
X442782Y212840D01*
X442769Y212865D01*
X442763Y212893D01*
X442723Y212953D01*
X442690Y213016D01*
X442668Y213034D01*
X442652Y213058D01*
X442569Y213116D01*
X442537Y213143D01*
X442526Y213146D01*
X442516Y213153D01*
X441197Y213777D01*
X460088Y246497D01*
X460115Y246579D01*
X460147Y246660D01*
X460147Y246674D01*
X460152Y246687D01*
X460145Y246774D01*
X460144Y246860D01*
X460138Y246873D01*
X460137Y246887D01*
X460098Y246964D01*
X460062Y247044D01*
X460052Y247054D01*
X460046Y247066D01*
X460003Y247101D01*
X459934Y247170D01*
X458814Y247933D01*
X458749Y247960D01*
X458687Y247995D01*
X458655Y248000D01*
X458629Y248011D01*
X458577Y248011D01*
X458509Y248021D01*
X458503Y248020D01*
X458028Y248462D01*
X457998Y248480D01*
X457968Y248509D01*
X457432Y248874D01*
X457431Y248880D01*
X457404Y248945D01*
X457386Y249013D01*
X457366Y249039D01*
X457356Y249065D01*
X457319Y249102D01*
X457278Y249157D01*
X455539Y250770D01*
X455479Y250806D01*
X455423Y250850D01*
X455392Y250860D01*
X455368Y250874D01*
X455317Y250882D01*
X455250Y250902D01*
X455245Y250902D01*
X454840Y251410D01*
X454814Y251432D01*
X454789Y251465D01*
X454313Y251906D01*
X454313Y251912D01*
X454296Y251980D01*
X454288Y252051D01*
X454272Y252079D01*
X454266Y252107D01*
X454235Y252148D01*
X454202Y252209D01*
X452723Y254063D01*
X452669Y254108D01*
X452621Y254159D01*
X452591Y254173D01*
X452570Y254191D01*
X452520Y254207D01*
X452458Y254236D01*
X452452Y254238D01*
X452128Y254800D01*
X452105Y254826D01*
X452085Y254862D01*
X451680Y255369D01*
X451681Y255375D01*
X451675Y255445D01*
X451677Y255516D01*
X451666Y255547D01*
X451664Y255575D01*
X451640Y255620D01*
X451616Y255685D01*
X450430Y257739D01*
X450383Y257792D01*
X450343Y257850D01*
X450316Y257868D01*
X450297Y257889D01*
X450251Y257911D01*
X450193Y257950D01*
X450188Y257952D01*
X449951Y258556D01*
X449932Y258585D01*
X449918Y258624D01*
X449593Y259186D01*
X449595Y259191D01*
X449599Y259262D01*
X449612Y259331D01*
X449606Y259363D01*
X449607Y259391D01*
X449590Y259440D01*
X449577Y259508D01*
X448710Y261715D01*
X448672Y261774D01*
X448641Y261838D01*
X448616Y261860D01*
X448601Y261884D01*
X448559Y261913D01*
X448507Y261959D01*
X448503Y261962D01*
X448358Y262595D01*
X448344Y262626D01*
X448336Y262667D01*
X448099Y263271D01*
X448101Y263276D01*
X448116Y263345D01*
X448139Y263412D01*
X448137Y263445D01*
X448143Y263472D01*
X448133Y263523D01*
X448130Y263592D01*
X447602Y265904D01*
X447573Y265968D01*
X447552Y266035D01*
X447531Y266061D01*
X447519Y266086D01*
X447482Y266121D01*
X447438Y266175D01*
X447434Y266179D01*
X447385Y266826D01*
X447376Y266859D01*
X447374Y266901D01*
X447229Y267533D01*
X447232Y267538D01*
X447257Y267604D01*
X447290Y267667D01*
X447293Y267699D01*
X447303Y267726D01*
X447301Y267777D01*
X447308Y267846D01*
X447131Y270211D01*
X447111Y270278D01*
X447101Y270348D01*
X447084Y270377D01*
X447076Y270404D01*
X447044Y270444D01*
X447009Y270504D01*
X447005Y270508D01*
X447023Y270744D01*
X447021Y270762D01*
X447023Y270773D01*
X447022Y270776D01*
X447025Y270787D01*
X447008Y270865D01*
X446998Y270943D01*
X446987Y270962D01*
X446983Y270983D01*
X446938Y271048D01*
X446898Y271117D01*
X446881Y271130D01*
X446869Y271148D01*
X446802Y271191D01*
X446739Y271238D01*
X446718Y271244D01*
X446699Y271256D01*
X446621Y271269D01*
X446545Y271289D01*
X446523Y271285D01*
X446502Y271289D01*
X446425Y271271D01*
X446346Y271260D01*
X446328Y271248D01*
X446307Y271244D01*
X446221Y271184D01*
X446175Y271156D01*
X446169Y271148D01*
X446159Y271141D01*
X444793Y269775D01*
X440397Y269775D01*
X437288Y272884D01*
X437288Y277280D01*
X440397Y280389D01*
X444793Y280389D01*
X446903Y278279D01*
X446909Y278275D01*
X446914Y278269D01*
X446992Y278220D01*
X447070Y278168D01*
X447077Y278167D01*
X447084Y278163D01*
X447261Y278131D01*
X447570Y278131D01*
X447618Y278140D01*
X447667Y278140D01*
X447715Y278160D01*
X447766Y278170D01*
X447807Y278198D01*
X447853Y278217D01*
X447889Y278254D01*
X447932Y278283D01*
X447959Y278324D01*
X447994Y278360D01*
X448016Y278413D01*
X448041Y278451D01*
X448047Y278486D01*
X448064Y278525D01*
X448125Y278794D01*
X448127Y278864D01*
X448132Y278889D01*
X448131Y278891D01*
X448137Y278935D01*
X448130Y278966D01*
X448130Y278995D01*
X448112Y279043D01*
X448096Y279110D01*
X448093Y279115D01*
X448330Y279719D01*
X448336Y279753D01*
X448353Y279791D01*
X448497Y280424D01*
X448502Y280427D01*
X448553Y280476D01*
X448609Y280518D01*
X448626Y280546D01*
X448647Y280565D01*
X448667Y280612D01*
X448704Y280671D01*
X449569Y282879D01*
X449582Y282949D01*
X449602Y283016D01*
X449599Y283049D01*
X449604Y283076D01*
X449593Y283127D01*
X449587Y283196D01*
X449586Y283201D01*
X449910Y283763D01*
X449921Y283796D01*
X449943Y283831D01*
X450180Y284435D01*
X450185Y284438D01*
X450243Y284478D01*
X450305Y284511D01*
X450326Y284536D01*
X450349Y284553D01*
X450376Y284596D01*
X450421Y284649D01*
X451606Y286703D01*
X451629Y286770D01*
X451659Y286834D01*
X451661Y286866D01*
X451670Y286893D01*
X451666Y286944D01*
X451671Y287014D01*
X451670Y287019D01*
X452075Y287526D01*
X452091Y287557D01*
X452117Y287589D01*
X452442Y288151D01*
X452447Y288153D01*
X452510Y288184D01*
X452577Y288208D01*
X452601Y288229D01*
X452626Y288242D01*
X452660Y288281D01*
X452712Y288326D01*
X454190Y290181D01*
X454222Y290244D01*
X454262Y290302D01*
X454269Y290334D01*
X454282Y290359D01*
X454286Y290411D01*
X454300Y290478D01*
X454300Y290484D01*
X454776Y290925D01*
X454796Y290953D01*
X454828Y290981D01*
X455232Y291488D01*
X455237Y291489D01*
X455305Y291510D01*
X455374Y291524D01*
X455402Y291542D01*
X455428Y291550D01*
X455467Y291584D01*
X455526Y291621D01*
X457263Y293235D01*
X457305Y293292D01*
X457352Y293344D01*
X457364Y293375D01*
X457380Y293397D01*
X457392Y293448D01*
X457417Y293512D01*
X457418Y293518D01*
X457954Y293883D01*
X457978Y293908D01*
X458013Y293931D01*
X458489Y294372D01*
X458494Y294372D01*
X458564Y294383D01*
X458634Y294386D01*
X458664Y294400D01*
X458692Y294404D01*
X458736Y294432D01*
X458799Y294460D01*
X460758Y295796D01*
X460807Y295847D01*
X460862Y295891D01*
X460878Y295920D01*
X460898Y295940D01*
X460917Y295988D01*
X460951Y296048D01*
X460952Y296053D01*
X461537Y296335D01*
X461565Y296356D01*
X461603Y296373D01*
X462139Y296739D01*
X462144Y296738D01*
X462215Y296738D01*
X462285Y296731D01*
X462316Y296740D01*
X462344Y296740D01*
X462392Y296761D01*
X462458Y296779D01*
X464595Y297809D01*
X464651Y297851D01*
X464712Y297887D01*
X464732Y297913D01*
X464754Y297930D01*
X464780Y297974D01*
X464823Y298029D01*
X464826Y298034D01*
X465446Y298225D01*
X465476Y298242D01*
X465516Y298253D01*
X466101Y298534D01*
X466106Y298533D01*
X466176Y298523D01*
X466244Y298505D01*
X466277Y298509D01*
X466304Y298505D01*
X466354Y298518D01*
X466423Y298527D01*
X468689Y299226D01*
X468751Y299260D01*
X468816Y299286D01*
X468840Y299309D01*
X468865Y299322D01*
X468897Y299363D01*
X468947Y299410D01*
X468950Y299415D01*
X469592Y299511D01*
X469625Y299523D01*
X469666Y299528D01*
X470286Y299720D01*
X470291Y299717D01*
X470313Y299711D01*
X470317Y299708D01*
X470330Y299706D01*
X470359Y299697D01*
X470423Y299669D01*
X470456Y299668D01*
X470483Y299660D01*
X470534Y299666D01*
X470604Y299664D01*
X472948Y300018D01*
X473015Y300043D01*
X473083Y300059D01*
X473110Y300077D01*
X473137Y300087D01*
X473175Y300122D01*
X473231Y300161D01*
X473235Y300165D01*
X473884Y300165D01*
X473918Y300172D01*
X473960Y300171D01*
X474601Y300268D01*
X474606Y300265D01*
X474670Y300235D01*
X474730Y300198D01*
X474762Y300192D01*
X474787Y300180D01*
X474839Y300178D01*
X474907Y300166D01*
X477278Y300167D01*
X477348Y300181D01*
X477418Y300186D01*
X477447Y300201D01*
X477475Y300206D01*
X477518Y300235D01*
X477580Y300266D01*
X477584Y300269D01*
X478226Y300173D01*
X478260Y300174D01*
X478301Y300167D01*
X478950Y300167D01*
X478954Y300163D01*
X479013Y300124D01*
X479067Y300078D01*
X479098Y300068D01*
X479121Y300052D01*
X479172Y300043D01*
X479237Y300020D01*
X481582Y299668D01*
X481653Y299671D01*
X481723Y299666D01*
X481754Y299676D01*
X481782Y299678D01*
X481829Y299700D01*
X481874Y299714D01*
X481880Y299716D01*
X481883Y299717D01*
X481895Y299721D01*
X481900Y299724D01*
X482520Y299532D01*
X482554Y299529D01*
X482594Y299516D01*
X483235Y299419D01*
X483239Y299415D01*
X483291Y299367D01*
X483337Y299314D01*
X483366Y299299D01*
X483387Y299280D01*
X483436Y299263D01*
X483497Y299231D01*
X485764Y298533D01*
X485834Y298526D01*
X485903Y298511D01*
X485935Y298516D01*
X485963Y298513D01*
X486012Y298528D01*
X486081Y298539D01*
X486086Y298541D01*
X486671Y298259D01*
X486704Y298251D01*
X486741Y298232D01*
X487361Y298041D01*
X487364Y298036D01*
X487409Y297981D01*
X487446Y297922D01*
X487473Y297902D01*
X487491Y297881D01*
X487536Y297857D01*
X487592Y297816D01*
X488830Y297220D01*
X488914Y297199D01*
X488997Y297173D01*
X489011Y297174D01*
X489024Y297171D01*
X489110Y297184D01*
X489196Y297192D01*
X489209Y297198D01*
X489223Y297200D01*
X489297Y297245D01*
X489373Y297286D01*
X489383Y297298D01*
X489394Y297305D01*
X489427Y297350D01*
X489489Y297424D01*
X508381Y330145D01*
X509618Y329291D01*
X509645Y329280D01*
X509667Y329261D01*
X509736Y329241D01*
X509801Y329213D01*
X509830Y329213D01*
X509858Y329205D01*
X509929Y329213D01*
X510000Y329213D01*
X510027Y329224D01*
X510056Y329227D01*
X510118Y329262D01*
X510183Y329290D01*
X510204Y329310D01*
X510229Y329325D01*
X510292Y329402D01*
X510322Y329432D01*
X510326Y329442D01*
X510335Y329453D01*
X519835Y345953D01*
X519845Y345985D01*
X519854Y345998D01*
X519858Y346022D01*
X519859Y346026D01*
X519890Y346096D01*
X519890Y346120D01*
X519898Y346142D01*
X519892Y346218D01*
X519893Y346295D01*
X519883Y346319D01*
X519882Y346340D01*
X519861Y346379D01*
X519835Y346451D01*
X510335Y362951D01*
X510316Y362973D01*
X510303Y362999D01*
X510250Y363047D01*
X510203Y363100D01*
X510177Y363113D01*
X510156Y363132D01*
X510088Y363155D01*
X510024Y363186D01*
X509995Y363188D01*
X509968Y363197D01*
X509896Y363192D01*
X509825Y363195D01*
X509798Y363185D01*
X509769Y363183D01*
X509679Y363141D01*
X509639Y363126D01*
X509631Y363119D01*
X509618Y363113D01*
X508381Y362259D01*
X489489Y394980D01*
X489432Y395045D01*
X489378Y395113D01*
X489366Y395120D01*
X489357Y395131D01*
X489279Y395168D01*
X489203Y395210D01*
X489189Y395212D01*
X489176Y395218D01*
X489090Y395222D01*
X489004Y395232D01*
X488989Y395228D01*
X488976Y395228D01*
X488924Y395210D01*
X488830Y395184D01*
X487592Y394588D01*
X487536Y394545D01*
X487475Y394510D01*
X487455Y394484D01*
X487432Y394467D01*
X487406Y394422D01*
X487364Y394368D01*
X487361Y394363D01*
X486741Y394172D01*
X486711Y394156D01*
X486671Y394145D01*
X486086Y393863D01*
X486081Y393865D01*
X486011Y393875D01*
X485942Y393893D01*
X485910Y393889D01*
X485882Y393893D01*
X485832Y393879D01*
X485764Y393871D01*
X483497Y393173D01*
X483435Y393139D01*
X483370Y393113D01*
X483346Y393090D01*
X483321Y393077D01*
X483289Y393037D01*
X483239Y392989D01*
X483235Y392985D01*
X482594Y392888D01*
X482561Y392877D01*
X482520Y392872D01*
X481900Y392680D01*
X481895Y392683D01*
X481827Y392703D01*
X481762Y392731D01*
X481730Y392732D01*
X481703Y392740D01*
X481651Y392734D01*
X481582Y392736D01*
X479237Y392384D01*
X479171Y392360D01*
X479102Y392343D01*
X479075Y392325D01*
X479049Y392315D01*
X479011Y392280D01*
X478954Y392241D01*
X478950Y392237D01*
X478301Y392237D01*
X478267Y392230D01*
X478226Y392231D01*
X477584Y392135D01*
X477580Y392138D01*
X477516Y392168D01*
X477456Y392205D01*
X477423Y392211D01*
X477398Y392223D01*
X477346Y392225D01*
X477278Y392237D01*
X474907Y392238D01*
X474838Y392224D01*
X474767Y392219D01*
X474738Y392204D01*
X474711Y392199D01*
X474668Y392170D01*
X474606Y392139D01*
X474601Y392136D01*
X474148Y392204D01*
X474107Y392202D01*
X474067Y392210D01*
X474008Y392198D01*
X473948Y392195D01*
X473911Y392177D01*
X473871Y392168D01*
X473822Y392134D01*
X473767Y392108D01*
X473740Y392077D01*
X473706Y392054D01*
X473674Y392003D01*
X473634Y391958D01*
X473621Y391919D01*
X473599Y391885D01*
X473589Y391825D01*
X473569Y391768D01*
X473572Y391728D01*
X473565Y391687D01*
X473579Y391629D01*
X473583Y391568D01*
X473602Y391532D01*
X473611Y391492D01*
X473650Y391435D01*
X473674Y391389D01*
X473695Y391371D01*
X473714Y391344D01*
X475072Y389985D01*
X475072Y385589D01*
X471990Y382507D01*
X471989Y382505D01*
X471987Y382504D01*
X471934Y382423D01*
X471879Y382340D01*
X471879Y382338D01*
X471878Y382336D01*
X471860Y382240D01*
X471842Y382143D01*
X471842Y382141D01*
X471842Y382138D01*
X471863Y382042D01*
X471883Y381947D01*
X471885Y381945D01*
X471885Y381943D01*
X471942Y381863D01*
X471998Y381783D01*
X472000Y381781D01*
X472001Y381779D01*
X472084Y381728D01*
X472167Y381675D01*
X472170Y381675D01*
X472172Y381673D01*
X472349Y381641D01*
X481622Y381641D01*
X481630Y381643D01*
X481638Y381642D01*
X481728Y381663D01*
X481819Y381681D01*
X481825Y381685D01*
X481833Y381687D01*
X481981Y381790D01*
X484466Y384275D01*
X488862Y384275D01*
X491971Y381166D01*
X491971Y376770D01*
X488862Y373661D01*
X484466Y373661D01*
X482224Y375903D01*
X482217Y375908D01*
X482213Y375914D01*
X482134Y375963D01*
X482057Y376014D01*
X482049Y376016D01*
X482042Y376020D01*
X481865Y376052D01*
X459326Y376052D01*
X459318Y376050D01*
X459311Y376052D01*
X459221Y376031D01*
X459130Y376012D01*
X459123Y376008D01*
X459116Y376006D01*
X458968Y375903D01*
X456604Y373540D01*
X452208Y373540D01*
X449099Y376649D01*
X449099Y381045D01*
X452208Y384153D01*
X456604Y384153D01*
X458968Y381790D01*
X458974Y381786D01*
X458979Y381779D01*
X459057Y381730D01*
X459135Y381679D01*
X459142Y381678D01*
X459149Y381673D01*
X459326Y381641D01*
X467182Y381641D01*
X467185Y381642D01*
X467187Y381641D01*
X467282Y381662D01*
X467379Y381681D01*
X467381Y381682D01*
X467383Y381683D01*
X467463Y381739D01*
X467545Y381794D01*
X467546Y381796D01*
X467548Y381797D01*
X467601Y381881D01*
X467654Y381962D01*
X467654Y381964D01*
X467656Y381966D01*
X467672Y382063D01*
X467689Y382159D01*
X467689Y382162D01*
X467689Y382164D01*
X467667Y382258D01*
X467646Y382355D01*
X467644Y382357D01*
X467644Y382359D01*
X467541Y382507D01*
X464459Y385589D01*
X464459Y389985D01*
X466822Y392349D01*
X466827Y392355D01*
X466833Y392360D01*
X466882Y392438D01*
X466933Y392516D01*
X466935Y392524D01*
X466939Y392530D01*
X466971Y392708D01*
X466971Y393334D01*
X466965Y393364D01*
X466967Y393394D01*
X466945Y393461D01*
X466931Y393530D01*
X466914Y393555D01*
X466905Y393584D01*
X466858Y393638D01*
X466819Y393696D01*
X466793Y393713D01*
X466773Y393735D01*
X466698Y393775D01*
X466651Y393805D01*
X466632Y393809D01*
X466613Y393818D01*
X466423Y393877D01*
X466353Y393884D01*
X466284Y393900D01*
X466251Y393895D01*
X466224Y393897D01*
X466174Y393882D01*
X466106Y393871D01*
X466101Y393870D01*
X465516Y394151D01*
X465482Y394160D01*
X465446Y394179D01*
X464825Y394370D01*
X464823Y394375D01*
X464778Y394430D01*
X464740Y394490D01*
X464714Y394509D01*
X464696Y394531D01*
X464651Y394555D01*
X464595Y394595D01*
X462458Y395625D01*
X462390Y395642D01*
X462324Y395668D01*
X462291Y395668D01*
X462264Y395675D01*
X462213Y395667D01*
X462144Y395666D01*
X462139Y395665D01*
X461603Y396031D01*
X461571Y396045D01*
X461537Y396069D01*
X460952Y396351D01*
X460951Y396356D01*
X460915Y396417D01*
X460886Y396481D01*
X460863Y396504D01*
X460848Y396528D01*
X460807Y396559D01*
X460758Y396608D01*
X458799Y397944D01*
X458734Y397972D01*
X458672Y398007D01*
X458640Y398011D01*
X458614Y398022D01*
X458563Y398022D01*
X458494Y398032D01*
X458489Y398032D01*
X458013Y398473D01*
X457984Y398491D01*
X457954Y398521D01*
X457418Y398886D01*
X457417Y398892D01*
X457390Y398957D01*
X457372Y399025D01*
X457352Y399051D01*
X457341Y399077D01*
X457305Y399114D01*
X457263Y399169D01*
X455526Y400783D01*
X455466Y400820D01*
X455410Y400863D01*
X455379Y400873D01*
X455355Y400887D01*
X455304Y400895D01*
X455237Y400915D01*
X455232Y400916D01*
X454828Y401423D01*
X454801Y401446D01*
X454776Y401479D01*
X454300Y401920D01*
X454300Y401926D01*
X454284Y401995D01*
X454276Y402065D01*
X454260Y402093D01*
X454253Y402121D01*
X454223Y402162D01*
X454190Y402223D01*
X452712Y404078D01*
X452658Y404123D01*
X452610Y404175D01*
X452580Y404189D01*
X452559Y404207D01*
X452509Y404222D01*
X452447Y404251D01*
X452442Y404253D01*
X452117Y404815D01*
X452094Y404841D01*
X452075Y404878D01*
X451670Y405385D01*
X451671Y405390D01*
X451665Y405461D01*
X451667Y405531D01*
X451656Y405562D01*
X451654Y405590D01*
X451630Y405636D01*
X451606Y405701D01*
X450421Y407755D01*
X450374Y407808D01*
X450334Y407866D01*
X450307Y407884D01*
X450289Y407905D01*
X450242Y407928D01*
X450185Y407966D01*
X450180Y407969D01*
X449943Y408573D01*
X449924Y408602D01*
X449910Y408641D01*
X449586Y409203D01*
X449587Y409208D01*
X449592Y409279D01*
X449604Y409348D01*
X449598Y409380D01*
X449600Y409408D01*
X449583Y409457D01*
X449569Y409525D01*
X448704Y411733D01*
X448666Y411792D01*
X448635Y411855D01*
X448610Y411878D01*
X448595Y411901D01*
X448553Y411930D01*
X448502Y411977D01*
X448497Y411980D01*
X448353Y412613D01*
X448338Y412644D01*
X448330Y412685D01*
X448093Y413289D01*
X448096Y413294D01*
X448111Y413363D01*
X448134Y413430D01*
X448132Y413463D01*
X448138Y413490D01*
X448129Y413541D01*
X448125Y413610D01*
X447598Y415922D01*
X447570Y415986D01*
X447548Y416054D01*
X447528Y416079D01*
X447516Y416105D01*
X447478Y416140D01*
X447435Y416194D01*
X447431Y416197D01*
X447382Y416844D01*
X447373Y416878D01*
X447371Y416919D01*
X447227Y417552D01*
X447230Y417557D01*
X447255Y417623D01*
X447288Y417685D01*
X447291Y417718D01*
X447301Y417744D01*
X447299Y417796D01*
X447306Y417864D01*
X447130Y420229D01*
X447111Y420297D01*
X447100Y420367D01*
X447083Y420395D01*
X447076Y420422D01*
X447044Y420462D01*
X447009Y420522D01*
X447005Y420526D01*
X447054Y421173D01*
X447049Y421208D01*
X447054Y421249D01*
X447005Y421896D01*
X447009Y421900D01*
X447044Y421962D01*
X447085Y422019D01*
X447094Y422051D01*
X447107Y422075D01*
X447113Y422127D01*
X447131Y422193D01*
X447308Y424558D01*
X447300Y424628D01*
X447299Y424699D01*
X447287Y424729D01*
X447284Y424757D01*
X447258Y424802D01*
X447232Y424866D01*
X447229Y424871D01*
X447374Y425503D01*
X447375Y425538D01*
X447385Y425578D01*
X447434Y426225D01*
X447438Y426229D01*
X447482Y426285D01*
X447531Y426335D01*
X447544Y426365D01*
X447561Y426387D01*
X447575Y426437D01*
X447602Y426500D01*
X448130Y428812D01*
X448132Y428883D01*
X448142Y428953D01*
X448135Y428984D01*
X448135Y429012D01*
X448117Y429061D01*
X448101Y429128D01*
X448099Y429133D01*
X448336Y429737D01*
X448342Y429771D01*
X448358Y429809D01*
X448503Y430442D01*
X448507Y430445D01*
X448559Y430493D01*
X448615Y430536D01*
X448632Y430563D01*
X448653Y430583D01*
X448674Y430630D01*
X448710Y430689D01*
X449577Y432896D01*
X449589Y432966D01*
X449610Y433033D01*
X449607Y433066D01*
X449612Y433093D01*
X449601Y433144D01*
X449595Y433213D01*
X449593Y433218D01*
X449918Y433780D01*
X449929Y433813D01*
X449951Y433848D01*
X450188Y434452D01*
X450193Y434454D01*
X450251Y434495D01*
X450313Y434528D01*
X450335Y434553D01*
X450358Y434569D01*
X450385Y434613D01*
X450430Y434665D01*
X451616Y436719D01*
X451639Y436786D01*
X451669Y436849D01*
X451671Y436882D01*
X451680Y436909D01*
X451676Y436960D01*
X451681Y437029D01*
X451680Y437035D01*
X452085Y437542D01*
X452101Y437573D01*
X452128Y437604D01*
X452452Y438166D01*
X452458Y438168D01*
X452502Y438190D01*
X452527Y438195D01*
X452547Y438208D01*
X452588Y438223D01*
X452612Y438244D01*
X452637Y438257D01*
X452665Y438288D01*
X452693Y438307D01*
X452704Y438324D01*
X452723Y438341D01*
X454202Y440195D01*
X454234Y440258D01*
X454274Y440316D01*
X454281Y440348D01*
X454294Y440373D01*
X454298Y440425D01*
X454313Y440492D01*
X454313Y440498D01*
X454789Y440939D01*
X454809Y440967D01*
X454840Y440994D01*
X455245Y441502D01*
X455250Y441502D01*
X455318Y441524D01*
X455387Y441537D01*
X455415Y441555D01*
X455441Y441564D01*
X455481Y441597D01*
X455539Y441634D01*
X457278Y443247D01*
X457319Y443304D01*
X457367Y443356D01*
X457378Y443387D01*
X457395Y443409D01*
X457406Y443460D01*
X457431Y443524D01*
X457432Y443530D01*
X457968Y443895D01*
X457993Y443920D01*
X458028Y443942D01*
X458503Y444384D01*
X458509Y444383D01*
X458579Y444395D01*
X458649Y444398D01*
X458679Y444411D01*
X458707Y444415D01*
X458751Y444443D01*
X458814Y444471D01*
X459934Y445234D01*
X459994Y445296D01*
X460058Y445355D01*
X460064Y445368D01*
X460074Y445378D01*
X460106Y445458D01*
X460142Y445537D01*
X460143Y445551D01*
X460148Y445564D01*
X460146Y445651D01*
X460149Y445737D01*
X460144Y445751D01*
X460143Y445764D01*
X460121Y445815D01*
X460088Y445907D01*
X441197Y478627D01*
X442516Y479251D01*
X442538Y479268D01*
X442565Y479278D01*
X442617Y479327D01*
X442675Y479370D01*
X442689Y479395D01*
X442710Y479414D01*
X442739Y479480D01*
X442775Y479542D01*
X442778Y479570D01*
X442790Y479596D01*
X442791Y479668D01*
X442800Y479739D01*
X442792Y479766D01*
X442793Y479795D01*
X442757Y479890D01*
X442746Y479930D01*
X442739Y479939D01*
X442735Y479951D01*
X433235Y496451D01*
X433183Y496510D01*
X433137Y496572D01*
X433118Y496583D01*
X433103Y496600D01*
X433033Y496634D01*
X432966Y496674D01*
X432942Y496678D01*
X432924Y496686D01*
X432879Y496688D01*
X432802Y496701D01*
X413802Y496701D01*
X413774Y496696D01*
X413746Y496698D01*
X413678Y496676D01*
X413607Y496662D01*
X413584Y496646D01*
X413557Y496637D01*
X413502Y496590D01*
X413443Y496549D01*
X413428Y496525D01*
X413407Y496507D01*
X413375Y496442D01*
X413336Y496382D01*
X413331Y496354D01*
X413319Y496328D01*
X413310Y496227D01*
X413303Y496185D01*
X413305Y496175D01*
X413304Y496162D01*
X413422Y494685D01*
X278982Y494685D01*
X279100Y496162D01*
X279096Y496191D01*
X279101Y496219D01*
X279084Y496288D01*
X279076Y496360D01*
X279062Y496384D01*
X279055Y496412D01*
X279012Y496470D01*
X278977Y496532D01*
X278954Y496549D01*
X278937Y496572D01*
X278875Y496609D01*
X278818Y496652D01*
X278790Y496659D01*
X278766Y496674D01*
X278666Y496690D01*
X278625Y496701D01*
X278615Y496699D01*
X278602Y496701D01*
X259602Y496701D01*
X259526Y496686D01*
X259448Y496677D01*
X259429Y496666D01*
X259407Y496662D01*
X259343Y496618D01*
X259275Y496579D01*
X259259Y496560D01*
X259243Y496549D01*
X259219Y496511D01*
X259169Y496451D01*
X249669Y479951D01*
X249660Y479924D01*
X249644Y479900D01*
X249629Y479830D01*
X249606Y479762D01*
X249609Y479734D01*
X249603Y479706D01*
X249617Y479636D01*
X249622Y479564D01*
X249635Y479539D01*
X249641Y479511D01*
X249681Y479451D01*
X249714Y479388D01*
X249736Y479370D01*
X249752Y479346D01*
X249835Y479288D01*
X249867Y479261D01*
X249878Y479258D01*
X249889Y479251D01*
X251207Y478627D01*
X232316Y445907D01*
X232289Y445825D01*
X232257Y445744D01*
X232257Y445730D01*
X232252Y445717D01*
X232259Y445630D01*
X232260Y445544D01*
X232266Y445531D01*
X232267Y445517D01*
X232306Y445440D01*
X232342Y445360D01*
X232352Y445350D01*
X232358Y445338D01*
X232401Y445302D01*
X232470Y445234D01*
X233590Y444471D01*
X233655Y444444D01*
X233717Y444409D01*
X233749Y444404D01*
X233775Y444393D01*
X233827Y444393D01*
X233895Y444383D01*
X233901Y444383D01*
X234376Y443942D01*
X234406Y443924D01*
X234436Y443895D01*
X234972Y443530D01*
X234973Y443524D01*
X235000Y443459D01*
X235018Y443391D01*
X235038Y443365D01*
X235048Y443339D01*
X235085Y443302D01*
X235126Y443247D01*
X236865Y441634D01*
X236926Y441598D01*
X236981Y441554D01*
X237012Y441544D01*
X237036Y441530D01*
X237087Y441522D01*
X237154Y441502D01*
X237159Y441502D01*
X237564Y440994D01*
X237590Y440972D01*
X237615Y440939D01*
X238091Y440498D01*
X238091Y440492D01*
X238108Y440424D01*
X238116Y440353D01*
X238132Y440325D01*
X238138Y440297D01*
X238169Y440256D01*
X238202Y440195D01*
X239681Y438341D01*
X239708Y438319D01*
X239726Y438293D01*
X239754Y438276D01*
X239783Y438245D01*
X239813Y438231D01*
X239834Y438213D01*
X239877Y438199D01*
X239896Y438187D01*
X239910Y438185D01*
X239946Y438168D01*
X239952Y438166D01*
X240276Y437604D01*
X240299Y437578D01*
X240319Y437542D01*
X240724Y437035D01*
X240723Y437029D01*
X240729Y436959D01*
X240727Y436888D01*
X240738Y436857D01*
X240740Y436829D01*
X240764Y436784D01*
X240788Y436719D01*
X241974Y434665D01*
X242021Y434612D01*
X242061Y434554D01*
X242088Y434536D01*
X242107Y434515D01*
X242153Y434493D01*
X242211Y434454D01*
X242216Y434452D01*
X242453Y433848D01*
X242472Y433819D01*
X242486Y433780D01*
X242811Y433218D01*
X242809Y433213D01*
X242805Y433142D01*
X242792Y433073D01*
X242798Y433041D01*
X242797Y433013D01*
X242814Y432964D01*
X242827Y432896D01*
X243694Y430689D01*
X243732Y430630D01*
X243763Y430566D01*
X243788Y430544D01*
X243803Y430520D01*
X243845Y430491D01*
X243897Y430445D01*
X243901Y430442D01*
X244046Y429809D01*
X244060Y429778D01*
X244068Y429737D01*
X244305Y429133D01*
X244303Y429128D01*
X244288Y429059D01*
X244265Y428992D01*
X244267Y428959D01*
X244261Y428932D01*
X244271Y428881D01*
X244274Y428812D01*
X244802Y426500D01*
X244831Y426436D01*
X244852Y426369D01*
X244873Y426343D01*
X244885Y426318D01*
X244922Y426283D01*
X244966Y426229D01*
X244970Y426225D01*
X245019Y425578D01*
X245028Y425545D01*
X245030Y425503D01*
X245175Y424871D01*
X245172Y424866D01*
X245147Y424800D01*
X245114Y424737D01*
X245111Y424705D01*
X245101Y424678D01*
X245103Y424627D01*
X245096Y424558D01*
X245273Y422193D01*
X245293Y422126D01*
X245303Y422056D01*
X245320Y422027D01*
X245328Y422000D01*
X245360Y421960D01*
X245395Y421900D01*
X245399Y421896D01*
X245350Y421249D01*
X245355Y421215D01*
X245350Y421173D01*
X245399Y420526D01*
X245395Y420522D01*
X245361Y420461D01*
X245319Y420404D01*
X245311Y420372D01*
X245297Y420347D01*
X245291Y420296D01*
X245274Y420229D01*
X245098Y417864D01*
X245106Y417794D01*
X245107Y417724D01*
X245119Y417693D01*
X245123Y417665D01*
X245148Y417621D01*
X245174Y417557D01*
X245177Y417552D01*
X245033Y416919D01*
X245032Y416885D01*
X245022Y416844D01*
X244973Y416197D01*
X244969Y416194D01*
X244926Y416138D01*
X244876Y416088D01*
X244863Y416058D01*
X244846Y416035D01*
X244833Y415985D01*
X244806Y415922D01*
X244279Y413610D01*
X244277Y413539D01*
X244267Y413469D01*
X244274Y413438D01*
X244274Y413410D01*
X244292Y413361D01*
X244308Y413294D01*
X244311Y413289D01*
X244074Y412685D01*
X244068Y412651D01*
X244051Y412613D01*
X243907Y411980D01*
X243902Y411977D01*
X243851Y411928D01*
X243795Y411886D01*
X243778Y411858D01*
X243757Y411839D01*
X243737Y411792D01*
X243700Y411733D01*
X242835Y409525D01*
X242822Y409455D01*
X242802Y409388D01*
X242805Y409355D01*
X242800Y409328D01*
X242811Y409277D01*
X242817Y409208D01*
X242818Y409203D01*
X242494Y408641D01*
X242483Y408608D01*
X242461Y408573D01*
X242224Y407969D01*
X242219Y407966D01*
X242161Y407926D01*
X242099Y407893D01*
X242078Y407868D01*
X242055Y407851D01*
X242028Y407808D01*
X241983Y407755D01*
X240798Y405701D01*
X240775Y405634D01*
X240745Y405570D01*
X240743Y405538D01*
X240734Y405511D01*
X240738Y405460D01*
X240733Y405390D01*
X240734Y405385D01*
X240329Y404878D01*
X240313Y404847D01*
X240287Y404815D01*
X239962Y404253D01*
X239957Y404251D01*
X239894Y404220D01*
X239827Y404196D01*
X239803Y404175D01*
X239778Y404162D01*
X239744Y404123D01*
X239692Y404078D01*
X238214Y402223D01*
X238182Y402160D01*
X238142Y402102D01*
X238135Y402070D01*
X238122Y402045D01*
X238118Y401993D01*
X238104Y401926D01*
X238104Y401920D01*
X237628Y401479D01*
X237608Y401451D01*
X237576Y401423D01*
X237172Y400916D01*
X237167Y400915D01*
X237099Y400894D01*
X237030Y400880D01*
X237002Y400862D01*
X236976Y400854D01*
X236937Y400820D01*
X236878Y400783D01*
X235141Y399169D01*
X235099Y399112D01*
X235052Y399060D01*
X235040Y399029D01*
X235024Y399007D01*
X235012Y398956D01*
X234987Y398892D01*
X234986Y398886D01*
X234450Y398521D01*
X234426Y398496D01*
X234391Y398473D01*
X233915Y398032D01*
X233910Y398032D01*
X233840Y398021D01*
X233770Y398018D01*
X233740Y398004D01*
X233712Y398000D01*
X233668Y397972D01*
X233605Y397944D01*
X231646Y396608D01*
X231597Y396557D01*
X231542Y396513D01*
X231526Y396484D01*
X231506Y396464D01*
X231487Y396416D01*
X231453Y396356D01*
X231452Y396351D01*
X230867Y396069D01*
X230839Y396048D01*
X230801Y396031D01*
X230265Y395665D01*
X230260Y395666D01*
X230189Y395666D01*
X230119Y395673D01*
X230088Y395664D01*
X230060Y395664D01*
X230012Y395643D01*
X229946Y395625D01*
X227809Y394595D01*
X227753Y394553D01*
X227692Y394517D01*
X227672Y394491D01*
X227650Y394474D01*
X227624Y394430D01*
X227581Y394375D01*
X227579Y394370D01*
X226958Y394179D01*
X226928Y394162D01*
X226888Y394151D01*
X226303Y393870D01*
X226298Y393871D01*
X226228Y393881D01*
X226160Y393899D01*
X226127Y393895D01*
X226100Y393899D01*
X226050Y393886D01*
X225981Y393877D01*
X223715Y393178D01*
X223653Y393144D01*
X223588Y393118D01*
X223564Y393095D01*
X223539Y393082D01*
X223507Y393041D01*
X223457Y392994D01*
X223454Y392989D01*
X222812Y392893D01*
X222779Y392881D01*
X222738Y392876D01*
X222118Y392684D01*
X222113Y392687D01*
X222045Y392707D01*
X221981Y392735D01*
X221948Y392736D01*
X221921Y392744D01*
X221870Y392738D01*
X221800Y392740D01*
X219456Y392386D01*
X219389Y392361D01*
X219321Y392345D01*
X219294Y392327D01*
X219267Y392317D01*
X219229Y392282D01*
X219173Y392243D01*
X219169Y392239D01*
X218845Y392239D01*
X218842Y392238D01*
X218840Y392239D01*
X218744Y392218D01*
X218648Y392199D01*
X218646Y392198D01*
X218643Y392197D01*
X218562Y392141D01*
X218482Y392086D01*
X218481Y392084D01*
X218479Y392083D01*
X218425Y391998D01*
X218373Y391918D01*
X218373Y391916D01*
X218371Y391914D01*
X218355Y391816D01*
X218338Y391721D01*
X218338Y391718D01*
X218338Y391716D01*
X218360Y391622D01*
X218381Y391525D01*
X218383Y391523D01*
X218383Y391521D01*
X218486Y391373D01*
X219829Y390030D01*
X219829Y385634D01*
X216720Y382525D01*
X212324Y382525D01*
X209215Y385634D01*
X209215Y390030D01*
X211013Y391827D01*
X211027Y391848D01*
X211046Y391864D01*
X211082Y391931D01*
X211124Y391994D01*
X211128Y392019D01*
X211140Y392041D01*
X211147Y392117D01*
X211161Y392191D01*
X211156Y392216D01*
X211158Y392241D01*
X211135Y392313D01*
X211120Y392387D01*
X211105Y392408D01*
X211097Y392432D01*
X211048Y392489D01*
X211005Y392552D01*
X210984Y392565D01*
X210967Y392585D01*
X210900Y392619D01*
X210836Y392659D01*
X210811Y392663D01*
X210788Y392675D01*
X210713Y392680D01*
X210638Y392693D01*
X210614Y392687D01*
X210588Y392689D01*
X210534Y392671D01*
X209884Y392872D01*
X209850Y392875D01*
X209810Y392888D01*
X209169Y392985D01*
X209165Y392989D01*
X209113Y393037D01*
X209067Y393090D01*
X209038Y393105D01*
X209017Y393124D01*
X208968Y393141D01*
X208907Y393173D01*
X206640Y393871D01*
X206570Y393878D01*
X206501Y393893D01*
X206469Y393888D01*
X206441Y393891D01*
X206392Y393876D01*
X206323Y393865D01*
X206318Y393863D01*
X205733Y394145D01*
X205700Y394153D01*
X205663Y394172D01*
X205043Y394363D01*
X205040Y394368D01*
X204996Y394423D01*
X204958Y394482D01*
X204931Y394502D01*
X204913Y394523D01*
X204868Y394547D01*
X204812Y394588D01*
X203574Y395184D01*
X203490Y395205D01*
X203407Y395231D01*
X203393Y395230D01*
X203380Y395233D01*
X203294Y395220D01*
X203208Y395212D01*
X203195Y395206D01*
X203181Y395204D01*
X203108Y395159D01*
X203031Y395118D01*
X203021Y395106D01*
X203010Y395099D01*
X202977Y395055D01*
X202915Y394980D01*
X184023Y362259D01*
X182786Y363113D01*
X182759Y363124D01*
X182737Y363143D01*
X182668Y363163D01*
X182603Y363191D01*
X182574Y363191D01*
X182546Y363199D01*
X182475Y363191D01*
X182404Y363192D01*
X182377Y363180D01*
X182348Y363177D01*
X182286Y363142D01*
X182221Y363114D01*
X182200Y363094D01*
X182175Y363079D01*
X182112Y363002D01*
X182082Y362972D01*
X182078Y362962D01*
X182069Y362951D01*
X172569Y346451D01*
X172545Y346378D01*
X172514Y346308D01*
X172514Y346284D01*
X172506Y346262D01*
X172513Y346186D01*
X172512Y346109D01*
X172521Y346085D01*
X172522Y346064D01*
X172543Y346025D01*
X172562Y345973D01*
X172563Y345967D01*
X172565Y345965D01*
X172569Y345953D01*
X182069Y329453D01*
X182088Y329431D01*
X182101Y329405D01*
X182154Y329357D01*
X182201Y329304D01*
X182227Y329291D01*
X182249Y329272D01*
X182316Y329249D01*
X182380Y329218D01*
X182409Y329217D01*
X182436Y329207D01*
X182508Y329212D01*
X182579Y329209D01*
X182606Y329219D01*
X182635Y329221D01*
X182725Y329263D01*
X182765Y329278D01*
X182773Y329285D01*
X182786Y329291D01*
X184023Y330145D01*
X202915Y297424D01*
X202972Y297359D01*
X203026Y297291D01*
X203038Y297284D01*
X203047Y297273D01*
X203125Y297236D01*
X203201Y297194D01*
X203215Y297192D01*
X203228Y297186D01*
X203314Y297182D01*
X203400Y297172D01*
X203415Y297176D01*
X203428Y297176D01*
X203480Y297194D01*
X203574Y297220D01*
X204812Y297816D01*
X204868Y297859D01*
X204929Y297894D01*
X204949Y297920D01*
X204972Y297937D01*
X204997Y297981D01*
X205040Y298036D01*
X205043Y298041D01*
X205663Y298232D01*
X205693Y298248D01*
X205733Y298259D01*
X206318Y298541D01*
X206323Y298539D01*
X206393Y298529D01*
X206462Y298511D01*
X206494Y298515D01*
X206522Y298511D01*
X206572Y298525D01*
X206640Y298533D01*
X208907Y299231D01*
X208969Y299265D01*
X209034Y299291D01*
X209058Y299314D01*
X209083Y299327D01*
X209115Y299367D01*
X209165Y299415D01*
X209169Y299419D01*
X209810Y299516D01*
X209843Y299527D01*
X209884Y299532D01*
X210504Y299724D01*
X210509Y299721D01*
X210533Y299714D01*
X210543Y299708D01*
X210569Y299703D01*
X210577Y299701D01*
X210642Y299673D01*
X210674Y299672D01*
X210701Y299664D01*
X210753Y299670D01*
X210822Y299668D01*
X213167Y300020D01*
X213233Y300044D01*
X213302Y300061D01*
X213329Y300079D01*
X213355Y300089D01*
X213393Y300124D01*
X213450Y300163D01*
X213454Y300167D01*
X214103Y300167D01*
X214137Y300174D01*
X214178Y300173D01*
X214820Y300269D01*
X214824Y300266D01*
X214888Y300236D01*
X214948Y300199D01*
X214981Y300193D01*
X215006Y300181D01*
X215058Y300179D01*
X215126Y300167D01*
X217497Y300166D01*
X217566Y300180D01*
X217637Y300185D01*
X217666Y300200D01*
X217693Y300205D01*
X217736Y300234D01*
X217798Y300265D01*
X217803Y300268D01*
X218444Y300171D01*
X218479Y300173D01*
X218520Y300165D01*
X219169Y300165D01*
X219173Y300161D01*
X219231Y300122D01*
X219285Y300077D01*
X219316Y300066D01*
X219340Y300050D01*
X219390Y300041D01*
X219456Y300018D01*
X221800Y299664D01*
X221871Y299668D01*
X221941Y299663D01*
X221973Y299673D01*
X222001Y299674D01*
X222047Y299696D01*
X222113Y299717D01*
X222118Y299720D01*
X222738Y299528D01*
X222772Y299525D01*
X222812Y299511D01*
X223454Y299415D01*
X223457Y299410D01*
X223509Y299363D01*
X223555Y299309D01*
X223585Y299294D01*
X223605Y299275D01*
X223654Y299258D01*
X223715Y299226D01*
X225981Y298527D01*
X226051Y298520D01*
X226120Y298504D01*
X226153Y298509D01*
X226181Y298507D01*
X226230Y298522D01*
X226298Y298533D01*
X226303Y298534D01*
X226888Y298253D01*
X226922Y298244D01*
X226958Y298225D01*
X227578Y298034D01*
X227581Y298029D01*
X227626Y297974D01*
X227664Y297914D01*
X227690Y297895D01*
X227708Y297873D01*
X227753Y297849D01*
X227809Y297809D01*
X229946Y296779D01*
X230014Y296762D01*
X230080Y296736D01*
X230113Y296736D01*
X230140Y296729D01*
X230191Y296737D01*
X230260Y296738D01*
X230265Y296739D01*
X230801Y296373D01*
X230833Y296359D01*
X230867Y296335D01*
X231452Y296053D01*
X231453Y296048D01*
X231489Y295987D01*
X231518Y295923D01*
X231541Y295900D01*
X231556Y295876D01*
X231597Y295845D01*
X231646Y295796D01*
X233605Y294460D01*
X233670Y294432D01*
X233732Y294397D01*
X233764Y294393D01*
X233790Y294382D01*
X233841Y294382D01*
X233910Y294372D01*
X233915Y294372D01*
X234391Y293931D01*
X234421Y293913D01*
X234450Y293883D01*
X234986Y293518D01*
X234987Y293512D01*
X235014Y293447D01*
X235032Y293379D01*
X235052Y293352D01*
X235063Y293327D01*
X235099Y293290D01*
X235141Y293235D01*
X236878Y291621D01*
X236938Y291584D01*
X236994Y291541D01*
X237025Y291531D01*
X237049Y291517D01*
X237100Y291509D01*
X237167Y291489D01*
X237172Y291488D01*
X237576Y290981D01*
X237603Y290958D01*
X237628Y290925D01*
X238104Y290484D01*
X238104Y290478D01*
X238120Y290409D01*
X238128Y290339D01*
X238144Y290311D01*
X238151Y290283D01*
X238181Y290242D01*
X238214Y290181D01*
X239692Y288326D01*
X239746Y288281D01*
X239794Y288229D01*
X239824Y288215D01*
X239845Y288197D01*
X239895Y288182D01*
X239957Y288153D01*
X239962Y288151D01*
X240287Y287589D01*
X240310Y287563D01*
X240329Y287526D01*
X240734Y287019D01*
X240733Y287014D01*
X240735Y286989D01*
X240734Y286984D01*
X240737Y286975D01*
X240739Y286943D01*
X240737Y286873D01*
X240748Y286842D01*
X240750Y286814D01*
X240774Y286768D01*
X240798Y286703D01*
X241983Y284649D01*
X242030Y284596D01*
X242070Y284538D01*
X242097Y284520D01*
X242115Y284499D01*
X242162Y284476D01*
X242219Y284438D01*
X242224Y284435D01*
X242461Y283831D01*
X242480Y283802D01*
X242494Y283763D01*
X242818Y283201D01*
X242817Y283196D01*
X242812Y283125D01*
X242800Y283056D01*
X242806Y283024D01*
X242804Y282996D01*
X242821Y282947D01*
X242835Y282879D01*
X243700Y280671D01*
X243738Y280612D01*
X243769Y280549D01*
X243794Y280526D01*
X243809Y280503D01*
X243851Y280474D01*
X243902Y280427D01*
X243907Y280424D01*
X244051Y279791D01*
X244066Y279760D01*
X244074Y279719D01*
X244311Y279115D01*
X244308Y279110D01*
X244293Y279041D01*
X244270Y278974D01*
X244272Y278941D01*
X244266Y278914D01*
X244273Y278874D01*
X244272Y278868D01*
X244276Y278853D01*
X244279Y278794D01*
X244806Y276482D01*
X244834Y276418D01*
X244856Y276350D01*
X244876Y276325D01*
X244888Y276299D01*
X244926Y276264D01*
X244969Y276210D01*
X244973Y276207D01*
X245022Y275560D01*
X245031Y275526D01*
X245033Y275485D01*
X245177Y274852D01*
X245174Y274847D01*
X245149Y274781D01*
X245116Y274719D01*
X245113Y274686D01*
X245103Y274660D01*
X245105Y274608D01*
X245098Y274540D01*
X245233Y272720D01*
X245256Y272639D01*
X245274Y272556D01*
X245283Y272543D01*
X245288Y272527D01*
X245340Y272461D01*
X245388Y272392D01*
X245402Y272383D01*
X245412Y272370D01*
X245486Y272329D01*
X245557Y272284D01*
X245573Y272281D01*
X245588Y272273D01*
X245672Y272265D01*
X245755Y272251D01*
X245771Y272254D01*
X245787Y272253D01*
X245868Y272277D01*
X245950Y272296D01*
X245964Y272306D01*
X245979Y272311D01*
X246022Y272346D01*
X246098Y272399D01*
X246849Y273150D01*
X251245Y273150D01*
X254354Y270041D01*
X254354Y265645D01*
X251245Y262536D01*
X246849Y262536D01*
X245205Y264180D01*
X245166Y264206D01*
X245134Y264239D01*
X245084Y264261D01*
X245038Y264291D01*
X244992Y264300D01*
X244949Y264318D01*
X244895Y264318D01*
X244841Y264329D01*
X244796Y264319D01*
X244749Y264319D01*
X244699Y264298D01*
X244645Y264287D01*
X244607Y264260D01*
X244564Y264242D01*
X244525Y264204D01*
X244481Y264173D01*
X244456Y264133D01*
X244423Y264100D01*
X244399Y264044D01*
X244373Y264003D01*
X244367Y263971D01*
X244352Y263934D01*
X244274Y263592D01*
X244272Y263521D01*
X244262Y263451D01*
X244269Y263420D01*
X244269Y263392D01*
X244287Y263343D01*
X244303Y263276D01*
X244305Y263271D01*
X244068Y262667D01*
X244062Y262633D01*
X244046Y262595D01*
X243901Y261962D01*
X243897Y261959D01*
X243845Y261911D01*
X243789Y261868D01*
X243772Y261841D01*
X243751Y261821D01*
X243730Y261774D01*
X243694Y261715D01*
X242827Y259508D01*
X242815Y259438D01*
X242794Y259371D01*
X242797Y259338D01*
X242792Y259311D01*
X242803Y259260D01*
X242809Y259191D01*
X242811Y259186D01*
X242486Y258624D01*
X242475Y258591D01*
X242453Y258556D01*
X242216Y257952D01*
X242211Y257950D01*
X242153Y257909D01*
X242091Y257876D01*
X242069Y257851D01*
X242046Y257835D01*
X242019Y257791D01*
X241974Y257739D01*
X240788Y255685D01*
X240765Y255618D01*
X240735Y255555D01*
X240733Y255522D01*
X240724Y255495D01*
X240728Y255444D01*
X240723Y255375D01*
X240724Y255369D01*
X240319Y254862D01*
X240303Y254831D01*
X240276Y254800D01*
X239952Y254238D01*
X239946Y254236D01*
X239883Y254205D01*
X239816Y254181D01*
X239792Y254160D01*
X239767Y254147D01*
X239733Y254108D01*
X239681Y254063D01*
X238202Y252209D01*
X238170Y252146D01*
X238130Y252088D01*
X238123Y252056D01*
X238110Y252031D01*
X238106Y251979D01*
X238091Y251912D01*
X238091Y251906D01*
X237615Y251465D01*
X237595Y251437D01*
X237564Y251410D01*
X237159Y250902D01*
X237154Y250902D01*
X237086Y250880D01*
X237017Y250867D01*
X236989Y250849D01*
X236963Y250840D01*
X236923Y250807D01*
X236865Y250770D01*
X235126Y249157D01*
X235085Y249100D01*
X235037Y249048D01*
X235026Y249017D01*
X235009Y248995D01*
X234998Y248944D01*
X234973Y248880D01*
X234972Y248874D01*
X234436Y248509D01*
X234411Y248484D01*
X234376Y248462D01*
X233901Y248020D01*
X233895Y248021D01*
X233825Y248009D01*
X233755Y248006D01*
X233725Y247993D01*
X233697Y247989D01*
X233653Y247961D01*
X233590Y247933D01*
X232470Y247170D01*
X232410Y247108D01*
X232346Y247049D01*
X232340Y247036D01*
X232330Y247026D01*
X232298Y246946D01*
X232262Y246867D01*
X232261Y246853D01*
X232256Y246840D01*
X232258Y246753D01*
X232255Y246667D01*
X232260Y246653D01*
X232261Y246640D01*
X232283Y246589D01*
X232316Y246497D01*
X251207Y213777D01*
X249889Y213153D01*
X249866Y213136D01*
X249839Y213126D01*
X249787Y213077D01*
X249729Y213034D01*
X249715Y213009D01*
X249694Y212990D01*
X249665Y212924D01*
X249629Y212862D01*
X249626Y212834D01*
X249614Y212808D01*
X249613Y212736D01*
X249604Y212665D01*
X249612Y212638D01*
X249612Y212609D01*
X249647Y212514D01*
X249658Y212474D01*
X249665Y212465D01*
X249669Y212453D01*
X259169Y195953D01*
X259221Y195895D01*
X259267Y195832D01*
X259286Y195821D01*
X259301Y195804D01*
X259371Y195770D01*
X259438Y195730D01*
X259463Y195726D01*
X259480Y195718D01*
X259525Y195716D01*
X259602Y195703D01*
X278602Y195703D01*
X278630Y195708D01*
G37*
%LPC*%
G36*
X298181Y265556D02*
X298181Y265556D01*
X298020Y265718D01*
X298013Y265722D01*
X298009Y265728D01*
X297930Y265777D01*
X297853Y265829D01*
X297845Y265830D01*
X297839Y265834D01*
X297661Y265866D01*
X285619Y265866D01*
X284726Y266759D01*
X284726Y292023D01*
X285619Y292916D01*
X292366Y292916D01*
X292371Y292917D01*
X292376Y292916D01*
X292469Y292937D01*
X292563Y292955D01*
X292567Y292958D01*
X292572Y292959D01*
X292650Y293015D01*
X292728Y293068D01*
X292731Y293072D01*
X292735Y293075D01*
X292786Y293157D01*
X292838Y293236D01*
X292838Y293241D01*
X292841Y293246D01*
X292873Y293423D01*
X292873Y313409D01*
X292872Y313414D01*
X292873Y313419D01*
X292852Y313512D01*
X292834Y313606D01*
X292831Y313610D01*
X292830Y313615D01*
X292775Y313692D01*
X292721Y313771D01*
X292717Y313774D01*
X292714Y313778D01*
X292632Y313829D01*
X292553Y313881D01*
X292548Y313881D01*
X292543Y313884D01*
X292366Y313916D01*
X284248Y313916D01*
X283355Y314809D01*
X283355Y341286D01*
X283384Y341330D01*
X283436Y341409D01*
X283437Y341415D01*
X283440Y341419D01*
X283456Y341513D01*
X283474Y341606D01*
X283473Y341611D01*
X283474Y341617D01*
X283452Y341709D01*
X283432Y341802D01*
X283429Y341807D01*
X283428Y341812D01*
X283325Y341960D01*
X273771Y351514D01*
X271539Y353746D01*
X271539Y354109D01*
X271538Y354114D01*
X271539Y354119D01*
X271518Y354212D01*
X271500Y354306D01*
X271497Y354310D01*
X271496Y354315D01*
X271440Y354393D01*
X271387Y354471D01*
X271383Y354474D01*
X271380Y354478D01*
X271298Y354529D01*
X271219Y354581D01*
X271214Y354581D01*
X271209Y354584D01*
X271032Y354616D01*
X266964Y354616D01*
X266071Y355509D01*
X266071Y376773D01*
X266964Y377666D01*
X278700Y377666D01*
X278707Y377667D01*
X278715Y377666D01*
X278805Y377687D01*
X278896Y377705D01*
X278903Y377710D01*
X278910Y377712D01*
X279058Y377814D01*
X279505Y378261D01*
X281737Y380493D01*
X332835Y380493D01*
X332842Y380494D01*
X332850Y380493D01*
X332940Y380514D01*
X333031Y380532D01*
X333038Y380537D01*
X333045Y380539D01*
X333193Y380641D01*
X337925Y385373D01*
X337929Y385379D01*
X337935Y385384D01*
X337984Y385462D01*
X338036Y385540D01*
X338037Y385547D01*
X338041Y385554D01*
X338073Y385731D01*
X338073Y398319D01*
X338072Y398327D01*
X338073Y398335D01*
X338052Y398425D01*
X338034Y398516D01*
X338029Y398522D01*
X338027Y398530D01*
X337925Y398678D01*
X337311Y399291D01*
X337311Y420367D01*
X338204Y421260D01*
X345056Y421260D01*
X345949Y420367D01*
X345949Y399291D01*
X345335Y398678D01*
X345331Y398671D01*
X345325Y398667D01*
X345276Y398589D01*
X345224Y398511D01*
X345223Y398503D01*
X345219Y398497D01*
X345187Y398319D01*
X345187Y382575D01*
X335991Y373379D01*
X321350Y373379D01*
X321347Y373379D01*
X321344Y373379D01*
X321250Y373359D01*
X321153Y373340D01*
X321151Y373338D01*
X321148Y373338D01*
X321068Y373282D01*
X320987Y373227D01*
X320986Y373225D01*
X320984Y373223D01*
X320930Y373140D01*
X320878Y373059D01*
X320878Y373056D01*
X320876Y373054D01*
X320860Y372957D01*
X320842Y372862D01*
X320843Y372859D01*
X320843Y372857D01*
X320865Y372762D01*
X320886Y372666D01*
X320888Y372664D01*
X320888Y372661D01*
X320991Y372513D01*
X321913Y371592D01*
X321913Y355328D01*
X321020Y354435D01*
X315976Y354435D01*
X315971Y354434D01*
X315966Y354435D01*
X315873Y354414D01*
X315779Y354396D01*
X315775Y354393D01*
X315770Y354392D01*
X315692Y354336D01*
X315614Y354283D01*
X315611Y354279D01*
X315607Y354276D01*
X315556Y354194D01*
X315504Y354115D01*
X315504Y354110D01*
X315501Y354105D01*
X315469Y353928D01*
X315469Y325660D01*
X315470Y325653D01*
X315469Y325645D01*
X315490Y325555D01*
X315508Y325464D01*
X315513Y325457D01*
X315515Y325450D01*
X315617Y325302D01*
X315688Y325231D01*
X315690Y325229D01*
X315692Y325227D01*
X315774Y325174D01*
X315855Y325120D01*
X315858Y325119D01*
X315860Y325118D01*
X315957Y325100D01*
X316052Y325082D01*
X316055Y325083D01*
X316057Y325082D01*
X316154Y325104D01*
X316248Y325124D01*
X316250Y325125D01*
X316253Y325126D01*
X316334Y325183D01*
X316413Y325238D01*
X316414Y325240D01*
X316416Y325242D01*
X316469Y325326D01*
X316520Y325407D01*
X316521Y325410D01*
X316522Y325412D01*
X316554Y325589D01*
X316554Y344390D01*
X317865Y345701D01*
X323993Y345701D01*
X325304Y344390D01*
X325304Y324462D01*
X324416Y323574D01*
X324414Y323571D01*
X324412Y323570D01*
X324360Y323490D01*
X324305Y323407D01*
X324304Y323404D01*
X324303Y323402D01*
X324285Y323306D01*
X324267Y323210D01*
X324268Y323207D01*
X324267Y323205D01*
X324289Y323108D01*
X324309Y323014D01*
X324310Y323012D01*
X324311Y323009D01*
X324367Y322929D01*
X324423Y322849D01*
X324425Y322848D01*
X324427Y322846D01*
X324510Y322794D01*
X324592Y322742D01*
X324595Y322741D01*
X324597Y322740D01*
X324774Y322708D01*
X329784Y322708D01*
X329786Y322708D01*
X329789Y322708D01*
X329884Y322728D01*
X329980Y322747D01*
X329982Y322749D01*
X329985Y322749D01*
X330066Y322805D01*
X330146Y322860D01*
X330147Y322862D01*
X330150Y322864D01*
X330203Y322947D01*
X330255Y323028D01*
X330256Y323031D01*
X330257Y323033D01*
X330274Y323129D01*
X330291Y323225D01*
X330290Y323228D01*
X330291Y323230D01*
X330269Y323325D01*
X330247Y323421D01*
X330246Y323423D01*
X330245Y323426D01*
X330142Y323574D01*
X329254Y324462D01*
X329254Y344390D01*
X330565Y345701D01*
X336693Y345701D01*
X338004Y344390D01*
X338004Y324462D01*
X337116Y323574D01*
X337114Y323571D01*
X337112Y323570D01*
X337060Y323490D01*
X337005Y323407D01*
X337004Y323404D01*
X337003Y323402D01*
X336985Y323306D01*
X336967Y323210D01*
X336968Y323207D01*
X336967Y323205D01*
X336989Y323108D01*
X337009Y323014D01*
X337010Y323012D01*
X337011Y323009D01*
X337067Y322929D01*
X337123Y322849D01*
X337125Y322848D01*
X337127Y322846D01*
X337210Y322794D01*
X337292Y322742D01*
X337295Y322741D01*
X337297Y322740D01*
X337474Y322708D01*
X342265Y322708D01*
X342270Y322709D01*
X342275Y322708D01*
X342368Y322729D01*
X342462Y322747D01*
X342466Y322750D01*
X342471Y322751D01*
X342549Y322807D01*
X342627Y322860D01*
X342630Y322864D01*
X342634Y322867D01*
X342685Y322949D01*
X342737Y323028D01*
X342737Y323033D01*
X342740Y323038D01*
X342772Y323215D01*
X342772Y323434D01*
X342771Y323441D01*
X342772Y323449D01*
X342751Y323539D01*
X342733Y323630D01*
X342728Y323637D01*
X342726Y323644D01*
X342624Y323792D01*
X341954Y324462D01*
X341954Y344390D01*
X343265Y345701D01*
X349393Y345701D01*
X350704Y344390D01*
X350704Y324462D01*
X350034Y323792D01*
X350030Y323786D01*
X350024Y323781D01*
X349975Y323703D01*
X349923Y323625D01*
X349922Y323618D01*
X349918Y323611D01*
X349886Y323434D01*
X349886Y320834D01*
X349887Y320827D01*
X349886Y320819D01*
X349907Y320729D01*
X349925Y320638D01*
X349930Y320631D01*
X349932Y320624D01*
X350034Y320476D01*
X364418Y306092D01*
X364424Y306088D01*
X364429Y306082D01*
X364507Y306033D01*
X364585Y305981D01*
X364592Y305980D01*
X364599Y305976D01*
X364776Y305944D01*
X401861Y305944D01*
X401869Y305945D01*
X401876Y305944D01*
X401966Y305965D01*
X402057Y305983D01*
X402064Y305988D01*
X402071Y305990D01*
X402219Y306092D01*
X403821Y307694D01*
X408217Y307694D01*
X411326Y304585D01*
X411326Y300189D01*
X408601Y297464D01*
X408217Y297080D01*
X403821Y297080D01*
X403437Y297464D01*
X402219Y298682D01*
X402213Y298686D01*
X402208Y298692D01*
X402130Y298741D01*
X402052Y298793D01*
X402045Y298794D01*
X402038Y298798D01*
X401861Y298830D01*
X361620Y298830D01*
X345004Y315446D01*
X344998Y315450D01*
X344993Y315456D01*
X344915Y315505D01*
X344837Y315557D01*
X344830Y315558D01*
X344823Y315562D01*
X344646Y315594D01*
X315265Y315594D01*
X310587Y320272D01*
X310371Y320488D01*
X310368Y320490D01*
X310367Y320492D01*
X310286Y320545D01*
X310204Y320599D01*
X310201Y320600D01*
X310199Y320601D01*
X310102Y320619D01*
X310007Y320637D01*
X310004Y320636D01*
X310002Y320637D01*
X309905Y320615D01*
X309811Y320595D01*
X309809Y320594D01*
X309806Y320593D01*
X309726Y320536D01*
X309646Y320481D01*
X309645Y320479D01*
X309643Y320477D01*
X309591Y320394D01*
X309539Y320312D01*
X309538Y320309D01*
X309537Y320307D01*
X309505Y320130D01*
X309505Y314809D01*
X308612Y313916D01*
X300494Y313916D01*
X300489Y313915D01*
X300484Y313916D01*
X300391Y313895D01*
X300297Y313877D01*
X300293Y313874D01*
X300288Y313873D01*
X300210Y313817D01*
X300132Y313764D01*
X300129Y313760D01*
X300125Y313757D01*
X300074Y313675D01*
X300022Y313596D01*
X300022Y313591D01*
X300019Y313586D01*
X299987Y313409D01*
X299987Y293423D01*
X299988Y293418D01*
X299987Y293413D01*
X300008Y293320D01*
X300026Y293226D01*
X300029Y293222D01*
X300030Y293217D01*
X300086Y293139D01*
X300139Y293061D01*
X300143Y293058D01*
X300146Y293054D01*
X300228Y293003D01*
X300307Y292951D01*
X300312Y292951D01*
X300317Y292948D01*
X300494Y292916D01*
X301883Y292916D01*
X302776Y292023D01*
X302776Y271653D01*
X302777Y271648D01*
X302776Y271643D01*
X302797Y271550D01*
X302815Y271456D01*
X302818Y271452D01*
X302819Y271447D01*
X302875Y271369D01*
X302928Y271291D01*
X302932Y271288D01*
X302935Y271284D01*
X303017Y271233D01*
X303096Y271181D01*
X303101Y271181D01*
X303106Y271178D01*
X303283Y271146D01*
X328324Y271146D01*
X328332Y271147D01*
X328340Y271146D01*
X328430Y271167D01*
X328521Y271185D01*
X328527Y271190D01*
X328535Y271192D01*
X328683Y271294D01*
X330394Y273005D01*
X330397Y273009D01*
X330401Y273012D01*
X330452Y273093D01*
X330505Y273172D01*
X330506Y273177D01*
X330508Y273182D01*
X330524Y273275D01*
X330542Y273369D01*
X330541Y273374D01*
X330542Y273379D01*
X330520Y273472D01*
X330501Y273565D01*
X330498Y273569D01*
X330496Y273574D01*
X330394Y273722D01*
X329254Y274862D01*
X329254Y294790D01*
X330565Y296101D01*
X336693Y296101D01*
X338004Y294790D01*
X338004Y288128D01*
X338005Y288123D01*
X338004Y288118D01*
X338025Y288025D01*
X338043Y287931D01*
X338046Y287927D01*
X338047Y287922D01*
X338103Y287844D01*
X338156Y287766D01*
X338160Y287763D01*
X338163Y287759D01*
X338245Y287708D01*
X338324Y287656D01*
X338329Y287656D01*
X338334Y287653D01*
X338511Y287621D01*
X341447Y287621D01*
X341452Y287622D01*
X341457Y287621D01*
X341550Y287642D01*
X341644Y287660D01*
X341648Y287663D01*
X341653Y287664D01*
X341731Y287720D01*
X341809Y287773D01*
X341812Y287777D01*
X341816Y287780D01*
X341867Y287862D01*
X341919Y287941D01*
X341919Y287946D01*
X341922Y287951D01*
X341954Y288128D01*
X341954Y294790D01*
X343265Y296101D01*
X349393Y296101D01*
X350704Y294790D01*
X350704Y274862D01*
X349393Y273551D01*
X343265Y273551D01*
X341954Y274862D01*
X341954Y281524D01*
X341953Y281529D01*
X341954Y281534D01*
X341933Y281627D01*
X341915Y281721D01*
X341912Y281725D01*
X341911Y281730D01*
X341855Y281808D01*
X341802Y281886D01*
X341798Y281889D01*
X341795Y281893D01*
X341713Y281944D01*
X341634Y281996D01*
X341629Y281996D01*
X341624Y281999D01*
X341447Y282031D01*
X338511Y282031D01*
X338506Y282030D01*
X338501Y282031D01*
X338408Y282010D01*
X338314Y281992D01*
X338310Y281989D01*
X338305Y281988D01*
X338227Y281932D01*
X338149Y281879D01*
X338146Y281875D01*
X338142Y281872D01*
X338091Y281790D01*
X338039Y281711D01*
X338039Y281706D01*
X338036Y281701D01*
X338004Y281524D01*
X338004Y274862D01*
X336572Y273430D01*
X336568Y273424D01*
X336562Y273419D01*
X336513Y273341D01*
X336461Y273263D01*
X336460Y273256D01*
X336456Y273249D01*
X336424Y273072D01*
X336424Y271130D01*
X330850Y265556D01*
X298181Y265556D01*
G37*
%LPD*%
%LPC*%
G36*
X370039Y277014D02*
X370039Y277014D01*
X366930Y280123D01*
X366930Y284519D01*
X370039Y287628D01*
X374435Y287628D01*
X376545Y285518D01*
X376551Y285514D01*
X376556Y285508D01*
X376634Y285459D01*
X376712Y285407D01*
X376719Y285406D01*
X376726Y285402D01*
X376903Y285370D01*
X432105Y285370D01*
X432113Y285371D01*
X432121Y285370D01*
X432210Y285391D01*
X432302Y285409D01*
X432308Y285414D01*
X432316Y285416D01*
X432464Y285518D01*
X448288Y301342D01*
X448292Y301349D01*
X448298Y301353D01*
X448347Y301432D01*
X448399Y301509D01*
X448400Y301517D01*
X448404Y301524D01*
X448436Y301701D01*
X448436Y335712D01*
X448435Y335720D01*
X448436Y335728D01*
X448415Y335817D01*
X448397Y335909D01*
X448392Y335915D01*
X448390Y335923D01*
X448288Y336071D01*
X443716Y340643D01*
X443713Y340644D01*
X443712Y340646D01*
X443631Y340699D01*
X443549Y340754D01*
X443546Y340754D01*
X443544Y340756D01*
X443448Y340773D01*
X443371Y340788D01*
X425480Y358678D01*
X425406Y358731D01*
X425337Y358791D01*
X425307Y358803D01*
X425281Y358822D01*
X425194Y358849D01*
X425109Y358883D01*
X425068Y358887D01*
X425045Y358894D01*
X425013Y358893D01*
X424942Y358901D01*
X420368Y358901D01*
X420337Y358932D01*
X420263Y358985D01*
X420196Y359043D01*
X420127Y359143D01*
X418434Y360836D01*
X413090Y366179D01*
X413086Y366182D01*
X413083Y366187D01*
X413002Y366238D01*
X412923Y366290D01*
X412918Y366291D01*
X412913Y366294D01*
X412820Y366310D01*
X412726Y366328D01*
X412721Y366327D01*
X412716Y366328D01*
X412623Y366306D01*
X412530Y366286D01*
X412526Y366283D01*
X412521Y366282D01*
X412373Y366179D01*
X411651Y365457D01*
X400387Y365457D01*
X399494Y366350D01*
X399494Y378614D01*
X400387Y379507D01*
X402463Y379507D01*
X402468Y379508D01*
X402473Y379507D01*
X402566Y379528D01*
X402660Y379546D01*
X402664Y379549D01*
X402669Y379550D01*
X402747Y379606D01*
X402825Y379659D01*
X402828Y379663D01*
X402832Y379666D01*
X402883Y379748D01*
X402935Y379827D01*
X402935Y379832D01*
X402938Y379837D01*
X402970Y380014D01*
X402970Y382272D01*
X402969Y382277D01*
X402970Y382282D01*
X402949Y382375D01*
X402931Y382469D01*
X402928Y382473D01*
X402927Y382478D01*
X402871Y382556D01*
X402818Y382634D01*
X402814Y382637D01*
X402811Y382641D01*
X402729Y382692D01*
X402650Y382744D01*
X402645Y382744D01*
X402640Y382747D01*
X402463Y382779D01*
X397887Y382779D01*
X396994Y383672D01*
X396994Y397936D01*
X397887Y398829D01*
X414151Y398829D01*
X415044Y397936D01*
X415044Y383672D01*
X414151Y382779D01*
X409575Y382779D01*
X409570Y382778D01*
X409565Y382779D01*
X409472Y382758D01*
X409378Y382740D01*
X409374Y382737D01*
X409369Y382736D01*
X409291Y382680D01*
X409213Y382627D01*
X409210Y382623D01*
X409206Y382620D01*
X409155Y382538D01*
X409103Y382459D01*
X409103Y382454D01*
X409100Y382449D01*
X409068Y382272D01*
X409068Y380014D01*
X409069Y380009D01*
X409068Y380004D01*
X409089Y379911D01*
X409107Y379817D01*
X409110Y379813D01*
X409111Y379808D01*
X409167Y379730D01*
X409220Y379652D01*
X409224Y379649D01*
X409227Y379645D01*
X409309Y379594D01*
X409388Y379542D01*
X409393Y379542D01*
X409398Y379539D01*
X409575Y379507D01*
X411651Y379507D01*
X412544Y378614D01*
X412544Y375559D01*
X412545Y375551D01*
X412544Y375543D01*
X412565Y375454D01*
X412583Y375362D01*
X412588Y375356D01*
X412590Y375348D01*
X412692Y375200D01*
X414296Y373596D01*
X419023Y368869D01*
X419026Y368868D01*
X419027Y368866D01*
X419108Y368813D01*
X419190Y368758D01*
X419193Y368758D01*
X419195Y368756D01*
X419291Y368739D01*
X419387Y368721D01*
X419390Y368721D01*
X419392Y368721D01*
X419489Y368742D01*
X419583Y368762D01*
X419585Y368764D01*
X419588Y368764D01*
X419668Y368821D01*
X419748Y368877D01*
X419749Y368879D01*
X419751Y368880D01*
X419803Y368963D01*
X419855Y369046D01*
X419856Y369048D01*
X419857Y369051D01*
X419889Y369228D01*
X419889Y373800D01*
X422998Y376909D01*
X427394Y376909D01*
X429504Y374799D01*
X429510Y374795D01*
X429515Y374789D01*
X429593Y374740D01*
X429671Y374688D01*
X429678Y374687D01*
X429685Y374683D01*
X429862Y374651D01*
X446886Y374651D01*
X452202Y369334D01*
X452208Y369330D01*
X452213Y369324D01*
X452292Y369275D01*
X452369Y369224D01*
X452376Y369222D01*
X452383Y369218D01*
X452560Y369186D01*
X461731Y369186D01*
X464088Y366828D01*
X464088Y358494D01*
X461731Y356136D01*
X447396Y356136D01*
X445039Y358494D01*
X445039Y366828D01*
X445203Y366993D01*
X445206Y366997D01*
X445210Y367000D01*
X445262Y367080D01*
X445314Y367160D01*
X445315Y367165D01*
X445318Y367169D01*
X445334Y367263D01*
X445352Y367356D01*
X445351Y367362D01*
X445351Y367367D01*
X445330Y367460D01*
X445310Y367553D01*
X445307Y367557D01*
X445306Y367562D01*
X445203Y367710D01*
X444508Y368405D01*
X444502Y368409D01*
X444497Y368415D01*
X444418Y368464D01*
X444341Y368516D01*
X444334Y368517D01*
X444327Y368521D01*
X444150Y368553D01*
X429862Y368553D01*
X429854Y368552D01*
X429847Y368553D01*
X429757Y368532D01*
X429666Y368514D01*
X429659Y368509D01*
X429652Y368507D01*
X429504Y368405D01*
X427394Y366295D01*
X422822Y366295D01*
X422819Y366295D01*
X422817Y366295D01*
X422721Y366275D01*
X422625Y366256D01*
X422623Y366254D01*
X422621Y366254D01*
X422540Y366197D01*
X422460Y366143D01*
X422458Y366141D01*
X422456Y366139D01*
X422403Y366056D01*
X422350Y365975D01*
X422350Y365972D01*
X422348Y365970D01*
X422332Y365874D01*
X422315Y365778D01*
X422315Y365775D01*
X422315Y365773D01*
X422337Y365679D01*
X422358Y365582D01*
X422360Y365580D01*
X422360Y365577D01*
X422463Y365429D01*
X422745Y365147D01*
X422752Y365143D01*
X422756Y365137D01*
X422835Y365088D01*
X422912Y365036D01*
X422920Y365035D01*
X422927Y365031D01*
X423104Y364999D01*
X427983Y364999D01*
X454534Y338448D01*
X454534Y298965D01*
X434841Y279272D01*
X376903Y279272D01*
X376895Y279271D01*
X376888Y279272D01*
X376798Y279251D01*
X376707Y279233D01*
X376700Y279228D01*
X376693Y279226D01*
X376545Y279124D01*
X374435Y277014D01*
X370039Y277014D01*
G37*
%LPD*%
G36*
X478143Y393769D02*
X478143Y393769D01*
X478186Y393768D01*
X482179Y394369D01*
X482209Y394380D01*
X482252Y394385D01*
X486111Y395574D01*
X486139Y395589D01*
X486180Y395601D01*
X489818Y397352D01*
X489840Y397369D01*
X489866Y397378D01*
X489919Y397428D01*
X489977Y397472D01*
X489990Y397496D01*
X490010Y397515D01*
X490040Y397581D01*
X490076Y397645D01*
X490079Y397672D01*
X490090Y397697D01*
X490091Y397770D01*
X490100Y397842D01*
X490092Y397868D01*
X490092Y397896D01*
X490056Y397994D01*
X490044Y398033D01*
X490038Y398041D01*
X490034Y398052D01*
X463034Y444852D01*
X463016Y444872D01*
X463005Y444897D01*
X462951Y444946D01*
X462903Y445001D01*
X462878Y445012D01*
X462858Y445031D01*
X462789Y445055D01*
X462723Y445086D01*
X462696Y445088D01*
X462671Y445097D01*
X462598Y445092D01*
X462525Y445095D01*
X462499Y445086D01*
X462472Y445084D01*
X462376Y445040D01*
X462338Y445026D01*
X462331Y445019D01*
X462321Y445015D01*
X458984Y442741D01*
X458962Y442718D01*
X458926Y442695D01*
X455965Y439949D01*
X455946Y439923D01*
X455914Y439895D01*
X453396Y436739D01*
X453381Y436710D01*
X453354Y436677D01*
X451334Y433181D01*
X451324Y433151D01*
X451301Y433114D01*
X449825Y429356D01*
X449820Y429324D01*
X449803Y429284D01*
X448903Y425348D01*
X448903Y425316D01*
X448892Y425274D01*
X448589Y421248D01*
X448592Y421225D01*
X448589Y421205D01*
X448591Y421195D01*
X448589Y421174D01*
X448890Y417147D01*
X448898Y417116D01*
X448901Y417073D01*
X449798Y413137D01*
X449811Y413108D01*
X449820Y413065D01*
X451294Y409306D01*
X451311Y409279D01*
X451326Y409239D01*
X453344Y405742D01*
X453365Y405718D01*
X453386Y405680D01*
X455902Y402522D01*
X455927Y402502D01*
X455953Y402468D01*
X458912Y399720D01*
X458939Y399704D01*
X458970Y399674D01*
X462306Y397398D01*
X462335Y397386D01*
X462370Y397361D01*
X466008Y395608D01*
X466038Y395600D01*
X466077Y395581D01*
X469935Y394389D01*
X469967Y394386D01*
X470008Y394373D01*
X474000Y393770D01*
X474032Y393771D01*
X474074Y393764D01*
X478112Y393763D01*
X478143Y393769D01*
G37*
G36*
X218330Y393764D02*
X218330Y393764D01*
X218361Y393770D01*
X218404Y393770D01*
X222396Y394373D01*
X222426Y394384D01*
X222469Y394389D01*
X226327Y395581D01*
X226355Y395596D01*
X226397Y395608D01*
X230034Y397361D01*
X230059Y397380D01*
X230098Y397398D01*
X233434Y399674D01*
X233456Y399697D01*
X233492Y399720D01*
X236451Y402468D01*
X236470Y402493D01*
X236502Y402522D01*
X239018Y405680D01*
X239033Y405708D01*
X239060Y405742D01*
X241078Y409239D01*
X241088Y409269D01*
X241110Y409306D01*
X242584Y413065D01*
X242590Y413097D01*
X242606Y413137D01*
X243503Y417073D01*
X243504Y417105D01*
X243514Y417147D01*
X243815Y421174D01*
X243811Y421205D01*
X243812Y421221D01*
X243815Y421238D01*
X243814Y421242D01*
X243815Y421248D01*
X243512Y425274D01*
X243503Y425305D01*
X243501Y425348D01*
X242601Y429284D01*
X242588Y429313D01*
X242579Y429356D01*
X241103Y433114D01*
X241085Y433141D01*
X241070Y433181D01*
X239050Y436677D01*
X239029Y436701D01*
X239008Y436739D01*
X236490Y439895D01*
X236465Y439915D01*
X236439Y439949D01*
X233478Y442695D01*
X233451Y442711D01*
X233420Y442741D01*
X230083Y445015D01*
X230058Y445025D01*
X230037Y445042D01*
X229967Y445063D01*
X229900Y445092D01*
X229872Y445092D01*
X229846Y445099D01*
X229774Y445091D01*
X229701Y445091D01*
X229676Y445080D01*
X229649Y445077D01*
X229585Y445041D01*
X229518Y445013D01*
X229499Y444993D01*
X229476Y444980D01*
X229409Y444899D01*
X229380Y444869D01*
X229377Y444860D01*
X229370Y444852D01*
X202370Y398052D01*
X202361Y398026D01*
X202345Y398003D01*
X202330Y397932D01*
X202306Y397863D01*
X202309Y397836D01*
X202303Y397809D01*
X202316Y397738D01*
X202322Y397665D01*
X202335Y397640D01*
X202340Y397614D01*
X202380Y397553D01*
X202414Y397488D01*
X202435Y397471D01*
X202450Y397448D01*
X202536Y397387D01*
X202567Y397362D01*
X202576Y397359D01*
X202586Y397352D01*
X206224Y395601D01*
X206255Y395594D01*
X206293Y395574D01*
X210152Y394385D01*
X210184Y394382D01*
X210225Y394369D01*
X214218Y393768D01*
X214249Y393770D01*
X214292Y393763D01*
X218330Y393764D01*
G37*
G36*
X462630Y247313D02*
X462630Y247313D01*
X462703Y247313D01*
X462728Y247324D01*
X462755Y247327D01*
X462819Y247363D01*
X462886Y247391D01*
X462905Y247411D01*
X462928Y247424D01*
X462996Y247505D01*
X463024Y247535D01*
X463027Y247544D01*
X463034Y247553D01*
X490034Y294353D01*
X490043Y294378D01*
X490059Y294401D01*
X490074Y294472D01*
X490098Y294541D01*
X490095Y294568D01*
X490101Y294595D01*
X490088Y294666D01*
X490082Y294739D01*
X490069Y294764D01*
X490064Y294790D01*
X490024Y294851D01*
X489990Y294916D01*
X489969Y294933D01*
X489954Y294956D01*
X489868Y295017D01*
X489837Y295042D01*
X489828Y295045D01*
X489818Y295052D01*
X486180Y296803D01*
X486149Y296810D01*
X486111Y296830D01*
X482252Y298019D01*
X482220Y298022D01*
X482179Y298035D01*
X478186Y298636D01*
X478155Y298634D01*
X478112Y298641D01*
X474074Y298640D01*
X474043Y298634D01*
X474000Y298634D01*
X470008Y298031D01*
X469978Y298020D01*
X469935Y298015D01*
X466077Y296823D01*
X466049Y296808D01*
X466008Y296796D01*
X462370Y295043D01*
X462345Y295024D01*
X462306Y295006D01*
X458970Y292730D01*
X458948Y292707D01*
X458912Y292684D01*
X455953Y289936D01*
X455934Y289911D01*
X455902Y289882D01*
X453386Y286724D01*
X453371Y286696D01*
X453344Y286662D01*
X451326Y283165D01*
X451316Y283135D01*
X451294Y283098D01*
X449820Y279339D01*
X449814Y279307D01*
X449798Y279267D01*
X448901Y275331D01*
X448900Y275299D01*
X448890Y275257D01*
X448589Y271231D01*
X448593Y271199D01*
X448589Y271156D01*
X448892Y267130D01*
X448901Y267099D01*
X448903Y267056D01*
X449803Y263120D01*
X449816Y263091D01*
X449825Y263048D01*
X451301Y259290D01*
X451319Y259263D01*
X451334Y259223D01*
X453354Y255727D01*
X453375Y255703D01*
X453396Y255665D01*
X455914Y252509D01*
X455939Y252489D01*
X455965Y252455D01*
X458926Y249709D01*
X458953Y249693D01*
X458984Y249663D01*
X462321Y247389D01*
X462346Y247379D01*
X462367Y247362D01*
X462437Y247341D01*
X462504Y247312D01*
X462532Y247313D01*
X462558Y247305D01*
X462630Y247313D01*
G37*
G36*
X229806Y247312D02*
X229806Y247312D01*
X229879Y247309D01*
X229905Y247318D01*
X229932Y247320D01*
X230028Y247364D01*
X230066Y247378D01*
X230073Y247385D01*
X230083Y247389D01*
X233420Y249663D01*
X233442Y249686D01*
X233478Y249709D01*
X236439Y252455D01*
X236458Y252481D01*
X236490Y252509D01*
X239008Y255665D01*
X239023Y255694D01*
X239050Y255727D01*
X241070Y259223D01*
X241080Y259253D01*
X241103Y259290D01*
X242579Y263048D01*
X242584Y263080D01*
X242601Y263120D01*
X243501Y267056D01*
X243501Y267088D01*
X243512Y267130D01*
X243815Y271156D01*
X243811Y271187D01*
X243815Y271231D01*
X243514Y275257D01*
X243506Y275288D01*
X243503Y275331D01*
X242606Y279267D01*
X242593Y279296D01*
X242584Y279339D01*
X241110Y283098D01*
X241093Y283125D01*
X241078Y283165D01*
X239060Y286662D01*
X239039Y286686D01*
X239018Y286724D01*
X236502Y289882D01*
X236477Y289902D01*
X236451Y289936D01*
X233492Y292684D01*
X233465Y292700D01*
X233434Y292730D01*
X230098Y295006D01*
X230069Y295018D01*
X230034Y295043D01*
X226397Y296796D01*
X226366Y296804D01*
X226327Y296823D01*
X222469Y298015D01*
X222437Y298018D01*
X222396Y298031D01*
X218404Y298634D01*
X218372Y298633D01*
X218330Y298640D01*
X214292Y298641D01*
X214261Y298635D01*
X214218Y298636D01*
X210225Y298035D01*
X210195Y298024D01*
X210152Y298019D01*
X206293Y296830D01*
X206265Y296815D01*
X206224Y296803D01*
X202586Y295052D01*
X202564Y295035D01*
X202538Y295026D01*
X202485Y294976D01*
X202427Y294932D01*
X202414Y294908D01*
X202394Y294889D01*
X202364Y294823D01*
X202328Y294759D01*
X202325Y294732D01*
X202314Y294707D01*
X202313Y294634D01*
X202304Y294562D01*
X202312Y294536D01*
X202312Y294508D01*
X202348Y294410D01*
X202360Y294371D01*
X202366Y294363D01*
X202370Y294353D01*
X229370Y247553D01*
X229388Y247532D01*
X229399Y247507D01*
X229453Y247458D01*
X229501Y247404D01*
X229526Y247392D01*
X229546Y247373D01*
X229615Y247349D01*
X229681Y247318D01*
X229708Y247317D01*
X229733Y247307D01*
X229806Y247312D01*
G37*
%LPC*%
G36*
X255576Y220515D02*
X255576Y220515D01*
X254683Y221408D01*
X254683Y240672D01*
X255576Y241565D01*
X278840Y241565D01*
X279733Y240672D01*
X279733Y238516D01*
X279733Y238514D01*
X279733Y238511D01*
X279753Y238416D01*
X279772Y238320D01*
X279774Y238318D01*
X279774Y238315D01*
X279830Y238234D01*
X279885Y238154D01*
X279887Y238153D01*
X279889Y238150D01*
X279972Y238097D01*
X280053Y238045D01*
X280056Y238044D01*
X280058Y238043D01*
X280154Y238026D01*
X280250Y238009D01*
X280253Y238010D01*
X280255Y238009D01*
X280349Y238031D01*
X280446Y238053D01*
X280448Y238054D01*
X280451Y238055D01*
X280599Y238158D01*
X281551Y239110D01*
X283078Y240637D01*
X283082Y240643D01*
X283088Y240648D01*
X283137Y240726D01*
X283189Y240804D01*
X283190Y240811D01*
X283194Y240818D01*
X283226Y240995D01*
X283226Y244017D01*
X284119Y244910D01*
X289687Y244910D01*
X289692Y244911D01*
X289697Y244910D01*
X289790Y244931D01*
X289884Y244949D01*
X289888Y244952D01*
X289893Y244953D01*
X289971Y245009D01*
X290049Y245062D01*
X290052Y245066D01*
X290056Y245069D01*
X290107Y245151D01*
X290159Y245230D01*
X290159Y245235D01*
X290162Y245240D01*
X290194Y245417D01*
X290194Y248359D01*
X290193Y248364D01*
X290194Y248369D01*
X290174Y248462D01*
X290155Y248556D01*
X290152Y248560D01*
X290151Y248565D01*
X290095Y248643D01*
X290042Y248721D01*
X290038Y248724D01*
X290035Y248728D01*
X289953Y248779D01*
X289874Y248831D01*
X289869Y248831D01*
X289864Y248834D01*
X289687Y248866D01*
X285619Y248866D01*
X284726Y249759D01*
X284726Y261523D01*
X285619Y262416D01*
X301883Y262416D01*
X302776Y261523D01*
X302776Y249759D01*
X301883Y248866D01*
X297815Y248866D01*
X297810Y248865D01*
X297805Y248866D01*
X297712Y248845D01*
X297618Y248827D01*
X297614Y248824D01*
X297609Y248823D01*
X297531Y248767D01*
X297453Y248714D01*
X297450Y248710D01*
X297446Y248707D01*
X297395Y248625D01*
X297343Y248546D01*
X297343Y248541D01*
X297340Y248536D01*
X297308Y248359D01*
X297308Y245417D01*
X297309Y245412D01*
X297308Y245407D01*
X297329Y245314D01*
X297347Y245220D01*
X297350Y245216D01*
X297351Y245211D01*
X297407Y245133D01*
X297460Y245055D01*
X297464Y245052D01*
X297467Y245048D01*
X297549Y244997D01*
X297628Y244945D01*
X297633Y244945D01*
X297638Y244942D01*
X297815Y244910D01*
X303383Y244910D01*
X304276Y244017D01*
X304276Y231553D01*
X303383Y230660D01*
X284119Y230660D01*
X283999Y230781D01*
X283995Y230784D01*
X283992Y230788D01*
X283911Y230839D01*
X283832Y230892D01*
X283827Y230893D01*
X283822Y230895D01*
X283729Y230911D01*
X283635Y230929D01*
X283630Y230928D01*
X283625Y230929D01*
X283532Y230907D01*
X283439Y230888D01*
X283435Y230885D01*
X283430Y230883D01*
X283282Y230781D01*
X282216Y229715D01*
X279881Y227380D01*
X279877Y227374D01*
X279871Y227369D01*
X279822Y227291D01*
X279770Y227213D01*
X279769Y227206D01*
X279765Y227199D01*
X279733Y227022D01*
X279733Y221408D01*
X278840Y220515D01*
X255576Y220515D01*
G37*
%LPD*%
%LPC*%
G36*
X376932Y360504D02*
X376932Y360504D01*
X376039Y361397D01*
X376039Y375661D01*
X376932Y376554D01*
X381508Y376554D01*
X381513Y376555D01*
X381518Y376554D01*
X381611Y376575D01*
X381705Y376593D01*
X381709Y376596D01*
X381714Y376597D01*
X381792Y376653D01*
X381870Y376706D01*
X381873Y376710D01*
X381877Y376713D01*
X381928Y376795D01*
X381980Y376874D01*
X381980Y376879D01*
X381983Y376884D01*
X382015Y377061D01*
X382015Y382272D01*
X382014Y382277D01*
X382015Y382282D01*
X381994Y382375D01*
X381976Y382469D01*
X381973Y382473D01*
X381972Y382478D01*
X381916Y382556D01*
X381863Y382634D01*
X381859Y382637D01*
X381856Y382641D01*
X381774Y382692D01*
X381695Y382744D01*
X381690Y382744D01*
X381685Y382747D01*
X381508Y382779D01*
X376932Y382779D01*
X376039Y383672D01*
X376039Y387248D01*
X376038Y387253D01*
X376039Y387258D01*
X376018Y387351D01*
X376000Y387445D01*
X375997Y387449D01*
X375996Y387454D01*
X375940Y387532D01*
X375887Y387610D01*
X375883Y387613D01*
X375880Y387617D01*
X375798Y387668D01*
X375719Y387720D01*
X375714Y387720D01*
X375709Y387723D01*
X375532Y387755D01*
X361932Y387755D01*
X351438Y398250D01*
X351431Y398254D01*
X351427Y398260D01*
X351348Y398309D01*
X351271Y398361D01*
X351263Y398362D01*
X351256Y398366D01*
X351079Y398398D01*
X350904Y398398D01*
X350011Y399291D01*
X350011Y420367D01*
X350904Y421260D01*
X357756Y421260D01*
X358649Y420367D01*
X358649Y399872D01*
X358650Y399864D01*
X358649Y399856D01*
X358670Y399767D01*
X358688Y399675D01*
X358693Y399669D01*
X358695Y399661D01*
X358797Y399513D01*
X364309Y394001D01*
X364316Y393997D01*
X364320Y393991D01*
X364399Y393942D01*
X364476Y393890D01*
X364484Y393889D01*
X364491Y393885D01*
X364668Y393853D01*
X375532Y393853D01*
X375537Y393854D01*
X375542Y393853D01*
X375635Y393874D01*
X375729Y393892D01*
X375733Y393895D01*
X375738Y393896D01*
X375816Y393952D01*
X375894Y394005D01*
X375897Y394009D01*
X375901Y394012D01*
X375952Y394094D01*
X376004Y394173D01*
X376004Y394178D01*
X376007Y394183D01*
X376039Y394360D01*
X376039Y397936D01*
X376932Y398829D01*
X393196Y398829D01*
X394089Y397936D01*
X394089Y383672D01*
X393196Y382779D01*
X388620Y382779D01*
X388615Y382778D01*
X388610Y382779D01*
X388517Y382758D01*
X388423Y382740D01*
X388419Y382737D01*
X388414Y382736D01*
X388336Y382680D01*
X388258Y382627D01*
X388255Y382623D01*
X388251Y382620D01*
X388200Y382538D01*
X388148Y382459D01*
X388148Y382454D01*
X388145Y382449D01*
X388113Y382272D01*
X388113Y377061D01*
X388114Y377056D01*
X388113Y377051D01*
X388134Y376958D01*
X388152Y376864D01*
X388155Y376860D01*
X388156Y376855D01*
X388212Y376777D01*
X388265Y376699D01*
X388269Y376696D01*
X388272Y376692D01*
X388354Y376641D01*
X388433Y376589D01*
X388438Y376589D01*
X388443Y376586D01*
X388620Y376554D01*
X393196Y376554D01*
X394089Y375661D01*
X394089Y361397D01*
X393196Y360504D01*
X376932Y360504D01*
G37*
%LPD*%
%LPC*%
G36*
X284119Y200860D02*
X284119Y200860D01*
X283226Y201753D01*
X283226Y214217D01*
X284119Y215110D01*
X303383Y215110D01*
X304276Y214217D01*
X304276Y212049D01*
X304277Y212044D01*
X304276Y212039D01*
X304297Y211946D01*
X304315Y211852D01*
X304318Y211848D01*
X304319Y211843D01*
X304375Y211765D01*
X304428Y211687D01*
X304432Y211684D01*
X304435Y211680D01*
X304517Y211629D01*
X304596Y211577D01*
X304601Y211577D01*
X304606Y211574D01*
X304783Y211542D01*
X317046Y211542D01*
X317053Y211543D01*
X317061Y211542D01*
X317151Y211563D01*
X317242Y211581D01*
X317249Y211586D01*
X317256Y211588D01*
X317404Y211690D01*
X324489Y218775D01*
X324493Y218781D01*
X324499Y218786D01*
X324548Y218864D01*
X324600Y218942D01*
X324601Y218949D01*
X324605Y218956D01*
X324637Y219133D01*
X324637Y225599D01*
X324636Y225605D01*
X324637Y225612D01*
X324616Y225703D01*
X324598Y225795D01*
X324594Y225801D01*
X324593Y225807D01*
X324538Y225884D01*
X324485Y225961D01*
X324480Y225965D01*
X324476Y225970D01*
X324324Y226067D01*
X322515Y226816D01*
X319695Y229636D01*
X318169Y233321D01*
X318169Y237309D01*
X319695Y240994D01*
X322515Y243814D01*
X322768Y243918D01*
X323992Y244425D01*
X323993Y244425D01*
X325217Y244933D01*
X326200Y245340D01*
X330188Y245340D01*
X333873Y243814D01*
X336693Y240994D01*
X338219Y237309D01*
X338219Y233321D01*
X336693Y229636D01*
X333873Y226816D01*
X333332Y226592D01*
X332107Y226085D01*
X332064Y226067D01*
X332058Y226064D01*
X332052Y226062D01*
X331975Y226008D01*
X331897Y225955D01*
X331894Y225950D01*
X331889Y225946D01*
X331839Y225866D01*
X331787Y225788D01*
X331786Y225782D01*
X331783Y225776D01*
X331751Y225599D01*
X331751Y215977D01*
X320202Y204428D01*
X304783Y204428D01*
X304778Y204427D01*
X304773Y204428D01*
X304680Y204407D01*
X304586Y204389D01*
X304582Y204386D01*
X304577Y204385D01*
X304499Y204329D01*
X304421Y204276D01*
X304418Y204272D01*
X304414Y204269D01*
X304363Y204187D01*
X304311Y204108D01*
X304311Y204103D01*
X304308Y204098D01*
X304276Y203921D01*
X304276Y201753D01*
X303383Y200860D01*
X284119Y200860D01*
G37*
%LPD*%
%LPC*%
G36*
X392556Y320627D02*
X392556Y320627D01*
X391909Y320800D01*
X391330Y321135D01*
X390857Y321608D01*
X390482Y322258D01*
X390406Y322351D01*
X390332Y322443D01*
X390329Y322445D01*
X390326Y322448D01*
X390225Y322512D01*
X390125Y322576D01*
X390121Y322577D01*
X390118Y322579D01*
X390001Y322607D01*
X389887Y322636D01*
X389882Y322636D01*
X389878Y322637D01*
X389759Y322626D01*
X389641Y322617D01*
X389638Y322615D01*
X389633Y322615D01*
X389523Y322567D01*
X389415Y322520D01*
X389411Y322517D01*
X389408Y322516D01*
X389398Y322506D01*
X389284Y322416D01*
X388305Y321436D01*
X374838Y321436D01*
X369315Y326959D01*
X369315Y343027D01*
X369301Y343117D01*
X369293Y343208D01*
X369281Y343238D01*
X369276Y343270D01*
X369233Y343350D01*
X369197Y343434D01*
X369171Y343466D01*
X369160Y343487D01*
X369137Y343509D01*
X369092Y343565D01*
X361314Y351343D01*
X361314Y353203D01*
X361845Y352672D01*
X361848Y352671D01*
X361849Y352668D01*
X361930Y352616D01*
X362012Y352561D01*
X362015Y352561D01*
X362017Y352559D01*
X362113Y352542D01*
X362209Y352523D01*
X362212Y352524D01*
X362214Y352524D01*
X362311Y352545D01*
X362405Y352565D01*
X362407Y352567D01*
X362410Y352567D01*
X362490Y352624D01*
X362570Y352679D01*
X362571Y352682D01*
X362573Y352683D01*
X362625Y352766D01*
X362677Y352849D01*
X362678Y352851D01*
X362679Y352853D01*
X362711Y353031D01*
X362711Y371091D01*
X363604Y371984D01*
X370456Y371984D01*
X371349Y371091D01*
X371349Y353390D01*
X371350Y353382D01*
X371349Y353374D01*
X371370Y353285D01*
X371388Y353193D01*
X371393Y353187D01*
X371395Y353179D01*
X371497Y353031D01*
X373478Y351050D01*
X375173Y349355D01*
X375176Y349354D01*
X375177Y349352D01*
X375258Y349299D01*
X375340Y349244D01*
X375343Y349244D01*
X375345Y349242D01*
X375441Y349225D01*
X375537Y349207D01*
X375540Y349207D01*
X375542Y349207D01*
X375639Y349228D01*
X375733Y349248D01*
X375735Y349250D01*
X375738Y349250D01*
X375818Y349307D01*
X375898Y349363D01*
X375899Y349365D01*
X375901Y349366D01*
X375954Y349450D01*
X376005Y349532D01*
X376006Y349534D01*
X376007Y349537D01*
X376039Y349714D01*
X376039Y356661D01*
X376932Y357554D01*
X383541Y357554D01*
X383541Y350291D01*
X383544Y350271D01*
X383542Y350252D01*
X383564Y350150D01*
X383581Y350048D01*
X383590Y350031D01*
X383594Y350011D01*
X383647Y349922D01*
X383696Y349831D01*
X383710Y349817D01*
X383720Y349800D01*
X383799Y349733D01*
X383874Y349662D01*
X383892Y349653D01*
X383907Y349640D01*
X384003Y349601D01*
X384097Y349558D01*
X384117Y349556D01*
X384135Y349548D01*
X384302Y349530D01*
X385065Y349530D01*
X385065Y349528D01*
X384302Y349528D01*
X384282Y349525D01*
X384263Y349527D01*
X384161Y349505D01*
X384059Y349488D01*
X384042Y349479D01*
X384022Y349475D01*
X383933Y349422D01*
X383842Y349373D01*
X383828Y349359D01*
X383811Y349349D01*
X383744Y349270D01*
X383673Y349195D01*
X383664Y349177D01*
X383651Y349162D01*
X383612Y349066D01*
X383569Y348972D01*
X383567Y348952D01*
X383559Y348934D01*
X383541Y348767D01*
X383541Y340488D01*
X377315Y340488D01*
X377244Y340477D01*
X377173Y340475D01*
X377124Y340457D01*
X377072Y340449D01*
X377009Y340415D01*
X376942Y340390D01*
X376901Y340358D01*
X376855Y340333D01*
X376806Y340281D01*
X376750Y340237D01*
X376721Y340193D01*
X376685Y340155D01*
X376655Y340090D01*
X376617Y340030D01*
X376604Y339979D01*
X376582Y339932D01*
X376574Y339861D01*
X376556Y339791D01*
X376561Y339739D01*
X376555Y339688D01*
X376570Y339617D01*
X376576Y339546D01*
X376596Y339498D01*
X376607Y339447D01*
X376644Y339386D01*
X376672Y339320D01*
X376717Y339264D01*
X376733Y339236D01*
X376751Y339221D01*
X376777Y339189D01*
X377795Y338171D01*
X377869Y338118D01*
X377938Y338058D01*
X377968Y338046D01*
X377994Y338027D01*
X378082Y338000D01*
X378166Y337966D01*
X378207Y337962D01*
X378230Y337955D01*
X378262Y337956D01*
X378333Y337948D01*
X386019Y337948D01*
X389563Y334403D01*
X389659Y334335D01*
X389755Y334264D01*
X389759Y334262D01*
X389763Y334260D01*
X389875Y334225D01*
X389990Y334189D01*
X389994Y334189D01*
X389998Y334188D01*
X390116Y334191D01*
X390236Y334192D01*
X390239Y334194D01*
X390244Y334194D01*
X390356Y334235D01*
X390467Y334274D01*
X390471Y334277D01*
X390475Y334278D01*
X390567Y334352D01*
X390661Y334426D01*
X390664Y334430D01*
X390667Y334432D01*
X390674Y334444D01*
X390761Y334561D01*
X390857Y334728D01*
X391330Y335201D01*
X391909Y335536D01*
X392556Y335709D01*
X396867Y335709D01*
X396867Y328930D01*
X396870Y328910D01*
X396868Y328891D01*
X396890Y328789D01*
X396907Y328687D01*
X396916Y328670D01*
X396920Y328650D01*
X396973Y328561D01*
X397022Y328470D01*
X397036Y328456D01*
X397046Y328439D01*
X397125Y328372D01*
X397200Y328301D01*
X397218Y328292D01*
X397233Y328279D01*
X397329Y328240D01*
X397423Y328197D01*
X397443Y328195D01*
X397461Y328187D01*
X397628Y328169D01*
X398391Y328169D01*
X398391Y328167D01*
X397628Y328167D01*
X397608Y328164D01*
X397589Y328166D01*
X397487Y328144D01*
X397385Y328127D01*
X397368Y328118D01*
X397348Y328114D01*
X397259Y328061D01*
X397168Y328012D01*
X397154Y327998D01*
X397137Y327988D01*
X397070Y327909D01*
X396999Y327834D01*
X396990Y327816D01*
X396977Y327801D01*
X396938Y327705D01*
X396895Y327611D01*
X396893Y327591D01*
X396885Y327573D01*
X396867Y327406D01*
X396867Y320627D01*
X392556Y320627D01*
G37*
%LPD*%
%LPC*%
G36*
X363604Y398398D02*
X363604Y398398D01*
X362711Y399291D01*
X362711Y420367D01*
X363604Y421260D01*
X370456Y421260D01*
X371349Y420367D01*
X371349Y413385D01*
X371350Y413380D01*
X371349Y413375D01*
X371370Y413282D01*
X371388Y413188D01*
X371391Y413184D01*
X371392Y413179D01*
X371448Y413101D01*
X371501Y413023D01*
X371505Y413020D01*
X371508Y413016D01*
X371590Y412965D01*
X371669Y412913D01*
X371674Y412913D01*
X371679Y412910D01*
X371856Y412878D01*
X375532Y412878D01*
X375537Y412879D01*
X375542Y412878D01*
X375635Y412899D01*
X375729Y412917D01*
X375733Y412920D01*
X375738Y412921D01*
X375816Y412977D01*
X375894Y413030D01*
X375897Y413034D01*
X375901Y413037D01*
X375952Y413119D01*
X376004Y413198D01*
X376004Y413203D01*
X376007Y413208D01*
X376039Y413385D01*
X376039Y416936D01*
X376932Y417829D01*
X393196Y417829D01*
X394089Y416936D01*
X394089Y413360D01*
X394090Y413355D01*
X394089Y413350D01*
X394110Y413257D01*
X394128Y413163D01*
X394131Y413159D01*
X394132Y413154D01*
X394188Y413076D01*
X394241Y412998D01*
X394245Y412995D01*
X394248Y412991D01*
X394330Y412940D01*
X394409Y412888D01*
X394414Y412888D01*
X394419Y412885D01*
X394596Y412853D01*
X396487Y412853D01*
X396492Y412854D01*
X396497Y412853D01*
X396590Y412874D01*
X396684Y412892D01*
X396688Y412895D01*
X396693Y412896D01*
X396771Y412952D01*
X396849Y413005D01*
X396852Y413009D01*
X396856Y413012D01*
X396907Y413094D01*
X396959Y413173D01*
X396959Y413178D01*
X396962Y413183D01*
X396994Y413360D01*
X396994Y416936D01*
X397887Y417829D01*
X414151Y417829D01*
X415044Y416936D01*
X415044Y402672D01*
X414151Y401779D01*
X397887Y401779D01*
X396994Y402672D01*
X396994Y406248D01*
X396993Y406253D01*
X396994Y406258D01*
X396974Y406351D01*
X396955Y406445D01*
X396952Y406449D01*
X396951Y406454D01*
X396895Y406532D01*
X396842Y406610D01*
X396838Y406613D01*
X396835Y406617D01*
X396753Y406668D01*
X396674Y406720D01*
X396669Y406720D01*
X396664Y406723D01*
X396487Y406755D01*
X394596Y406755D01*
X394591Y406754D01*
X394586Y406755D01*
X394493Y406734D01*
X394399Y406716D01*
X394395Y406713D01*
X394390Y406712D01*
X394312Y406656D01*
X394234Y406603D01*
X394231Y406599D01*
X394227Y406596D01*
X394176Y406514D01*
X394124Y406435D01*
X394124Y406430D01*
X394121Y406425D01*
X394089Y406248D01*
X394089Y402672D01*
X393196Y401779D01*
X376932Y401779D01*
X376039Y402672D01*
X376039Y406273D01*
X376038Y406278D01*
X376039Y406283D01*
X376018Y406376D01*
X376000Y406470D01*
X375997Y406474D01*
X375996Y406479D01*
X375940Y406557D01*
X375887Y406635D01*
X375883Y406638D01*
X375880Y406642D01*
X375798Y406693D01*
X375719Y406745D01*
X375714Y406745D01*
X375709Y406748D01*
X375532Y406780D01*
X371856Y406780D01*
X371851Y406779D01*
X371846Y406780D01*
X371753Y406759D01*
X371659Y406741D01*
X371655Y406738D01*
X371650Y406737D01*
X371572Y406681D01*
X371494Y406628D01*
X371491Y406624D01*
X371487Y406621D01*
X371436Y406539D01*
X371384Y406460D01*
X371384Y406455D01*
X371381Y406450D01*
X371349Y406273D01*
X371349Y399291D01*
X370456Y398398D01*
X363604Y398398D01*
G37*
%LPD*%
%LPC*%
G36*
X325504Y398398D02*
X325504Y398398D01*
X324611Y399291D01*
X324611Y420367D01*
X325225Y420980D01*
X325229Y420987D01*
X325235Y420991D01*
X325284Y421070D01*
X325336Y421147D01*
X325337Y421155D01*
X325341Y421161D01*
X325373Y421339D01*
X325373Y447331D01*
X325372Y447337D01*
X325373Y447344D01*
X325352Y447435D01*
X325334Y447527D01*
X325330Y447533D01*
X325329Y447539D01*
X325274Y447616D01*
X325221Y447693D01*
X325216Y447697D01*
X325212Y447702D01*
X325060Y447799D01*
X323150Y448590D01*
X320330Y451410D01*
X318804Y455095D01*
X318804Y459083D01*
X320330Y462768D01*
X323150Y465588D01*
X324372Y466094D01*
X325597Y466601D01*
X326821Y467108D01*
X326835Y467114D01*
X330823Y467114D01*
X334508Y465588D01*
X337328Y462768D01*
X338854Y459083D01*
X338854Y455095D01*
X337328Y451410D01*
X334508Y448590D01*
X333711Y448261D01*
X332800Y447883D01*
X332794Y447879D01*
X332788Y447878D01*
X332711Y447823D01*
X332633Y447771D01*
X332630Y447766D01*
X332625Y447762D01*
X332575Y447682D01*
X332523Y447604D01*
X332522Y447597D01*
X332519Y447592D01*
X332487Y447414D01*
X332487Y421339D01*
X332488Y421331D01*
X332487Y421323D01*
X332508Y421233D01*
X332526Y421142D01*
X332531Y421136D01*
X332533Y421128D01*
X332635Y420980D01*
X333249Y420367D01*
X333249Y399291D01*
X332356Y398398D01*
X325504Y398398D01*
G37*
%LPD*%
%LPC*%
G36*
X218626Y359445D02*
X218626Y359445D01*
X217733Y360339D01*
X217733Y372602D01*
X218626Y373495D01*
X220956Y373495D01*
X220961Y373496D01*
X220966Y373495D01*
X221059Y373516D01*
X221152Y373535D01*
X221157Y373537D01*
X221162Y373539D01*
X221240Y373594D01*
X221318Y373647D01*
X221321Y373652D01*
X221325Y373655D01*
X221376Y373736D01*
X221427Y373815D01*
X221428Y373820D01*
X221431Y373825D01*
X221463Y374002D01*
X221463Y384165D01*
X228712Y391415D01*
X230665Y391415D01*
X230673Y391416D01*
X230680Y391415D01*
X230770Y391436D01*
X230861Y391454D01*
X230868Y391459D01*
X230875Y391461D01*
X231023Y391563D01*
X233387Y393927D01*
X237783Y393927D01*
X240892Y390818D01*
X240892Y386422D01*
X237783Y383313D01*
X233387Y383313D01*
X231310Y385390D01*
X231306Y385393D01*
X231303Y385397D01*
X231222Y385449D01*
X231143Y385501D01*
X231138Y385502D01*
X231133Y385505D01*
X231040Y385521D01*
X230946Y385539D01*
X230941Y385538D01*
X230936Y385539D01*
X230843Y385517D01*
X230750Y385497D01*
X230746Y385494D01*
X230741Y385493D01*
X230593Y385390D01*
X227201Y381999D01*
X227197Y381992D01*
X227190Y381988D01*
X227141Y381909D01*
X227090Y381832D01*
X227089Y381824D01*
X227085Y381817D01*
X227053Y381640D01*
X227053Y374002D01*
X227054Y373997D01*
X227053Y373992D01*
X227073Y373899D01*
X227092Y373806D01*
X227095Y373801D01*
X227096Y373796D01*
X227151Y373718D01*
X227205Y373640D01*
X227209Y373637D01*
X227212Y373633D01*
X227294Y373582D01*
X227373Y373531D01*
X227378Y373530D01*
X227382Y373527D01*
X227560Y373495D01*
X229889Y373495D01*
X230783Y372602D01*
X230783Y360339D01*
X229889Y359445D01*
X218626Y359445D01*
G37*
%LPD*%
%LPC*%
G36*
X270709Y423751D02*
X270709Y423751D01*
X268351Y426109D01*
X268351Y427482D01*
X268350Y427487D01*
X268351Y427492D01*
X268330Y427585D01*
X268312Y427679D01*
X268309Y427683D01*
X268308Y427688D01*
X268252Y427766D01*
X268199Y427844D01*
X268195Y427847D01*
X268192Y427851D01*
X268110Y427902D01*
X268031Y427954D01*
X268026Y427954D01*
X268021Y427957D01*
X267844Y427989D01*
X264000Y427989D01*
X263992Y427988D01*
X263985Y427989D01*
X263895Y427968D01*
X263804Y427950D01*
X263797Y427945D01*
X263790Y427943D01*
X263642Y427841D01*
X261278Y425477D01*
X256882Y425477D01*
X253773Y428586D01*
X253773Y432982D01*
X256882Y436091D01*
X261278Y436091D01*
X263642Y433727D01*
X263648Y433723D01*
X263653Y433717D01*
X263731Y433668D01*
X263809Y433616D01*
X263816Y433615D01*
X263823Y433611D01*
X264000Y433579D01*
X267844Y433579D01*
X267849Y433580D01*
X267854Y433579D01*
X267947Y433600D01*
X268041Y433618D01*
X268045Y433621D01*
X268050Y433622D01*
X268128Y433677D01*
X268206Y433731D01*
X268209Y433735D01*
X268214Y433738D01*
X268264Y433820D01*
X268316Y433899D01*
X268317Y433904D01*
X268319Y433909D01*
X268351Y434086D01*
X268351Y434443D01*
X270709Y436801D01*
X285043Y436801D01*
X287401Y434443D01*
X287401Y426109D01*
X285043Y423751D01*
X270709Y423751D01*
G37*
%LPD*%
%LPC*%
G36*
X202442Y340793D02*
X202442Y340793D01*
X201549Y341687D01*
X201549Y350950D01*
X202442Y351843D01*
X203956Y351843D01*
X203961Y351844D01*
X203966Y351843D01*
X204059Y351864D01*
X204152Y351883D01*
X204157Y351885D01*
X204162Y351887D01*
X204240Y351942D01*
X204318Y351995D01*
X204321Y352000D01*
X204325Y352003D01*
X204376Y352084D01*
X204427Y352163D01*
X204428Y352168D01*
X204431Y352173D01*
X204463Y352350D01*
X204463Y358938D01*
X204462Y358943D01*
X204463Y358949D01*
X204442Y359042D01*
X204423Y359135D01*
X204421Y359139D01*
X204419Y359144D01*
X204364Y359222D01*
X204311Y359301D01*
X204306Y359303D01*
X204303Y359308D01*
X204222Y359358D01*
X204143Y359410D01*
X204138Y359411D01*
X204133Y359413D01*
X203956Y359445D01*
X201626Y359445D01*
X200733Y360339D01*
X200733Y372602D01*
X201626Y373495D01*
X212889Y373495D01*
X213783Y372602D01*
X213783Y360339D01*
X212889Y359445D01*
X210560Y359445D01*
X210555Y359444D01*
X210549Y359445D01*
X210456Y359425D01*
X210363Y359406D01*
X210359Y359403D01*
X210354Y359402D01*
X210276Y359347D01*
X210197Y359293D01*
X210195Y359289D01*
X210190Y359286D01*
X210140Y359204D01*
X210088Y359125D01*
X210087Y359120D01*
X210085Y359116D01*
X210053Y358938D01*
X210053Y352350D01*
X210054Y352345D01*
X210053Y352340D01*
X210073Y352247D01*
X210092Y352154D01*
X210095Y352149D01*
X210096Y352144D01*
X210151Y352066D01*
X210205Y351988D01*
X210209Y351985D01*
X210212Y351981D01*
X210294Y351930D01*
X210373Y351879D01*
X210378Y351878D01*
X210382Y351875D01*
X210560Y351843D01*
X211705Y351843D01*
X212598Y350950D01*
X212598Y341687D01*
X211705Y340793D01*
X202442Y340793D01*
G37*
%LPD*%
%LPC*%
G36*
X270709Y449151D02*
X270709Y449151D01*
X268351Y451509D01*
X268351Y459843D01*
X270709Y462201D01*
X285043Y462201D01*
X287401Y459843D01*
X287401Y458182D01*
X287401Y458180D01*
X287401Y458177D01*
X287421Y458082D01*
X287440Y457986D01*
X287442Y457983D01*
X287442Y457981D01*
X287498Y457900D01*
X287553Y457820D01*
X287555Y457818D01*
X287557Y457816D01*
X287640Y457763D01*
X287721Y457711D01*
X287724Y457710D01*
X287726Y457709D01*
X287822Y457692D01*
X287918Y457675D01*
X287921Y457676D01*
X287923Y457675D01*
X288018Y457697D01*
X288114Y457719D01*
X288116Y457720D01*
X288119Y457721D01*
X288267Y457823D01*
X290283Y459840D01*
X294679Y459840D01*
X297788Y456731D01*
X297788Y452335D01*
X294679Y449226D01*
X290283Y449226D01*
X288059Y451450D01*
X288055Y451453D01*
X288052Y451457D01*
X287971Y451508D01*
X287892Y451561D01*
X287887Y451562D01*
X287883Y451565D01*
X287789Y451581D01*
X287695Y451599D01*
X287690Y451597D01*
X287685Y451598D01*
X287592Y451577D01*
X287499Y451557D01*
X287495Y451554D01*
X287490Y451553D01*
X287342Y451450D01*
X285043Y449151D01*
X270709Y449151D01*
G37*
%LPD*%
%LPC*%
G36*
X410663Y447627D02*
X410663Y447627D01*
X408491Y449799D01*
X408487Y449802D01*
X408484Y449806D01*
X408403Y449857D01*
X408324Y449910D01*
X408319Y449911D01*
X408315Y449914D01*
X408221Y449930D01*
X408127Y449948D01*
X408122Y449946D01*
X408117Y449947D01*
X408025Y449926D01*
X407931Y449906D01*
X407927Y449903D01*
X407922Y449902D01*
X407774Y449799D01*
X406820Y448845D01*
X402424Y448845D01*
X399315Y451954D01*
X399315Y456350D01*
X402424Y459459D01*
X406820Y459459D01*
X407774Y458505D01*
X407778Y458502D01*
X407781Y458498D01*
X407862Y458447D01*
X407941Y458394D01*
X407946Y458393D01*
X407950Y458390D01*
X408044Y458374D01*
X408138Y458356D01*
X408143Y458358D01*
X408148Y458357D01*
X408241Y458378D01*
X408334Y458398D01*
X408338Y458401D01*
X408343Y458402D01*
X408491Y458505D01*
X410663Y460677D01*
X424997Y460677D01*
X427355Y458319D01*
X427355Y449985D01*
X424997Y447627D01*
X410663Y447627D01*
G37*
%LPD*%
%LPC*%
G36*
X268731Y270499D02*
X268731Y270499D01*
X268731Y281278D01*
X268728Y281298D01*
X268730Y281317D01*
X268708Y281419D01*
X268691Y281521D01*
X268682Y281538D01*
X268678Y281558D01*
X268625Y281647D01*
X268576Y281738D01*
X268562Y281752D01*
X268552Y281769D01*
X268473Y281836D01*
X268398Y281907D01*
X268380Y281916D01*
X268365Y281929D01*
X268269Y281968D01*
X268175Y282011D01*
X268155Y282013D01*
X268137Y282021D01*
X267970Y282039D01*
X267207Y282039D01*
X267207Y282041D01*
X267970Y282041D01*
X267990Y282044D01*
X268009Y282042D01*
X268111Y282064D01*
X268213Y282081D01*
X268230Y282090D01*
X268250Y282094D01*
X268339Y282147D01*
X268430Y282196D01*
X268444Y282210D01*
X268461Y282220D01*
X268528Y282299D01*
X268599Y282374D01*
X268608Y282392D01*
X268621Y282407D01*
X268660Y282503D01*
X268703Y282597D01*
X268705Y282617D01*
X268713Y282635D01*
X268731Y282802D01*
X268731Y292565D01*
X278840Y292565D01*
X279733Y291672D01*
X279733Y272408D01*
X278840Y271515D01*
X270510Y271515D01*
X270505Y271514D01*
X270500Y271515D01*
X270407Y271494D01*
X270313Y271476D01*
X270309Y271473D01*
X270304Y271472D01*
X270226Y271416D01*
X270148Y271363D01*
X270145Y271359D01*
X270141Y271356D01*
X270090Y271274D01*
X270038Y271195D01*
X270038Y271190D01*
X270035Y271185D01*
X270003Y271008D01*
X270003Y270499D01*
X268731Y270499D01*
G37*
%LPD*%
%LPC*%
G36*
X204812Y315749D02*
X204812Y315749D01*
X201703Y318858D01*
X201703Y323254D01*
X203377Y324928D01*
X203378Y324930D01*
X203380Y324931D01*
X203433Y325012D01*
X203488Y325094D01*
X203488Y325097D01*
X203490Y325099D01*
X203507Y325195D01*
X203525Y325291D01*
X203525Y325294D01*
X203525Y325297D01*
X203504Y325393D01*
X203484Y325487D01*
X203482Y325490D01*
X203482Y325492D01*
X203425Y325572D01*
X203369Y325652D01*
X203367Y325654D01*
X203366Y325656D01*
X203283Y325707D01*
X203200Y325760D01*
X203198Y325760D01*
X203195Y325761D01*
X203018Y325793D01*
X202442Y325793D01*
X201549Y326687D01*
X201549Y335950D01*
X202442Y336843D01*
X211705Y336843D01*
X212598Y335950D01*
X212598Y326687D01*
X211705Y325793D01*
X211002Y325793D01*
X210999Y325793D01*
X210997Y325793D01*
X210902Y325773D01*
X210805Y325754D01*
X210803Y325752D01*
X210801Y325752D01*
X210720Y325696D01*
X210640Y325641D01*
X210638Y325639D01*
X210636Y325638D01*
X210583Y325554D01*
X210530Y325473D01*
X210530Y325471D01*
X210529Y325468D01*
X210512Y325372D01*
X210495Y325276D01*
X210495Y325273D01*
X210495Y325271D01*
X210517Y325176D01*
X210538Y325080D01*
X210540Y325078D01*
X210541Y325076D01*
X210643Y324928D01*
X212317Y323254D01*
X212317Y318858D01*
X209208Y315749D01*
X204812Y315749D01*
G37*
%LPD*%
%LPC*%
G36*
X355965Y323151D02*
X355965Y323151D01*
X354654Y324462D01*
X354654Y344390D01*
X355965Y345701D01*
X359687Y345701D01*
X359690Y345701D01*
X359692Y345701D01*
X359787Y345721D01*
X359884Y345740D01*
X359886Y345742D01*
X359889Y345742D01*
X359969Y345798D01*
X360050Y345853D01*
X360051Y345855D01*
X360053Y345857D01*
X360106Y345940D01*
X360159Y346021D01*
X360159Y346024D01*
X360161Y346026D01*
X360177Y346122D01*
X360194Y346218D01*
X360194Y346221D01*
X360194Y346223D01*
X360172Y346318D01*
X360151Y346414D01*
X360149Y346416D01*
X360149Y346419D01*
X360046Y346567D01*
X359394Y347219D01*
X360873Y347219D01*
X363602Y344490D01*
X363602Y324447D01*
X363591Y324449D01*
X363588Y324448D01*
X363586Y324449D01*
X363491Y324427D01*
X363395Y324405D01*
X363393Y324404D01*
X363390Y324403D01*
X363242Y324300D01*
X362093Y323151D01*
X355965Y323151D01*
G37*
%LPD*%
%LPC*%
G36*
X317865Y273551D02*
X317865Y273551D01*
X316554Y274862D01*
X316554Y294790D01*
X317865Y296101D01*
X323993Y296101D01*
X325304Y294790D01*
X325304Y274862D01*
X323993Y273551D01*
X317865Y273551D01*
G37*
%LPD*%
%LPC*%
G36*
X325504Y349122D02*
X325504Y349122D01*
X324611Y350015D01*
X324611Y371091D01*
X325504Y371984D01*
X332356Y371984D01*
X333249Y371091D01*
X333249Y363855D01*
X333250Y363850D01*
X333249Y363845D01*
X333270Y363752D01*
X333288Y363658D01*
X333291Y363654D01*
X333292Y363649D01*
X333348Y363571D01*
X333401Y363493D01*
X333405Y363490D01*
X333408Y363486D01*
X333490Y363435D01*
X333569Y363383D01*
X333574Y363383D01*
X333579Y363380D01*
X333756Y363348D01*
X334265Y363348D01*
X334265Y361949D01*
X329565Y361949D01*
X329546Y361946D01*
X329526Y361948D01*
X329424Y361926D01*
X329322Y361910D01*
X329305Y361900D01*
X329285Y361896D01*
X329196Y361843D01*
X329105Y361794D01*
X329091Y361780D01*
X329074Y361770D01*
X329007Y361691D01*
X328936Y361616D01*
X328927Y361598D01*
X328914Y361583D01*
X328876Y361487D01*
X328832Y361393D01*
X328830Y361373D01*
X328822Y361355D01*
X328804Y361188D01*
X328804Y359918D01*
X328807Y359898D01*
X328805Y359878D01*
X328827Y359777D01*
X328844Y359675D01*
X328853Y359658D01*
X328857Y359638D01*
X328910Y359549D01*
X328959Y359458D01*
X328973Y359444D01*
X328983Y359427D01*
X329062Y359360D01*
X329137Y359288D01*
X329155Y359280D01*
X329170Y359267D01*
X329267Y359228D01*
X329360Y359185D01*
X329380Y359183D01*
X329398Y359175D01*
X329565Y359157D01*
X334265Y359157D01*
X334265Y357758D01*
X333756Y357758D01*
X333751Y357757D01*
X333746Y357758D01*
X333653Y357737D01*
X333559Y357719D01*
X333555Y357716D01*
X333550Y357715D01*
X333472Y357659D01*
X333394Y357606D01*
X333391Y357602D01*
X333387Y357599D01*
X333336Y357517D01*
X333284Y357438D01*
X333284Y357433D01*
X333281Y357428D01*
X333249Y357251D01*
X333249Y350015D01*
X332356Y349122D01*
X325504Y349122D01*
G37*
%LPD*%
%LPC*%
G36*
X311911Y384435D02*
X311911Y384435D01*
X311911Y392698D01*
X311908Y392718D01*
X311910Y392737D01*
X311888Y392839D01*
X311871Y392941D01*
X311862Y392958D01*
X311858Y392978D01*
X311805Y393067D01*
X311756Y393158D01*
X311742Y393172D01*
X311732Y393189D01*
X311653Y393256D01*
X311578Y393327D01*
X311560Y393336D01*
X311545Y393349D01*
X311449Y393388D01*
X311355Y393431D01*
X311335Y393433D01*
X311317Y393441D01*
X311150Y393459D01*
X310387Y393459D01*
X310387Y393461D01*
X311150Y393461D01*
X311170Y393464D01*
X311189Y393462D01*
X311291Y393484D01*
X311393Y393501D01*
X311410Y393510D01*
X311430Y393514D01*
X311519Y393567D01*
X311610Y393616D01*
X311624Y393630D01*
X311641Y393640D01*
X311708Y393719D01*
X311779Y393794D01*
X311788Y393812D01*
X311801Y393827D01*
X311840Y393923D01*
X311883Y394017D01*
X311885Y394037D01*
X311893Y394055D01*
X311911Y394222D01*
X311911Y402485D01*
X321020Y402485D01*
X321913Y401592D01*
X321913Y385328D01*
X321020Y384435D01*
X311911Y384435D01*
G37*
%LPD*%
%LPC*%
G36*
X235953Y329564D02*
X235953Y329564D01*
X235953Y342166D01*
X241794Y342166D01*
X241799Y342167D01*
X241804Y342166D01*
X241897Y342187D01*
X241991Y342205D01*
X241995Y342208D01*
X242000Y342209D01*
X242078Y342265D01*
X242156Y342318D01*
X242159Y342322D01*
X242163Y342325D01*
X242214Y342407D01*
X242266Y342486D01*
X242266Y342491D01*
X242269Y342496D01*
X242301Y342673D01*
X242301Y343182D01*
X246314Y343182D01*
X246961Y343009D01*
X247540Y342674D01*
X247891Y342323D01*
X247891Y337549D01*
X247653Y337312D01*
X247649Y337305D01*
X247643Y337301D01*
X247594Y337222D01*
X247542Y337145D01*
X247541Y337137D01*
X247537Y337131D01*
X247505Y336953D01*
X247505Y329564D01*
X235953Y329564D01*
G37*
%LPD*%
%LPC*%
G36*
X235953Y312900D02*
X235953Y312900D01*
X235953Y326518D01*
X247505Y326518D01*
X247505Y314809D01*
X246612Y313916D01*
X237732Y313916D01*
X237727Y313915D01*
X237722Y313916D01*
X237629Y313895D01*
X237535Y313877D01*
X237531Y313874D01*
X237526Y313873D01*
X237448Y313817D01*
X237370Y313764D01*
X237367Y313760D01*
X237363Y313757D01*
X237312Y313675D01*
X237260Y313596D01*
X237260Y313591D01*
X237257Y313586D01*
X237225Y313409D01*
X237225Y312900D01*
X235953Y312900D01*
G37*
%LPD*%
%LPC*%
G36*
X231635Y312900D02*
X231635Y312900D01*
X231635Y313409D01*
X231634Y313414D01*
X231635Y313419D01*
X231614Y313512D01*
X231596Y313606D01*
X231593Y313610D01*
X231592Y313615D01*
X231537Y313692D01*
X231483Y313771D01*
X231479Y313774D01*
X231476Y313778D01*
X231394Y313829D01*
X231315Y313881D01*
X231310Y313881D01*
X231305Y313884D01*
X231128Y313916D01*
X222248Y313916D01*
X221355Y314809D01*
X221355Y326518D01*
X232907Y326518D01*
X232907Y312900D01*
X231635Y312900D01*
G37*
%LPD*%
%LPC*%
G36*
X232907Y329564D02*
X232907Y329564D01*
X221355Y329564D01*
X221355Y341273D01*
X222248Y342166D01*
X232907Y342166D01*
X232907Y329564D01*
G37*
%LPD*%
%LPC*%
G36*
X254683Y283563D02*
X254683Y283563D01*
X254683Y284179D01*
X254682Y284187D01*
X254683Y284195D01*
X254662Y284285D01*
X254644Y284376D01*
X254639Y284382D01*
X254637Y284390D01*
X254535Y284538D01*
X253667Y285405D01*
X253667Y291374D01*
X253840Y292021D01*
X254175Y292600D01*
X254276Y292701D01*
X254636Y292341D01*
X254640Y292339D01*
X254643Y292334D01*
X254724Y292283D01*
X254803Y292231D01*
X254808Y292230D01*
X254812Y292227D01*
X254906Y292211D01*
X255000Y292193D01*
X255005Y292194D01*
X255010Y292193D01*
X255102Y292215D01*
X255196Y292235D01*
X255200Y292238D01*
X255205Y292239D01*
X255353Y292341D01*
X255576Y292565D01*
X265685Y292565D01*
X265685Y283563D01*
X254683Y283563D01*
G37*
%LPD*%
%LPC*%
G36*
X264413Y270499D02*
X264413Y270499D01*
X264413Y271008D01*
X264412Y271013D01*
X264413Y271018D01*
X264392Y271111D01*
X264374Y271205D01*
X264371Y271209D01*
X264370Y271214D01*
X264314Y271292D01*
X264261Y271370D01*
X264257Y271373D01*
X264254Y271377D01*
X264172Y271428D01*
X264093Y271480D01*
X264088Y271480D01*
X264083Y271483D01*
X263906Y271515D01*
X255576Y271515D01*
X254683Y272408D01*
X254683Y280517D01*
X265685Y280517D01*
X265685Y270499D01*
X264413Y270499D01*
G37*
%LPD*%
%LPC*%
G36*
X341601Y361648D02*
X341601Y361648D01*
X341587Y361662D01*
X341577Y361679D01*
X341498Y361746D01*
X341423Y361818D01*
X341405Y361826D01*
X341390Y361839D01*
X341293Y361878D01*
X341200Y361921D01*
X341180Y361923D01*
X341162Y361931D01*
X340995Y361949D01*
X336295Y361949D01*
X336295Y363348D01*
X336804Y363348D01*
X336809Y363349D01*
X336814Y363348D01*
X336907Y363369D01*
X337001Y363387D01*
X337005Y363390D01*
X337010Y363391D01*
X337088Y363447D01*
X337166Y363500D01*
X337169Y363504D01*
X337173Y363507D01*
X337224Y363589D01*
X337276Y363668D01*
X337276Y363673D01*
X337279Y363678D01*
X337311Y363855D01*
X337311Y371091D01*
X338204Y371984D01*
X345056Y371984D01*
X345949Y371091D01*
X345949Y363855D01*
X345950Y363850D01*
X345949Y363845D01*
X345970Y363752D01*
X345988Y363658D01*
X345991Y363654D01*
X345992Y363649D01*
X346048Y363571D01*
X346101Y363493D01*
X346105Y363490D01*
X346108Y363486D01*
X346190Y363435D01*
X346269Y363383D01*
X346274Y363383D01*
X346279Y363380D01*
X346456Y363348D01*
X346965Y363348D01*
X346965Y361949D01*
X342265Y361949D01*
X342246Y361946D01*
X342226Y361948D01*
X342124Y361926D01*
X342022Y361910D01*
X342005Y361900D01*
X341985Y361896D01*
X341896Y361843D01*
X341805Y361794D01*
X341791Y361780D01*
X341774Y361770D01*
X341707Y361691D01*
X341636Y361616D01*
X341628Y361598D01*
X341601Y361648D01*
G37*
%LPD*%
%LPC*%
G36*
X338204Y349122D02*
X338204Y349122D01*
X337311Y350015D01*
X337311Y357251D01*
X337310Y357256D01*
X337311Y357261D01*
X337290Y357354D01*
X337272Y357448D01*
X337269Y357452D01*
X337268Y357457D01*
X337213Y357534D01*
X337159Y357613D01*
X337155Y357616D01*
X337152Y357620D01*
X337070Y357671D01*
X336991Y357723D01*
X336986Y357723D01*
X336981Y357726D01*
X336804Y357758D01*
X336295Y357758D01*
X336295Y359157D01*
X340995Y359157D01*
X341014Y359160D01*
X341034Y359158D01*
X341136Y359180D01*
X341238Y359196D01*
X341255Y359206D01*
X341275Y359210D01*
X341364Y359263D01*
X341455Y359312D01*
X341469Y359326D01*
X341486Y359336D01*
X341553Y359415D01*
X341624Y359490D01*
X341632Y359507D01*
X341659Y359458D01*
X341673Y359444D01*
X341683Y359427D01*
X341762Y359360D01*
X341837Y359288D01*
X341855Y359280D01*
X341870Y359267D01*
X341967Y359228D01*
X342060Y359185D01*
X342080Y359183D01*
X342098Y359175D01*
X342265Y359157D01*
X346965Y359157D01*
X346965Y357758D01*
X346456Y357758D01*
X346451Y357757D01*
X346446Y357758D01*
X346353Y357737D01*
X346259Y357719D01*
X346255Y357716D01*
X346250Y357715D01*
X346172Y357659D01*
X346094Y357606D01*
X346091Y357602D01*
X346087Y357599D01*
X346036Y357517D01*
X345984Y357438D01*
X345984Y357433D01*
X345981Y357428D01*
X345949Y357251D01*
X345949Y350015D01*
X345056Y349122D01*
X338204Y349122D01*
G37*
%LPD*%
%LPC*%
G36*
X354301Y361648D02*
X354301Y361648D01*
X354287Y361662D01*
X354277Y361679D01*
X354198Y361746D01*
X354123Y361818D01*
X354105Y361826D01*
X354090Y361839D01*
X353993Y361878D01*
X353900Y361921D01*
X353880Y361923D01*
X353862Y361931D01*
X353695Y361949D01*
X348995Y361949D01*
X348995Y363348D01*
X349504Y363348D01*
X349509Y363349D01*
X349514Y363348D01*
X349607Y363369D01*
X349701Y363387D01*
X349705Y363390D01*
X349710Y363391D01*
X349788Y363447D01*
X349866Y363500D01*
X349869Y363504D01*
X349873Y363507D01*
X349924Y363589D01*
X349976Y363668D01*
X349976Y363673D01*
X349979Y363678D01*
X350011Y363855D01*
X350011Y371091D01*
X350904Y371984D01*
X357756Y371984D01*
X358649Y371091D01*
X358649Y361949D01*
X354965Y361949D01*
X354946Y361946D01*
X354926Y361948D01*
X354824Y361926D01*
X354722Y361910D01*
X354705Y361900D01*
X354685Y361896D01*
X354596Y361843D01*
X354505Y361794D01*
X354491Y361780D01*
X354474Y361770D01*
X354407Y361691D01*
X354336Y361616D01*
X354328Y361598D01*
X354301Y361648D01*
G37*
%LPD*%
%LPC*%
G36*
X297847Y394983D02*
X297847Y394983D01*
X297847Y396255D01*
X298356Y396255D01*
X298361Y396256D01*
X298366Y396255D01*
X298459Y396276D01*
X298553Y396294D01*
X298557Y396297D01*
X298562Y396298D01*
X298640Y396354D01*
X298718Y396407D01*
X298721Y396411D01*
X298725Y396414D01*
X298776Y396496D01*
X298828Y396575D01*
X298828Y396580D01*
X298831Y396585D01*
X298863Y396762D01*
X298863Y401592D01*
X299756Y402485D01*
X305054Y402485D01*
X305059Y402486D01*
X305064Y402485D01*
X305157Y402506D01*
X305251Y402524D01*
X305255Y402527D01*
X305260Y402528D01*
X305338Y402584D01*
X305416Y402637D01*
X305419Y402641D01*
X305423Y402644D01*
X305474Y402726D01*
X305526Y402805D01*
X305526Y402810D01*
X305529Y402815D01*
X305561Y402992D01*
X305561Y403501D01*
X308865Y403501D01*
X308865Y394983D01*
X297847Y394983D01*
G37*
%LPD*%
%LPC*%
G36*
X246619Y367664D02*
X246619Y367664D01*
X246619Y378682D01*
X247891Y378682D01*
X247891Y378173D01*
X247892Y378168D01*
X247891Y378163D01*
X247912Y378070D01*
X247930Y377976D01*
X247933Y377972D01*
X247934Y377967D01*
X247990Y377889D01*
X248043Y377811D01*
X248047Y377808D01*
X248050Y377804D01*
X248132Y377753D01*
X248211Y377701D01*
X248216Y377701D01*
X248221Y377698D01*
X248398Y377666D01*
X253228Y377666D01*
X254121Y376773D01*
X254121Y367664D01*
X246619Y367664D01*
G37*
%LPD*%
%LPC*%
G36*
X246619Y353600D02*
X246619Y353600D01*
X246619Y364618D01*
X254121Y364618D01*
X254121Y355509D01*
X253228Y354616D01*
X248398Y354616D01*
X248393Y354615D01*
X248388Y354616D01*
X248295Y354595D01*
X248201Y354577D01*
X248197Y354574D01*
X248192Y354573D01*
X248114Y354517D01*
X248036Y354464D01*
X248033Y354460D01*
X248029Y354457D01*
X247978Y354375D01*
X247926Y354296D01*
X247926Y354291D01*
X247923Y354286D01*
X247891Y354109D01*
X247891Y353600D01*
X246619Y353600D01*
G37*
%LPD*%
%LPC*%
G36*
X236071Y367664D02*
X236071Y367664D01*
X236071Y376773D01*
X236964Y377666D01*
X241794Y377666D01*
X241799Y377667D01*
X241804Y377666D01*
X241897Y377687D01*
X241991Y377705D01*
X241995Y377708D01*
X242000Y377709D01*
X242078Y377765D01*
X242156Y377818D01*
X242159Y377822D01*
X242163Y377825D01*
X242214Y377907D01*
X242266Y377986D01*
X242266Y377991D01*
X242269Y377996D01*
X242301Y378173D01*
X242301Y378682D01*
X243573Y378682D01*
X243573Y367664D01*
X236071Y367664D01*
G37*
%LPD*%
%LPC*%
G36*
X242301Y353600D02*
X242301Y353600D01*
X242301Y354109D01*
X242300Y354114D01*
X242301Y354119D01*
X242280Y354212D01*
X242262Y354306D01*
X242259Y354310D01*
X242258Y354315D01*
X242202Y354393D01*
X242149Y354471D01*
X242145Y354474D01*
X242142Y354478D01*
X242060Y354529D01*
X241981Y354581D01*
X241976Y354581D01*
X241971Y354584D01*
X241794Y354616D01*
X236964Y354616D01*
X236071Y355509D01*
X236071Y364618D01*
X243573Y364618D01*
X243573Y353600D01*
X242301Y353600D01*
G37*
%LPD*%
%LPC*%
G36*
X299756Y384435D02*
X299756Y384435D01*
X298863Y385328D01*
X298863Y390158D01*
X298862Y390163D01*
X298863Y390168D01*
X298842Y390261D01*
X298824Y390355D01*
X298821Y390359D01*
X298820Y390364D01*
X298764Y390442D01*
X298711Y390520D01*
X298707Y390523D01*
X298704Y390527D01*
X298622Y390578D01*
X298543Y390630D01*
X298538Y390630D01*
X298533Y390633D01*
X298356Y390665D01*
X297847Y390665D01*
X297847Y391937D01*
X308865Y391937D01*
X308865Y384435D01*
X299756Y384435D01*
G37*
%LPD*%
%LPC*%
G36*
X406018Y355481D02*
X406018Y355481D01*
X406018Y356244D01*
X406016Y356256D01*
X406017Y356265D01*
X406016Y356271D01*
X406017Y356283D01*
X405995Y356385D01*
X405978Y356487D01*
X405969Y356504D01*
X405965Y356524D01*
X405912Y356613D01*
X405863Y356704D01*
X405849Y356718D01*
X405839Y356735D01*
X405760Y356802D01*
X405685Y356873D01*
X405667Y356882D01*
X405652Y356895D01*
X405556Y356934D01*
X405462Y356977D01*
X405442Y356979D01*
X405424Y356987D01*
X405257Y357005D01*
X398478Y357005D01*
X398478Y358277D01*
X398987Y358277D01*
X398992Y358278D01*
X398997Y358277D01*
X399090Y358298D01*
X399184Y358316D01*
X399188Y358319D01*
X399193Y358320D01*
X399271Y358376D01*
X399349Y358429D01*
X399352Y358433D01*
X399356Y358436D01*
X399407Y358518D01*
X399459Y358597D01*
X399459Y358602D01*
X399462Y358607D01*
X399494Y358784D01*
X399494Y361614D01*
X400387Y362507D01*
X411651Y362507D01*
X412544Y361614D01*
X412544Y358784D01*
X412545Y358779D01*
X412544Y358774D01*
X412565Y358681D01*
X412583Y358587D01*
X412586Y358583D01*
X412587Y358578D01*
X412643Y358500D01*
X412696Y358422D01*
X412700Y358419D01*
X412703Y358415D01*
X412785Y358364D01*
X412864Y358312D01*
X412869Y358312D01*
X412874Y358309D01*
X413051Y358277D01*
X413560Y358277D01*
X413560Y357005D01*
X406781Y357005D01*
X406761Y357002D01*
X406742Y357004D01*
X406640Y356982D01*
X406538Y356965D01*
X406521Y356956D01*
X406501Y356952D01*
X406412Y356899D01*
X406321Y356850D01*
X406307Y356836D01*
X406290Y356826D01*
X406223Y356747D01*
X406152Y356672D01*
X406143Y356654D01*
X406130Y356639D01*
X406091Y356543D01*
X406048Y356449D01*
X406046Y356429D01*
X406038Y356411D01*
X406020Y356244D01*
X406020Y355481D01*
X406018Y355481D01*
G37*
%LPD*%
%LPC*%
G36*
X353169Y236838D02*
X353169Y236838D01*
X353169Y237309D01*
X354695Y240994D01*
X356086Y242384D01*
X356090Y242390D01*
X356096Y242395D01*
X356145Y242474D01*
X356197Y242551D01*
X356198Y242558D01*
X356202Y242565D01*
X356234Y242742D01*
X356234Y243906D01*
X357407Y244758D01*
X358956Y245547D01*
X360609Y246084D01*
X361671Y246252D01*
X361671Y236838D01*
X353169Y236838D01*
G37*
%LPD*%
%LPC*%
G36*
X394089Y351052D02*
X394089Y351052D01*
X386587Y351052D01*
X386587Y357554D01*
X388926Y357554D01*
X388934Y357555D01*
X388942Y357554D01*
X389032Y357575D01*
X389123Y357593D01*
X389129Y357598D01*
X389137Y357600D01*
X389285Y357702D01*
X389859Y358277D01*
X393752Y358277D01*
X394124Y358062D01*
X394597Y357589D01*
X394932Y357010D01*
X395105Y356363D01*
X395105Y352687D01*
X394596Y352687D01*
X394591Y352686D01*
X394586Y352687D01*
X394493Y352666D01*
X394399Y352648D01*
X394395Y352645D01*
X394390Y352644D01*
X394312Y352588D01*
X394234Y352535D01*
X394231Y352531D01*
X394227Y352528D01*
X394176Y352446D01*
X394124Y352367D01*
X394124Y352362D01*
X394121Y352357D01*
X394089Y352180D01*
X394089Y351052D01*
G37*
%LPD*%
%LPC*%
G36*
X353804Y458612D02*
X353804Y458612D01*
X353804Y459083D01*
X355330Y462768D01*
X357522Y464959D01*
X357525Y464964D01*
X357529Y464967D01*
X357580Y465047D01*
X357633Y465126D01*
X357634Y465131D01*
X357637Y465136D01*
X357653Y465230D01*
X357671Y465323D01*
X357670Y465328D01*
X357670Y465333D01*
X357649Y465426D01*
X357629Y465519D01*
X357626Y465523D01*
X357625Y465529D01*
X357522Y465677D01*
X357246Y465953D01*
X358042Y466532D01*
X359591Y467321D01*
X361244Y467858D01*
X362306Y468026D01*
X362306Y458612D01*
X353804Y458612D01*
G37*
%LPD*%
%LPC*%
G36*
X386587Y340488D02*
X386587Y340488D01*
X386587Y348006D01*
X394089Y348006D01*
X394089Y342397D01*
X393936Y342245D01*
X393933Y342240D01*
X393929Y342237D01*
X393878Y342157D01*
X393825Y342078D01*
X393824Y342073D01*
X393821Y342068D01*
X393805Y341975D01*
X393787Y341881D01*
X393789Y341876D01*
X393788Y341871D01*
X393809Y341778D01*
X393829Y341685D01*
X393832Y341681D01*
X393833Y341675D01*
X393936Y341527D01*
X394296Y341168D01*
X394124Y340996D01*
X393545Y340661D01*
X392898Y340488D01*
X386587Y340488D01*
G37*
%LPD*%
%LPC*%
G36*
X365352Y458612D02*
X365352Y458612D01*
X365352Y467114D01*
X365823Y467114D01*
X369508Y465588D01*
X372328Y462768D01*
X373854Y459083D01*
X373854Y458612D01*
X365352Y458612D01*
G37*
%LPD*%
%LPC*%
G36*
X364717Y236838D02*
X364717Y236838D01*
X364717Y245340D01*
X365188Y245340D01*
X368873Y243814D01*
X371693Y240994D01*
X373219Y237309D01*
X373219Y236838D01*
X364717Y236838D01*
G37*
%LPD*%
%LPC*%
G36*
X364717Y225290D02*
X364717Y225290D01*
X364717Y233792D01*
X373219Y233792D01*
X373219Y233321D01*
X371693Y229636D01*
X368873Y226816D01*
X368332Y226592D01*
X367107Y226085D01*
X365882Y225578D01*
X365188Y225290D01*
X364717Y225290D01*
G37*
%LPD*%
%LPC*%
G36*
X365352Y447064D02*
X365352Y447064D01*
X365352Y455566D01*
X373854Y455566D01*
X373854Y455095D01*
X372328Y451410D01*
X369508Y448590D01*
X368711Y448261D01*
X367487Y447753D01*
X366262Y447246D01*
X365823Y447064D01*
X365352Y447064D01*
G37*
%LPD*%
%LPC*%
G36*
X361835Y447064D02*
X361835Y447064D01*
X358150Y448590D01*
X355330Y451410D01*
X353804Y455095D01*
X353804Y455566D01*
X362306Y455566D01*
X362306Y447064D01*
X361835Y447064D01*
G37*
%LPD*%
%LPC*%
G36*
X361200Y225290D02*
X361200Y225290D01*
X357515Y226816D01*
X354695Y229636D01*
X353169Y233321D01*
X353169Y233792D01*
X361671Y233792D01*
X361671Y225290D01*
X361200Y225290D01*
G37*
%LPD*%
%LPC*%
G36*
X357639Y348974D02*
X357639Y348974D01*
X357632Y348978D01*
X357628Y348984D01*
X357549Y349033D01*
X357472Y349085D01*
X357464Y349086D01*
X357458Y349090D01*
X357280Y349122D01*
X355726Y349122D01*
X355726Y359157D01*
X358649Y359157D01*
X358649Y356079D01*
X358650Y356071D01*
X358649Y356063D01*
X358670Y355973D01*
X358688Y355882D01*
X358693Y355876D01*
X358695Y355868D01*
X358797Y355720D01*
X359665Y354853D01*
X359665Y350313D01*
X359492Y349666D01*
X359157Y349087D01*
X358666Y348596D01*
X358648Y348586D01*
X358596Y348532D01*
X358538Y348484D01*
X358512Y348443D01*
X358479Y348408D01*
X358447Y348340D01*
X358407Y348276D01*
X358396Y348229D01*
X358392Y348221D01*
X357639Y348974D01*
G37*
%LPD*%
%LPC*%
G36*
X360453Y286250D02*
X360453Y286250D01*
X360453Y296101D01*
X362093Y296101D01*
X362516Y295678D01*
X362522Y295674D01*
X362527Y295668D01*
X362605Y295619D01*
X362683Y295567D01*
X362690Y295566D01*
X362697Y295562D01*
X362874Y295530D01*
X363961Y295530D01*
X364198Y295119D01*
X364420Y294292D01*
X364420Y289940D01*
X363911Y289940D01*
X363906Y289939D01*
X363901Y289940D01*
X363808Y289919D01*
X363714Y289901D01*
X363710Y289898D01*
X363705Y289897D01*
X363627Y289841D01*
X363549Y289788D01*
X363546Y289784D01*
X363542Y289781D01*
X363491Y289699D01*
X363439Y289620D01*
X363439Y289615D01*
X363436Y289610D01*
X363404Y289433D01*
X363404Y286250D01*
X360453Y286250D01*
G37*
%LPD*%
%LPC*%
G36*
X350904Y349122D02*
X350904Y349122D01*
X350011Y350015D01*
X350011Y357251D01*
X350010Y357256D01*
X350011Y357261D01*
X349990Y357354D01*
X349972Y357448D01*
X349969Y357452D01*
X349968Y357457D01*
X349913Y357534D01*
X349859Y357613D01*
X349855Y357616D01*
X349852Y357620D01*
X349770Y357671D01*
X349691Y357723D01*
X349686Y357723D01*
X349681Y357726D01*
X349504Y357758D01*
X348995Y357758D01*
X348995Y359157D01*
X352934Y359157D01*
X352934Y349122D01*
X350904Y349122D01*
G37*
%LPD*%
%LPC*%
G36*
X360453Y272535D02*
X360453Y272535D01*
X360453Y283402D01*
X363404Y283402D01*
X363404Y274862D01*
X361972Y273430D01*
X361968Y273424D01*
X361962Y273419D01*
X361913Y273341D01*
X361861Y273263D01*
X361860Y273256D01*
X361856Y273249D01*
X361824Y273072D01*
X361824Y272597D01*
X361595Y272535D01*
X360453Y272535D01*
G37*
%LPD*%
%LPC*%
G36*
X356463Y272535D02*
X356463Y272535D01*
X356234Y272597D01*
X356234Y273072D01*
X356233Y273079D01*
X356234Y273087D01*
X356213Y273177D01*
X356195Y273268D01*
X356190Y273275D01*
X356188Y273282D01*
X356086Y273430D01*
X354654Y274862D01*
X354654Y283402D01*
X357605Y283402D01*
X357605Y272535D01*
X356463Y272535D01*
G37*
%LPD*%
%LPC*%
G36*
X399913Y320627D02*
X399913Y320627D01*
X399913Y326645D01*
X405415Y326645D01*
X405415Y322536D01*
X404522Y321643D01*
X402454Y321643D01*
X402449Y321642D01*
X402444Y321643D01*
X402351Y321622D01*
X402257Y321604D01*
X402253Y321601D01*
X402248Y321600D01*
X402170Y321544D01*
X402092Y321491D01*
X402089Y321487D01*
X402085Y321484D01*
X402034Y321402D01*
X401982Y321323D01*
X401982Y321318D01*
X401979Y321313D01*
X401947Y321136D01*
X401947Y320717D01*
X401857Y320627D01*
X399913Y320627D01*
G37*
%LPD*%
%LPC*%
G36*
X407542Y348457D02*
X407542Y348457D01*
X407542Y353959D01*
X413560Y353959D01*
X413560Y352687D01*
X413051Y352687D01*
X413046Y352686D01*
X413041Y352687D01*
X412948Y352666D01*
X412854Y352648D01*
X412850Y352645D01*
X412845Y352644D01*
X412767Y352588D01*
X412689Y352535D01*
X412686Y352531D01*
X412682Y352528D01*
X412631Y352446D01*
X412579Y352367D01*
X412579Y352362D01*
X412576Y352357D01*
X412544Y352180D01*
X412544Y349350D01*
X411651Y348457D01*
X407542Y348457D01*
G37*
%LPD*%
%LPC*%
G36*
X400387Y348457D02*
X400387Y348457D01*
X399494Y349350D01*
X399494Y352180D01*
X399493Y352185D01*
X399494Y352190D01*
X399473Y352283D01*
X399455Y352377D01*
X399452Y352381D01*
X399451Y352386D01*
X399395Y352464D01*
X399342Y352542D01*
X399338Y352545D01*
X399335Y352549D01*
X399253Y352600D01*
X399174Y352652D01*
X399169Y352652D01*
X399164Y352655D01*
X398987Y352687D01*
X398478Y352687D01*
X398478Y353959D01*
X404496Y353959D01*
X404496Y348457D01*
X400387Y348457D01*
G37*
%LPD*%
%LPC*%
G36*
X354654Y286250D02*
X354654Y286250D01*
X354654Y294790D01*
X355965Y296101D01*
X357605Y296101D01*
X357605Y286250D01*
X354654Y286250D01*
G37*
%LPD*%
%LPC*%
G36*
X399913Y329691D02*
X399913Y329691D01*
X399913Y335550D01*
X400622Y334841D01*
X400629Y334837D01*
X400633Y334831D01*
X400712Y334782D01*
X400789Y334730D01*
X400797Y334729D01*
X400803Y334725D01*
X400981Y334693D01*
X404522Y334693D01*
X405415Y333800D01*
X405415Y329691D01*
X399913Y329691D01*
G37*
%LPD*%
%LPC*%
G36*
X363828Y457088D02*
X363828Y457088D01*
X363828Y457090D01*
X363830Y457090D01*
X363830Y457088D01*
X363828Y457088D01*
G37*
%LPD*%
%LPC*%
G36*
X363193Y235314D02*
X363193Y235314D01*
X363193Y235316D01*
X363195Y235316D01*
X363195Y235314D01*
X363193Y235314D01*
G37*
%LPD*%
%LPC*%
G36*
X234429Y328040D02*
X234429Y328040D01*
X234429Y328042D01*
X234431Y328042D01*
X234431Y328040D01*
X234429Y328040D01*
G37*
%LPD*%
%LPC*%
G36*
X245095Y366140D02*
X245095Y366140D01*
X245095Y366142D01*
X245097Y366142D01*
X245097Y366140D01*
X245095Y366140D01*
G37*
%LPD*%
D10*
X207074Y346318D03*
X207074Y331318D03*
D11*
X207258Y366470D03*
X224258Y366470D03*
D12*
X272376Y432776D02*
X283376Y432776D01*
X283376Y427776D01*
X272376Y427776D01*
X272376Y432776D01*
X272376Y432526D02*
X283376Y432526D01*
X283376Y453176D02*
X272376Y453176D01*
X272376Y458176D01*
X283376Y458176D01*
X283376Y453176D01*
X283376Y457926D02*
X272376Y457926D01*
X412330Y451652D02*
X423330Y451652D01*
X412330Y451652D02*
X412330Y456652D01*
X423330Y456652D01*
X423330Y451652D01*
X423330Y456402D02*
X412330Y456402D01*
X449064Y360161D02*
X460064Y360161D01*
X449064Y360161D02*
X449064Y365161D01*
X460064Y365161D01*
X460064Y360161D01*
X460064Y364911D02*
X449064Y364911D01*
D13*
X428802Y489302D03*
X511402Y346202D03*
X428802Y203102D03*
X263602Y203102D03*
X181002Y346202D03*
X263602Y489302D03*
X470102Y417702D03*
X470102Y274702D03*
X222302Y274702D03*
X222302Y417702D03*
D14*
X275096Y366141D03*
X245096Y366141D03*
D15*
X296430Y328041D03*
X234430Y328041D03*
D16*
X328930Y360553D03*
X341630Y360553D03*
X354330Y360553D03*
X367030Y360553D03*
X367030Y409829D03*
X354330Y409829D03*
X341630Y409829D03*
X328930Y409829D03*
D17*
X385064Y349529D03*
X385064Y368529D03*
X385064Y409804D03*
X385064Y390804D03*
X406019Y390804D03*
X406019Y409804D03*
D11*
X406019Y372482D03*
X406019Y355482D03*
D18*
X328829Y457089D03*
X363829Y457089D03*
D19*
X381390Y328168D03*
X398390Y328168D03*
D18*
X363194Y235315D03*
X328194Y235315D03*
D20*
X323067Y275788D02*
X323067Y293864D01*
X323067Y275788D02*
X318791Y275788D01*
X318791Y293864D01*
X323067Y293864D01*
X323067Y277142D02*
X318791Y277142D01*
X318791Y278496D02*
X323067Y278496D01*
X323067Y279850D02*
X318791Y279850D01*
X318791Y281204D02*
X323067Y281204D01*
X323067Y282558D02*
X318791Y282558D01*
X318791Y283912D02*
X323067Y283912D01*
X323067Y285266D02*
X318791Y285266D01*
X318791Y286620D02*
X323067Y286620D01*
X323067Y287974D02*
X318791Y287974D01*
X318791Y289328D02*
X323067Y289328D01*
X323067Y290682D02*
X318791Y290682D01*
X318791Y292036D02*
X323067Y292036D01*
X323067Y293390D02*
X318791Y293390D01*
X335767Y293864D02*
X335767Y275788D01*
X331491Y275788D01*
X331491Y293864D01*
X335767Y293864D01*
X335767Y277142D02*
X331491Y277142D01*
X331491Y278496D02*
X335767Y278496D01*
X335767Y279850D02*
X331491Y279850D01*
X331491Y281204D02*
X335767Y281204D01*
X335767Y282558D02*
X331491Y282558D01*
X331491Y283912D02*
X335767Y283912D01*
X335767Y285266D02*
X331491Y285266D01*
X331491Y286620D02*
X335767Y286620D01*
X335767Y287974D02*
X331491Y287974D01*
X331491Y289328D02*
X335767Y289328D01*
X335767Y290682D02*
X331491Y290682D01*
X331491Y292036D02*
X335767Y292036D01*
X335767Y293390D02*
X331491Y293390D01*
X348467Y293864D02*
X348467Y275788D01*
X344191Y275788D01*
X344191Y293864D01*
X348467Y293864D01*
X348467Y277142D02*
X344191Y277142D01*
X344191Y278496D02*
X348467Y278496D01*
X348467Y279850D02*
X344191Y279850D01*
X344191Y281204D02*
X348467Y281204D01*
X348467Y282558D02*
X344191Y282558D01*
X344191Y283912D02*
X348467Y283912D01*
X348467Y285266D02*
X344191Y285266D01*
X344191Y286620D02*
X348467Y286620D01*
X348467Y287974D02*
X344191Y287974D01*
X344191Y289328D02*
X348467Y289328D01*
X348467Y290682D02*
X344191Y290682D01*
X344191Y292036D02*
X348467Y292036D01*
X348467Y293390D02*
X344191Y293390D01*
X361167Y293864D02*
X361167Y275788D01*
X356891Y275788D01*
X356891Y293864D01*
X361167Y293864D01*
X361167Y277142D02*
X356891Y277142D01*
X356891Y278496D02*
X361167Y278496D01*
X361167Y279850D02*
X356891Y279850D01*
X356891Y281204D02*
X361167Y281204D01*
X361167Y282558D02*
X356891Y282558D01*
X356891Y283912D02*
X361167Y283912D01*
X361167Y285266D02*
X356891Y285266D01*
X356891Y286620D02*
X361167Y286620D01*
X361167Y287974D02*
X356891Y287974D01*
X356891Y289328D02*
X361167Y289328D01*
X361167Y290682D02*
X356891Y290682D01*
X356891Y292036D02*
X361167Y292036D01*
X361167Y293390D02*
X356891Y293390D01*
X361167Y325388D02*
X361167Y343464D01*
X361167Y325388D02*
X356891Y325388D01*
X356891Y343464D01*
X361167Y343464D01*
X361167Y326742D02*
X356891Y326742D01*
X356891Y328096D02*
X361167Y328096D01*
X361167Y329450D02*
X356891Y329450D01*
X356891Y330804D02*
X361167Y330804D01*
X361167Y332158D02*
X356891Y332158D01*
X356891Y333512D02*
X361167Y333512D01*
X361167Y334866D02*
X356891Y334866D01*
X356891Y336220D02*
X361167Y336220D01*
X361167Y337574D02*
X356891Y337574D01*
X356891Y338928D02*
X361167Y338928D01*
X361167Y340282D02*
X356891Y340282D01*
X356891Y341636D02*
X361167Y341636D01*
X361167Y342990D02*
X356891Y342990D01*
X348467Y343464D02*
X348467Y325388D01*
X344191Y325388D01*
X344191Y343464D01*
X348467Y343464D01*
X348467Y326742D02*
X344191Y326742D01*
X344191Y328096D02*
X348467Y328096D01*
X348467Y329450D02*
X344191Y329450D01*
X344191Y330804D02*
X348467Y330804D01*
X348467Y332158D02*
X344191Y332158D01*
X344191Y333512D02*
X348467Y333512D01*
X348467Y334866D02*
X344191Y334866D01*
X344191Y336220D02*
X348467Y336220D01*
X348467Y337574D02*
X344191Y337574D01*
X344191Y338928D02*
X348467Y338928D01*
X348467Y340282D02*
X344191Y340282D01*
X344191Y341636D02*
X348467Y341636D01*
X348467Y342990D02*
X344191Y342990D01*
X335767Y343464D02*
X335767Y325388D01*
X331491Y325388D01*
X331491Y343464D01*
X335767Y343464D01*
X335767Y326742D02*
X331491Y326742D01*
X331491Y328096D02*
X335767Y328096D01*
X335767Y329450D02*
X331491Y329450D01*
X331491Y330804D02*
X335767Y330804D01*
X335767Y332158D02*
X331491Y332158D01*
X331491Y333512D02*
X335767Y333512D01*
X335767Y334866D02*
X331491Y334866D01*
X331491Y336220D02*
X335767Y336220D01*
X335767Y337574D02*
X331491Y337574D01*
X331491Y338928D02*
X335767Y338928D01*
X335767Y340282D02*
X331491Y340282D01*
X331491Y341636D02*
X335767Y341636D01*
X335767Y342990D02*
X331491Y342990D01*
X323067Y343464D02*
X323067Y325388D01*
X318791Y325388D01*
X318791Y343464D01*
X323067Y343464D01*
X323067Y326742D02*
X318791Y326742D01*
X318791Y328096D02*
X323067Y328096D01*
X323067Y329450D02*
X318791Y329450D01*
X318791Y330804D02*
X323067Y330804D01*
X323067Y332158D02*
X318791Y332158D01*
X318791Y333512D02*
X323067Y333512D01*
X323067Y334866D02*
X318791Y334866D01*
X318791Y336220D02*
X323067Y336220D01*
X323067Y337574D02*
X318791Y337574D01*
X318791Y338928D02*
X323067Y338928D01*
X323067Y340282D02*
X318791Y340282D01*
X318791Y341636D02*
X323067Y341636D01*
X323067Y342990D02*
X318791Y342990D01*
D21*
X310388Y363460D03*
X310388Y393460D03*
D22*
X267208Y231040D03*
X267208Y282040D03*
D23*
X293751Y237785D03*
X293751Y207985D03*
D24*
X293751Y255641D03*
D25*
X293751Y279391D03*
D26*
X454406Y378847D03*
D27*
X486543Y378847D01*
X486664Y378968D01*
D26*
X486664Y378968D03*
D27*
X207074Y331318D02*
X207074Y321120D01*
X207010Y321056D01*
D26*
X207010Y321056D03*
D27*
X508115Y342915D02*
X511402Y346202D01*
D26*
X259969Y381381D03*
X393065Y422148D03*
X312039Y311702D03*
X249047Y267843D03*
D28*
X229161Y267843D01*
D27*
X222302Y274702D01*
D26*
X214522Y387832D03*
D28*
X214522Y409922D01*
X222302Y417702D01*
D26*
X235585Y388620D03*
D27*
X229870Y388620D01*
X224258Y383008D02*
X224258Y366470D01*
X224258Y383008D02*
X229870Y388620D01*
X207258Y366470D02*
X207258Y346502D01*
X207074Y346318D01*
D26*
X406019Y302387D03*
D29*
X363093Y302387D01*
X346329Y319151D02*
X346329Y334426D01*
X346329Y319151D02*
X363093Y302387D01*
X346329Y319151D02*
X316738Y319151D01*
X311912Y323977D01*
X311912Y361936D01*
X310388Y363460D01*
D28*
X404622Y454152D02*
X417830Y454152D01*
D26*
X404622Y454152D03*
X425196Y371602D03*
D28*
X445623Y371602D01*
X454564Y362661D01*
D27*
X359029Y239480D02*
X363194Y235315D01*
X359029Y239480D02*
X359029Y284826D01*
X267208Y282040D02*
X260985Y282040D01*
X234430Y308595D01*
X234430Y328041D01*
X245096Y338707D01*
X245096Y366141D01*
D26*
X440055Y302641D03*
D27*
X430149Y292735D01*
X361350Y292735D02*
X359029Y290414D01*
X359029Y284826D01*
X361350Y292735D02*
X430149Y292735D01*
X341630Y360553D02*
X328930Y360553D01*
X341630Y360553D02*
X354330Y360553D01*
X385064Y349529D02*
X391017Y355482D01*
X406019Y355482D01*
X440055Y339090D02*
X440055Y302641D01*
X423663Y355482D02*
X406019Y355482D01*
X423663Y355482D02*
X440055Y339090D01*
X398390Y333121D02*
X398390Y328168D01*
X398390Y333121D02*
X385064Y346447D01*
X385064Y349529D01*
X354330Y356235D02*
X354330Y360553D01*
X373634Y318135D02*
X394335Y318135D01*
X398390Y322190D01*
D29*
X398390Y328168D01*
D27*
X366903Y343662D02*
X354330Y356235D01*
X366903Y343662D02*
X366903Y324866D01*
X373634Y318135D01*
X245096Y366141D02*
X245096Y380873D01*
X308356Y461137D02*
X318770Y471551D01*
X355600Y471551D01*
X363829Y463322D02*
X363829Y457089D01*
X363829Y463322D02*
X355600Y471551D01*
X267208Y282040D02*
X267208Y258318D01*
X267081Y258191D01*
D26*
X267081Y258191D03*
D27*
X308356Y395492D02*
X308356Y461137D01*
X308356Y395492D02*
X310388Y393460D01*
X257683Y393460D01*
X245096Y380873D01*
D26*
X442595Y275082D03*
D28*
X469722Y275082D02*
X470102Y274702D01*
X469722Y275082D02*
X442595Y275082D01*
D26*
X469766Y387787D03*
D27*
X469766Y417366D01*
X470102Y417702D01*
X277876Y430276D02*
X277368Y430784D01*
X259080Y430784D01*
D26*
X259080Y430784D03*
D27*
X277876Y454533D02*
X292481Y454533D01*
X277876Y454533D02*
X277876Y455676D01*
D26*
X292481Y454533D03*
D28*
X406019Y390804D02*
X406019Y372482D01*
X411099Y372482D02*
X421631Y361950D01*
X411099Y372482D02*
X406019Y372482D01*
X421631Y361950D02*
X426720Y361950D01*
X451485Y337185D01*
X433578Y282321D02*
X372237Y282321D01*
D26*
X372237Y282321D03*
D28*
X451485Y300228D02*
X451485Y337185D01*
X451485Y300228D02*
X433578Y282321D01*
X385039Y409829D02*
X367030Y409829D01*
D27*
X385039Y409829D02*
X385064Y409804D01*
D28*
X406019Y409804D01*
X385064Y390804D02*
X363195Y390804D01*
X354330Y399669D02*
X354330Y409829D01*
X354330Y399669D02*
X363195Y390804D01*
X385064Y390804D02*
X385064Y368529D01*
X381390Y328168D02*
X377825Y328168D01*
X372364Y347853D02*
X367030Y353187D01*
X367030Y360553D01*
X372364Y347853D02*
X372364Y333629D01*
X377825Y328168D01*
D29*
X328930Y409829D02*
X328930Y456988D01*
D27*
X328829Y457089D01*
D29*
X285256Y237785D02*
X278511Y231040D01*
X267208Y231040D01*
X285256Y237785D02*
X293751Y237785D01*
X293751Y255641D01*
D27*
X333629Y284826D02*
X346329Y284826D01*
X333629Y284826D02*
X333629Y272288D01*
X329692Y268351D01*
X299339Y268351D01*
D29*
X293751Y273939D02*
X293751Y279391D01*
D27*
X293751Y273939D02*
X299339Y268351D01*
D29*
X293751Y279391D02*
X296430Y282070D01*
X296430Y328041D01*
X296430Y333885D01*
X275096Y355219D01*
X275096Y366141D01*
X275096Y368822D02*
X283210Y376936D01*
X275096Y368822D02*
X275096Y366141D01*
X334518Y376936D02*
X341630Y384048D01*
X334518Y376936D02*
X283210Y376936D01*
X341630Y384048D02*
X341630Y409829D01*
X318729Y207985D02*
X293751Y207985D01*
X328194Y217450D02*
X328194Y235315D01*
X328194Y217450D02*
X318729Y207985D01*
M02*
