G04 EAGLE Gerber RS-274X export*
G75*
%MOMM*%
%FSLAX34Y34*%
%LPD*%
%INBottom Copper*%
%IPPOS*%
%AMOC8*
5,1,8,0,0,1.08239X$1,22.5*%
G01*
%ADD10R,1.100000X1.000000*%
%ADD11R,1.500000X1.300000*%
%ADD12C,0.124994*%
%ADD13R,5.699988X5.699988*%
%ADD14R,1.399997X0.400000*%
%ADD15R,1.300000X1.500000*%
%ADD16R,1.000000X1.100000*%
%ADD17C,0.499997*%
%ADD18C,1.000000*%
%ADD19R,1.530000X1.530000*%
%ADD20C,1.530000*%
%ADD21C,1.700000*%
%ADD22C,0.756400*%
%ADD23C,0.304800*%
%ADD24C,0.254000*%

G36*
X278630Y195708D02*
X278630Y195708D01*
X278658Y195706D01*
X278726Y195728D01*
X278797Y195742D01*
X278820Y195758D01*
X278847Y195767D01*
X278902Y195814D01*
X278961Y195855D01*
X278976Y195879D01*
X278998Y195897D01*
X279029Y195962D01*
X279068Y196022D01*
X279073Y196050D01*
X279085Y196076D01*
X279094Y196177D01*
X279101Y196219D01*
X279099Y196229D01*
X279100Y196242D01*
X278982Y197719D01*
X413422Y197719D01*
X413304Y196242D01*
X413308Y196213D01*
X413303Y196185D01*
X413320Y196116D01*
X413328Y196044D01*
X413343Y196020D01*
X413349Y195992D01*
X413392Y195934D01*
X413428Y195872D01*
X413450Y195855D01*
X413467Y195832D01*
X413529Y195795D01*
X413586Y195752D01*
X413614Y195745D01*
X413638Y195730D01*
X413738Y195714D01*
X413779Y195703D01*
X413789Y195705D01*
X413802Y195703D01*
X432802Y195703D01*
X432878Y195718D01*
X432956Y195727D01*
X432975Y195738D01*
X432997Y195742D01*
X433061Y195786D01*
X433129Y195825D01*
X433145Y195844D01*
X433161Y195855D01*
X433185Y195893D01*
X433235Y195953D01*
X442735Y212453D01*
X442744Y212480D01*
X442760Y212504D01*
X442775Y212574D01*
X442798Y212642D01*
X442795Y212670D01*
X442801Y212698D01*
X442788Y212769D01*
X442782Y212840D01*
X442769Y212865D01*
X442763Y212893D01*
X442723Y212953D01*
X442690Y213016D01*
X442668Y213034D01*
X442652Y213058D01*
X442569Y213116D01*
X442537Y213143D01*
X442526Y213146D01*
X442516Y213153D01*
X441197Y213777D01*
X460088Y246497D01*
X460115Y246579D01*
X460147Y246660D01*
X460147Y246674D01*
X460152Y246687D01*
X460145Y246774D01*
X460144Y246860D01*
X460138Y246873D01*
X460137Y246887D01*
X460098Y246964D01*
X460062Y247044D01*
X460052Y247054D01*
X460046Y247066D01*
X460003Y247102D01*
X459934Y247170D01*
X458814Y247933D01*
X458749Y247960D01*
X458687Y247995D01*
X458655Y248000D01*
X458629Y248011D01*
X458577Y248011D01*
X458509Y248021D01*
X458503Y248021D01*
X458028Y248462D01*
X457998Y248480D01*
X457968Y248509D01*
X457432Y248874D01*
X457431Y248880D01*
X457404Y248945D01*
X457386Y249013D01*
X457366Y249039D01*
X457356Y249065D01*
X457319Y249102D01*
X457278Y249157D01*
X455539Y250770D01*
X455478Y250806D01*
X455423Y250850D01*
X455392Y250860D01*
X455368Y250874D01*
X455317Y250882D01*
X455250Y250902D01*
X455245Y250902D01*
X454840Y251410D01*
X454814Y251432D01*
X454789Y251465D01*
X454313Y251906D01*
X454313Y251912D01*
X454296Y251980D01*
X454288Y252051D01*
X454272Y252079D01*
X454266Y252107D01*
X454235Y252148D01*
X454202Y252209D01*
X452723Y254063D01*
X452669Y254108D01*
X452621Y254159D01*
X452591Y254173D01*
X452570Y254191D01*
X452520Y254207D01*
X452458Y254236D01*
X452452Y254238D01*
X452128Y254800D01*
X452105Y254826D01*
X452085Y254862D01*
X451680Y255369D01*
X451681Y255375D01*
X451675Y255445D01*
X451677Y255516D01*
X451666Y255546D01*
X451664Y255574D01*
X451640Y255620D01*
X451616Y255685D01*
X450430Y257739D01*
X450383Y257792D01*
X450343Y257850D01*
X450316Y257868D01*
X450297Y257889D01*
X450251Y257911D01*
X450193Y257950D01*
X450188Y257952D01*
X449951Y258556D01*
X449932Y258585D01*
X449918Y258624D01*
X449593Y259186D01*
X449595Y259191D01*
X449599Y259262D01*
X449612Y259331D01*
X449606Y259363D01*
X449607Y259391D01*
X449590Y259440D01*
X449577Y259508D01*
X448710Y261715D01*
X448672Y261774D01*
X448641Y261838D01*
X448616Y261860D01*
X448601Y261884D01*
X448559Y261913D01*
X448507Y261959D01*
X448503Y261962D01*
X448358Y262595D01*
X448344Y262626D01*
X448336Y262667D01*
X448099Y263271D01*
X448101Y263276D01*
X448116Y263345D01*
X448139Y263412D01*
X448137Y263445D01*
X448143Y263472D01*
X448133Y263523D01*
X448130Y263592D01*
X447910Y264555D01*
X447890Y264600D01*
X447879Y264648D01*
X447849Y264690D01*
X447828Y264738D01*
X447792Y264771D01*
X447763Y264811D01*
X447719Y264839D01*
X447681Y264874D01*
X447635Y264891D01*
X447593Y264917D01*
X447536Y264928D01*
X447493Y264943D01*
X447457Y264942D01*
X447416Y264949D01*
X397489Y264949D01*
X395703Y266735D01*
X395703Y266884D01*
X395702Y266892D01*
X395703Y266900D01*
X395682Y266990D01*
X395664Y267081D01*
X395659Y267087D01*
X395657Y267095D01*
X395555Y267243D01*
X373074Y289724D01*
X373067Y289728D01*
X373063Y289734D01*
X372984Y289783D01*
X372907Y289835D01*
X372899Y289836D01*
X372893Y289840D01*
X372715Y289872D01*
X372566Y289872D01*
X370780Y291658D01*
X370780Y306170D01*
X370779Y306175D01*
X370780Y306180D01*
X370759Y306273D01*
X370741Y306366D01*
X370738Y306371D01*
X370737Y306376D01*
X370681Y306454D01*
X370628Y306532D01*
X370624Y306535D01*
X370621Y306539D01*
X370539Y306590D01*
X370460Y306641D01*
X370455Y306642D01*
X370450Y306645D01*
X370273Y306677D01*
X367187Y306677D01*
X366561Y307303D01*
X366556Y307306D01*
X366553Y307310D01*
X366473Y307361D01*
X366394Y307414D01*
X366389Y307415D01*
X366384Y307418D01*
X366290Y307434D01*
X366197Y307452D01*
X366192Y307451D01*
X366187Y307451D01*
X366094Y307430D01*
X366001Y307410D01*
X365996Y307407D01*
X365991Y307406D01*
X365843Y307303D01*
X365217Y306677D01*
X362187Y306677D01*
X361561Y307303D01*
X361556Y307306D01*
X361553Y307310D01*
X361473Y307361D01*
X361394Y307414D01*
X361389Y307415D01*
X361384Y307418D01*
X361290Y307434D01*
X361197Y307452D01*
X361192Y307451D01*
X361187Y307451D01*
X361094Y307430D01*
X361001Y307410D01*
X360996Y307407D01*
X360991Y307406D01*
X360843Y307303D01*
X360217Y306677D01*
X357187Y306677D01*
X356561Y307303D01*
X356556Y307306D01*
X356553Y307310D01*
X356473Y307361D01*
X356394Y307414D01*
X356389Y307415D01*
X356384Y307418D01*
X356290Y307434D01*
X356197Y307452D01*
X356192Y307451D01*
X356187Y307451D01*
X356094Y307430D01*
X356001Y307410D01*
X355996Y307407D01*
X355991Y307406D01*
X355843Y307303D01*
X355217Y306677D01*
X352171Y306677D01*
X352166Y306676D01*
X352161Y306677D01*
X352068Y306656D01*
X351974Y306638D01*
X351970Y306635D01*
X351965Y306634D01*
X351887Y306578D01*
X351809Y306525D01*
X351806Y306521D01*
X351802Y306518D01*
X351751Y306436D01*
X351699Y306357D01*
X351699Y306352D01*
X351696Y306347D01*
X351664Y306170D01*
X351664Y301211D01*
X351665Y301203D01*
X351664Y301196D01*
X351685Y301106D01*
X351703Y301015D01*
X351708Y301008D01*
X351710Y301001D01*
X351812Y300853D01*
X353922Y298743D01*
X353922Y294347D01*
X350813Y291238D01*
X346417Y291238D01*
X343308Y294347D01*
X343308Y298743D01*
X345418Y300853D01*
X345422Y300859D01*
X345428Y300864D01*
X345477Y300942D01*
X345529Y301020D01*
X345530Y301027D01*
X345534Y301034D01*
X345566Y301211D01*
X345566Y306170D01*
X345565Y306175D01*
X345566Y306180D01*
X345545Y306273D01*
X345527Y306366D01*
X345524Y306371D01*
X345523Y306376D01*
X345467Y306454D01*
X345414Y306532D01*
X345410Y306535D01*
X345407Y306539D01*
X345325Y306590D01*
X345246Y306641D01*
X345241Y306642D01*
X345236Y306645D01*
X345059Y306677D01*
X342187Y306677D01*
X340927Y307936D01*
X340927Y315467D01*
X342187Y316727D01*
X345217Y316727D01*
X345843Y316101D01*
X345848Y316098D01*
X345851Y316094D01*
X345931Y316042D01*
X346010Y315990D01*
X346015Y315989D01*
X346020Y315986D01*
X346114Y315970D01*
X346207Y315952D01*
X346212Y315953D01*
X346218Y315952D01*
X346310Y315974D01*
X346403Y315994D01*
X346408Y315997D01*
X346413Y315998D01*
X346561Y316101D01*
X347187Y316727D01*
X350217Y316727D01*
X350843Y316101D01*
X350848Y316098D01*
X350851Y316094D01*
X350931Y316042D01*
X351010Y315990D01*
X351015Y315989D01*
X351020Y315986D01*
X351114Y315970D01*
X351207Y315952D01*
X351212Y315953D01*
X351218Y315952D01*
X351310Y315974D01*
X351403Y315994D01*
X351408Y315997D01*
X351413Y315998D01*
X351561Y316101D01*
X352187Y316727D01*
X355217Y316727D01*
X355843Y316101D01*
X355848Y316098D01*
X355851Y316094D01*
X355931Y316042D01*
X356010Y315990D01*
X356015Y315989D01*
X356020Y315986D01*
X356114Y315970D01*
X356207Y315952D01*
X356212Y315953D01*
X356218Y315952D01*
X356310Y315974D01*
X356403Y315994D01*
X356408Y315997D01*
X356413Y315998D01*
X356561Y316101D01*
X357187Y316727D01*
X360217Y316727D01*
X360843Y316101D01*
X360848Y316098D01*
X360851Y316094D01*
X360931Y316042D01*
X361010Y315990D01*
X361015Y315989D01*
X361020Y315986D01*
X361114Y315970D01*
X361207Y315952D01*
X361212Y315953D01*
X361218Y315952D01*
X361310Y315974D01*
X361403Y315994D01*
X361408Y315997D01*
X361413Y315998D01*
X361561Y316101D01*
X362187Y316727D01*
X365217Y316727D01*
X365843Y316101D01*
X365848Y316098D01*
X365851Y316094D01*
X365931Y316042D01*
X366010Y315990D01*
X366015Y315989D01*
X366020Y315986D01*
X366114Y315970D01*
X366207Y315952D01*
X366212Y315953D01*
X366218Y315952D01*
X366310Y315974D01*
X366403Y315994D01*
X366408Y315997D01*
X366413Y315998D01*
X366561Y316101D01*
X367187Y316727D01*
X370217Y316727D01*
X370843Y316101D01*
X370848Y316098D01*
X370851Y316094D01*
X370931Y316042D01*
X371010Y315990D01*
X371015Y315989D01*
X371020Y315986D01*
X371114Y315970D01*
X371207Y315952D01*
X371212Y315953D01*
X371218Y315952D01*
X371310Y315974D01*
X371403Y315994D01*
X371408Y315997D01*
X371413Y315998D01*
X371561Y316101D01*
X372187Y316727D01*
X375170Y316727D01*
X375175Y316728D01*
X375180Y316727D01*
X375273Y316748D01*
X375367Y316766D01*
X375371Y316769D01*
X375376Y316770D01*
X375454Y316826D01*
X375532Y316879D01*
X375535Y316883D01*
X375540Y316886D01*
X375590Y316968D01*
X375642Y317047D01*
X375643Y317052D01*
X375645Y317057D01*
X375677Y317234D01*
X375677Y320217D01*
X376303Y320843D01*
X376306Y320848D01*
X376310Y320851D01*
X376362Y320931D01*
X376414Y321010D01*
X376415Y321015D01*
X376418Y321020D01*
X376434Y321114D01*
X376452Y321207D01*
X376451Y321212D01*
X376452Y321218D01*
X376430Y321310D01*
X376410Y321403D01*
X376407Y321408D01*
X376406Y321413D01*
X376303Y321561D01*
X375677Y322187D01*
X375677Y325217D01*
X376303Y325843D01*
X376306Y325848D01*
X376310Y325851D01*
X376362Y325931D01*
X376414Y326010D01*
X376415Y326015D01*
X376418Y326020D01*
X376434Y326114D01*
X376452Y326207D01*
X376451Y326212D01*
X376452Y326218D01*
X376430Y326310D01*
X376410Y326403D01*
X376407Y326408D01*
X376406Y326413D01*
X376303Y326561D01*
X375677Y327187D01*
X375677Y330217D01*
X376303Y330843D01*
X376306Y330848D01*
X376310Y330851D01*
X376362Y330931D01*
X376414Y331010D01*
X376415Y331015D01*
X376418Y331020D01*
X376434Y331114D01*
X376452Y331207D01*
X376451Y331212D01*
X376452Y331218D01*
X376430Y331310D01*
X376410Y331403D01*
X376407Y331408D01*
X376406Y331413D01*
X376303Y331561D01*
X375677Y332187D01*
X375677Y335217D01*
X376303Y335843D01*
X376306Y335848D01*
X376310Y335851D01*
X376362Y335931D01*
X376414Y336010D01*
X376415Y336015D01*
X376418Y336020D01*
X376434Y336114D01*
X376452Y336207D01*
X376451Y336212D01*
X376452Y336218D01*
X376430Y336310D01*
X376410Y336403D01*
X376407Y336408D01*
X376406Y336413D01*
X376303Y336561D01*
X375677Y337187D01*
X375677Y340217D01*
X376303Y340843D01*
X376306Y340848D01*
X376310Y340851D01*
X376362Y340931D01*
X376414Y341010D01*
X376415Y341015D01*
X376418Y341020D01*
X376434Y341114D01*
X376452Y341207D01*
X376451Y341212D01*
X376452Y341218D01*
X376430Y341310D01*
X376410Y341403D01*
X376407Y341408D01*
X376406Y341413D01*
X376303Y341561D01*
X375677Y342187D01*
X375677Y345217D01*
X376303Y345843D01*
X376306Y345848D01*
X376310Y345851D01*
X376362Y345931D01*
X376414Y346010D01*
X376415Y346015D01*
X376418Y346020D01*
X376434Y346114D01*
X376452Y346207D01*
X376451Y346212D01*
X376452Y346218D01*
X376430Y346310D01*
X376410Y346403D01*
X376407Y346408D01*
X376406Y346413D01*
X376303Y346561D01*
X375677Y347187D01*
X375677Y350217D01*
X376303Y350843D01*
X376306Y350848D01*
X376310Y350851D01*
X376362Y350931D01*
X376414Y351010D01*
X376415Y351015D01*
X376418Y351020D01*
X376434Y351114D01*
X376452Y351207D01*
X376451Y351212D01*
X376452Y351218D01*
X376430Y351310D01*
X376410Y351403D01*
X376407Y351408D01*
X376406Y351413D01*
X376303Y351561D01*
X375677Y352187D01*
X375677Y355217D01*
X376303Y355843D01*
X376306Y355848D01*
X376310Y355851D01*
X376362Y355931D01*
X376414Y356010D01*
X376415Y356015D01*
X376418Y356020D01*
X376434Y356114D01*
X376452Y356207D01*
X376451Y356212D01*
X376452Y356218D01*
X376430Y356310D01*
X376410Y356403D01*
X376407Y356408D01*
X376406Y356413D01*
X376303Y356561D01*
X375677Y357187D01*
X375677Y360217D01*
X376303Y360843D01*
X376306Y360848D01*
X376310Y360851D01*
X376362Y360931D01*
X376414Y361010D01*
X376415Y361015D01*
X376418Y361020D01*
X376434Y361114D01*
X376452Y361207D01*
X376451Y361212D01*
X376452Y361218D01*
X376430Y361310D01*
X376410Y361403D01*
X376407Y361408D01*
X376406Y361413D01*
X376303Y361561D01*
X375677Y362187D01*
X375677Y365217D01*
X376937Y366477D01*
X384468Y366477D01*
X385594Y365350D01*
X385598Y365347D01*
X385601Y365343D01*
X385681Y365292D01*
X385761Y365239D01*
X385766Y365238D01*
X385771Y365235D01*
X385864Y365219D01*
X385958Y365202D01*
X385963Y365203D01*
X385968Y365202D01*
X386061Y365223D01*
X386154Y365243D01*
X386158Y365246D01*
X386163Y365247D01*
X386311Y365350D01*
X387738Y366777D01*
X387887Y366777D01*
X387895Y366778D01*
X387903Y366777D01*
X387993Y366798D01*
X388084Y366816D01*
X388090Y366821D01*
X388098Y366823D01*
X388246Y366925D01*
X393603Y372282D01*
X393859Y372282D01*
X393866Y372283D01*
X393874Y372282D01*
X393964Y372303D01*
X394055Y372322D01*
X394062Y372326D01*
X394069Y372328D01*
X394217Y372430D01*
X394799Y373012D01*
X410062Y373012D01*
X410955Y372119D01*
X410955Y366856D01*
X410062Y365962D01*
X395398Y365962D01*
X395390Y365961D01*
X395382Y365962D01*
X395293Y365941D01*
X395201Y365923D01*
X395195Y365918D01*
X395187Y365917D01*
X395039Y365814D01*
X392198Y362973D01*
X392194Y362966D01*
X392188Y362962D01*
X392139Y362883D01*
X392087Y362806D01*
X392086Y362798D01*
X392082Y362792D01*
X392050Y362614D01*
X392050Y354337D01*
X390329Y352617D01*
X390328Y352614D01*
X390326Y352613D01*
X390273Y352532D01*
X390218Y352450D01*
X390218Y352447D01*
X390216Y352445D01*
X390199Y352349D01*
X390181Y352253D01*
X390181Y352250D01*
X390181Y352248D01*
X390202Y352151D01*
X390222Y352057D01*
X390224Y352055D01*
X390224Y352052D01*
X390281Y351972D01*
X390337Y351892D01*
X390339Y351891D01*
X390340Y351889D01*
X390423Y351837D01*
X390506Y351785D01*
X390508Y351784D01*
X390511Y351783D01*
X390688Y351751D01*
X390939Y351751D01*
X393879Y348810D01*
X393884Y348807D01*
X393887Y348803D01*
X393967Y348752D01*
X394046Y348699D01*
X394052Y348698D01*
X394056Y348695D01*
X394150Y348679D01*
X394243Y348662D01*
X394248Y348663D01*
X394254Y348662D01*
X394346Y348683D01*
X394439Y348703D01*
X394444Y348706D01*
X394449Y348707D01*
X394597Y348810D01*
X394799Y349012D01*
X410062Y349012D01*
X410955Y348119D01*
X410955Y345117D01*
X410955Y345115D01*
X410955Y345112D01*
X410975Y345017D01*
X410995Y344921D01*
X410996Y344918D01*
X410997Y344916D01*
X411053Y344835D01*
X411107Y344755D01*
X411109Y344753D01*
X411111Y344751D01*
X411195Y344698D01*
X411275Y344646D01*
X411278Y344645D01*
X411280Y344644D01*
X411377Y344627D01*
X411473Y344610D01*
X411475Y344611D01*
X411478Y344610D01*
X411571Y344632D01*
X411668Y344654D01*
X411670Y344655D01*
X411673Y344656D01*
X411821Y344758D01*
X418393Y351331D01*
X418398Y351337D01*
X418404Y351342D01*
X418453Y351421D01*
X418504Y351498D01*
X418506Y351506D01*
X418510Y351512D01*
X418542Y351690D01*
X418542Y353358D01*
X418541Y353363D01*
X418542Y353368D01*
X418521Y353461D01*
X418502Y353554D01*
X418499Y353559D01*
X418498Y353564D01*
X418443Y353642D01*
X418390Y353720D01*
X418385Y353723D01*
X418382Y353727D01*
X418301Y353778D01*
X418222Y353829D01*
X418216Y353830D01*
X418212Y353833D01*
X418035Y353865D01*
X415459Y353865D01*
X414566Y354758D01*
X414566Y366021D01*
X415459Y366915D01*
X423594Y366915D01*
X423601Y366916D01*
X423609Y366915D01*
X423699Y366936D01*
X423790Y366954D01*
X423797Y366959D01*
X423804Y366960D01*
X423952Y367063D01*
X424158Y367269D01*
X424162Y367275D01*
X424168Y367280D01*
X424217Y367358D01*
X424269Y367436D01*
X424270Y367443D01*
X424274Y367450D01*
X424306Y367627D01*
X424306Y373032D01*
X424305Y373040D01*
X424306Y373047D01*
X424285Y373137D01*
X424267Y373228D01*
X424262Y373235D01*
X424260Y373242D01*
X424158Y373390D01*
X422048Y375500D01*
X422048Y379896D01*
X424158Y382006D01*
X424162Y382012D01*
X424168Y382017D01*
X424217Y382095D01*
X424269Y382173D01*
X424270Y382180D01*
X424274Y382187D01*
X424306Y382364D01*
X424306Y383061D01*
X424305Y383066D01*
X424306Y383072D01*
X424285Y383165D01*
X424267Y383258D01*
X424264Y383262D01*
X424263Y383267D01*
X424207Y383345D01*
X424154Y383424D01*
X424150Y383426D01*
X424147Y383431D01*
X424065Y383481D01*
X423986Y383533D01*
X423981Y383534D01*
X423976Y383536D01*
X423799Y383568D01*
X417297Y383568D01*
X414940Y385926D01*
X414940Y394260D01*
X417297Y396618D01*
X431632Y396618D01*
X433989Y394260D01*
X433989Y385926D01*
X431632Y383568D01*
X430911Y383568D01*
X430906Y383567D01*
X430901Y383568D01*
X430808Y383548D01*
X430714Y383529D01*
X430710Y383526D01*
X430705Y383525D01*
X430627Y383470D01*
X430549Y383416D01*
X430546Y383412D01*
X430542Y383409D01*
X430491Y383327D01*
X430439Y383248D01*
X430439Y383243D01*
X430436Y383239D01*
X430404Y383061D01*
X430404Y382364D01*
X430405Y382356D01*
X430404Y382349D01*
X430425Y382259D01*
X430443Y382168D01*
X430448Y382161D01*
X430450Y382154D01*
X430552Y382006D01*
X432662Y379896D01*
X432662Y375500D01*
X430552Y373390D01*
X430548Y373384D01*
X430542Y373379D01*
X430493Y373301D01*
X430441Y373223D01*
X430440Y373216D01*
X430436Y373209D01*
X430404Y373032D01*
X430404Y364892D01*
X428764Y363252D01*
X428759Y363245D01*
X428753Y363241D01*
X428704Y363162D01*
X428653Y363085D01*
X428651Y363077D01*
X428647Y363070D01*
X428615Y362893D01*
X428615Y354758D01*
X427722Y353865D01*
X425147Y353865D01*
X425141Y353864D01*
X425136Y353865D01*
X425043Y353844D01*
X424950Y353826D01*
X424946Y353823D01*
X424941Y353821D01*
X424863Y353766D01*
X424784Y353713D01*
X424781Y353709D01*
X424777Y353705D01*
X424727Y353624D01*
X424675Y353545D01*
X424674Y353540D01*
X424671Y353535D01*
X424639Y353358D01*
X424639Y348954D01*
X413124Y337438D01*
X411021Y337438D01*
X411019Y337438D01*
X411016Y337438D01*
X410922Y337418D01*
X410825Y337399D01*
X410823Y337397D01*
X410820Y337397D01*
X410740Y337341D01*
X410659Y337286D01*
X410658Y337284D01*
X410655Y337282D01*
X410602Y337199D01*
X410550Y337118D01*
X410549Y337115D01*
X410548Y337113D01*
X410532Y337017D01*
X410514Y336921D01*
X410515Y336918D01*
X410514Y336915D01*
X410536Y336822D01*
X410558Y336725D01*
X410559Y336723D01*
X410560Y336720D01*
X410663Y336572D01*
X410743Y336492D01*
X410743Y333663D01*
X410744Y333658D01*
X410743Y333652D01*
X410764Y333559D01*
X410782Y333466D01*
X410785Y333462D01*
X410787Y333457D01*
X410842Y333379D01*
X410895Y333300D01*
X410899Y333298D01*
X410903Y333293D01*
X410984Y333243D01*
X411063Y333191D01*
X411068Y333190D01*
X411073Y333187D01*
X411250Y333155D01*
X415673Y333155D01*
X415679Y333156D01*
X415684Y333156D01*
X415777Y333176D01*
X415870Y333195D01*
X415874Y333198D01*
X415879Y333199D01*
X415957Y333254D01*
X416036Y333308D01*
X416039Y333312D01*
X416043Y333315D01*
X416093Y333396D01*
X416145Y333476D01*
X416146Y333481D01*
X416149Y333485D01*
X416181Y333663D01*
X416181Y334603D01*
X417074Y335496D01*
X433337Y335496D01*
X434230Y334603D01*
X434230Y324673D01*
X434231Y324666D01*
X434230Y324660D01*
X434251Y324568D01*
X434270Y324476D01*
X434274Y324471D01*
X434275Y324464D01*
X434330Y324388D01*
X434382Y324310D01*
X434388Y324307D01*
X434392Y324301D01*
X434472Y324252D01*
X434550Y324201D01*
X434557Y324200D01*
X434563Y324197D01*
X434740Y324165D01*
X438078Y324184D01*
X438082Y324185D01*
X438086Y324184D01*
X438180Y324205D01*
X438275Y324225D01*
X438278Y324227D01*
X438281Y324228D01*
X438360Y324283D01*
X438440Y324338D01*
X438442Y324341D01*
X438445Y324344D01*
X438496Y324426D01*
X438548Y324507D01*
X438549Y324511D01*
X438551Y324514D01*
X438583Y324691D01*
X438583Y326808D01*
X439476Y327702D01*
X451739Y327702D01*
X452632Y326808D01*
X452632Y315545D01*
X451739Y314652D01*
X439476Y314652D01*
X438583Y315545D01*
X438583Y317579D01*
X438581Y317586D01*
X438583Y317592D01*
X438562Y317684D01*
X438543Y317776D01*
X438539Y317781D01*
X438538Y317788D01*
X438483Y317864D01*
X438430Y317941D01*
X438425Y317945D01*
X438421Y317950D01*
X438341Y318000D01*
X438262Y318051D01*
X438256Y318052D01*
X438250Y318055D01*
X438073Y318086D01*
X433052Y318059D01*
X433045Y318057D01*
X433039Y318058D01*
X433004Y318050D01*
X431584Y318050D01*
X431583Y318050D01*
X431581Y318050D01*
X430318Y318043D01*
X429425Y318936D01*
X429424Y318937D01*
X429423Y318939D01*
X429058Y319300D01*
X429053Y319303D01*
X429049Y319308D01*
X428969Y319358D01*
X428891Y319410D01*
X428884Y319411D01*
X428879Y319414D01*
X428701Y319446D01*
X417074Y319446D01*
X416181Y320339D01*
X416181Y327059D01*
X416180Y327064D01*
X416181Y327069D01*
X416160Y327162D01*
X416141Y327255D01*
X416138Y327260D01*
X416137Y327265D01*
X416082Y327342D01*
X416028Y327421D01*
X416024Y327424D01*
X416021Y327428D01*
X415940Y327479D01*
X415860Y327530D01*
X415855Y327531D01*
X415851Y327534D01*
X415673Y327566D01*
X411250Y327566D01*
X411245Y327565D01*
X411240Y327566D01*
X411147Y327545D01*
X411054Y327526D01*
X411049Y327523D01*
X411044Y327522D01*
X410966Y327467D01*
X410888Y327414D01*
X410885Y327409D01*
X410881Y327406D01*
X410830Y327325D01*
X410779Y327246D01*
X410778Y327241D01*
X410775Y327236D01*
X410743Y327059D01*
X410743Y324229D01*
X409850Y323336D01*
X399542Y323336D01*
X399537Y323335D01*
X399532Y323336D01*
X399439Y323315D01*
X399345Y323296D01*
X399341Y323293D01*
X399336Y323292D01*
X399258Y323237D01*
X399180Y323184D01*
X399177Y323179D01*
X399172Y323176D01*
X399122Y323095D01*
X399070Y323016D01*
X399069Y323011D01*
X399067Y323006D01*
X399035Y322829D01*
X399035Y322707D01*
X399036Y322699D01*
X399035Y322691D01*
X399056Y322601D01*
X399074Y322510D01*
X399079Y322504D01*
X399080Y322496D01*
X399183Y322348D01*
X400997Y320534D01*
X401004Y320530D01*
X401008Y320523D01*
X401087Y320474D01*
X401164Y320423D01*
X401172Y320422D01*
X401179Y320417D01*
X401356Y320385D01*
X409850Y320385D01*
X410743Y319492D01*
X410743Y311773D01*
X410744Y311768D01*
X410743Y311763D01*
X410764Y311670D01*
X410782Y311576D01*
X410785Y311572D01*
X410787Y311567D01*
X410842Y311489D01*
X410895Y311411D01*
X410899Y311408D01*
X410903Y311403D01*
X410984Y311353D01*
X411063Y311301D01*
X411068Y311300D01*
X411073Y311298D01*
X411250Y311266D01*
X415673Y311266D01*
X415679Y311267D01*
X415684Y311266D01*
X415777Y311287D01*
X415870Y311305D01*
X415874Y311308D01*
X415879Y311309D01*
X415957Y311365D01*
X416036Y311418D01*
X416039Y311422D01*
X416043Y311425D01*
X416093Y311507D01*
X416145Y311586D01*
X416146Y311591D01*
X416149Y311596D01*
X416181Y311773D01*
X416181Y315603D01*
X417074Y316496D01*
X433337Y316496D01*
X434230Y315603D01*
X434230Y311773D01*
X434231Y311768D01*
X434230Y311763D01*
X434251Y311670D01*
X434270Y311576D01*
X434273Y311572D01*
X434274Y311567D01*
X434329Y311489D01*
X434382Y311411D01*
X434387Y311408D01*
X434390Y311403D01*
X434471Y311353D01*
X434550Y311301D01*
X434556Y311300D01*
X434560Y311298D01*
X434737Y311266D01*
X453407Y311266D01*
X453415Y311267D01*
X453423Y311266D01*
X453513Y311287D01*
X453604Y311305D01*
X453610Y311310D01*
X453618Y311312D01*
X453766Y311414D01*
X456416Y314064D01*
X456420Y314071D01*
X456426Y314075D01*
X456475Y314154D01*
X456527Y314231D01*
X456528Y314239D01*
X456532Y314245D01*
X456564Y314423D01*
X456564Y324645D01*
X456563Y324653D01*
X456564Y324660D01*
X456543Y324750D01*
X456525Y324841D01*
X456520Y324848D01*
X456518Y324855D01*
X456416Y325003D01*
X454052Y327367D01*
X454052Y331763D01*
X457161Y334872D01*
X461557Y334872D01*
X462462Y333967D01*
X462464Y333966D01*
X462465Y333963D01*
X462545Y333911D01*
X462629Y333856D01*
X462631Y333856D01*
X462634Y333854D01*
X462729Y333837D01*
X462826Y333819D01*
X462828Y333819D01*
X462831Y333819D01*
X462927Y333840D01*
X463022Y333860D01*
X463024Y333862D01*
X463026Y333862D01*
X463106Y333919D01*
X463186Y333974D01*
X463188Y333977D01*
X463190Y333978D01*
X463242Y334061D01*
X463294Y334144D01*
X463294Y334146D01*
X463296Y334148D01*
X463328Y334326D01*
X463328Y384097D01*
X463326Y384105D01*
X463327Y384113D01*
X463306Y384203D01*
X463288Y384294D01*
X463284Y384300D01*
X463282Y384308D01*
X463179Y384456D01*
X460776Y386859D01*
X460776Y391255D01*
X463766Y394246D01*
X463816Y394321D01*
X463869Y394394D01*
X463871Y394404D01*
X463877Y394413D01*
X463894Y394501D01*
X463915Y394589D01*
X463913Y394599D01*
X463915Y394610D01*
X463896Y394698D01*
X463881Y394786D01*
X463875Y394795D01*
X463873Y394806D01*
X463822Y394880D01*
X463774Y394956D01*
X463765Y394962D01*
X463759Y394970D01*
X463714Y394999D01*
X463628Y395061D01*
X462458Y395625D01*
X462390Y395642D01*
X462324Y395668D01*
X462291Y395668D01*
X462264Y395675D01*
X462213Y395667D01*
X462144Y395666D01*
X462139Y395665D01*
X461603Y396031D01*
X461571Y396045D01*
X461537Y396069D01*
X460952Y396351D01*
X460951Y396356D01*
X460915Y396417D01*
X460886Y396481D01*
X460863Y396504D01*
X460848Y396528D01*
X460807Y396559D01*
X460758Y396608D01*
X458799Y397944D01*
X458734Y397972D01*
X458672Y398007D01*
X458640Y398011D01*
X458614Y398022D01*
X458563Y398022D01*
X458494Y398032D01*
X458489Y398032D01*
X458013Y398473D01*
X457984Y398491D01*
X457954Y398521D01*
X457418Y398886D01*
X457417Y398892D01*
X457390Y398957D01*
X457372Y399025D01*
X457352Y399051D01*
X457341Y399077D01*
X457305Y399114D01*
X457263Y399169D01*
X455526Y400783D01*
X455466Y400820D01*
X455410Y400863D01*
X455379Y400873D01*
X455355Y400887D01*
X455304Y400895D01*
X455237Y400915D01*
X455232Y400916D01*
X454828Y401423D01*
X454801Y401446D01*
X454776Y401479D01*
X454300Y401920D01*
X454300Y401926D01*
X454284Y401995D01*
X454276Y402065D01*
X454260Y402093D01*
X454253Y402121D01*
X454223Y402162D01*
X454190Y402223D01*
X452712Y404078D01*
X452658Y404123D01*
X452610Y404175D01*
X452580Y404189D01*
X452559Y404207D01*
X452509Y404222D01*
X452447Y404251D01*
X452442Y404253D01*
X452117Y404815D01*
X452094Y404841D01*
X452075Y404878D01*
X451670Y405385D01*
X451671Y405390D01*
X451665Y405461D01*
X451667Y405531D01*
X451656Y405562D01*
X451654Y405590D01*
X451630Y405636D01*
X451606Y405701D01*
X450421Y407755D01*
X450374Y407808D01*
X450334Y407866D01*
X450307Y407884D01*
X450289Y407905D01*
X450242Y407928D01*
X450185Y407966D01*
X450180Y407969D01*
X449943Y408573D01*
X449924Y408602D01*
X449910Y408641D01*
X449586Y409203D01*
X449587Y409208D01*
X449592Y409279D01*
X449604Y409348D01*
X449598Y409380D01*
X449600Y409408D01*
X449583Y409457D01*
X449569Y409525D01*
X448704Y411733D01*
X448666Y411792D01*
X448635Y411855D01*
X448610Y411878D01*
X448595Y411901D01*
X448553Y411930D01*
X448502Y411977D01*
X448497Y411980D01*
X448353Y412613D01*
X448338Y412644D01*
X448330Y412685D01*
X448093Y413289D01*
X448096Y413294D01*
X448111Y413363D01*
X448134Y413430D01*
X448132Y413463D01*
X448138Y413490D01*
X448129Y413541D01*
X448125Y413610D01*
X447598Y415922D01*
X447570Y415986D01*
X447548Y416054D01*
X447528Y416079D01*
X447516Y416105D01*
X447478Y416140D01*
X447435Y416194D01*
X447431Y416197D01*
X447382Y416844D01*
X447373Y416878D01*
X447371Y416919D01*
X447227Y417552D01*
X447230Y417557D01*
X447255Y417623D01*
X447288Y417685D01*
X447291Y417718D01*
X447301Y417744D01*
X447299Y417796D01*
X447306Y417864D01*
X447130Y420229D01*
X447111Y420297D01*
X447100Y420367D01*
X447083Y420395D01*
X447076Y420422D01*
X447044Y420463D01*
X447009Y420522D01*
X447005Y420526D01*
X447054Y421173D01*
X447049Y421208D01*
X447054Y421249D01*
X447005Y421896D01*
X447009Y421900D01*
X447044Y421962D01*
X447085Y422019D01*
X447094Y422051D01*
X447107Y422075D01*
X447113Y422127D01*
X447131Y422193D01*
X447308Y424558D01*
X447300Y424628D01*
X447299Y424699D01*
X447287Y424729D01*
X447284Y424757D01*
X447258Y424802D01*
X447232Y424866D01*
X447229Y424871D01*
X447374Y425503D01*
X447375Y425538D01*
X447385Y425578D01*
X447434Y426225D01*
X447438Y426229D01*
X447482Y426285D01*
X447531Y426335D01*
X447544Y426365D01*
X447561Y426387D01*
X447575Y426437D01*
X447602Y426500D01*
X448130Y428812D01*
X448132Y428883D01*
X448142Y428953D01*
X448135Y428984D01*
X448135Y429012D01*
X448117Y429061D01*
X448101Y429128D01*
X448099Y429133D01*
X448336Y429737D01*
X448342Y429771D01*
X448358Y429809D01*
X448503Y430442D01*
X448507Y430445D01*
X448559Y430493D01*
X448615Y430536D01*
X448632Y430563D01*
X448653Y430583D01*
X448674Y430630D01*
X448710Y430689D01*
X449577Y432896D01*
X449589Y432966D01*
X449610Y433033D01*
X449607Y433066D01*
X449612Y433093D01*
X449601Y433144D01*
X449595Y433213D01*
X449593Y433218D01*
X449918Y433780D01*
X449929Y433813D01*
X449951Y433848D01*
X450188Y434452D01*
X450193Y434454D01*
X450251Y434495D01*
X450313Y434528D01*
X450335Y434553D01*
X450358Y434569D01*
X450385Y434613D01*
X450430Y434665D01*
X451616Y436719D01*
X451639Y436786D01*
X451669Y436849D01*
X451671Y436882D01*
X451680Y436909D01*
X451676Y436960D01*
X451681Y437029D01*
X451680Y437035D01*
X452085Y437542D01*
X452101Y437573D01*
X452128Y437604D01*
X452452Y438166D01*
X452458Y438168D01*
X452502Y438190D01*
X452527Y438195D01*
X452547Y438208D01*
X452588Y438223D01*
X452612Y438244D01*
X452637Y438257D01*
X452665Y438288D01*
X452693Y438307D01*
X452704Y438324D01*
X452723Y438341D01*
X454202Y440195D01*
X454234Y440258D01*
X454274Y440316D01*
X454281Y440348D01*
X454294Y440373D01*
X454298Y440425D01*
X454313Y440492D01*
X454313Y440498D01*
X454789Y440939D01*
X454809Y440967D01*
X454840Y440994D01*
X455245Y441502D01*
X455250Y441502D01*
X455318Y441524D01*
X455387Y441537D01*
X455415Y441555D01*
X455441Y441564D01*
X455481Y441597D01*
X455539Y441634D01*
X457278Y443247D01*
X457319Y443304D01*
X457367Y443356D01*
X457378Y443387D01*
X457395Y443409D01*
X457406Y443460D01*
X457431Y443524D01*
X457432Y443530D01*
X457968Y443895D01*
X457993Y443920D01*
X458028Y443942D01*
X458503Y444384D01*
X458509Y444383D01*
X458579Y444395D01*
X458649Y444398D01*
X458679Y444411D01*
X458707Y444415D01*
X458751Y444443D01*
X458814Y444471D01*
X459934Y445234D01*
X459994Y445296D01*
X460058Y445355D01*
X460064Y445368D01*
X460074Y445378D01*
X460106Y445458D01*
X460142Y445537D01*
X460143Y445551D01*
X460148Y445564D01*
X460146Y445651D01*
X460149Y445737D01*
X460144Y445751D01*
X460143Y445764D01*
X460121Y445815D01*
X460088Y445907D01*
X441197Y478627D01*
X442516Y479251D01*
X442538Y479268D01*
X442565Y479278D01*
X442617Y479327D01*
X442675Y479370D01*
X442689Y479395D01*
X442710Y479414D01*
X442739Y479480D01*
X442775Y479542D01*
X442778Y479570D01*
X442790Y479596D01*
X442791Y479668D01*
X442800Y479739D01*
X442792Y479766D01*
X442793Y479795D01*
X442757Y479890D01*
X442746Y479930D01*
X442739Y479939D01*
X442735Y479951D01*
X433235Y496451D01*
X433183Y496510D01*
X433137Y496572D01*
X433118Y496583D01*
X433103Y496600D01*
X433033Y496634D01*
X432966Y496674D01*
X432942Y496678D01*
X432924Y496686D01*
X432879Y496688D01*
X432802Y496701D01*
X413802Y496701D01*
X413774Y496696D01*
X413746Y496698D01*
X413678Y496676D01*
X413607Y496662D01*
X413584Y496646D01*
X413557Y496637D01*
X413502Y496590D01*
X413443Y496549D01*
X413428Y496525D01*
X413407Y496507D01*
X413375Y496442D01*
X413336Y496382D01*
X413331Y496354D01*
X413319Y496328D01*
X413310Y496227D01*
X413303Y496185D01*
X413305Y496175D01*
X413304Y496162D01*
X413422Y494685D01*
X278982Y494685D01*
X279100Y496162D01*
X279096Y496191D01*
X279101Y496219D01*
X279084Y496288D01*
X279076Y496360D01*
X279062Y496384D01*
X279055Y496412D01*
X279012Y496470D01*
X278977Y496532D01*
X278954Y496549D01*
X278937Y496572D01*
X278875Y496609D01*
X278818Y496652D01*
X278790Y496659D01*
X278766Y496674D01*
X278666Y496690D01*
X278625Y496701D01*
X278615Y496699D01*
X278602Y496701D01*
X259602Y496701D01*
X259526Y496686D01*
X259448Y496677D01*
X259429Y496666D01*
X259407Y496662D01*
X259343Y496618D01*
X259275Y496579D01*
X259259Y496560D01*
X259243Y496549D01*
X259219Y496511D01*
X259169Y496451D01*
X249669Y479951D01*
X249660Y479924D01*
X249644Y479900D01*
X249629Y479830D01*
X249606Y479762D01*
X249609Y479734D01*
X249603Y479706D01*
X249617Y479636D01*
X249622Y479564D01*
X249635Y479539D01*
X249641Y479511D01*
X249681Y479451D01*
X249714Y479388D01*
X249736Y479370D01*
X249752Y479346D01*
X249835Y479288D01*
X249867Y479261D01*
X249878Y479258D01*
X249889Y479251D01*
X251207Y478627D01*
X232316Y445907D01*
X232289Y445825D01*
X232257Y445744D01*
X232257Y445730D01*
X232252Y445717D01*
X232259Y445630D01*
X232260Y445544D01*
X232266Y445531D01*
X232267Y445517D01*
X232306Y445440D01*
X232342Y445360D01*
X232352Y445350D01*
X232358Y445338D01*
X232401Y445303D01*
X232470Y445234D01*
X233590Y444471D01*
X233655Y444444D01*
X233717Y444409D01*
X233749Y444404D01*
X233775Y444393D01*
X233827Y444393D01*
X233895Y444383D01*
X233901Y444384D01*
X234376Y443942D01*
X234406Y443924D01*
X234436Y443895D01*
X234972Y443530D01*
X234973Y443524D01*
X235000Y443459D01*
X235018Y443391D01*
X235038Y443365D01*
X235048Y443339D01*
X235085Y443302D01*
X235126Y443247D01*
X236865Y441634D01*
X236925Y441598D01*
X236981Y441554D01*
X237012Y441544D01*
X237036Y441530D01*
X237087Y441522D01*
X237154Y441502D01*
X237159Y441502D01*
X237564Y440994D01*
X237590Y440972D01*
X237615Y440939D01*
X238091Y440498D01*
X238091Y440492D01*
X238108Y440424D01*
X238116Y440353D01*
X238132Y440325D01*
X238138Y440297D01*
X238169Y440256D01*
X238202Y440195D01*
X239681Y438341D01*
X239708Y438319D01*
X239726Y438293D01*
X239754Y438276D01*
X239783Y438245D01*
X239813Y438231D01*
X239834Y438213D01*
X239877Y438199D01*
X239896Y438187D01*
X239910Y438185D01*
X239946Y438168D01*
X239952Y438166D01*
X240276Y437604D01*
X240299Y437578D01*
X240319Y437542D01*
X240724Y437035D01*
X240723Y437029D01*
X240729Y436959D01*
X240727Y436888D01*
X240738Y436857D01*
X240740Y436829D01*
X240764Y436784D01*
X240788Y436719D01*
X241974Y434665D01*
X242021Y434612D01*
X242061Y434554D01*
X242088Y434536D01*
X242107Y434515D01*
X242153Y434493D01*
X242211Y434454D01*
X242216Y434452D01*
X242453Y433848D01*
X242472Y433819D01*
X242486Y433780D01*
X242811Y433218D01*
X242809Y433213D01*
X242805Y433142D01*
X242792Y433073D01*
X242798Y433041D01*
X242797Y433013D01*
X242814Y432964D01*
X242827Y432896D01*
X243694Y430689D01*
X243732Y430630D01*
X243763Y430566D01*
X243788Y430544D01*
X243803Y430520D01*
X243845Y430491D01*
X243897Y430445D01*
X243901Y430442D01*
X244046Y429809D01*
X244060Y429778D01*
X244068Y429737D01*
X244305Y429133D01*
X244303Y429128D01*
X244288Y429059D01*
X244265Y428992D01*
X244267Y428959D01*
X244261Y428932D01*
X244271Y428881D01*
X244274Y428812D01*
X244802Y426500D01*
X244831Y426436D01*
X244852Y426369D01*
X244873Y426343D01*
X244885Y426318D01*
X244922Y426283D01*
X244966Y426229D01*
X244970Y426225D01*
X245019Y425578D01*
X245028Y425545D01*
X245030Y425503D01*
X245175Y424871D01*
X245172Y424866D01*
X245147Y424800D01*
X245114Y424737D01*
X245111Y424705D01*
X245101Y424678D01*
X245103Y424627D01*
X245096Y424558D01*
X245273Y422193D01*
X245293Y422126D01*
X245303Y422056D01*
X245320Y422027D01*
X245328Y422000D01*
X245360Y421960D01*
X245395Y421900D01*
X245399Y421896D01*
X245350Y421249D01*
X245355Y421215D01*
X245350Y421173D01*
X245399Y420526D01*
X245395Y420522D01*
X245361Y420461D01*
X245319Y420404D01*
X245311Y420372D01*
X245297Y420347D01*
X245291Y420296D01*
X245274Y420229D01*
X245098Y417864D01*
X245106Y417794D01*
X245107Y417724D01*
X245119Y417693D01*
X245123Y417665D01*
X245148Y417621D01*
X245174Y417557D01*
X245177Y417552D01*
X245033Y416919D01*
X245032Y416885D01*
X245022Y416844D01*
X244973Y416197D01*
X244969Y416194D01*
X244926Y416138D01*
X244876Y416088D01*
X244863Y416058D01*
X244846Y416035D01*
X244833Y415986D01*
X244806Y415922D01*
X244279Y413610D01*
X244277Y413539D01*
X244267Y413469D01*
X244274Y413438D01*
X244274Y413409D01*
X244292Y413361D01*
X244308Y413294D01*
X244311Y413289D01*
X244074Y412685D01*
X244068Y412651D01*
X244051Y412613D01*
X243907Y411980D01*
X243902Y411977D01*
X243851Y411928D01*
X243795Y411886D01*
X243778Y411858D01*
X243757Y411839D01*
X243737Y411792D01*
X243700Y411733D01*
X242835Y409525D01*
X242822Y409455D01*
X242802Y409388D01*
X242805Y409355D01*
X242800Y409328D01*
X242811Y409277D01*
X242817Y409208D01*
X242818Y409203D01*
X242494Y408641D01*
X242483Y408608D01*
X242461Y408573D01*
X242224Y407969D01*
X242219Y407966D01*
X242161Y407926D01*
X242099Y407893D01*
X242078Y407868D01*
X242055Y407851D01*
X242028Y407808D01*
X241983Y407755D01*
X240798Y405701D01*
X240775Y405634D01*
X240745Y405570D01*
X240743Y405538D01*
X240734Y405511D01*
X240738Y405460D01*
X240733Y405390D01*
X240734Y405385D01*
X240329Y404878D01*
X240313Y404847D01*
X240287Y404815D01*
X239962Y404253D01*
X239957Y404251D01*
X239894Y404220D01*
X239827Y404196D01*
X239803Y404175D01*
X239778Y404162D01*
X239744Y404123D01*
X239692Y404078D01*
X238214Y402223D01*
X238182Y402160D01*
X238142Y402102D01*
X238135Y402070D01*
X238122Y402045D01*
X238118Y401993D01*
X238104Y401926D01*
X238104Y401920D01*
X237628Y401479D01*
X237608Y401451D01*
X237576Y401423D01*
X237172Y400916D01*
X237167Y400915D01*
X237099Y400894D01*
X237030Y400880D01*
X237002Y400862D01*
X236976Y400854D01*
X236937Y400820D01*
X236878Y400783D01*
X235141Y399169D01*
X235099Y399112D01*
X235052Y399060D01*
X235040Y399029D01*
X235024Y399007D01*
X235012Y398956D01*
X234987Y398892D01*
X234986Y398886D01*
X234450Y398521D01*
X234426Y398496D01*
X234391Y398473D01*
X233915Y398032D01*
X233910Y398032D01*
X233840Y398021D01*
X233770Y398018D01*
X233740Y398004D01*
X233712Y398000D01*
X233668Y397972D01*
X233605Y397944D01*
X231646Y396608D01*
X231597Y396557D01*
X231542Y396513D01*
X231526Y396484D01*
X231506Y396464D01*
X231487Y396416D01*
X231453Y396356D01*
X231452Y396351D01*
X230867Y396069D01*
X230839Y396048D01*
X230801Y396031D01*
X230265Y395665D01*
X230260Y395666D01*
X230189Y395666D01*
X230119Y395673D01*
X230088Y395664D01*
X230060Y395664D01*
X230012Y395643D01*
X229946Y395625D01*
X228978Y395159D01*
X228906Y395104D01*
X228832Y395053D01*
X228827Y395044D01*
X228818Y395038D01*
X228773Y394960D01*
X228725Y394884D01*
X228723Y394873D01*
X228718Y394864D01*
X228706Y394775D01*
X228691Y394686D01*
X228694Y394676D01*
X228692Y394665D01*
X228716Y394579D01*
X228737Y394491D01*
X228743Y394482D01*
X228746Y394472D01*
X228779Y394430D01*
X228840Y394343D01*
X271283Y351899D01*
X271290Y351895D01*
X271294Y351889D01*
X271373Y351840D01*
X271450Y351788D01*
X271458Y351787D01*
X271465Y351783D01*
X271642Y351751D01*
X284612Y351751D01*
X284614Y351751D01*
X284617Y351751D01*
X284712Y351771D01*
X284808Y351790D01*
X284811Y351792D01*
X284813Y351792D01*
X284894Y351848D01*
X284974Y351903D01*
X284976Y351905D01*
X284978Y351907D01*
X285031Y351990D01*
X285083Y352071D01*
X285084Y352074D01*
X285085Y352076D01*
X285102Y352172D01*
X285119Y352268D01*
X285118Y352271D01*
X285119Y352273D01*
X285097Y352368D01*
X285075Y352464D01*
X285074Y352466D01*
X285073Y352469D01*
X284971Y352617D01*
X284253Y353334D01*
X284253Y357730D01*
X286565Y360041D01*
X286566Y360044D01*
X286568Y360045D01*
X286621Y360126D01*
X286675Y360208D01*
X286676Y360211D01*
X286677Y360213D01*
X286695Y360309D01*
X286713Y360405D01*
X286713Y360408D01*
X286713Y360410D01*
X286692Y360506D01*
X286671Y360601D01*
X286670Y360603D01*
X286669Y360606D01*
X286613Y360686D01*
X286557Y360766D01*
X286555Y360767D01*
X286553Y360769D01*
X286471Y360821D01*
X286388Y360873D01*
X286385Y360874D01*
X286383Y360875D01*
X286206Y360907D01*
X263917Y360907D01*
X255777Y369047D01*
X255777Y411241D01*
X265817Y421280D01*
X265821Y421287D01*
X265827Y421291D01*
X265876Y421370D01*
X265928Y421447D01*
X265929Y421455D01*
X265933Y421461D01*
X265965Y421639D01*
X265965Y422441D01*
X269074Y425550D01*
X273470Y425550D01*
X275834Y423186D01*
X275840Y423182D01*
X275845Y423176D01*
X275923Y423127D01*
X276001Y423075D01*
X276008Y423074D01*
X276015Y423070D01*
X276192Y423038D01*
X280036Y423038D01*
X280041Y423039D01*
X280046Y423038D01*
X280139Y423059D01*
X280233Y423077D01*
X280237Y423080D01*
X280242Y423081D01*
X280320Y423137D01*
X280398Y423190D01*
X280401Y423194D01*
X280406Y423197D01*
X280456Y423279D01*
X280508Y423358D01*
X280509Y423363D01*
X280511Y423368D01*
X280543Y423545D01*
X280543Y423902D01*
X282901Y426260D01*
X297235Y426260D01*
X299593Y423902D01*
X299593Y415568D01*
X297235Y413210D01*
X282901Y413210D01*
X280543Y415568D01*
X280543Y416941D01*
X280542Y416946D01*
X280543Y416951D01*
X280522Y417044D01*
X280504Y417138D01*
X280501Y417142D01*
X280500Y417147D01*
X280444Y417225D01*
X280391Y417303D01*
X280387Y417306D01*
X280384Y417310D01*
X280302Y417361D01*
X280223Y417413D01*
X280218Y417413D01*
X280213Y417416D01*
X280036Y417448D01*
X276192Y417448D01*
X276184Y417447D01*
X276177Y417448D01*
X276087Y417427D01*
X275996Y417409D01*
X275989Y417404D01*
X275982Y417402D01*
X275834Y417300D01*
X273470Y414936D01*
X269074Y414936D01*
X268584Y415426D01*
X268580Y415429D01*
X268577Y415433D01*
X268497Y415484D01*
X268417Y415537D01*
X268412Y415538D01*
X268408Y415540D01*
X268314Y415556D01*
X268221Y415574D01*
X268215Y415573D01*
X268210Y415574D01*
X268118Y415552D01*
X268024Y415533D01*
X268020Y415530D01*
X268015Y415528D01*
X267867Y415426D01*
X261515Y409074D01*
X261511Y409067D01*
X261505Y409063D01*
X261456Y408984D01*
X261404Y408907D01*
X261403Y408899D01*
X261399Y408893D01*
X261367Y408715D01*
X261367Y371573D01*
X261368Y371565D01*
X261367Y371557D01*
X261388Y371467D01*
X261406Y371376D01*
X261411Y371370D01*
X261413Y371362D01*
X261515Y371214D01*
X264363Y368366D01*
X264366Y368364D01*
X264367Y368362D01*
X264448Y368310D01*
X264530Y368255D01*
X264533Y368255D01*
X264535Y368253D01*
X264631Y368236D01*
X264727Y368217D01*
X264730Y368218D01*
X264732Y368217D01*
X264829Y368239D01*
X264923Y368259D01*
X264925Y368261D01*
X264928Y368261D01*
X265008Y368318D01*
X265088Y368373D01*
X265089Y368376D01*
X265092Y368377D01*
X265143Y368460D01*
X265195Y368543D01*
X265196Y368545D01*
X265197Y368547D01*
X265229Y368725D01*
X265229Y380780D01*
X266122Y381673D01*
X282386Y381673D01*
X283279Y380780D01*
X283279Y376861D01*
X283280Y376856D01*
X283279Y376851D01*
X283300Y376758D01*
X283318Y376665D01*
X283321Y376660D01*
X283322Y376655D01*
X283378Y376577D01*
X283431Y376499D01*
X283435Y376496D01*
X283438Y376492D01*
X283520Y376441D01*
X283599Y376390D01*
X283604Y376389D01*
X283609Y376386D01*
X283786Y376354D01*
X288444Y376354D01*
X288449Y376355D01*
X288454Y376354D01*
X288547Y376375D01*
X288640Y376393D01*
X288644Y376396D01*
X288650Y376398D01*
X288727Y376453D01*
X288806Y376506D01*
X288809Y376511D01*
X288813Y376514D01*
X288864Y376595D01*
X288915Y376674D01*
X288916Y376679D01*
X288919Y376684D01*
X288951Y376861D01*
X288951Y379691D01*
X289844Y380584D01*
X301107Y380584D01*
X302000Y379691D01*
X302000Y377004D01*
X302001Y376999D01*
X302000Y376994D01*
X302021Y376901D01*
X302040Y376807D01*
X302043Y376803D01*
X302044Y376798D01*
X302099Y376720D01*
X302153Y376642D01*
X302157Y376639D01*
X302160Y376635D01*
X302241Y376584D01*
X302321Y376532D01*
X302326Y376532D01*
X302330Y376529D01*
X302508Y376497D01*
X305908Y376497D01*
X305910Y376497D01*
X305913Y376497D01*
X306008Y376517D01*
X306104Y376536D01*
X306107Y376538D01*
X306109Y376538D01*
X306190Y376594D01*
X306270Y376649D01*
X306272Y376651D01*
X306274Y376653D01*
X306327Y376737D01*
X306379Y376817D01*
X306380Y376820D01*
X306381Y376822D01*
X306397Y376916D01*
X306415Y377014D01*
X306414Y377017D01*
X306415Y377020D01*
X306393Y377113D01*
X306371Y377210D01*
X306370Y377212D01*
X306369Y377215D01*
X306351Y377241D01*
X306351Y381674D01*
X309460Y384783D01*
X311603Y384783D01*
X311606Y384783D01*
X311609Y384783D01*
X311703Y384803D01*
X311800Y384822D01*
X311802Y384824D01*
X311805Y384824D01*
X311885Y384880D01*
X311966Y384935D01*
X311967Y384937D01*
X311969Y384939D01*
X312023Y385022D01*
X312075Y385103D01*
X312075Y385106D01*
X312077Y385108D01*
X312093Y385204D01*
X312111Y385300D01*
X312110Y385303D01*
X312110Y385305D01*
X312089Y385399D01*
X312067Y385496D01*
X312065Y385498D01*
X312065Y385501D01*
X311962Y385649D01*
X304985Y392625D01*
X304985Y428976D01*
X304984Y428984D01*
X304985Y428992D01*
X304964Y429082D01*
X304946Y429173D01*
X304941Y429179D01*
X304939Y429187D01*
X304837Y429335D01*
X304271Y429901D01*
X304270Y429901D01*
X304269Y429902D01*
X304264Y429905D01*
X304260Y429911D01*
X304181Y429960D01*
X304104Y430012D01*
X304096Y430013D01*
X304090Y430017D01*
X303912Y430049D01*
X300570Y430049D01*
X298206Y432413D01*
X298200Y432417D01*
X298195Y432423D01*
X298117Y432472D01*
X298039Y432524D01*
X298032Y432525D01*
X298025Y432529D01*
X297848Y432561D01*
X294371Y432561D01*
X289059Y437874D01*
X288471Y438462D01*
X288464Y438466D01*
X288460Y438473D01*
X288381Y438521D01*
X288304Y438573D01*
X288296Y438574D01*
X288290Y438578D01*
X288112Y438610D01*
X282901Y438610D01*
X280543Y440968D01*
X280543Y449302D01*
X282901Y451660D01*
X297235Y451660D01*
X299593Y449302D01*
X299593Y440910D01*
X299593Y440908D01*
X299593Y440905D01*
X299613Y440811D01*
X299632Y440714D01*
X299634Y440711D01*
X299634Y440709D01*
X299690Y440629D01*
X299745Y440548D01*
X299747Y440546D01*
X299749Y440544D01*
X299832Y440491D01*
X299913Y440439D01*
X299916Y440438D01*
X299918Y440437D01*
X300014Y440420D01*
X300110Y440403D01*
X300113Y440404D01*
X300115Y440403D01*
X300208Y440425D01*
X300306Y440447D01*
X300308Y440448D01*
X300311Y440449D01*
X300459Y440551D01*
X300570Y440663D01*
X304966Y440663D01*
X308075Y437554D01*
X308075Y434212D01*
X308076Y434204D01*
X308075Y434196D01*
X308096Y434106D01*
X308114Y434015D01*
X308119Y434009D01*
X308121Y434001D01*
X308223Y433853D01*
X308789Y433287D01*
X310575Y431502D01*
X310575Y395151D01*
X310576Y395143D01*
X310575Y395135D01*
X310596Y395045D01*
X310614Y394954D01*
X310619Y394948D01*
X310621Y394940D01*
X310723Y394792D01*
X319640Y385875D01*
X319647Y385871D01*
X319651Y385865D01*
X319730Y385816D01*
X319807Y385764D01*
X319815Y385763D01*
X319821Y385759D01*
X319999Y385727D01*
X320217Y385727D01*
X320843Y385101D01*
X320848Y385098D01*
X320851Y385094D01*
X320931Y385043D01*
X321010Y384990D01*
X321015Y384989D01*
X321020Y384986D01*
X321114Y384970D01*
X321207Y384952D01*
X321212Y384953D01*
X321217Y384953D01*
X321310Y384974D01*
X321403Y384994D01*
X321408Y384997D01*
X321413Y384998D01*
X321561Y385101D01*
X322187Y385727D01*
X325217Y385727D01*
X325843Y385101D01*
X325848Y385098D01*
X325851Y385094D01*
X325931Y385043D01*
X326010Y384990D01*
X326015Y384989D01*
X326020Y384986D01*
X326114Y384970D01*
X326207Y384952D01*
X326212Y384953D01*
X326218Y384953D01*
X326310Y384974D01*
X326403Y384994D01*
X326408Y384997D01*
X326413Y384998D01*
X326561Y385101D01*
X327187Y385727D01*
X330217Y385727D01*
X330843Y385101D01*
X330848Y385098D01*
X330851Y385094D01*
X330931Y385043D01*
X331010Y384990D01*
X331015Y384989D01*
X331020Y384986D01*
X331114Y384970D01*
X331207Y384952D01*
X331212Y384953D01*
X331217Y384953D01*
X331310Y384974D01*
X331403Y384994D01*
X331408Y384997D01*
X331413Y384998D01*
X331561Y385101D01*
X332187Y385727D01*
X335217Y385727D01*
X335843Y385101D01*
X335848Y385098D01*
X335851Y385094D01*
X335931Y385043D01*
X336010Y384990D01*
X336015Y384989D01*
X336020Y384986D01*
X336114Y384970D01*
X336207Y384952D01*
X336212Y384953D01*
X336217Y384953D01*
X336310Y384974D01*
X336403Y384994D01*
X336408Y384997D01*
X336413Y384998D01*
X336561Y385101D01*
X337187Y385727D01*
X340217Y385727D01*
X340843Y385101D01*
X340848Y385098D01*
X340851Y385094D01*
X340931Y385043D01*
X341010Y384990D01*
X341015Y384989D01*
X341020Y384986D01*
X341114Y384970D01*
X341207Y384952D01*
X341212Y384953D01*
X341217Y384953D01*
X341310Y384974D01*
X341403Y384994D01*
X341408Y384997D01*
X341413Y384998D01*
X341561Y385101D01*
X342187Y385727D01*
X345217Y385727D01*
X345843Y385101D01*
X345848Y385098D01*
X345851Y385094D01*
X345931Y385043D01*
X346010Y384990D01*
X346015Y384989D01*
X346020Y384986D01*
X346114Y384970D01*
X346207Y384952D01*
X346212Y384953D01*
X346217Y384953D01*
X346310Y384974D01*
X346403Y384994D01*
X346408Y384997D01*
X346413Y384998D01*
X346561Y385101D01*
X347187Y385727D01*
X350146Y385727D01*
X350151Y385728D01*
X350156Y385727D01*
X350249Y385748D01*
X350343Y385766D01*
X350347Y385769D01*
X350352Y385770D01*
X350430Y385826D01*
X350508Y385879D01*
X350511Y385883D01*
X350515Y385886D01*
X350566Y385968D01*
X350618Y386047D01*
X350618Y386052D01*
X350621Y386057D01*
X350653Y386234D01*
X350653Y387940D01*
X350652Y387944D01*
X350653Y387948D01*
X350653Y387949D01*
X350653Y387950D01*
X350632Y388043D01*
X350614Y388136D01*
X350611Y388140D01*
X350610Y388145D01*
X350554Y388223D01*
X350501Y388302D01*
X350497Y388305D01*
X350494Y388309D01*
X350412Y388360D01*
X350333Y388411D01*
X350328Y388412D01*
X350323Y388415D01*
X350146Y388447D01*
X346857Y388447D01*
X345964Y389340D01*
X345964Y400603D01*
X346857Y401496D01*
X355351Y401496D01*
X355359Y401498D01*
X355367Y401496D01*
X355457Y401517D01*
X355548Y401536D01*
X355554Y401540D01*
X355562Y401542D01*
X355710Y401645D01*
X360150Y406085D01*
X360154Y406091D01*
X360160Y406096D01*
X360209Y406174D01*
X360261Y406252D01*
X360262Y406259D01*
X360266Y406266D01*
X360298Y406443D01*
X360298Y442356D01*
X372116Y454173D01*
X372120Y454180D01*
X372126Y454184D01*
X372175Y454263D01*
X372227Y454340D01*
X372228Y454348D01*
X372232Y454354D01*
X372264Y454532D01*
X372264Y457874D01*
X375373Y460983D01*
X379769Y460983D01*
X381531Y459220D01*
X381534Y459219D01*
X381535Y459217D01*
X381616Y459164D01*
X381698Y459110D01*
X381701Y459109D01*
X381703Y459108D01*
X381799Y459090D01*
X381895Y459072D01*
X381898Y459072D01*
X381900Y459072D01*
X381997Y459093D01*
X382091Y459114D01*
X382093Y459115D01*
X382096Y459116D01*
X382176Y459172D01*
X382256Y459228D01*
X382257Y459230D01*
X382260Y459232D01*
X382311Y459314D01*
X382363Y459397D01*
X382364Y459400D01*
X382365Y459402D01*
X382397Y459579D01*
X382397Y459589D01*
X384755Y461947D01*
X399089Y461947D01*
X401447Y459589D01*
X401447Y451255D01*
X399089Y448897D01*
X384755Y448897D01*
X382397Y451255D01*
X382397Y451773D01*
X382397Y451775D01*
X382397Y451778D01*
X382377Y451873D01*
X382358Y451969D01*
X382356Y451972D01*
X382356Y451974D01*
X382300Y452055D01*
X382245Y452135D01*
X382243Y452137D01*
X382241Y452139D01*
X382158Y452192D01*
X382077Y452244D01*
X382074Y452245D01*
X382072Y452246D01*
X381976Y452263D01*
X381880Y452280D01*
X381877Y452279D01*
X381875Y452280D01*
X381780Y452258D01*
X381684Y452236D01*
X381682Y452235D01*
X381679Y452234D01*
X381531Y452132D01*
X379769Y450369D01*
X376427Y450369D01*
X376419Y450368D01*
X376411Y450369D01*
X376321Y450348D01*
X376230Y450330D01*
X376224Y450325D01*
X376216Y450323D01*
X376068Y450221D01*
X366036Y440189D01*
X366032Y440182D01*
X366026Y440178D01*
X365977Y440099D01*
X365925Y440022D01*
X365924Y440014D01*
X365920Y440008D01*
X365888Y439830D01*
X365888Y403918D01*
X364102Y402132D01*
X360162Y398192D01*
X360158Y398186D01*
X360151Y398181D01*
X360103Y398103D01*
X360051Y398026D01*
X360050Y398018D01*
X360046Y398011D01*
X360014Y397834D01*
X360014Y389340D01*
X359120Y388447D01*
X357258Y388447D01*
X357253Y388446D01*
X357248Y388447D01*
X357155Y388426D01*
X357061Y388407D01*
X357057Y388404D01*
X357052Y388403D01*
X356974Y388348D01*
X356896Y388295D01*
X356893Y388290D01*
X356889Y388287D01*
X356838Y388206D01*
X356786Y388126D01*
X356786Y388121D01*
X356783Y388117D01*
X356751Y387940D01*
X356751Y386234D01*
X356752Y386229D01*
X356751Y386224D01*
X356772Y386131D01*
X356790Y386038D01*
X356793Y386033D01*
X356794Y386028D01*
X356850Y385950D01*
X356903Y385872D01*
X356907Y385869D01*
X356910Y385865D01*
X356992Y385814D01*
X357071Y385763D01*
X357076Y385762D01*
X357081Y385759D01*
X357258Y385727D01*
X360217Y385727D01*
X360843Y385101D01*
X360848Y385098D01*
X360851Y385094D01*
X360931Y385043D01*
X361010Y384990D01*
X361015Y384989D01*
X361020Y384986D01*
X361114Y384970D01*
X361207Y384952D01*
X361212Y384953D01*
X361217Y384953D01*
X361310Y384974D01*
X361403Y384994D01*
X361408Y384997D01*
X361413Y384998D01*
X361561Y385101D01*
X362187Y385727D01*
X365217Y385727D01*
X366477Y384468D01*
X366477Y376937D01*
X365217Y375677D01*
X362187Y375677D01*
X361561Y376303D01*
X361556Y376306D01*
X361553Y376310D01*
X361473Y376362D01*
X361394Y376414D01*
X361389Y376415D01*
X361384Y376418D01*
X361290Y376434D01*
X361197Y376452D01*
X361192Y376451D01*
X361186Y376452D01*
X361094Y376430D01*
X361001Y376410D01*
X360996Y376407D01*
X360991Y376406D01*
X360843Y376303D01*
X360217Y375677D01*
X357187Y375677D01*
X356561Y376303D01*
X356556Y376306D01*
X356553Y376310D01*
X356473Y376362D01*
X356394Y376414D01*
X356389Y376415D01*
X356384Y376418D01*
X356290Y376434D01*
X356197Y376452D01*
X356192Y376451D01*
X356186Y376452D01*
X356094Y376430D01*
X356001Y376410D01*
X355996Y376407D01*
X355991Y376406D01*
X355843Y376303D01*
X355217Y375677D01*
X352187Y375677D01*
X351561Y376303D01*
X351556Y376306D01*
X351553Y376310D01*
X351473Y376362D01*
X351394Y376414D01*
X351389Y376415D01*
X351384Y376418D01*
X351290Y376434D01*
X351197Y376452D01*
X351192Y376451D01*
X351186Y376452D01*
X351094Y376430D01*
X351001Y376410D01*
X350996Y376407D01*
X350991Y376406D01*
X350843Y376303D01*
X350217Y375677D01*
X347187Y375677D01*
X346561Y376303D01*
X346556Y376306D01*
X346553Y376310D01*
X346473Y376362D01*
X346394Y376414D01*
X346389Y376415D01*
X346384Y376418D01*
X346290Y376434D01*
X346197Y376452D01*
X346192Y376451D01*
X346186Y376452D01*
X346094Y376430D01*
X346001Y376410D01*
X345996Y376407D01*
X345991Y376406D01*
X345843Y376303D01*
X345217Y375677D01*
X342187Y375677D01*
X341561Y376303D01*
X341556Y376306D01*
X341553Y376310D01*
X341473Y376362D01*
X341394Y376414D01*
X341389Y376415D01*
X341384Y376418D01*
X341290Y376434D01*
X341197Y376452D01*
X341192Y376451D01*
X341186Y376452D01*
X341094Y376430D01*
X341001Y376410D01*
X340996Y376407D01*
X340991Y376406D01*
X340843Y376303D01*
X340217Y375677D01*
X337187Y375677D01*
X336561Y376303D01*
X336556Y376306D01*
X336553Y376310D01*
X336473Y376362D01*
X336394Y376414D01*
X336389Y376415D01*
X336384Y376418D01*
X336290Y376434D01*
X336197Y376452D01*
X336192Y376451D01*
X336186Y376452D01*
X336094Y376430D01*
X336001Y376410D01*
X335996Y376407D01*
X335991Y376406D01*
X335843Y376303D01*
X335217Y375677D01*
X332187Y375677D01*
X331561Y376303D01*
X331556Y376306D01*
X331553Y376310D01*
X331473Y376362D01*
X331394Y376414D01*
X331389Y376415D01*
X331384Y376418D01*
X331290Y376434D01*
X331197Y376452D01*
X331192Y376451D01*
X331186Y376452D01*
X331094Y376430D01*
X331001Y376410D01*
X330996Y376407D01*
X330991Y376406D01*
X330843Y376303D01*
X330217Y375677D01*
X327187Y375677D01*
X326561Y376303D01*
X326556Y376306D01*
X326553Y376310D01*
X326473Y376361D01*
X326394Y376414D01*
X326389Y376415D01*
X326384Y376418D01*
X326290Y376434D01*
X326197Y376452D01*
X326192Y376451D01*
X326187Y376452D01*
X326094Y376430D01*
X326001Y376410D01*
X325996Y376407D01*
X325991Y376406D01*
X325843Y376303D01*
X325217Y375677D01*
X322187Y375677D01*
X321561Y376303D01*
X321556Y376306D01*
X321553Y376310D01*
X321473Y376362D01*
X321394Y376414D01*
X321389Y376415D01*
X321384Y376418D01*
X321290Y376434D01*
X321197Y376452D01*
X321192Y376451D01*
X321186Y376452D01*
X321094Y376430D01*
X321001Y376410D01*
X320996Y376407D01*
X320991Y376406D01*
X320843Y376303D01*
X320217Y375677D01*
X317234Y375677D01*
X317229Y375676D01*
X317224Y375677D01*
X317131Y375656D01*
X317037Y375638D01*
X317033Y375635D01*
X317028Y375634D01*
X316950Y375578D01*
X316872Y375525D01*
X316869Y375521D01*
X316864Y375518D01*
X316814Y375436D01*
X316762Y375357D01*
X316761Y375352D01*
X316759Y375347D01*
X316727Y375170D01*
X316727Y372187D01*
X315467Y370927D01*
X313090Y370927D01*
X313082Y370926D01*
X313074Y370927D01*
X312989Y370907D01*
X302508Y370907D01*
X302502Y370906D01*
X302497Y370907D01*
X302404Y370886D01*
X302311Y370868D01*
X302307Y370865D01*
X302302Y370864D01*
X302224Y370808D01*
X302145Y370755D01*
X302142Y370751D01*
X302138Y370748D01*
X302088Y370666D01*
X302036Y370587D01*
X302035Y370582D01*
X302032Y370577D01*
X302000Y370400D01*
X302000Y367428D01*
X301935Y367363D01*
X301934Y367360D01*
X301932Y367359D01*
X301879Y367278D01*
X301824Y367196D01*
X301824Y367193D01*
X301823Y367191D01*
X301805Y367094D01*
X301787Y366999D01*
X301787Y366996D01*
X301787Y366994D01*
X301809Y366897D01*
X301828Y366803D01*
X301830Y366801D01*
X301831Y366798D01*
X301887Y366718D01*
X301943Y366638D01*
X301945Y366637D01*
X301947Y366635D01*
X302030Y366583D01*
X302112Y366531D01*
X302115Y366530D01*
X302117Y366529D01*
X302294Y366497D01*
X312979Y366497D01*
X313090Y366477D01*
X315467Y366477D01*
X316727Y365217D01*
X316727Y362187D01*
X316101Y361561D01*
X316098Y361556D01*
X316094Y361553D01*
X316042Y361473D01*
X315990Y361394D01*
X315989Y361389D01*
X315986Y361384D01*
X315970Y361290D01*
X315952Y361197D01*
X315953Y361192D01*
X315952Y361186D01*
X315974Y361094D01*
X315994Y361001D01*
X315997Y360996D01*
X315998Y360991D01*
X316101Y360843D01*
X316727Y360217D01*
X316727Y357187D01*
X316101Y356561D01*
X316098Y356556D01*
X316094Y356553D01*
X316042Y356473D01*
X315990Y356394D01*
X315989Y356389D01*
X315986Y356384D01*
X315970Y356290D01*
X315952Y356197D01*
X315953Y356192D01*
X315952Y356186D01*
X315974Y356094D01*
X315994Y356001D01*
X315997Y355996D01*
X315998Y355991D01*
X316101Y355843D01*
X316727Y355217D01*
X316727Y352187D01*
X316101Y351561D01*
X316098Y351556D01*
X316094Y351553D01*
X316042Y351473D01*
X315990Y351394D01*
X315989Y351389D01*
X315986Y351384D01*
X315970Y351290D01*
X315952Y351197D01*
X315953Y351192D01*
X315952Y351186D01*
X315974Y351094D01*
X315994Y351001D01*
X315997Y350996D01*
X315998Y350991D01*
X316101Y350843D01*
X316727Y350217D01*
X316727Y347187D01*
X316101Y346561D01*
X316098Y346556D01*
X316094Y346553D01*
X316042Y346473D01*
X315990Y346394D01*
X315989Y346389D01*
X315986Y346384D01*
X315970Y346290D01*
X315952Y346197D01*
X315953Y346192D01*
X315952Y346186D01*
X315974Y346094D01*
X315994Y346001D01*
X315997Y345996D01*
X315998Y345991D01*
X316101Y345843D01*
X316727Y345217D01*
X316727Y342187D01*
X316101Y341561D01*
X316098Y341556D01*
X316094Y341553D01*
X316042Y341473D01*
X315990Y341394D01*
X315989Y341389D01*
X315986Y341384D01*
X315970Y341290D01*
X315952Y341197D01*
X315953Y341192D01*
X315952Y341186D01*
X315974Y341094D01*
X315994Y341001D01*
X315997Y340996D01*
X315998Y340991D01*
X316101Y340843D01*
X316727Y340217D01*
X316727Y337187D01*
X316101Y336561D01*
X316098Y336556D01*
X316094Y336553D01*
X316042Y336473D01*
X315990Y336394D01*
X315989Y336389D01*
X315986Y336384D01*
X315970Y336290D01*
X315952Y336197D01*
X315953Y336192D01*
X315952Y336186D01*
X315974Y336094D01*
X315994Y336001D01*
X315997Y335996D01*
X315998Y335991D01*
X316101Y335843D01*
X316727Y335217D01*
X316727Y332187D01*
X316101Y331561D01*
X316098Y331556D01*
X316094Y331553D01*
X316042Y331473D01*
X315990Y331394D01*
X315989Y331389D01*
X315986Y331384D01*
X315970Y331290D01*
X315952Y331197D01*
X315953Y331192D01*
X315952Y331186D01*
X315974Y331094D01*
X315994Y331001D01*
X315997Y330996D01*
X315998Y330991D01*
X316101Y330843D01*
X316727Y330217D01*
X316727Y327187D01*
X316101Y326561D01*
X316098Y326556D01*
X316094Y326553D01*
X316042Y326473D01*
X315990Y326394D01*
X315989Y326389D01*
X315986Y326384D01*
X315970Y326290D01*
X315952Y326197D01*
X315953Y326192D01*
X315952Y326186D01*
X315974Y326093D01*
X315994Y326001D01*
X315997Y325996D01*
X315998Y325991D01*
X316101Y325843D01*
X316727Y325217D01*
X316727Y322187D01*
X316101Y321561D01*
X316098Y321556D01*
X316094Y321553D01*
X316042Y321473D01*
X315990Y321394D01*
X315989Y321389D01*
X315986Y321384D01*
X315970Y321290D01*
X315952Y321197D01*
X315953Y321192D01*
X315952Y321186D01*
X315974Y321094D01*
X315994Y321001D01*
X315997Y320996D01*
X315998Y320991D01*
X316101Y320843D01*
X316727Y320217D01*
X316727Y317234D01*
X316728Y317229D01*
X316727Y317224D01*
X316748Y317131D01*
X316766Y317037D01*
X316769Y317033D01*
X316770Y317028D01*
X316826Y316950D01*
X316879Y316872D01*
X316883Y316869D01*
X316886Y316864D01*
X316968Y316814D01*
X317047Y316762D01*
X317052Y316761D01*
X317057Y316759D01*
X317234Y316727D01*
X320217Y316727D01*
X321477Y315467D01*
X321477Y313090D01*
X321478Y313082D01*
X321477Y313074D01*
X321497Y312989D01*
X321497Y310425D01*
X321477Y310314D01*
X321477Y307936D01*
X320217Y306677D01*
X317187Y306677D01*
X315927Y307936D01*
X315927Y308400D01*
X315926Y308405D01*
X315927Y308410D01*
X315906Y308503D01*
X315888Y308596D01*
X315885Y308601D01*
X315884Y308606D01*
X315828Y308684D01*
X315775Y308762D01*
X315771Y308765D01*
X315768Y308769D01*
X315686Y308820D01*
X315607Y308871D01*
X315602Y308872D01*
X315597Y308875D01*
X315420Y308907D01*
X312387Y308907D01*
X312379Y308906D01*
X312372Y308907D01*
X312282Y308886D01*
X312191Y308868D01*
X312184Y308863D01*
X312177Y308861D01*
X312029Y308759D01*
X309665Y306395D01*
X305269Y306395D01*
X304326Y307338D01*
X304321Y307341D01*
X304318Y307345D01*
X304238Y307396D01*
X304159Y307449D01*
X304154Y307450D01*
X304149Y307453D01*
X304056Y307469D01*
X303962Y307487D01*
X303957Y307486D01*
X303952Y307487D01*
X303859Y307465D01*
X303766Y307445D01*
X303762Y307442D01*
X303756Y307441D01*
X303608Y307338D01*
X302038Y305768D01*
X302035Y305763D01*
X302031Y305760D01*
X301980Y305680D01*
X301927Y305601D01*
X301926Y305596D01*
X301923Y305591D01*
X301907Y305498D01*
X301890Y305404D01*
X301891Y305399D01*
X301890Y305394D01*
X301911Y305302D01*
X301931Y305208D01*
X301934Y305204D01*
X301935Y305198D01*
X302038Y305050D01*
X302148Y304940D01*
X302148Y293677D01*
X301255Y292784D01*
X288992Y292784D01*
X288099Y293677D01*
X288099Y304940D01*
X288992Y305833D01*
X293989Y305833D01*
X293996Y305835D01*
X294004Y305833D01*
X294094Y305854D01*
X294185Y305873D01*
X294192Y305877D01*
X294199Y305879D01*
X294347Y305982D01*
X299084Y310718D01*
X299085Y310720D01*
X299087Y310722D01*
X299140Y310803D01*
X299195Y310885D01*
X299195Y310888D01*
X299197Y310890D01*
X299214Y310986D01*
X299232Y311082D01*
X299232Y311085D01*
X299232Y311087D01*
X299211Y311184D01*
X299191Y311278D01*
X299189Y311280D01*
X299189Y311283D01*
X299132Y311363D01*
X299076Y311443D01*
X299074Y311444D01*
X299073Y311446D01*
X298990Y311498D01*
X298907Y311550D01*
X298905Y311551D01*
X298902Y311552D01*
X298725Y311584D01*
X287981Y311584D01*
X287088Y312477D01*
X287088Y328740D01*
X287981Y329634D01*
X302244Y329634D01*
X303138Y328740D01*
X303138Y316747D01*
X303139Y316739D01*
X303138Y316731D01*
X303159Y316641D01*
X303177Y316550D01*
X303182Y316544D01*
X303183Y316536D01*
X303286Y316388D01*
X303608Y316066D01*
X303613Y316063D01*
X303616Y316058D01*
X303696Y316007D01*
X303775Y315955D01*
X303781Y315954D01*
X303785Y315951D01*
X303879Y315935D01*
X303972Y315917D01*
X303978Y315918D01*
X303983Y315917D01*
X304075Y315939D01*
X304168Y315959D01*
X304173Y315962D01*
X304178Y315963D01*
X304326Y316066D01*
X305269Y317009D01*
X306170Y317009D01*
X306175Y317010D01*
X306180Y317009D01*
X306273Y317030D01*
X306366Y317048D01*
X306371Y317051D01*
X306376Y317052D01*
X306454Y317108D01*
X306532Y317161D01*
X306535Y317165D01*
X306539Y317168D01*
X306590Y317250D01*
X306641Y317329D01*
X306642Y317334D01*
X306645Y317339D01*
X306677Y317516D01*
X306677Y320217D01*
X307303Y320843D01*
X307306Y320848D01*
X307310Y320851D01*
X307361Y320931D01*
X307414Y321010D01*
X307415Y321015D01*
X307418Y321020D01*
X307434Y321114D01*
X307452Y321207D01*
X307451Y321212D01*
X307451Y321217D01*
X307430Y321310D01*
X307410Y321403D01*
X307407Y321408D01*
X307406Y321413D01*
X307303Y321561D01*
X306677Y322187D01*
X306677Y325217D01*
X307303Y325843D01*
X307306Y325848D01*
X307310Y325851D01*
X307361Y325931D01*
X307414Y326010D01*
X307415Y326015D01*
X307418Y326020D01*
X307434Y326114D01*
X307452Y326207D01*
X307451Y326212D01*
X307451Y326217D01*
X307430Y326310D01*
X307410Y326403D01*
X307407Y326408D01*
X307406Y326413D01*
X307303Y326561D01*
X306677Y327187D01*
X306677Y330217D01*
X307303Y330843D01*
X307306Y330848D01*
X307310Y330851D01*
X307361Y330931D01*
X307414Y331010D01*
X307415Y331015D01*
X307418Y331020D01*
X307434Y331114D01*
X307452Y331207D01*
X307451Y331212D01*
X307451Y331217D01*
X307430Y331310D01*
X307410Y331403D01*
X307407Y331408D01*
X307406Y331413D01*
X307303Y331561D01*
X306677Y332187D01*
X306677Y335217D01*
X307303Y335843D01*
X307306Y335848D01*
X307310Y335851D01*
X307361Y335931D01*
X307414Y336010D01*
X307415Y336015D01*
X307418Y336020D01*
X307434Y336114D01*
X307452Y336207D01*
X307451Y336212D01*
X307451Y336217D01*
X307430Y336310D01*
X307410Y336403D01*
X307407Y336408D01*
X307406Y336413D01*
X307303Y336561D01*
X306677Y337187D01*
X306677Y340146D01*
X306676Y340151D01*
X306677Y340156D01*
X306656Y340249D01*
X306638Y340343D01*
X306635Y340347D01*
X306634Y340352D01*
X306578Y340430D01*
X306525Y340508D01*
X306521Y340511D01*
X306518Y340515D01*
X306436Y340566D01*
X306357Y340618D01*
X306352Y340618D01*
X306347Y340621D01*
X306170Y340653D01*
X264247Y340653D01*
X221889Y383011D01*
X221882Y383016D01*
X221878Y383022D01*
X221799Y383071D01*
X221722Y383122D01*
X221714Y383124D01*
X221707Y383128D01*
X221530Y383160D01*
X218547Y383160D01*
X215438Y386269D01*
X215438Y390665D01*
X216145Y391372D01*
X216147Y391374D01*
X216149Y391376D01*
X216201Y391456D01*
X216256Y391539D01*
X216257Y391541D01*
X216258Y391544D01*
X216275Y391639D01*
X216294Y391736D01*
X216293Y391738D01*
X216294Y391741D01*
X216272Y391836D01*
X216252Y391932D01*
X216251Y391934D01*
X216250Y391937D01*
X216194Y392015D01*
X216138Y392096D01*
X216136Y392098D01*
X216134Y392100D01*
X216052Y392151D01*
X215969Y392204D01*
X215966Y392204D01*
X215964Y392206D01*
X215786Y392238D01*
X215126Y392237D01*
X215056Y392223D01*
X214986Y392218D01*
X214957Y392203D01*
X214929Y392198D01*
X214886Y392169D01*
X214824Y392138D01*
X214820Y392135D01*
X214178Y392231D01*
X214144Y392230D01*
X214103Y392237D01*
X213454Y392237D01*
X213450Y392241D01*
X213391Y392280D01*
X213337Y392326D01*
X213306Y392336D01*
X213283Y392352D01*
X213232Y392361D01*
X213167Y392384D01*
X210822Y392736D01*
X210751Y392733D01*
X210681Y392738D01*
X210650Y392728D01*
X210622Y392726D01*
X210575Y392704D01*
X210509Y392683D01*
X210504Y392680D01*
X209884Y392872D01*
X209850Y392875D01*
X209810Y392888D01*
X209169Y392985D01*
X209165Y392989D01*
X209113Y393037D01*
X209067Y393090D01*
X209038Y393105D01*
X209017Y393124D01*
X208968Y393141D01*
X208907Y393173D01*
X206640Y393871D01*
X206570Y393878D01*
X206501Y393893D01*
X206469Y393888D01*
X206441Y393891D01*
X206392Y393876D01*
X206323Y393865D01*
X206318Y393863D01*
X205733Y394145D01*
X205700Y394153D01*
X205663Y394172D01*
X205043Y394363D01*
X205040Y394368D01*
X204996Y394423D01*
X204958Y394482D01*
X204931Y394502D01*
X204913Y394523D01*
X204868Y394547D01*
X204812Y394588D01*
X203574Y395184D01*
X203490Y395205D01*
X203407Y395231D01*
X203393Y395230D01*
X203380Y395233D01*
X203294Y395220D01*
X203208Y395212D01*
X203195Y395206D01*
X203181Y395204D01*
X203107Y395159D01*
X203031Y395118D01*
X203021Y395106D01*
X203010Y395099D01*
X202977Y395055D01*
X202915Y394980D01*
X184023Y362259D01*
X182786Y363113D01*
X182759Y363124D01*
X182737Y363143D01*
X182668Y363163D01*
X182603Y363191D01*
X182574Y363191D01*
X182546Y363199D01*
X182475Y363191D01*
X182404Y363192D01*
X182377Y363180D01*
X182348Y363177D01*
X182286Y363142D01*
X182221Y363114D01*
X182200Y363094D01*
X182175Y363079D01*
X182112Y363002D01*
X182082Y362972D01*
X182078Y362962D01*
X182069Y362951D01*
X172569Y346451D01*
X172545Y346378D01*
X172514Y346308D01*
X172514Y346284D01*
X172506Y346262D01*
X172513Y346186D01*
X172512Y346109D01*
X172521Y346085D01*
X172522Y346064D01*
X172543Y346025D01*
X172562Y345973D01*
X172563Y345967D01*
X172565Y345965D01*
X172569Y345953D01*
X182069Y329453D01*
X182088Y329431D01*
X182101Y329405D01*
X182154Y329357D01*
X182201Y329304D01*
X182227Y329291D01*
X182249Y329272D01*
X182316Y329249D01*
X182380Y329218D01*
X182409Y329217D01*
X182436Y329207D01*
X182508Y329212D01*
X182579Y329209D01*
X182606Y329219D01*
X182635Y329221D01*
X182725Y329263D01*
X182765Y329278D01*
X182773Y329285D01*
X182786Y329291D01*
X184023Y330145D01*
X202915Y297424D01*
X202972Y297359D01*
X203026Y297291D01*
X203038Y297284D01*
X203047Y297273D01*
X203125Y297236D01*
X203201Y297194D01*
X203215Y297192D01*
X203228Y297186D01*
X203314Y297182D01*
X203400Y297172D01*
X203415Y297176D01*
X203428Y297176D01*
X203480Y297194D01*
X203574Y297220D01*
X204812Y297816D01*
X204868Y297859D01*
X204929Y297894D01*
X204949Y297920D01*
X204972Y297937D01*
X204998Y297982D01*
X205040Y298036D01*
X205043Y298041D01*
X205663Y298232D01*
X205693Y298248D01*
X205733Y298259D01*
X206318Y298541D01*
X206323Y298539D01*
X206393Y298529D01*
X206462Y298511D01*
X206494Y298515D01*
X206522Y298511D01*
X206572Y298525D01*
X206640Y298533D01*
X208907Y299231D01*
X208969Y299265D01*
X209034Y299291D01*
X209058Y299314D01*
X209083Y299327D01*
X209115Y299367D01*
X209165Y299415D01*
X209169Y299419D01*
X209810Y299516D01*
X209843Y299527D01*
X209884Y299532D01*
X210504Y299724D01*
X210509Y299721D01*
X210533Y299714D01*
X210543Y299708D01*
X210569Y299703D01*
X210577Y299701D01*
X210642Y299673D01*
X210674Y299672D01*
X210701Y299664D01*
X210753Y299670D01*
X210822Y299668D01*
X213167Y300020D01*
X213233Y300044D01*
X213302Y300061D01*
X213329Y300079D01*
X213355Y300089D01*
X213393Y300124D01*
X213450Y300163D01*
X213454Y300167D01*
X214103Y300167D01*
X214137Y300174D01*
X214178Y300173D01*
X214820Y300269D01*
X214824Y300266D01*
X214888Y300236D01*
X214948Y300199D01*
X214981Y300193D01*
X215006Y300181D01*
X215058Y300179D01*
X215126Y300167D01*
X217497Y300166D01*
X217566Y300180D01*
X217637Y300185D01*
X217666Y300200D01*
X217693Y300205D01*
X217736Y300234D01*
X217798Y300265D01*
X217803Y300268D01*
X218444Y300171D01*
X218479Y300173D01*
X218520Y300165D01*
X219169Y300165D01*
X219173Y300161D01*
X219231Y300122D01*
X219285Y300077D01*
X219316Y300066D01*
X219340Y300050D01*
X219390Y300041D01*
X219456Y300018D01*
X221800Y299664D01*
X221871Y299668D01*
X221941Y299663D01*
X221973Y299673D01*
X222001Y299674D01*
X222047Y299696D01*
X222113Y299717D01*
X222118Y299720D01*
X222738Y299528D01*
X222772Y299525D01*
X222812Y299511D01*
X223454Y299415D01*
X223457Y299410D01*
X223509Y299363D01*
X223555Y299309D01*
X223585Y299294D01*
X223605Y299275D01*
X223654Y299258D01*
X223715Y299226D01*
X225981Y298527D01*
X226051Y298520D01*
X226120Y298504D01*
X226153Y298509D01*
X226181Y298507D01*
X226230Y298522D01*
X226298Y298533D01*
X226303Y298534D01*
X226888Y298253D01*
X226922Y298244D01*
X226958Y298225D01*
X227579Y298034D01*
X227581Y298029D01*
X227626Y297974D01*
X227664Y297914D01*
X227690Y297895D01*
X227708Y297873D01*
X227753Y297849D01*
X227809Y297809D01*
X229946Y296779D01*
X230014Y296762D01*
X230080Y296736D01*
X230113Y296736D01*
X230140Y296729D01*
X230191Y296737D01*
X230260Y296738D01*
X230265Y296739D01*
X230801Y296373D01*
X230833Y296359D01*
X230867Y296335D01*
X231452Y296053D01*
X231453Y296048D01*
X231489Y295987D01*
X231518Y295923D01*
X231541Y295900D01*
X231556Y295876D01*
X231597Y295845D01*
X231646Y295796D01*
X233605Y294460D01*
X233670Y294432D01*
X233732Y294397D01*
X233764Y294393D01*
X233790Y294382D01*
X233841Y294382D01*
X233910Y294372D01*
X233915Y294372D01*
X234391Y293931D01*
X234420Y293913D01*
X234450Y293883D01*
X234986Y293518D01*
X234987Y293512D01*
X235014Y293447D01*
X235032Y293379D01*
X235052Y293353D01*
X235063Y293327D01*
X235099Y293290D01*
X235141Y293235D01*
X236878Y291621D01*
X236938Y291584D01*
X236994Y291541D01*
X237025Y291531D01*
X237049Y291517D01*
X237100Y291509D01*
X237167Y291489D01*
X237172Y291488D01*
X237576Y290981D01*
X237603Y290958D01*
X237628Y290925D01*
X238104Y290484D01*
X238104Y290478D01*
X238120Y290409D01*
X238128Y290339D01*
X238144Y290311D01*
X238151Y290283D01*
X238181Y290242D01*
X238214Y290181D01*
X239692Y288326D01*
X239746Y288281D01*
X239794Y288229D01*
X239824Y288215D01*
X239845Y288197D01*
X239894Y288182D01*
X239957Y288153D01*
X239962Y288151D01*
X240287Y287589D01*
X240310Y287563D01*
X240329Y287526D01*
X240734Y287019D01*
X240733Y287014D01*
X240735Y286989D01*
X240734Y286984D01*
X240737Y286975D01*
X240739Y286943D01*
X240737Y286873D01*
X240748Y286842D01*
X240750Y286814D01*
X240774Y286768D01*
X240798Y286703D01*
X241983Y284649D01*
X242030Y284596D01*
X242070Y284538D01*
X242097Y284520D01*
X242115Y284499D01*
X242162Y284476D01*
X242219Y284438D01*
X242224Y284435D01*
X242461Y283831D01*
X242480Y283802D01*
X242494Y283763D01*
X242818Y283201D01*
X242817Y283196D01*
X242812Y283125D01*
X242800Y283056D01*
X242806Y283024D01*
X242804Y282996D01*
X242821Y282947D01*
X242835Y282879D01*
X243700Y280671D01*
X243738Y280612D01*
X243769Y280549D01*
X243794Y280526D01*
X243809Y280503D01*
X243851Y280474D01*
X243902Y280427D01*
X243907Y280424D01*
X244051Y279791D01*
X244066Y279760D01*
X244074Y279719D01*
X244311Y279115D01*
X244308Y279110D01*
X244293Y279041D01*
X244270Y278974D01*
X244272Y278941D01*
X244266Y278914D01*
X244273Y278874D01*
X244272Y278868D01*
X244276Y278853D01*
X244279Y278794D01*
X244426Y278145D01*
X244447Y278100D01*
X244457Y278052D01*
X244488Y278010D01*
X244509Y277962D01*
X244545Y277929D01*
X244573Y277889D01*
X244618Y277861D01*
X244655Y277826D01*
X244702Y277809D01*
X244744Y277783D01*
X244801Y277772D01*
X244844Y277757D01*
X244879Y277758D01*
X244921Y277751D01*
X294565Y277751D01*
X294573Y277752D01*
X294581Y277751D01*
X294670Y277772D01*
X294762Y277790D01*
X294768Y277795D01*
X294776Y277797D01*
X294924Y277899D01*
X325505Y308480D01*
X325509Y308487D01*
X325515Y308491D01*
X325564Y308570D01*
X325616Y308647D01*
X325617Y308655D01*
X325621Y308662D01*
X325653Y308839D01*
X325653Y312965D01*
X325779Y313090D01*
X325783Y313097D01*
X325790Y313101D01*
X325839Y313180D01*
X325890Y313257D01*
X325891Y313265D01*
X325895Y313272D01*
X325927Y313449D01*
X325927Y315467D01*
X327187Y316727D01*
X330217Y316727D01*
X330843Y316101D01*
X330848Y316098D01*
X330851Y316094D01*
X330931Y316042D01*
X331010Y315990D01*
X331015Y315989D01*
X331020Y315986D01*
X331114Y315970D01*
X331207Y315952D01*
X331212Y315953D01*
X331218Y315952D01*
X331310Y315974D01*
X331403Y315994D01*
X331408Y315997D01*
X331413Y315998D01*
X331561Y316101D01*
X332187Y316727D01*
X335217Y316727D01*
X336477Y315467D01*
X336477Y313355D01*
X336478Y313347D01*
X336477Y313339D01*
X336498Y313250D01*
X336516Y313158D01*
X336521Y313152D01*
X336523Y313144D01*
X336625Y312996D01*
X336704Y312918D01*
X336704Y304420D01*
X297078Y264794D01*
X254348Y264794D01*
X254340Y264793D01*
X254333Y264794D01*
X254243Y264773D01*
X254152Y264755D01*
X254145Y264750D01*
X254138Y264748D01*
X253990Y264646D01*
X251880Y262536D01*
X247484Y262536D01*
X245323Y264697D01*
X245284Y264723D01*
X245252Y264756D01*
X245202Y264778D01*
X245156Y264808D01*
X245110Y264817D01*
X245068Y264835D01*
X245013Y264835D01*
X244959Y264845D01*
X244914Y264836D01*
X244867Y264836D01*
X244817Y264815D01*
X244763Y264804D01*
X244725Y264777D01*
X244682Y264759D01*
X244644Y264721D01*
X244599Y264690D01*
X244574Y264650D01*
X244541Y264617D01*
X244517Y264561D01*
X244491Y264520D01*
X244486Y264488D01*
X244470Y264451D01*
X244274Y263592D01*
X244272Y263521D01*
X244262Y263451D01*
X244269Y263420D01*
X244269Y263392D01*
X244287Y263344D01*
X244303Y263276D01*
X244305Y263271D01*
X244068Y262667D01*
X244062Y262633D01*
X244046Y262595D01*
X243901Y261962D01*
X243897Y261959D01*
X243845Y261911D01*
X243789Y261868D01*
X243772Y261841D01*
X243751Y261821D01*
X243730Y261774D01*
X243694Y261715D01*
X242827Y259508D01*
X242815Y259438D01*
X242794Y259371D01*
X242797Y259338D01*
X242792Y259311D01*
X242803Y259260D01*
X242809Y259191D01*
X242811Y259186D01*
X242486Y258624D01*
X242475Y258591D01*
X242453Y258556D01*
X242216Y257952D01*
X242211Y257950D01*
X242153Y257909D01*
X242091Y257876D01*
X242069Y257851D01*
X242046Y257835D01*
X242019Y257791D01*
X241974Y257739D01*
X240788Y255685D01*
X240765Y255618D01*
X240735Y255555D01*
X240733Y255522D01*
X240724Y255495D01*
X240728Y255444D01*
X240723Y255375D01*
X240724Y255369D01*
X240319Y254862D01*
X240303Y254831D01*
X240276Y254800D01*
X239952Y254238D01*
X239946Y254236D01*
X239883Y254205D01*
X239816Y254181D01*
X239792Y254160D01*
X239767Y254147D01*
X239733Y254108D01*
X239681Y254063D01*
X238202Y252209D01*
X238169Y252146D01*
X238130Y252088D01*
X238123Y252056D01*
X238110Y252031D01*
X238106Y251979D01*
X238091Y251912D01*
X238091Y251906D01*
X237615Y251465D01*
X237595Y251437D01*
X237564Y251410D01*
X237159Y250902D01*
X237154Y250902D01*
X237086Y250880D01*
X237017Y250867D01*
X236989Y250849D01*
X236963Y250840D01*
X236924Y250807D01*
X236865Y250770D01*
X235126Y249157D01*
X235085Y249100D01*
X235037Y249048D01*
X235026Y249017D01*
X235009Y248995D01*
X234998Y248944D01*
X234973Y248880D01*
X234972Y248874D01*
X234436Y248509D01*
X234411Y248484D01*
X234376Y248462D01*
X233901Y248021D01*
X233895Y248021D01*
X233825Y248009D01*
X233755Y248006D01*
X233725Y247993D01*
X233697Y247989D01*
X233653Y247961D01*
X233590Y247933D01*
X232470Y247170D01*
X232410Y247108D01*
X232346Y247049D01*
X232340Y247036D01*
X232330Y247026D01*
X232298Y246946D01*
X232262Y246867D01*
X232261Y246853D01*
X232256Y246840D01*
X232258Y246754D01*
X232255Y246667D01*
X232260Y246653D01*
X232261Y246640D01*
X232283Y246589D01*
X232316Y246497D01*
X251207Y213777D01*
X249889Y213153D01*
X249866Y213136D01*
X249839Y213126D01*
X249787Y213077D01*
X249729Y213034D01*
X249715Y213009D01*
X249694Y212990D01*
X249665Y212924D01*
X249629Y212862D01*
X249626Y212834D01*
X249614Y212808D01*
X249613Y212736D01*
X249604Y212665D01*
X249612Y212638D01*
X249612Y212609D01*
X249647Y212514D01*
X249658Y212474D01*
X249665Y212465D01*
X249669Y212453D01*
X259169Y195953D01*
X259221Y195895D01*
X259267Y195832D01*
X259286Y195821D01*
X259301Y195804D01*
X259371Y195770D01*
X259438Y195730D01*
X259463Y195726D01*
X259480Y195718D01*
X259525Y195716D01*
X259602Y195703D01*
X278602Y195703D01*
X278630Y195708D01*
G37*
G36*
X460768Y296009D02*
X460768Y296009D01*
X460784Y296007D01*
X460906Y296041D01*
X460948Y296051D01*
X460952Y296054D01*
X460957Y296056D01*
X461537Y296335D01*
X461565Y296356D01*
X461603Y296373D01*
X462139Y296739D01*
X462144Y296738D01*
X462215Y296738D01*
X462285Y296731D01*
X462316Y296740D01*
X462344Y296740D01*
X462392Y296761D01*
X462458Y296779D01*
X464595Y297809D01*
X464651Y297851D01*
X464712Y297887D01*
X464732Y297913D01*
X464754Y297930D01*
X464780Y297974D01*
X464823Y298029D01*
X464825Y298034D01*
X465446Y298225D01*
X465476Y298242D01*
X465516Y298253D01*
X466101Y298534D01*
X466106Y298533D01*
X466176Y298523D01*
X466244Y298505D01*
X466277Y298509D01*
X466304Y298505D01*
X466354Y298518D01*
X466423Y298527D01*
X468689Y299226D01*
X468751Y299260D01*
X468816Y299286D01*
X468840Y299309D01*
X468865Y299322D01*
X468897Y299363D01*
X468947Y299410D01*
X468950Y299415D01*
X469592Y299511D01*
X469625Y299523D01*
X469666Y299528D01*
X470286Y299720D01*
X470291Y299717D01*
X470313Y299711D01*
X470317Y299708D01*
X470330Y299706D01*
X470359Y299697D01*
X470423Y299669D01*
X470456Y299668D01*
X470483Y299660D01*
X470534Y299666D01*
X470604Y299664D01*
X472948Y300018D01*
X473015Y300043D01*
X473083Y300059D01*
X473110Y300077D01*
X473137Y300087D01*
X473175Y300122D01*
X473231Y300161D01*
X473235Y300165D01*
X473884Y300165D01*
X473918Y300172D01*
X473960Y300171D01*
X474601Y300268D01*
X474606Y300265D01*
X474670Y300235D01*
X474730Y300198D01*
X474762Y300192D01*
X474787Y300180D01*
X474839Y300178D01*
X474907Y300166D01*
X477278Y300167D01*
X477348Y300181D01*
X477418Y300186D01*
X477447Y300201D01*
X477475Y300206D01*
X477518Y300235D01*
X477580Y300266D01*
X477584Y300269D01*
X478226Y300173D01*
X478260Y300174D01*
X478301Y300167D01*
X478950Y300167D01*
X478954Y300163D01*
X479013Y300124D01*
X479067Y300078D01*
X479098Y300068D01*
X479121Y300052D01*
X479172Y300043D01*
X479237Y300020D01*
X481582Y299668D01*
X481653Y299671D01*
X481723Y299666D01*
X481754Y299676D01*
X481782Y299678D01*
X481829Y299700D01*
X481874Y299714D01*
X481880Y299716D01*
X481883Y299717D01*
X481895Y299721D01*
X481900Y299724D01*
X482520Y299532D01*
X482554Y299529D01*
X482594Y299516D01*
X483235Y299419D01*
X483239Y299415D01*
X483291Y299367D01*
X483337Y299314D01*
X483366Y299299D01*
X483387Y299280D01*
X483436Y299263D01*
X483497Y299231D01*
X485764Y298533D01*
X485834Y298526D01*
X485903Y298511D01*
X485935Y298516D01*
X485963Y298513D01*
X486012Y298528D01*
X486081Y298539D01*
X486086Y298541D01*
X486671Y298259D01*
X486704Y298251D01*
X486741Y298232D01*
X487361Y298041D01*
X487364Y298036D01*
X487408Y297981D01*
X487446Y297922D01*
X487473Y297902D01*
X487491Y297881D01*
X487536Y297857D01*
X487592Y297816D01*
X488830Y297220D01*
X488914Y297199D01*
X488997Y297173D01*
X489011Y297174D01*
X489024Y297171D01*
X489110Y297184D01*
X489196Y297192D01*
X489209Y297198D01*
X489223Y297200D01*
X489296Y297245D01*
X489373Y297286D01*
X489383Y297298D01*
X489394Y297305D01*
X489427Y297349D01*
X489489Y297424D01*
X508381Y330145D01*
X509618Y329291D01*
X509645Y329280D01*
X509667Y329261D01*
X509736Y329241D01*
X509801Y329213D01*
X509830Y329213D01*
X509858Y329205D01*
X509929Y329213D01*
X510000Y329213D01*
X510027Y329224D01*
X510056Y329227D01*
X510118Y329262D01*
X510183Y329290D01*
X510204Y329310D01*
X510229Y329325D01*
X510292Y329402D01*
X510322Y329432D01*
X510326Y329442D01*
X510335Y329453D01*
X519835Y345953D01*
X519845Y345985D01*
X519854Y345998D01*
X519858Y346022D01*
X519859Y346026D01*
X519890Y346096D01*
X519890Y346120D01*
X519898Y346142D01*
X519892Y346218D01*
X519893Y346295D01*
X519883Y346319D01*
X519882Y346340D01*
X519861Y346379D01*
X519835Y346451D01*
X510335Y362951D01*
X510316Y362973D01*
X510303Y362999D01*
X510250Y363047D01*
X510203Y363100D01*
X510177Y363113D01*
X510156Y363132D01*
X510088Y363155D01*
X510024Y363186D01*
X509995Y363188D01*
X509968Y363197D01*
X509896Y363192D01*
X509825Y363195D01*
X509798Y363185D01*
X509769Y363183D01*
X509679Y363141D01*
X509639Y363126D01*
X509631Y363119D01*
X509618Y363113D01*
X508381Y362259D01*
X489489Y394980D01*
X489432Y395045D01*
X489378Y395113D01*
X489366Y395120D01*
X489357Y395131D01*
X489279Y395168D01*
X489203Y395210D01*
X489189Y395212D01*
X489176Y395218D01*
X489090Y395222D01*
X489004Y395232D01*
X488989Y395228D01*
X488976Y395228D01*
X488924Y395210D01*
X488830Y395184D01*
X487592Y394588D01*
X487536Y394545D01*
X487475Y394510D01*
X487455Y394484D01*
X487432Y394467D01*
X487406Y394422D01*
X487364Y394368D01*
X487361Y394363D01*
X486741Y394172D01*
X486711Y394156D01*
X486671Y394145D01*
X486086Y393863D01*
X486081Y393865D01*
X486011Y393875D01*
X485942Y393893D01*
X485910Y393889D01*
X485882Y393893D01*
X485832Y393879D01*
X485764Y393871D01*
X483497Y393173D01*
X483435Y393139D01*
X483370Y393113D01*
X483346Y393090D01*
X483321Y393077D01*
X483289Y393037D01*
X483239Y392989D01*
X483235Y392985D01*
X482594Y392888D01*
X482561Y392877D01*
X482520Y392872D01*
X481900Y392680D01*
X481895Y392683D01*
X481827Y392703D01*
X481762Y392731D01*
X481730Y392732D01*
X481703Y392740D01*
X481651Y392734D01*
X481582Y392736D01*
X479237Y392384D01*
X479171Y392360D01*
X479102Y392343D01*
X479075Y392325D01*
X479049Y392315D01*
X479011Y392280D01*
X478954Y392241D01*
X478950Y392237D01*
X478301Y392237D01*
X478267Y392230D01*
X478226Y392231D01*
X477584Y392135D01*
X477580Y392138D01*
X477516Y392168D01*
X477456Y392205D01*
X477423Y392211D01*
X477398Y392223D01*
X477346Y392225D01*
X477278Y392237D01*
X476469Y392238D01*
X476464Y392237D01*
X476458Y392238D01*
X476365Y392217D01*
X476272Y392198D01*
X476268Y392195D01*
X476263Y392194D01*
X476185Y392139D01*
X476106Y392086D01*
X476104Y392081D01*
X476099Y392078D01*
X476049Y391997D01*
X475997Y391918D01*
X475996Y391912D01*
X475993Y391908D01*
X475961Y391730D01*
X475961Y312454D01*
X474027Y310520D01*
X460379Y296871D01*
X460370Y296858D01*
X460357Y296849D01*
X460315Y296775D01*
X460268Y296704D01*
X460265Y296689D01*
X460257Y296675D01*
X460246Y296591D01*
X460230Y296507D01*
X460233Y296492D01*
X460231Y296476D01*
X460254Y296395D01*
X460272Y296311D01*
X460281Y296298D01*
X460285Y296283D01*
X460337Y296216D01*
X460386Y296147D01*
X460399Y296138D01*
X460409Y296126D01*
X460483Y296085D01*
X460555Y296039D01*
X460571Y296036D01*
X460585Y296029D01*
X460669Y296020D01*
X460753Y296006D01*
X460768Y296009D01*
G37*
G36*
X478143Y393769D02*
X478143Y393769D01*
X478186Y393768D01*
X482179Y394369D01*
X482209Y394380D01*
X482252Y394385D01*
X486111Y395574D01*
X486139Y395589D01*
X486180Y395601D01*
X489818Y397352D01*
X489840Y397369D01*
X489866Y397378D01*
X489919Y397428D01*
X489977Y397472D01*
X489990Y397496D01*
X490010Y397515D01*
X490040Y397581D01*
X490076Y397645D01*
X490079Y397672D01*
X490090Y397697D01*
X490091Y397770D01*
X490100Y397842D01*
X490092Y397868D01*
X490092Y397896D01*
X490056Y397994D01*
X490044Y398033D01*
X490038Y398041D01*
X490034Y398052D01*
X463034Y444852D01*
X463016Y444872D01*
X463005Y444897D01*
X462951Y444946D01*
X462903Y445001D01*
X462878Y445012D01*
X462858Y445031D01*
X462789Y445055D01*
X462723Y445086D01*
X462696Y445088D01*
X462671Y445097D01*
X462598Y445092D01*
X462525Y445095D01*
X462499Y445086D01*
X462472Y445084D01*
X462376Y445040D01*
X462338Y445026D01*
X462331Y445019D01*
X462321Y445015D01*
X458984Y442741D01*
X458962Y442718D01*
X458926Y442695D01*
X455965Y439949D01*
X455946Y439923D01*
X455914Y439895D01*
X453396Y436739D01*
X453381Y436710D01*
X453354Y436677D01*
X451334Y433181D01*
X451324Y433151D01*
X451301Y433114D01*
X449825Y429356D01*
X449820Y429324D01*
X449803Y429284D01*
X448903Y425348D01*
X448903Y425316D01*
X448892Y425274D01*
X448589Y421248D01*
X448592Y421225D01*
X448589Y421205D01*
X448591Y421195D01*
X448589Y421174D01*
X448890Y417147D01*
X448898Y417116D01*
X448901Y417073D01*
X449798Y413137D01*
X449811Y413108D01*
X449820Y413065D01*
X451294Y409306D01*
X451311Y409279D01*
X451326Y409239D01*
X453344Y405742D01*
X453365Y405718D01*
X453386Y405680D01*
X455902Y402522D01*
X455927Y402502D01*
X455953Y402468D01*
X458912Y399720D01*
X458939Y399704D01*
X458970Y399674D01*
X462306Y397398D01*
X462335Y397386D01*
X462370Y397361D01*
X466008Y395608D01*
X466038Y395600D01*
X466077Y395581D01*
X469935Y394389D01*
X469967Y394386D01*
X470008Y394373D01*
X474000Y393770D01*
X474032Y393771D01*
X474074Y393764D01*
X478112Y393763D01*
X478143Y393769D01*
G37*
G36*
X218330Y393764D02*
X218330Y393764D01*
X218361Y393770D01*
X218404Y393770D01*
X222396Y394373D01*
X222426Y394384D01*
X222469Y394389D01*
X226327Y395581D01*
X226355Y395596D01*
X226397Y395608D01*
X230034Y397361D01*
X230059Y397380D01*
X230098Y397398D01*
X233434Y399674D01*
X233456Y399697D01*
X233492Y399720D01*
X236451Y402468D01*
X236470Y402493D01*
X236502Y402522D01*
X239018Y405680D01*
X239033Y405708D01*
X239060Y405742D01*
X241078Y409239D01*
X241088Y409269D01*
X241110Y409306D01*
X242584Y413065D01*
X242590Y413097D01*
X242606Y413137D01*
X243503Y417073D01*
X243504Y417105D01*
X243514Y417147D01*
X243815Y421174D01*
X243811Y421205D01*
X243812Y421221D01*
X243815Y421238D01*
X243814Y421242D01*
X243815Y421248D01*
X243512Y425274D01*
X243503Y425305D01*
X243501Y425348D01*
X242601Y429284D01*
X242588Y429313D01*
X242579Y429356D01*
X241103Y433114D01*
X241085Y433141D01*
X241070Y433181D01*
X239050Y436677D01*
X239029Y436701D01*
X239008Y436739D01*
X236490Y439895D01*
X236465Y439915D01*
X236439Y439949D01*
X233478Y442695D01*
X233451Y442711D01*
X233420Y442741D01*
X230083Y445015D01*
X230058Y445025D01*
X230037Y445042D01*
X229967Y445063D01*
X229900Y445092D01*
X229872Y445092D01*
X229846Y445099D01*
X229774Y445091D01*
X229701Y445091D01*
X229676Y445080D01*
X229649Y445077D01*
X229585Y445041D01*
X229518Y445013D01*
X229499Y444993D01*
X229476Y444980D01*
X229409Y444899D01*
X229380Y444869D01*
X229377Y444860D01*
X229370Y444852D01*
X202370Y398052D01*
X202361Y398026D01*
X202345Y398003D01*
X202330Y397932D01*
X202306Y397863D01*
X202309Y397836D01*
X202303Y397809D01*
X202316Y397738D01*
X202322Y397665D01*
X202335Y397640D01*
X202340Y397614D01*
X202380Y397553D01*
X202414Y397488D01*
X202435Y397471D01*
X202450Y397448D01*
X202536Y397387D01*
X202567Y397362D01*
X202576Y397359D01*
X202586Y397352D01*
X206224Y395601D01*
X206255Y395594D01*
X206293Y395574D01*
X210152Y394385D01*
X210184Y394382D01*
X210225Y394369D01*
X214218Y393768D01*
X214249Y393770D01*
X214292Y393763D01*
X218330Y393764D01*
G37*
G36*
X462630Y247313D02*
X462630Y247313D01*
X462703Y247313D01*
X462728Y247324D01*
X462755Y247327D01*
X462819Y247363D01*
X462886Y247391D01*
X462905Y247411D01*
X462928Y247424D01*
X462996Y247505D01*
X463024Y247535D01*
X463027Y247544D01*
X463034Y247553D01*
X490034Y294353D01*
X490043Y294378D01*
X490059Y294401D01*
X490074Y294472D01*
X490098Y294541D01*
X490095Y294568D01*
X490101Y294595D01*
X490088Y294666D01*
X490082Y294739D01*
X490069Y294764D01*
X490064Y294790D01*
X490024Y294851D01*
X489990Y294916D01*
X489969Y294933D01*
X489954Y294956D01*
X489868Y295017D01*
X489837Y295042D01*
X489828Y295045D01*
X489818Y295052D01*
X486180Y296803D01*
X486149Y296810D01*
X486111Y296830D01*
X482252Y298019D01*
X482220Y298022D01*
X482179Y298035D01*
X478186Y298636D01*
X478155Y298634D01*
X478112Y298641D01*
X474074Y298640D01*
X474043Y298634D01*
X474000Y298634D01*
X470008Y298031D01*
X469978Y298020D01*
X469935Y298015D01*
X466077Y296823D01*
X466049Y296808D01*
X466008Y296796D01*
X462370Y295043D01*
X462345Y295024D01*
X462306Y295006D01*
X458970Y292730D01*
X458948Y292707D01*
X458912Y292684D01*
X455953Y289936D01*
X455934Y289911D01*
X455902Y289882D01*
X453386Y286724D01*
X453371Y286696D01*
X453344Y286662D01*
X451326Y283165D01*
X451316Y283135D01*
X451294Y283098D01*
X449820Y279339D01*
X449814Y279307D01*
X449798Y279267D01*
X448901Y275331D01*
X448900Y275299D01*
X448890Y275257D01*
X448589Y271231D01*
X448593Y271199D01*
X448589Y271156D01*
X448892Y267130D01*
X448901Y267099D01*
X448903Y267056D01*
X449803Y263120D01*
X449816Y263091D01*
X449825Y263048D01*
X451301Y259290D01*
X451319Y259263D01*
X451334Y259223D01*
X453354Y255727D01*
X453375Y255703D01*
X453396Y255665D01*
X455914Y252509D01*
X455939Y252489D01*
X455965Y252455D01*
X458926Y249709D01*
X458953Y249693D01*
X458984Y249663D01*
X462321Y247389D01*
X462346Y247379D01*
X462367Y247362D01*
X462437Y247341D01*
X462504Y247312D01*
X462532Y247313D01*
X462558Y247305D01*
X462630Y247313D01*
G37*
G36*
X229806Y247312D02*
X229806Y247312D01*
X229879Y247309D01*
X229905Y247318D01*
X229932Y247320D01*
X230028Y247364D01*
X230066Y247378D01*
X230073Y247385D01*
X230083Y247389D01*
X233420Y249663D01*
X233442Y249686D01*
X233478Y249709D01*
X236439Y252455D01*
X236458Y252481D01*
X236490Y252509D01*
X239008Y255665D01*
X239023Y255694D01*
X239050Y255727D01*
X241070Y259223D01*
X241080Y259253D01*
X241103Y259290D01*
X242579Y263048D01*
X242584Y263080D01*
X242601Y263120D01*
X243501Y267056D01*
X243501Y267088D01*
X243512Y267130D01*
X243815Y271156D01*
X243811Y271187D01*
X243815Y271231D01*
X243514Y275257D01*
X243506Y275288D01*
X243503Y275331D01*
X242606Y279267D01*
X242593Y279296D01*
X242584Y279339D01*
X241110Y283098D01*
X241093Y283125D01*
X241078Y283165D01*
X239060Y286662D01*
X239039Y286686D01*
X239018Y286724D01*
X236502Y289882D01*
X236477Y289902D01*
X236451Y289936D01*
X233492Y292684D01*
X233465Y292700D01*
X233434Y292730D01*
X230098Y295006D01*
X230069Y295018D01*
X230034Y295043D01*
X226397Y296796D01*
X226366Y296804D01*
X226327Y296823D01*
X222469Y298015D01*
X222437Y298018D01*
X222396Y298031D01*
X218404Y298634D01*
X218372Y298633D01*
X218330Y298640D01*
X214292Y298641D01*
X214261Y298635D01*
X214218Y298636D01*
X210225Y298035D01*
X210195Y298024D01*
X210152Y298019D01*
X206293Y296830D01*
X206265Y296815D01*
X206224Y296803D01*
X202586Y295052D01*
X202564Y295035D01*
X202538Y295026D01*
X202485Y294976D01*
X202427Y294932D01*
X202414Y294908D01*
X202394Y294889D01*
X202364Y294823D01*
X202328Y294759D01*
X202325Y294732D01*
X202314Y294707D01*
X202313Y294634D01*
X202304Y294562D01*
X202312Y294536D01*
X202312Y294508D01*
X202348Y294410D01*
X202360Y294371D01*
X202366Y294363D01*
X202370Y294353D01*
X229370Y247553D01*
X229388Y247532D01*
X229399Y247507D01*
X229453Y247458D01*
X229501Y247404D01*
X229526Y247392D01*
X229546Y247373D01*
X229615Y247349D01*
X229681Y247318D01*
X229708Y247317D01*
X229733Y247307D01*
X229806Y247312D01*
G37*
%LPC*%
G36*
X379439Y370653D02*
X379439Y370653D01*
X379314Y370779D01*
X379307Y370783D01*
X379303Y370790D01*
X379224Y370838D01*
X379147Y370890D01*
X379139Y370891D01*
X379132Y370895D01*
X378955Y370927D01*
X376937Y370927D01*
X375677Y372187D01*
X375677Y375170D01*
X375676Y375175D01*
X375677Y375180D01*
X375656Y375273D01*
X375638Y375367D01*
X375635Y375371D01*
X375634Y375376D01*
X375578Y375454D01*
X375525Y375532D01*
X375521Y375535D01*
X375518Y375540D01*
X375436Y375590D01*
X375357Y375642D01*
X375352Y375643D01*
X375347Y375645D01*
X375170Y375677D01*
X372187Y375677D01*
X370927Y376937D01*
X370927Y378955D01*
X370926Y378963D01*
X370927Y378971D01*
X370906Y379060D01*
X370888Y379152D01*
X370883Y379158D01*
X370882Y379166D01*
X370779Y379314D01*
X370653Y379439D01*
X370653Y387465D01*
X370652Y387470D01*
X370653Y387475D01*
X370632Y387568D01*
X370614Y387661D01*
X370611Y387666D01*
X370610Y387671D01*
X370554Y387749D01*
X370501Y387827D01*
X370497Y387830D01*
X370494Y387834D01*
X370412Y387885D01*
X370333Y387936D01*
X370328Y387937D01*
X370323Y387940D01*
X370146Y387972D01*
X367997Y387972D01*
X367104Y388865D01*
X367104Y401128D01*
X367997Y402022D01*
X379260Y402022D01*
X380154Y401128D01*
X380154Y388865D01*
X379260Y387972D01*
X377258Y387972D01*
X377253Y387971D01*
X377248Y387972D01*
X377155Y387951D01*
X377061Y387932D01*
X377057Y387930D01*
X377052Y387928D01*
X376974Y387873D01*
X376896Y387820D01*
X376893Y387815D01*
X376889Y387812D01*
X376838Y387731D01*
X376786Y387652D01*
X376786Y387647D01*
X376783Y387642D01*
X376751Y387465D01*
X376751Y384004D01*
X376752Y383999D01*
X376751Y383994D01*
X376772Y383900D01*
X376790Y383808D01*
X376793Y383803D01*
X376794Y383798D01*
X376850Y383720D01*
X376903Y383642D01*
X376907Y383639D01*
X376910Y383635D01*
X376992Y383584D01*
X377071Y383533D01*
X377076Y383532D01*
X377081Y383529D01*
X377258Y383497D01*
X379057Y383497D01*
X379199Y383354D01*
X379206Y383350D01*
X379210Y383344D01*
X379289Y383295D01*
X379366Y383243D01*
X379374Y383242D01*
X379380Y383238D01*
X379558Y383206D01*
X381487Y383206D01*
X381495Y383207D01*
X381503Y383206D01*
X381593Y383227D01*
X381684Y383245D01*
X381690Y383250D01*
X381698Y383252D01*
X381846Y383354D01*
X383881Y385390D01*
X383886Y385397D01*
X383892Y385401D01*
X383941Y385480D01*
X383992Y385557D01*
X383994Y385565D01*
X383998Y385571D01*
X384030Y385749D01*
X384030Y393883D01*
X384923Y394776D01*
X397186Y394776D01*
X398079Y393883D01*
X398079Y382620D01*
X397186Y381727D01*
X389052Y381727D01*
X389044Y381725D01*
X389036Y381727D01*
X388946Y381706D01*
X388855Y381687D01*
X388849Y381683D01*
X388841Y381681D01*
X388693Y381578D01*
X386157Y379043D01*
X386153Y379036D01*
X386147Y379032D01*
X386098Y378953D01*
X386046Y378876D01*
X386045Y378868D01*
X386041Y378861D01*
X386009Y378684D01*
X386009Y375701D01*
X385875Y375568D01*
X385871Y375561D01*
X385865Y375556D01*
X385816Y375478D01*
X385764Y375401D01*
X385763Y375393D01*
X385759Y375386D01*
X385727Y375209D01*
X385727Y372187D01*
X384468Y370927D01*
X382449Y370927D01*
X382441Y370926D01*
X382434Y370927D01*
X382344Y370906D01*
X382253Y370888D01*
X382246Y370883D01*
X382238Y370882D01*
X382090Y370779D01*
X381965Y370653D01*
X379439Y370653D01*
G37*
%LPD*%
%LPC*%
G36*
X354049Y470885D02*
X354049Y470885D01*
X353156Y471778D01*
X353156Y488342D01*
X354049Y489235D01*
X370613Y489235D01*
X371506Y488342D01*
X371506Y471778D01*
X370613Y470885D01*
X354049Y470885D01*
G37*
%LPD*%
%LPC*%
G36*
X365518Y224274D02*
X365518Y224274D01*
X361833Y225800D01*
X359013Y228620D01*
X357487Y232305D01*
X357487Y236293D01*
X359013Y239978D01*
X361833Y242798D01*
X362089Y242904D01*
X362090Y242904D01*
X363314Y243411D01*
X364539Y243918D01*
X365518Y244324D01*
X369506Y244324D01*
X373191Y242798D01*
X376011Y239978D01*
X377537Y236293D01*
X377537Y232305D01*
X376011Y228620D01*
X373191Y225800D01*
X372653Y225578D01*
X371429Y225071D01*
X370204Y224563D01*
X369506Y224274D01*
X365518Y224274D01*
G37*
%LPD*%
%LPC*%
G36*
X330518Y224274D02*
X330518Y224274D01*
X326833Y225800D01*
X324013Y228620D01*
X322487Y232305D01*
X322487Y236293D01*
X324013Y239978D01*
X326833Y242798D01*
X327089Y242904D01*
X327090Y242904D01*
X328314Y243411D01*
X329539Y243918D01*
X330518Y244324D01*
X334506Y244324D01*
X338191Y242798D01*
X341011Y239978D01*
X342537Y236293D01*
X342537Y232305D01*
X341011Y228620D01*
X338191Y225800D01*
X337653Y225578D01*
X336429Y225071D01*
X335204Y224563D01*
X334506Y224274D01*
X330518Y224274D01*
G37*
%LPD*%
%LPC*%
G36*
X335106Y470885D02*
X335106Y470885D01*
X331734Y472282D01*
X329153Y474863D01*
X327756Y478235D01*
X327756Y481885D01*
X329153Y485257D01*
X331734Y487838D01*
X331896Y487905D01*
X331897Y487905D01*
X333121Y488413D01*
X334346Y488920D01*
X335106Y489235D01*
X338756Y489235D01*
X342128Y487838D01*
X344709Y485257D01*
X346106Y481885D01*
X346106Y478235D01*
X344709Y474863D01*
X342128Y472282D01*
X341692Y472101D01*
X340467Y471594D01*
X339243Y471087D01*
X338756Y470885D01*
X335106Y470885D01*
G37*
%LPD*%
D10*
X421591Y360390D03*
X438591Y360390D03*
D11*
X425205Y308471D03*
X425205Y327471D03*
D12*
X377827Y373077D02*
X377827Y374327D01*
X383577Y374327D01*
X383577Y373077D01*
X377827Y373077D01*
X377827Y374264D02*
X383577Y374264D01*
X377827Y369327D02*
X377827Y368077D01*
X377827Y369327D02*
X383577Y369327D01*
X383577Y368077D01*
X377827Y368077D01*
X377827Y369264D02*
X383577Y369264D01*
X377827Y364327D02*
X377827Y363077D01*
X377827Y364327D02*
X383577Y364327D01*
X383577Y363077D01*
X377827Y363077D01*
X377827Y364264D02*
X383577Y364264D01*
X377827Y359327D02*
X377827Y358077D01*
X377827Y359327D02*
X383577Y359327D01*
X383577Y358077D01*
X377827Y358077D01*
X377827Y359264D02*
X383577Y359264D01*
X377827Y354327D02*
X377827Y353077D01*
X377827Y354327D02*
X383577Y354327D01*
X383577Y353077D01*
X377827Y353077D01*
X377827Y354264D02*
X383577Y354264D01*
X377827Y349327D02*
X377827Y348077D01*
X377827Y349327D02*
X383577Y349327D01*
X383577Y348077D01*
X377827Y348077D01*
X377827Y349264D02*
X383577Y349264D01*
X377827Y344327D02*
X377827Y343077D01*
X377827Y344327D02*
X383577Y344327D01*
X383577Y343077D01*
X377827Y343077D01*
X377827Y344264D02*
X383577Y344264D01*
X377827Y339327D02*
X377827Y338077D01*
X377827Y339327D02*
X383577Y339327D01*
X383577Y338077D01*
X377827Y338077D01*
X377827Y339264D02*
X383577Y339264D01*
X377827Y334327D02*
X377827Y333077D01*
X377827Y334327D02*
X383577Y334327D01*
X383577Y333077D01*
X377827Y333077D01*
X377827Y334264D02*
X383577Y334264D01*
X377827Y329327D02*
X377827Y328077D01*
X377827Y329327D02*
X383577Y329327D01*
X383577Y328077D01*
X377827Y328077D01*
X377827Y329264D02*
X383577Y329264D01*
X377827Y324327D02*
X377827Y323077D01*
X377827Y324327D02*
X383577Y324327D01*
X383577Y323077D01*
X377827Y323077D01*
X377827Y324264D02*
X383577Y324264D01*
X377827Y319327D02*
X377827Y318077D01*
X377827Y319327D02*
X383577Y319327D01*
X383577Y318077D01*
X377827Y318077D01*
X377827Y319264D02*
X383577Y319264D01*
X374327Y314577D02*
X373077Y314577D01*
X374327Y314577D02*
X374327Y308827D01*
X373077Y308827D01*
X373077Y314577D01*
X373077Y310014D02*
X374327Y310014D01*
X374327Y311201D02*
X373077Y311201D01*
X373077Y312388D02*
X374327Y312388D01*
X374327Y313575D02*
X373077Y313575D01*
X369327Y314577D02*
X368077Y314577D01*
X369327Y314577D02*
X369327Y308827D01*
X368077Y308827D01*
X368077Y314577D01*
X368077Y310014D02*
X369327Y310014D01*
X369327Y311201D02*
X368077Y311201D01*
X368077Y312388D02*
X369327Y312388D01*
X369327Y313575D02*
X368077Y313575D01*
X364327Y314577D02*
X363077Y314577D01*
X364327Y314577D02*
X364327Y308827D01*
X363077Y308827D01*
X363077Y314577D01*
X363077Y310014D02*
X364327Y310014D01*
X364327Y311201D02*
X363077Y311201D01*
X363077Y312388D02*
X364327Y312388D01*
X364327Y313575D02*
X363077Y313575D01*
X359327Y314577D02*
X358077Y314577D01*
X359327Y314577D02*
X359327Y308827D01*
X358077Y308827D01*
X358077Y314577D01*
X358077Y310014D02*
X359327Y310014D01*
X359327Y311201D02*
X358077Y311201D01*
X358077Y312388D02*
X359327Y312388D01*
X359327Y313575D02*
X358077Y313575D01*
X354327Y314577D02*
X353077Y314577D01*
X354327Y314577D02*
X354327Y308827D01*
X353077Y308827D01*
X353077Y314577D01*
X353077Y310014D02*
X354327Y310014D01*
X354327Y311201D02*
X353077Y311201D01*
X353077Y312388D02*
X354327Y312388D01*
X354327Y313575D02*
X353077Y313575D01*
X349327Y314577D02*
X348077Y314577D01*
X349327Y314577D02*
X349327Y308827D01*
X348077Y308827D01*
X348077Y314577D01*
X348077Y310014D02*
X349327Y310014D01*
X349327Y311201D02*
X348077Y311201D01*
X348077Y312388D02*
X349327Y312388D01*
X349327Y313575D02*
X348077Y313575D01*
X344327Y314577D02*
X343077Y314577D01*
X344327Y314577D02*
X344327Y308827D01*
X343077Y308827D01*
X343077Y314577D01*
X343077Y310014D02*
X344327Y310014D01*
X344327Y311201D02*
X343077Y311201D01*
X343077Y312388D02*
X344327Y312388D01*
X344327Y313575D02*
X343077Y313575D01*
X339327Y314577D02*
X338077Y314577D01*
X339327Y314577D02*
X339327Y308827D01*
X338077Y308827D01*
X338077Y314577D01*
X338077Y310014D02*
X339327Y310014D01*
X339327Y311201D02*
X338077Y311201D01*
X338077Y312388D02*
X339327Y312388D01*
X339327Y313575D02*
X338077Y313575D01*
X334327Y314577D02*
X333077Y314577D01*
X334327Y314577D02*
X334327Y308827D01*
X333077Y308827D01*
X333077Y314577D01*
X333077Y310014D02*
X334327Y310014D01*
X334327Y311201D02*
X333077Y311201D01*
X333077Y312388D02*
X334327Y312388D01*
X334327Y313575D02*
X333077Y313575D01*
X329327Y314577D02*
X328077Y314577D01*
X329327Y314577D02*
X329327Y308827D01*
X328077Y308827D01*
X328077Y314577D01*
X328077Y310014D02*
X329327Y310014D01*
X329327Y311201D02*
X328077Y311201D01*
X328077Y312388D02*
X329327Y312388D01*
X329327Y313575D02*
X328077Y313575D01*
X324327Y314577D02*
X323077Y314577D01*
X324327Y314577D02*
X324327Y308827D01*
X323077Y308827D01*
X323077Y314577D01*
X323077Y310014D02*
X324327Y310014D01*
X324327Y311201D02*
X323077Y311201D01*
X323077Y312388D02*
X324327Y312388D01*
X324327Y313575D02*
X323077Y313575D01*
X319327Y314577D02*
X318077Y314577D01*
X319327Y314577D02*
X319327Y308827D01*
X318077Y308827D01*
X318077Y314577D01*
X318077Y310014D02*
X319327Y310014D01*
X319327Y311201D02*
X318077Y311201D01*
X318077Y312388D02*
X319327Y312388D01*
X319327Y313575D02*
X318077Y313575D01*
X314577Y318077D02*
X314577Y319327D01*
X314577Y318077D02*
X308827Y318077D01*
X308827Y319327D01*
X314577Y319327D01*
X314577Y319264D02*
X308827Y319264D01*
X314577Y323077D02*
X314577Y324327D01*
X314577Y323077D02*
X308827Y323077D01*
X308827Y324327D01*
X314577Y324327D01*
X314577Y324264D02*
X308827Y324264D01*
X314577Y328077D02*
X314577Y329327D01*
X314577Y328077D02*
X308827Y328077D01*
X308827Y329327D01*
X314577Y329327D01*
X314577Y329264D02*
X308827Y329264D01*
X314577Y333077D02*
X314577Y334327D01*
X314577Y333077D02*
X308827Y333077D01*
X308827Y334327D01*
X314577Y334327D01*
X314577Y334264D02*
X308827Y334264D01*
X314577Y338077D02*
X314577Y339327D01*
X314577Y338077D02*
X308827Y338077D01*
X308827Y339327D01*
X314577Y339327D01*
X314577Y339264D02*
X308827Y339264D01*
X314577Y343077D02*
X314577Y344327D01*
X314577Y343077D02*
X308827Y343077D01*
X308827Y344327D01*
X314577Y344327D01*
X314577Y344264D02*
X308827Y344264D01*
X314577Y348077D02*
X314577Y349327D01*
X314577Y348077D02*
X308827Y348077D01*
X308827Y349327D01*
X314577Y349327D01*
X314577Y349264D02*
X308827Y349264D01*
X314577Y353077D02*
X314577Y354327D01*
X314577Y353077D02*
X308827Y353077D01*
X308827Y354327D01*
X314577Y354327D01*
X314577Y354264D02*
X308827Y354264D01*
X314577Y358077D02*
X314577Y359327D01*
X314577Y358077D02*
X308827Y358077D01*
X308827Y359327D01*
X314577Y359327D01*
X314577Y359264D02*
X308827Y359264D01*
X314577Y363077D02*
X314577Y364327D01*
X314577Y363077D02*
X308827Y363077D01*
X308827Y364327D01*
X314577Y364327D01*
X314577Y364264D02*
X308827Y364264D01*
X314577Y368077D02*
X314577Y369327D01*
X314577Y368077D02*
X308827Y368077D01*
X308827Y369327D01*
X314577Y369327D01*
X314577Y369264D02*
X308827Y369264D01*
X314577Y373077D02*
X314577Y374327D01*
X314577Y373077D02*
X308827Y373077D01*
X308827Y374327D01*
X314577Y374327D01*
X314577Y374264D02*
X308827Y374264D01*
X318077Y377827D02*
X319327Y377827D01*
X318077Y377827D02*
X318077Y383577D01*
X319327Y383577D01*
X319327Y377827D01*
X319327Y379014D02*
X318077Y379014D01*
X318077Y380201D02*
X319327Y380201D01*
X319327Y381388D02*
X318077Y381388D01*
X318077Y382575D02*
X319327Y382575D01*
X323077Y377827D02*
X324327Y377827D01*
X323077Y377827D02*
X323077Y383577D01*
X324327Y383577D01*
X324327Y377827D01*
X324327Y379014D02*
X323077Y379014D01*
X323077Y380201D02*
X324327Y380201D01*
X324327Y381388D02*
X323077Y381388D01*
X323077Y382575D02*
X324327Y382575D01*
X328077Y377827D02*
X329327Y377827D01*
X328077Y377827D02*
X328077Y383577D01*
X329327Y383577D01*
X329327Y377827D01*
X329327Y379014D02*
X328077Y379014D01*
X328077Y380201D02*
X329327Y380201D01*
X329327Y381388D02*
X328077Y381388D01*
X328077Y382575D02*
X329327Y382575D01*
X333077Y377827D02*
X334327Y377827D01*
X333077Y377827D02*
X333077Y383577D01*
X334327Y383577D01*
X334327Y377827D01*
X334327Y379014D02*
X333077Y379014D01*
X333077Y380201D02*
X334327Y380201D01*
X334327Y381388D02*
X333077Y381388D01*
X333077Y382575D02*
X334327Y382575D01*
X338077Y377827D02*
X339327Y377827D01*
X338077Y377827D02*
X338077Y383577D01*
X339327Y383577D01*
X339327Y377827D01*
X339327Y379014D02*
X338077Y379014D01*
X338077Y380201D02*
X339327Y380201D01*
X339327Y381388D02*
X338077Y381388D01*
X338077Y382575D02*
X339327Y382575D01*
X343077Y377827D02*
X344327Y377827D01*
X343077Y377827D02*
X343077Y383577D01*
X344327Y383577D01*
X344327Y377827D01*
X344327Y379014D02*
X343077Y379014D01*
X343077Y380201D02*
X344327Y380201D01*
X344327Y381388D02*
X343077Y381388D01*
X343077Y382575D02*
X344327Y382575D01*
X348077Y377827D02*
X349327Y377827D01*
X348077Y377827D02*
X348077Y383577D01*
X349327Y383577D01*
X349327Y377827D01*
X349327Y379014D02*
X348077Y379014D01*
X348077Y380201D02*
X349327Y380201D01*
X349327Y381388D02*
X348077Y381388D01*
X348077Y382575D02*
X349327Y382575D01*
X353077Y377827D02*
X354327Y377827D01*
X353077Y377827D02*
X353077Y383577D01*
X354327Y383577D01*
X354327Y377827D01*
X354327Y379014D02*
X353077Y379014D01*
X353077Y380201D02*
X354327Y380201D01*
X354327Y381388D02*
X353077Y381388D01*
X353077Y382575D02*
X354327Y382575D01*
X358077Y377827D02*
X359327Y377827D01*
X358077Y377827D02*
X358077Y383577D01*
X359327Y383577D01*
X359327Y377827D01*
X359327Y379014D02*
X358077Y379014D01*
X358077Y380201D02*
X359327Y380201D01*
X359327Y381388D02*
X358077Y381388D01*
X358077Y382575D02*
X359327Y382575D01*
X363077Y377827D02*
X364327Y377827D01*
X363077Y377827D02*
X363077Y383577D01*
X364327Y383577D01*
X364327Y377827D01*
X364327Y379014D02*
X363077Y379014D01*
X363077Y380201D02*
X364327Y380201D01*
X364327Y381388D02*
X363077Y381388D01*
X363077Y382575D02*
X364327Y382575D01*
X368077Y377827D02*
X369327Y377827D01*
X368077Y377827D02*
X368077Y383577D01*
X369327Y383577D01*
X369327Y377827D01*
X369327Y379014D02*
X368077Y379014D01*
X368077Y380201D02*
X369327Y380201D01*
X369327Y381388D02*
X368077Y381388D01*
X368077Y382575D02*
X369327Y382575D01*
X373077Y377827D02*
X374327Y377827D01*
X373077Y377827D02*
X373077Y383577D01*
X374327Y383577D01*
X374327Y377827D01*
X374327Y379014D02*
X373077Y379014D01*
X373077Y380201D02*
X374327Y380201D01*
X374327Y381388D02*
X373077Y381388D01*
X373077Y382575D02*
X374327Y382575D01*
D13*
X346202Y346202D03*
D14*
X402430Y369487D03*
X402430Y357487D03*
X402430Y345487D03*
D10*
X352989Y411972D03*
X352989Y394972D03*
D15*
X295113Y320609D03*
X276113Y320609D03*
D11*
X274254Y373649D03*
X274254Y392649D03*
D16*
X404218Y313361D03*
X404218Y330361D03*
X373629Y394997D03*
X373629Y411997D03*
X295476Y373559D03*
X295476Y390559D03*
D10*
X295124Y299309D03*
X278124Y299309D03*
X391055Y388252D03*
X408055Y388252D03*
X445607Y338177D03*
X445607Y321177D03*
D17*
X295568Y417235D02*
X284568Y417235D01*
X284568Y422235D01*
X295568Y422235D01*
X295568Y417235D01*
X295568Y421985D02*
X284568Y421985D01*
X284568Y447635D02*
X295568Y447635D01*
X295568Y442635D01*
X284568Y442635D01*
X284568Y447635D01*
X284568Y447385D02*
X295568Y447385D01*
X386422Y457922D02*
X397422Y457922D01*
X397422Y452922D01*
X386422Y452922D01*
X386422Y457922D01*
X386422Y457672D02*
X397422Y457672D01*
X418965Y392593D02*
X429965Y392593D01*
X429965Y387593D01*
X418965Y387593D01*
X418965Y392593D01*
X418965Y392343D02*
X429965Y392343D01*
D18*
X428802Y489302D03*
X511402Y346202D03*
X428802Y203102D03*
X263602Y203102D03*
X181002Y346202D03*
X263602Y489302D03*
X470102Y417702D03*
X470102Y274702D03*
X222302Y274702D03*
X222302Y417702D03*
D19*
X362331Y480060D03*
D20*
X336931Y480060D03*
D21*
X367512Y234299D03*
X332512Y234299D03*
D22*
X261874Y322961D03*
D23*
X273761Y322961D01*
X276113Y320609D01*
D24*
X481076Y370586D02*
X487018Y370586D01*
D22*
X454406Y378847D03*
D24*
X477231Y374431D02*
X481076Y370586D01*
D22*
X482981Y378714D03*
D24*
X511402Y350293D01*
X511402Y346202D01*
D23*
X391055Y388252D02*
X380702Y377899D01*
X380702Y373702D01*
X373702Y380702D02*
X373702Y394924D01*
X373629Y394997D01*
D24*
X311702Y373702D02*
X295618Y373702D01*
X295476Y373559D01*
X274343Y373559D01*
X274254Y373649D01*
X307467Y311702D02*
X318702Y311702D01*
X304020Y311702D02*
X295113Y320609D01*
X295124Y302806D02*
X295124Y299309D01*
X295124Y302806D02*
X304020Y311702D01*
D22*
X380702Y377899D03*
D24*
X311702Y379432D02*
X311702Y373702D01*
X311702Y379432D02*
X311658Y379476D01*
D22*
X311658Y379476D03*
D24*
X373702Y380702D02*
X377899Y380702D01*
X380702Y377899D01*
X307467Y311702D02*
X304020Y311702D01*
D22*
X307467Y311702D03*
X249682Y267843D03*
D24*
X333655Y311655D02*
X333702Y311702D01*
D23*
X333655Y311655D02*
X333655Y305683D01*
X295815Y267843D01*
X249682Y267843D01*
X265510Y343702D02*
X311702Y343702D01*
X265510Y343702D02*
X220745Y388467D01*
D22*
X220745Y388467D03*
D23*
X328702Y311702D02*
X328702Y307366D01*
X296038Y274702D02*
X222302Y274702D01*
X296038Y274702D02*
X328702Y307366D01*
X311702Y348702D02*
X270169Y348702D01*
X222302Y396569D02*
X222302Y417702D01*
X222302Y396569D02*
X270169Y348702D01*
D22*
X289560Y355532D03*
D23*
X291390Y353702D01*
X311702Y353702D01*
D24*
X425205Y308471D02*
X454775Y308471D01*
X459359Y313055D02*
X459359Y329565D01*
D22*
X459359Y329565D03*
D24*
X459359Y313055D02*
X454775Y308471D01*
X394589Y331978D02*
X388682Y331978D01*
X396240Y321339D02*
X404218Y313361D01*
X396240Y330327D02*
X394589Y331978D01*
X396240Y330327D02*
X396240Y321339D01*
X404218Y313361D02*
X409108Y308471D01*
X425205Y308471D01*
X388682Y331978D02*
X386958Y333702D01*
X380702Y333702D01*
D23*
X380702Y353702D02*
X387103Y353702D01*
X389001Y355600D02*
X389001Y363728D01*
X389001Y355600D02*
X387103Y353702D01*
D24*
X389001Y363728D02*
X394760Y369487D01*
X402430Y369487D01*
D23*
X389676Y348702D02*
X380702Y348702D01*
X392891Y345487D02*
X402430Y345487D01*
X392891Y345487D02*
X389676Y348702D01*
X353702Y380702D02*
X353702Y394258D01*
X352989Y394972D01*
D24*
X363093Y405076D01*
X363093Y441198D01*
X377571Y455676D01*
X377825Y455422D02*
X391922Y455422D01*
X377825Y455422D02*
X377571Y455676D01*
D22*
X377571Y455676D03*
D24*
X380702Y343702D02*
X388453Y343702D01*
D23*
X421591Y350217D02*
X421591Y360390D01*
D24*
X391668Y340487D02*
X388453Y343702D01*
X391668Y340487D02*
X411861Y340487D01*
D23*
X421591Y350217D01*
X421591Y360390D02*
X427355Y366154D01*
X427355Y387203D02*
X424465Y390093D01*
X427355Y387203D02*
X427355Y377698D01*
X427355Y366154D01*
D22*
X427355Y377698D03*
D23*
X431574Y321099D02*
X445607Y321177D01*
X431574Y321099D02*
X425205Y327471D01*
D24*
X387706Y338702D02*
X380702Y338702D01*
X387706Y338702D02*
X390366Y336042D01*
X404218Y331504D02*
X404218Y330361D01*
X404218Y331504D02*
X399680Y336042D01*
X390366Y336042D01*
X404218Y330361D02*
X422316Y330361D01*
X425205Y327471D01*
D22*
X442595Y275082D03*
D23*
X400868Y275082D02*
X380702Y295247D01*
X380702Y318702D01*
X400868Y275082D02*
X442595Y275082D01*
X373829Y311575D02*
X373702Y311702D01*
X373829Y311575D02*
X373829Y292921D01*
X398752Y267998D02*
X463398Y267998D01*
D24*
X398752Y267998D02*
X373829Y292921D01*
X463398Y267998D02*
X470102Y274702D01*
D23*
X446021Y293589D02*
X466376Y313944D01*
X402427Y293589D02*
X392176Y303840D01*
X402427Y293589D02*
X446021Y293589D01*
X466376Y313944D02*
X466376Y388764D01*
D24*
X466083Y389057D01*
D22*
X466083Y389057D03*
D24*
X386084Y328702D02*
X380702Y328702D01*
X386084Y328702D02*
X386872Y327914D01*
X391033Y327914D01*
X392176Y326771D01*
X392176Y303840D01*
X386228Y323702D02*
X380702Y323702D01*
X386228Y323702D02*
X387604Y322326D01*
D23*
X387604Y300632D02*
X399981Y288255D01*
X387604Y300632D02*
X387604Y322326D01*
D24*
X470102Y395481D02*
X472913Y392670D01*
X470102Y395481D02*
X470102Y417702D01*
D23*
X472913Y313717D02*
X447451Y288255D01*
X472913Y313717D02*
X472913Y392670D01*
X447451Y288255D02*
X399981Y288255D01*
D24*
X311702Y363702D02*
X265075Y363702D01*
X258572Y370205D01*
X258572Y410083D01*
X270637Y419608D02*
X271272Y420243D01*
X270637Y419608D02*
X268097Y419608D01*
X289560Y420243D02*
X290068Y419735D01*
X289560Y420243D02*
X271272Y420243D01*
X268097Y419608D02*
X258572Y410083D01*
D22*
X271272Y420243D03*
D24*
X307780Y430344D02*
X307780Y393783D01*
X318702Y382861D02*
X318702Y380702D01*
X318702Y382861D02*
X307780Y393783D01*
X307780Y430344D02*
X302768Y435356D01*
X295529Y435356D01*
X290068Y440817D01*
X290068Y445135D01*
D22*
X302768Y435356D03*
X348615Y296545D03*
D23*
X348615Y311615D01*
X348702Y311702D01*
M02*
