G04 EAGLE Gerber RS-274X export*
G75*
%MOMM*%
%FSLAX34Y34*%
%LPD*%
%INSilkscreen Bottom*%
%IPPOS*%
%AMOC8*
5,1,8,0,0,1.08239X$1,22.5*%
G01*
%ADD10C,0.152400*%
%ADD11C,0.101600*%
%ADD12C,0.076200*%
%ADD13C,0.127000*%
%ADD14C,0.254000*%


D10*
X413301Y456755D02*
X408362Y456755D01*
X408222Y456753D01*
X408083Y456747D01*
X407943Y456737D01*
X407804Y456723D01*
X407665Y456706D01*
X407527Y456684D01*
X407390Y456658D01*
X407253Y456629D01*
X407117Y456596D01*
X406983Y456559D01*
X406849Y456518D01*
X406717Y456473D01*
X406585Y456424D01*
X406456Y456372D01*
X406328Y456317D01*
X406201Y456257D01*
X406076Y456194D01*
X405953Y456128D01*
X405832Y456058D01*
X405713Y455985D01*
X405596Y455908D01*
X405482Y455828D01*
X405369Y455745D01*
X405259Y455659D01*
X405152Y455569D01*
X405047Y455477D01*
X404945Y455382D01*
X404845Y455284D01*
X404748Y455183D01*
X404654Y455079D01*
X404564Y454973D01*
X404476Y454864D01*
X404391Y454753D01*
X404310Y454639D01*
X404231Y454524D01*
X404156Y454406D01*
X404085Y454286D01*
X404017Y454163D01*
X403952Y454040D01*
X403891Y453914D01*
X403833Y453786D01*
X403779Y453658D01*
X403729Y453527D01*
X403682Y453395D01*
X403639Y453262D01*
X403600Y453128D01*
X403565Y452993D01*
X403534Y452857D01*
X403506Y452719D01*
X403483Y452582D01*
X403463Y452443D01*
X403447Y452304D01*
X403435Y452165D01*
X403427Y452026D01*
X403423Y451886D01*
X403423Y451746D01*
X403427Y451606D01*
X403435Y451467D01*
X403447Y451328D01*
X403463Y451189D01*
X403483Y451050D01*
X403506Y450913D01*
X403534Y450775D01*
X403565Y450639D01*
X403600Y450504D01*
X403639Y450370D01*
X403682Y450237D01*
X403729Y450105D01*
X403779Y449974D01*
X403833Y449846D01*
X403891Y449718D01*
X403952Y449592D01*
X404017Y449469D01*
X404085Y449347D01*
X404156Y449226D01*
X404231Y449108D01*
X404310Y448993D01*
X404391Y448879D01*
X404476Y448768D01*
X404564Y448659D01*
X404654Y448553D01*
X404748Y448449D01*
X404845Y448348D01*
X404945Y448250D01*
X405047Y448155D01*
X405152Y448063D01*
X405259Y447973D01*
X405369Y447887D01*
X405482Y447804D01*
X405596Y447724D01*
X405713Y447647D01*
X405832Y447574D01*
X405953Y447504D01*
X406076Y447438D01*
X406201Y447375D01*
X406328Y447315D01*
X406456Y447260D01*
X406585Y447208D01*
X406717Y447159D01*
X406849Y447114D01*
X406983Y447073D01*
X407117Y447036D01*
X407253Y447003D01*
X407390Y446974D01*
X407527Y446948D01*
X407665Y446926D01*
X407804Y446909D01*
X407943Y446895D01*
X408083Y446885D01*
X408222Y446879D01*
X408362Y446877D01*
X413301Y446877D01*
X413301Y464657D01*
X408362Y464657D01*
X408238Y464655D01*
X408114Y464649D01*
X407990Y464639D01*
X407867Y464626D01*
X407744Y464608D01*
X407622Y464587D01*
X407500Y464562D01*
X407379Y464533D01*
X407260Y464500D01*
X407141Y464464D01*
X407024Y464423D01*
X406908Y464380D01*
X406793Y464332D01*
X406680Y464281D01*
X406568Y464226D01*
X406459Y464168D01*
X406351Y464107D01*
X406245Y464042D01*
X406141Y463974D01*
X406040Y463902D01*
X405940Y463828D01*
X405844Y463750D01*
X405749Y463670D01*
X405657Y463586D01*
X405568Y463500D01*
X405482Y463411D01*
X405398Y463319D01*
X405318Y463224D01*
X405240Y463128D01*
X405166Y463028D01*
X405094Y462927D01*
X405026Y462823D01*
X404961Y462717D01*
X404900Y462609D01*
X404842Y462500D01*
X404787Y462388D01*
X404736Y462275D01*
X404688Y462160D01*
X404645Y462044D01*
X404604Y461927D01*
X404568Y461808D01*
X404535Y461689D01*
X404506Y461568D01*
X404481Y461446D01*
X404460Y461324D01*
X404442Y461201D01*
X404429Y461078D01*
X404419Y460954D01*
X404413Y460830D01*
X404411Y460706D01*
X404413Y460582D01*
X404419Y460458D01*
X404429Y460334D01*
X404442Y460211D01*
X404460Y460088D01*
X404481Y459966D01*
X404506Y459844D01*
X404535Y459723D01*
X404568Y459604D01*
X404604Y459485D01*
X404645Y459368D01*
X404688Y459252D01*
X404736Y459137D01*
X404787Y459024D01*
X404842Y458912D01*
X404900Y458803D01*
X404961Y458695D01*
X405026Y458589D01*
X405094Y458485D01*
X405166Y458384D01*
X405240Y458284D01*
X405318Y458188D01*
X405398Y458093D01*
X405482Y458001D01*
X405568Y457912D01*
X405657Y457826D01*
X405749Y457742D01*
X405844Y457662D01*
X405940Y457584D01*
X406040Y457510D01*
X406141Y457438D01*
X406245Y457370D01*
X406351Y457305D01*
X406459Y457244D01*
X406568Y457186D01*
X406680Y457131D01*
X406793Y457080D01*
X406908Y457032D01*
X407024Y456989D01*
X407141Y456948D01*
X407260Y456912D01*
X407379Y456879D01*
X407500Y456850D01*
X407622Y456825D01*
X407744Y456804D01*
X407867Y456786D01*
X407990Y456773D01*
X408114Y456763D01*
X408238Y456757D01*
X408362Y456755D01*
X444853Y397322D02*
X444853Y379542D01*
X444853Y397322D02*
X439914Y397322D01*
X439774Y397320D01*
X439635Y397314D01*
X439495Y397304D01*
X439356Y397290D01*
X439217Y397273D01*
X439079Y397251D01*
X438942Y397225D01*
X438805Y397196D01*
X438669Y397163D01*
X438535Y397126D01*
X438401Y397085D01*
X438269Y397040D01*
X438137Y396991D01*
X438008Y396939D01*
X437880Y396884D01*
X437753Y396824D01*
X437628Y396761D01*
X437505Y396695D01*
X437384Y396625D01*
X437265Y396552D01*
X437148Y396475D01*
X437034Y396395D01*
X436921Y396312D01*
X436811Y396226D01*
X436704Y396136D01*
X436599Y396044D01*
X436497Y395949D01*
X436397Y395851D01*
X436300Y395750D01*
X436206Y395646D01*
X436116Y395540D01*
X436028Y395431D01*
X435943Y395320D01*
X435862Y395206D01*
X435783Y395091D01*
X435708Y394973D01*
X435637Y394853D01*
X435569Y394730D01*
X435504Y394607D01*
X435443Y394481D01*
X435385Y394353D01*
X435331Y394225D01*
X435281Y394094D01*
X435234Y393962D01*
X435191Y393829D01*
X435152Y393695D01*
X435117Y393560D01*
X435086Y393424D01*
X435058Y393286D01*
X435035Y393149D01*
X435015Y393010D01*
X434999Y392871D01*
X434987Y392732D01*
X434979Y392593D01*
X434975Y392453D01*
X434975Y392313D01*
X434979Y392173D01*
X434987Y392034D01*
X434999Y391895D01*
X435015Y391756D01*
X435035Y391617D01*
X435058Y391480D01*
X435086Y391342D01*
X435117Y391206D01*
X435152Y391071D01*
X435191Y390937D01*
X435234Y390804D01*
X435281Y390672D01*
X435331Y390541D01*
X435385Y390413D01*
X435443Y390285D01*
X435504Y390159D01*
X435569Y390036D01*
X435637Y389914D01*
X435708Y389793D01*
X435783Y389675D01*
X435862Y389560D01*
X435943Y389446D01*
X436028Y389335D01*
X436116Y389226D01*
X436206Y389120D01*
X436300Y389016D01*
X436397Y388915D01*
X436497Y388817D01*
X436599Y388722D01*
X436704Y388630D01*
X436811Y388540D01*
X436921Y388454D01*
X437034Y388371D01*
X437148Y388291D01*
X437265Y388214D01*
X437384Y388141D01*
X437505Y388071D01*
X437628Y388005D01*
X437753Y387942D01*
X437880Y387882D01*
X438008Y387827D01*
X438137Y387775D01*
X438269Y387726D01*
X438401Y387681D01*
X438535Y387640D01*
X438669Y387603D01*
X438805Y387570D01*
X438942Y387541D01*
X439079Y387515D01*
X439217Y387493D01*
X439356Y387476D01*
X439495Y387462D01*
X439635Y387452D01*
X439774Y387446D01*
X439914Y387444D01*
X444853Y387444D01*
X438926Y387444D02*
X434975Y379542D01*
X276316Y412102D02*
X276316Y429882D01*
X271378Y429882D01*
X271239Y429880D01*
X271101Y429874D01*
X270963Y429865D01*
X270825Y429851D01*
X270688Y429834D01*
X270551Y429812D01*
X270414Y429787D01*
X270279Y429758D01*
X270144Y429725D01*
X270011Y429689D01*
X269878Y429649D01*
X269747Y429605D01*
X269617Y429557D01*
X269488Y429506D01*
X269361Y429451D01*
X269235Y429393D01*
X269111Y429331D01*
X268989Y429266D01*
X268869Y429197D01*
X268750Y429125D01*
X268634Y429050D01*
X268520Y428971D01*
X268408Y428889D01*
X268299Y428804D01*
X268191Y428717D01*
X268087Y428626D01*
X267985Y428532D01*
X267886Y428435D01*
X267789Y428336D01*
X267695Y428234D01*
X267604Y428130D01*
X267517Y428022D01*
X267432Y427913D01*
X267350Y427801D01*
X267271Y427687D01*
X267196Y427571D01*
X267124Y427452D01*
X267055Y427332D01*
X266990Y427210D01*
X266928Y427086D01*
X266870Y426960D01*
X266815Y426833D01*
X266764Y426704D01*
X266716Y426574D01*
X266672Y426443D01*
X266632Y426310D01*
X266596Y426177D01*
X266563Y426042D01*
X266534Y425907D01*
X266509Y425770D01*
X266487Y425633D01*
X266470Y425496D01*
X266456Y425358D01*
X266447Y425220D01*
X266441Y425082D01*
X266439Y424943D01*
X266439Y417041D01*
X266441Y416902D01*
X266447Y416764D01*
X266456Y416626D01*
X266470Y416488D01*
X266487Y416351D01*
X266509Y416214D01*
X266534Y416077D01*
X266563Y415942D01*
X266596Y415807D01*
X266632Y415674D01*
X266672Y415541D01*
X266716Y415410D01*
X266764Y415280D01*
X266815Y415151D01*
X266870Y415024D01*
X266928Y414898D01*
X266990Y414774D01*
X267055Y414652D01*
X267124Y414532D01*
X267196Y414413D01*
X267271Y414297D01*
X267350Y414183D01*
X267432Y414071D01*
X267517Y413962D01*
X267604Y413854D01*
X267695Y413750D01*
X267789Y413648D01*
X267886Y413549D01*
X267985Y413452D01*
X268087Y413358D01*
X268191Y413267D01*
X268299Y413180D01*
X268408Y413095D01*
X268520Y413013D01*
X268634Y412934D01*
X268750Y412859D01*
X268869Y412787D01*
X268989Y412718D01*
X269111Y412653D01*
X269235Y412591D01*
X269361Y412533D01*
X269488Y412478D01*
X269617Y412427D01*
X269747Y412379D01*
X269878Y412335D01*
X270011Y412295D01*
X270144Y412259D01*
X270279Y412226D01*
X270414Y412197D01*
X270551Y412172D01*
X270688Y412150D01*
X270825Y412133D01*
X270963Y412119D01*
X271101Y412110D01*
X271239Y412104D01*
X271378Y412102D01*
X276316Y412102D01*
X272012Y436837D02*
X268061Y436837D01*
X272012Y436837D02*
X272136Y436839D01*
X272260Y436845D01*
X272384Y436855D01*
X272507Y436868D01*
X272630Y436886D01*
X272752Y436907D01*
X272874Y436932D01*
X272995Y436961D01*
X273114Y436994D01*
X273233Y437030D01*
X273350Y437071D01*
X273466Y437114D01*
X273581Y437162D01*
X273694Y437213D01*
X273806Y437268D01*
X273915Y437326D01*
X274023Y437387D01*
X274129Y437452D01*
X274233Y437520D01*
X274334Y437592D01*
X274434Y437666D01*
X274530Y437744D01*
X274625Y437824D01*
X274717Y437908D01*
X274806Y437994D01*
X274892Y438083D01*
X274976Y438175D01*
X275056Y438270D01*
X275134Y438366D01*
X275208Y438466D01*
X275280Y438567D01*
X275348Y438671D01*
X275413Y438777D01*
X275474Y438885D01*
X275532Y438994D01*
X275587Y439106D01*
X275638Y439219D01*
X275686Y439334D01*
X275729Y439450D01*
X275770Y439567D01*
X275806Y439686D01*
X275839Y439805D01*
X275868Y439926D01*
X275893Y440048D01*
X275914Y440170D01*
X275932Y440293D01*
X275945Y440416D01*
X275955Y440540D01*
X275961Y440664D01*
X275963Y440788D01*
X275963Y450666D01*
X275961Y450790D01*
X275955Y450914D01*
X275945Y451038D01*
X275932Y451161D01*
X275914Y451284D01*
X275893Y451406D01*
X275868Y451528D01*
X275839Y451649D01*
X275806Y451768D01*
X275770Y451887D01*
X275729Y452004D01*
X275686Y452120D01*
X275638Y452235D01*
X275587Y452348D01*
X275532Y452460D01*
X275474Y452569D01*
X275413Y452677D01*
X275348Y452783D01*
X275280Y452887D01*
X275208Y452988D01*
X275134Y453088D01*
X275056Y453184D01*
X274976Y453279D01*
X274892Y453371D01*
X274806Y453460D01*
X274717Y453546D01*
X274625Y453630D01*
X274530Y453710D01*
X274434Y453788D01*
X274334Y453862D01*
X274233Y453934D01*
X274129Y454002D01*
X274023Y454067D01*
X273915Y454128D01*
X273806Y454186D01*
X273694Y454241D01*
X273581Y454292D01*
X273467Y454340D01*
X273350Y454383D01*
X273233Y454424D01*
X273114Y454460D01*
X272995Y454493D01*
X272874Y454522D01*
X272752Y454547D01*
X272630Y454568D01*
X272507Y454586D01*
X272384Y454599D01*
X272260Y454609D01*
X272136Y454615D01*
X272012Y454617D01*
X268061Y454617D01*
D11*
X426501Y467300D02*
X428096Y466183D01*
X426501Y467300D02*
X422778Y461983D01*
X425968Y459749D01*
X426051Y459694D01*
X426135Y459642D01*
X426222Y459593D01*
X426310Y459547D01*
X426400Y459505D01*
X426492Y459466D01*
X426585Y459431D01*
X426679Y459399D01*
X426774Y459371D01*
X426871Y459347D01*
X426968Y459326D01*
X427066Y459310D01*
X427165Y459296D01*
X427264Y459287D01*
X427363Y459282D01*
X427463Y459280D01*
X427562Y459282D01*
X427661Y459288D01*
X427760Y459298D01*
X427859Y459311D01*
X427957Y459329D01*
X428054Y459350D01*
X428150Y459374D01*
X428246Y459403D01*
X428340Y459435D01*
X428433Y459470D01*
X428524Y459509D01*
X428614Y459552D01*
X428702Y459598D01*
X428788Y459647D01*
X428873Y459700D01*
X428955Y459756D01*
X429035Y459815D01*
X429113Y459877D01*
X429188Y459942D01*
X429261Y460009D01*
X429331Y460080D01*
X429399Y460153D01*
X429463Y460229D01*
X429525Y460307D01*
X429584Y460387D01*
X433307Y465704D01*
X433362Y465787D01*
X433414Y465871D01*
X433463Y465958D01*
X433509Y466046D01*
X433551Y466136D01*
X433590Y466228D01*
X433625Y466321D01*
X433657Y466415D01*
X433685Y466510D01*
X433709Y466607D01*
X433730Y466704D01*
X433746Y466802D01*
X433760Y466901D01*
X433769Y467000D01*
X433774Y467099D01*
X433776Y467199D01*
X433774Y467298D01*
X433768Y467397D01*
X433758Y467496D01*
X433745Y467595D01*
X433727Y467693D01*
X433706Y467790D01*
X433682Y467886D01*
X433653Y467982D01*
X433621Y468076D01*
X433586Y468169D01*
X433547Y468260D01*
X433504Y468350D01*
X433458Y468438D01*
X433409Y468524D01*
X433356Y468609D01*
X433300Y468691D01*
X433241Y468771D01*
X433179Y468849D01*
X433114Y468924D01*
X433047Y468997D01*
X432976Y469067D01*
X432903Y469135D01*
X432827Y469199D01*
X432749Y469261D01*
X432669Y469320D01*
X432670Y469320D02*
X429479Y471554D01*
X424810Y474824D02*
X418108Y465253D01*
X412791Y468976D02*
X424810Y474824D01*
X419492Y478547D02*
X412791Y468976D01*
X408121Y472246D02*
X414822Y481817D01*
X412164Y483678D01*
X412164Y483679D02*
X412070Y483742D01*
X411974Y483802D01*
X411876Y483859D01*
X411776Y483912D01*
X411674Y483962D01*
X411570Y484008D01*
X411465Y484050D01*
X411359Y484089D01*
X411251Y484124D01*
X411142Y484155D01*
X411032Y484183D01*
X410921Y484206D01*
X410810Y484226D01*
X410698Y484242D01*
X410585Y484254D01*
X410472Y484262D01*
X410359Y484266D01*
X410245Y484266D01*
X410132Y484262D01*
X410019Y484254D01*
X409906Y484242D01*
X409794Y484226D01*
X409683Y484206D01*
X409572Y484183D01*
X409462Y484155D01*
X409353Y484124D01*
X409245Y484089D01*
X409139Y484050D01*
X409034Y484008D01*
X408930Y483962D01*
X408828Y483912D01*
X408728Y483859D01*
X408630Y483802D01*
X408534Y483742D01*
X408440Y483679D01*
X408349Y483612D01*
X408259Y483543D01*
X408172Y483470D01*
X408088Y483394D01*
X408007Y483315D01*
X407928Y483234D01*
X407852Y483150D01*
X407779Y483063D01*
X407710Y482974D01*
X407643Y482882D01*
X407644Y482881D02*
X404665Y478628D01*
X404602Y478534D01*
X404542Y478438D01*
X404485Y478340D01*
X404432Y478240D01*
X404382Y478138D01*
X404336Y478034D01*
X404294Y477929D01*
X404255Y477823D01*
X404220Y477715D01*
X404189Y477606D01*
X404161Y477496D01*
X404138Y477385D01*
X404118Y477274D01*
X404102Y477162D01*
X404090Y477049D01*
X404082Y476936D01*
X404078Y476823D01*
X404078Y476709D01*
X404082Y476596D01*
X404090Y476483D01*
X404102Y476370D01*
X404118Y476258D01*
X404138Y476147D01*
X404161Y476036D01*
X404189Y475926D01*
X404220Y475817D01*
X404255Y475709D01*
X404294Y475603D01*
X404336Y475498D01*
X404382Y475394D01*
X404432Y475292D01*
X404485Y475192D01*
X404542Y475094D01*
X404602Y474998D01*
X404665Y474904D01*
X404732Y474812D01*
X404801Y474723D01*
X404874Y474636D01*
X404950Y474552D01*
X405029Y474471D01*
X405110Y474392D01*
X405194Y474316D01*
X405281Y474243D01*
X405371Y474174D01*
X405462Y474107D01*
X408121Y472246D01*
X492049Y337254D02*
X492049Y335306D01*
X492049Y337254D02*
X485558Y337254D01*
X485558Y333359D01*
X485560Y333260D01*
X485566Y333160D01*
X485575Y333061D01*
X485588Y332963D01*
X485605Y332865D01*
X485626Y332767D01*
X485651Y332671D01*
X485679Y332576D01*
X485711Y332482D01*
X485746Y332389D01*
X485785Y332297D01*
X485828Y332207D01*
X485873Y332119D01*
X485923Y332032D01*
X485975Y331948D01*
X486031Y331865D01*
X486089Y331785D01*
X486151Y331707D01*
X486216Y331632D01*
X486284Y331559D01*
X486354Y331489D01*
X486427Y331421D01*
X486502Y331356D01*
X486580Y331294D01*
X486660Y331236D01*
X486743Y331180D01*
X486827Y331128D01*
X486914Y331078D01*
X487002Y331033D01*
X487092Y330990D01*
X487184Y330951D01*
X487277Y330916D01*
X487371Y330884D01*
X487466Y330856D01*
X487562Y330831D01*
X487660Y330810D01*
X487758Y330793D01*
X487856Y330780D01*
X487955Y330771D01*
X488055Y330765D01*
X488154Y330763D01*
X494646Y330763D01*
X494745Y330765D01*
X494845Y330771D01*
X494944Y330780D01*
X495042Y330793D01*
X495140Y330810D01*
X495238Y330831D01*
X495334Y330856D01*
X495429Y330884D01*
X495523Y330916D01*
X495616Y330951D01*
X495708Y330990D01*
X495798Y331033D01*
X495886Y331078D01*
X495973Y331128D01*
X496057Y331180D01*
X496140Y331236D01*
X496220Y331294D01*
X496298Y331356D01*
X496373Y331421D01*
X496446Y331489D01*
X496516Y331559D01*
X496584Y331632D01*
X496649Y331707D01*
X496711Y331785D01*
X496769Y331865D01*
X496825Y331948D01*
X496877Y332032D01*
X496927Y332119D01*
X496972Y332207D01*
X497015Y332297D01*
X497054Y332389D01*
X497089Y332481D01*
X497121Y332576D01*
X497149Y332671D01*
X497174Y332767D01*
X497195Y332865D01*
X497212Y332963D01*
X497225Y333061D01*
X497234Y333160D01*
X497240Y333260D01*
X497242Y333359D01*
X497242Y337254D01*
X497242Y342954D02*
X485558Y342954D01*
X485558Y349446D02*
X497242Y342954D01*
X497242Y349446D02*
X485558Y349446D01*
X485558Y355146D02*
X497242Y355146D01*
X497242Y358392D01*
X497240Y358505D01*
X497234Y358618D01*
X497224Y358731D01*
X497210Y358844D01*
X497193Y358956D01*
X497171Y359067D01*
X497146Y359177D01*
X497116Y359287D01*
X497083Y359395D01*
X497046Y359502D01*
X497006Y359608D01*
X496961Y359712D01*
X496913Y359815D01*
X496862Y359916D01*
X496807Y360015D01*
X496749Y360112D01*
X496687Y360207D01*
X496622Y360300D01*
X496554Y360390D01*
X496483Y360478D01*
X496408Y360564D01*
X496331Y360647D01*
X496251Y360727D01*
X496168Y360804D01*
X496082Y360879D01*
X495994Y360950D01*
X495904Y361018D01*
X495811Y361083D01*
X495716Y361145D01*
X495619Y361203D01*
X495520Y361258D01*
X495419Y361309D01*
X495316Y361357D01*
X495212Y361402D01*
X495106Y361442D01*
X494999Y361479D01*
X494891Y361512D01*
X494781Y361542D01*
X494671Y361567D01*
X494560Y361589D01*
X494448Y361606D01*
X494335Y361620D01*
X494222Y361630D01*
X494109Y361636D01*
X493996Y361638D01*
X488804Y361638D01*
X488691Y361636D01*
X488578Y361630D01*
X488465Y361620D01*
X488352Y361606D01*
X488240Y361589D01*
X488129Y361567D01*
X488019Y361542D01*
X487909Y361512D01*
X487801Y361479D01*
X487694Y361442D01*
X487588Y361402D01*
X487484Y361357D01*
X487381Y361309D01*
X487280Y361258D01*
X487181Y361203D01*
X487084Y361145D01*
X486989Y361083D01*
X486896Y361018D01*
X486806Y360950D01*
X486718Y360879D01*
X486632Y360804D01*
X486549Y360727D01*
X486469Y360647D01*
X486392Y360564D01*
X486317Y360478D01*
X486246Y360390D01*
X486178Y360300D01*
X486113Y360207D01*
X486051Y360112D01*
X485993Y360015D01*
X485938Y359916D01*
X485887Y359815D01*
X485839Y359712D01*
X485794Y359608D01*
X485754Y359502D01*
X485717Y359395D01*
X485684Y359287D01*
X485654Y359177D01*
X485629Y359067D01*
X485607Y358956D01*
X485590Y358844D01*
X485576Y358731D01*
X485566Y358618D01*
X485560Y358505D01*
X485558Y358392D01*
X485558Y355146D01*
X427351Y227280D02*
X425756Y226163D01*
X429479Y220846D01*
X432670Y223080D01*
X432669Y223080D02*
X432749Y223139D01*
X432827Y223201D01*
X432903Y223265D01*
X432976Y223333D01*
X433047Y223403D01*
X433114Y223476D01*
X433179Y223551D01*
X433241Y223629D01*
X433300Y223709D01*
X433356Y223791D01*
X433409Y223876D01*
X433458Y223962D01*
X433504Y224050D01*
X433547Y224140D01*
X433586Y224231D01*
X433621Y224324D01*
X433653Y224418D01*
X433682Y224514D01*
X433706Y224610D01*
X433727Y224707D01*
X433745Y224805D01*
X433758Y224904D01*
X433768Y225003D01*
X433774Y225102D01*
X433776Y225201D01*
X433774Y225301D01*
X433769Y225400D01*
X433759Y225499D01*
X433746Y225598D01*
X433730Y225696D01*
X433709Y225793D01*
X433685Y225890D01*
X433657Y225985D01*
X433625Y226079D01*
X433590Y226172D01*
X433551Y226264D01*
X433509Y226354D01*
X433463Y226442D01*
X433414Y226529D01*
X433362Y226613D01*
X433307Y226696D01*
X429584Y232013D01*
X429525Y232093D01*
X429463Y232171D01*
X429399Y232247D01*
X429331Y232320D01*
X429261Y232391D01*
X429188Y232458D01*
X429113Y232523D01*
X429035Y232585D01*
X428955Y232644D01*
X428873Y232700D01*
X428788Y232753D01*
X428702Y232802D01*
X428614Y232848D01*
X428524Y232891D01*
X428433Y232930D01*
X428340Y232965D01*
X428246Y232997D01*
X428150Y233026D01*
X428054Y233050D01*
X427957Y233071D01*
X427859Y233089D01*
X427760Y233102D01*
X427661Y233112D01*
X427562Y233118D01*
X427463Y233120D01*
X427363Y233118D01*
X427264Y233113D01*
X427165Y233104D01*
X427066Y233090D01*
X426968Y233074D01*
X426871Y233053D01*
X426774Y233029D01*
X426679Y233001D01*
X426585Y232969D01*
X426492Y232934D01*
X426400Y232895D01*
X426310Y232853D01*
X426222Y232807D01*
X426135Y232758D01*
X426051Y232706D01*
X425968Y232651D01*
X422778Y230417D01*
X418108Y227147D02*
X424809Y217576D01*
X419492Y213853D02*
X418108Y227147D01*
X412791Y223424D02*
X419492Y213853D01*
X414822Y210583D02*
X408121Y220154D01*
X405462Y218292D01*
X405462Y218293D02*
X405371Y218226D01*
X405281Y218157D01*
X405194Y218084D01*
X405110Y218008D01*
X405029Y217929D01*
X404950Y217848D01*
X404874Y217764D01*
X404801Y217677D01*
X404732Y217588D01*
X404665Y217496D01*
X404602Y217402D01*
X404542Y217306D01*
X404485Y217208D01*
X404432Y217108D01*
X404382Y217006D01*
X404336Y216902D01*
X404294Y216797D01*
X404255Y216691D01*
X404220Y216583D01*
X404189Y216474D01*
X404161Y216364D01*
X404138Y216253D01*
X404118Y216142D01*
X404102Y216030D01*
X404090Y215917D01*
X404082Y215804D01*
X404078Y215691D01*
X404078Y215577D01*
X404082Y215464D01*
X404090Y215351D01*
X404102Y215238D01*
X404118Y215126D01*
X404138Y215015D01*
X404161Y214904D01*
X404189Y214794D01*
X404220Y214685D01*
X404255Y214577D01*
X404294Y214471D01*
X404336Y214366D01*
X404382Y214262D01*
X404432Y214160D01*
X404485Y214060D01*
X404542Y213962D01*
X404602Y213866D01*
X404665Y213772D01*
X407644Y209518D01*
X407643Y209518D02*
X407710Y209427D01*
X407779Y209337D01*
X407852Y209250D01*
X407928Y209166D01*
X408007Y209085D01*
X408088Y209006D01*
X408172Y208930D01*
X408259Y208857D01*
X408349Y208788D01*
X408440Y208721D01*
X408534Y208658D01*
X408630Y208598D01*
X408728Y208541D01*
X408828Y208488D01*
X408930Y208438D01*
X409034Y208392D01*
X409139Y208350D01*
X409245Y208311D01*
X409353Y208276D01*
X409462Y208245D01*
X409572Y208217D01*
X409683Y208194D01*
X409794Y208174D01*
X409906Y208158D01*
X410019Y208146D01*
X410132Y208138D01*
X410245Y208134D01*
X410359Y208134D01*
X410472Y208138D01*
X410585Y208146D01*
X410698Y208158D01*
X410810Y208174D01*
X410921Y208194D01*
X411032Y208217D01*
X411142Y208245D01*
X411251Y208276D01*
X411359Y208311D01*
X411465Y208350D01*
X411570Y208392D01*
X411674Y208438D01*
X411776Y208488D01*
X411876Y208541D01*
X411974Y208598D01*
X412070Y208658D01*
X412164Y208721D01*
X414822Y210583D01*
X282896Y214783D02*
X281301Y215900D01*
X277578Y210583D01*
X280768Y208349D01*
X280851Y208294D01*
X280935Y208242D01*
X281022Y208193D01*
X281110Y208147D01*
X281200Y208105D01*
X281292Y208066D01*
X281385Y208031D01*
X281479Y207999D01*
X281574Y207971D01*
X281671Y207947D01*
X281768Y207926D01*
X281866Y207910D01*
X281965Y207896D01*
X282064Y207887D01*
X282163Y207882D01*
X282263Y207880D01*
X282362Y207882D01*
X282461Y207888D01*
X282560Y207898D01*
X282659Y207911D01*
X282757Y207929D01*
X282854Y207950D01*
X282950Y207974D01*
X283046Y208003D01*
X283140Y208035D01*
X283233Y208070D01*
X283324Y208109D01*
X283414Y208152D01*
X283502Y208198D01*
X283588Y208247D01*
X283673Y208300D01*
X283755Y208356D01*
X283835Y208415D01*
X283913Y208477D01*
X283988Y208542D01*
X284061Y208609D01*
X284131Y208680D01*
X284199Y208753D01*
X284263Y208829D01*
X284325Y208907D01*
X284384Y208987D01*
X288107Y214304D01*
X288162Y214387D01*
X288214Y214471D01*
X288263Y214558D01*
X288309Y214646D01*
X288351Y214736D01*
X288390Y214828D01*
X288425Y214921D01*
X288457Y215015D01*
X288485Y215110D01*
X288509Y215207D01*
X288530Y215304D01*
X288546Y215402D01*
X288560Y215501D01*
X288569Y215600D01*
X288574Y215699D01*
X288576Y215799D01*
X288574Y215898D01*
X288568Y215997D01*
X288558Y216096D01*
X288545Y216195D01*
X288527Y216293D01*
X288506Y216390D01*
X288482Y216486D01*
X288453Y216582D01*
X288421Y216676D01*
X288386Y216769D01*
X288347Y216860D01*
X288304Y216950D01*
X288258Y217038D01*
X288209Y217124D01*
X288156Y217209D01*
X288100Y217291D01*
X288041Y217371D01*
X287979Y217449D01*
X287914Y217524D01*
X287847Y217597D01*
X287776Y217667D01*
X287703Y217735D01*
X287627Y217799D01*
X287549Y217861D01*
X287469Y217920D01*
X287470Y217920D02*
X284279Y220154D01*
X279610Y223424D02*
X272908Y213853D01*
X267591Y217576D02*
X279610Y223424D01*
X274292Y227147D02*
X267591Y217576D01*
X262921Y220846D02*
X269622Y230417D01*
X266964Y232278D01*
X266964Y232279D02*
X266870Y232342D01*
X266774Y232402D01*
X266676Y232459D01*
X266576Y232512D01*
X266474Y232562D01*
X266370Y232608D01*
X266265Y232650D01*
X266159Y232689D01*
X266051Y232724D01*
X265942Y232755D01*
X265832Y232783D01*
X265721Y232806D01*
X265610Y232826D01*
X265498Y232842D01*
X265385Y232854D01*
X265272Y232862D01*
X265159Y232866D01*
X265045Y232866D01*
X264932Y232862D01*
X264819Y232854D01*
X264706Y232842D01*
X264594Y232826D01*
X264483Y232806D01*
X264372Y232783D01*
X264262Y232755D01*
X264153Y232724D01*
X264045Y232689D01*
X263939Y232650D01*
X263834Y232608D01*
X263730Y232562D01*
X263628Y232512D01*
X263528Y232459D01*
X263430Y232402D01*
X263334Y232342D01*
X263240Y232279D01*
X263149Y232212D01*
X263059Y232143D01*
X262972Y232070D01*
X262888Y231994D01*
X262807Y231915D01*
X262728Y231834D01*
X262652Y231750D01*
X262579Y231663D01*
X262510Y231574D01*
X262443Y231482D01*
X262444Y231481D02*
X259465Y227228D01*
X259402Y227134D01*
X259342Y227038D01*
X259285Y226940D01*
X259232Y226840D01*
X259182Y226738D01*
X259136Y226634D01*
X259094Y226529D01*
X259055Y226423D01*
X259020Y226315D01*
X258989Y226206D01*
X258961Y226096D01*
X258938Y225985D01*
X258918Y225874D01*
X258902Y225762D01*
X258890Y225649D01*
X258882Y225536D01*
X258878Y225423D01*
X258878Y225309D01*
X258882Y225196D01*
X258890Y225083D01*
X258902Y224970D01*
X258918Y224858D01*
X258938Y224747D01*
X258961Y224636D01*
X258989Y224526D01*
X259020Y224417D01*
X259055Y224309D01*
X259094Y224203D01*
X259136Y224098D01*
X259182Y223994D01*
X259232Y223892D01*
X259285Y223792D01*
X259342Y223694D01*
X259402Y223598D01*
X259465Y223504D01*
X259532Y223412D01*
X259601Y223323D01*
X259674Y223236D01*
X259750Y223152D01*
X259829Y223071D01*
X259910Y222992D01*
X259994Y222916D01*
X260081Y222843D01*
X260171Y222774D01*
X260262Y222707D01*
X262921Y220846D01*
X201649Y335306D02*
X201649Y337254D01*
X195158Y337254D01*
X195158Y333359D01*
X195160Y333260D01*
X195166Y333160D01*
X195175Y333061D01*
X195188Y332963D01*
X195205Y332865D01*
X195226Y332767D01*
X195251Y332671D01*
X195279Y332576D01*
X195311Y332482D01*
X195346Y332389D01*
X195385Y332297D01*
X195428Y332207D01*
X195473Y332119D01*
X195523Y332032D01*
X195575Y331948D01*
X195631Y331865D01*
X195689Y331785D01*
X195751Y331707D01*
X195816Y331632D01*
X195884Y331559D01*
X195954Y331489D01*
X196027Y331421D01*
X196102Y331356D01*
X196180Y331294D01*
X196260Y331236D01*
X196343Y331180D01*
X196427Y331128D01*
X196514Y331078D01*
X196602Y331033D01*
X196692Y330990D01*
X196784Y330951D01*
X196877Y330916D01*
X196971Y330884D01*
X197066Y330856D01*
X197162Y330831D01*
X197260Y330810D01*
X197358Y330793D01*
X197456Y330780D01*
X197555Y330771D01*
X197655Y330765D01*
X197754Y330763D01*
X204246Y330763D01*
X204345Y330765D01*
X204445Y330771D01*
X204544Y330780D01*
X204642Y330793D01*
X204740Y330810D01*
X204838Y330831D01*
X204934Y330856D01*
X205029Y330884D01*
X205123Y330916D01*
X205216Y330951D01*
X205308Y330990D01*
X205398Y331033D01*
X205486Y331078D01*
X205573Y331128D01*
X205657Y331180D01*
X205740Y331236D01*
X205820Y331294D01*
X205898Y331356D01*
X205973Y331421D01*
X206046Y331489D01*
X206116Y331559D01*
X206184Y331632D01*
X206249Y331707D01*
X206311Y331785D01*
X206369Y331865D01*
X206425Y331948D01*
X206477Y332032D01*
X206527Y332119D01*
X206572Y332207D01*
X206615Y332297D01*
X206654Y332389D01*
X206689Y332481D01*
X206721Y332576D01*
X206749Y332671D01*
X206774Y332767D01*
X206795Y332865D01*
X206812Y332963D01*
X206825Y333061D01*
X206834Y333160D01*
X206840Y333260D01*
X206842Y333359D01*
X206842Y337254D01*
X206842Y342954D02*
X195158Y342954D01*
X195158Y349446D02*
X206842Y342954D01*
X206842Y349446D02*
X195158Y349446D01*
X195158Y355146D02*
X206842Y355146D01*
X206842Y358392D01*
X206840Y358505D01*
X206834Y358618D01*
X206824Y358731D01*
X206810Y358844D01*
X206793Y358956D01*
X206771Y359067D01*
X206746Y359177D01*
X206716Y359287D01*
X206683Y359395D01*
X206646Y359502D01*
X206606Y359608D01*
X206561Y359712D01*
X206513Y359815D01*
X206462Y359916D01*
X206407Y360015D01*
X206349Y360112D01*
X206287Y360207D01*
X206222Y360300D01*
X206154Y360390D01*
X206083Y360478D01*
X206008Y360564D01*
X205931Y360647D01*
X205851Y360727D01*
X205768Y360804D01*
X205682Y360879D01*
X205594Y360950D01*
X205504Y361018D01*
X205411Y361083D01*
X205316Y361145D01*
X205219Y361203D01*
X205120Y361258D01*
X205019Y361309D01*
X204916Y361357D01*
X204812Y361402D01*
X204706Y361442D01*
X204599Y361479D01*
X204491Y361512D01*
X204381Y361542D01*
X204271Y361567D01*
X204160Y361589D01*
X204048Y361606D01*
X203935Y361620D01*
X203822Y361630D01*
X203709Y361636D01*
X203596Y361638D01*
X198404Y361638D01*
X198291Y361636D01*
X198178Y361630D01*
X198065Y361620D01*
X197952Y361606D01*
X197840Y361589D01*
X197729Y361567D01*
X197619Y361542D01*
X197509Y361512D01*
X197401Y361479D01*
X197294Y361442D01*
X197188Y361402D01*
X197084Y361357D01*
X196981Y361309D01*
X196880Y361258D01*
X196781Y361203D01*
X196684Y361145D01*
X196589Y361083D01*
X196496Y361018D01*
X196406Y360950D01*
X196318Y360879D01*
X196232Y360804D01*
X196149Y360727D01*
X196069Y360647D01*
X195992Y360564D01*
X195917Y360478D01*
X195846Y360390D01*
X195778Y360300D01*
X195713Y360207D01*
X195651Y360112D01*
X195593Y360015D01*
X195538Y359916D01*
X195487Y359815D01*
X195439Y359712D01*
X195394Y359608D01*
X195354Y359502D01*
X195317Y359395D01*
X195284Y359287D01*
X195254Y359177D01*
X195229Y359067D01*
X195207Y358956D01*
X195190Y358844D01*
X195176Y358731D01*
X195166Y358618D01*
X195160Y358505D01*
X195158Y358392D01*
X195158Y355146D01*
X280556Y477563D02*
X282151Y478680D01*
X280556Y477563D02*
X284279Y472246D01*
X287470Y474480D01*
X287469Y474480D02*
X287549Y474539D01*
X287627Y474601D01*
X287703Y474665D01*
X287776Y474733D01*
X287847Y474803D01*
X287914Y474876D01*
X287979Y474951D01*
X288041Y475029D01*
X288100Y475109D01*
X288156Y475191D01*
X288209Y475276D01*
X288258Y475362D01*
X288304Y475450D01*
X288347Y475540D01*
X288386Y475631D01*
X288421Y475724D01*
X288453Y475818D01*
X288482Y475914D01*
X288506Y476010D01*
X288527Y476107D01*
X288545Y476205D01*
X288558Y476304D01*
X288568Y476403D01*
X288574Y476502D01*
X288576Y476601D01*
X288574Y476701D01*
X288569Y476800D01*
X288559Y476899D01*
X288546Y476998D01*
X288530Y477096D01*
X288509Y477193D01*
X288485Y477290D01*
X288457Y477385D01*
X288425Y477479D01*
X288390Y477572D01*
X288351Y477664D01*
X288309Y477754D01*
X288263Y477842D01*
X288214Y477929D01*
X288162Y478013D01*
X288107Y478096D01*
X284384Y483413D01*
X284325Y483493D01*
X284263Y483571D01*
X284199Y483647D01*
X284131Y483720D01*
X284061Y483791D01*
X283988Y483858D01*
X283913Y483923D01*
X283835Y483985D01*
X283755Y484044D01*
X283673Y484100D01*
X283588Y484153D01*
X283502Y484202D01*
X283414Y484248D01*
X283324Y484291D01*
X283233Y484330D01*
X283140Y484365D01*
X283046Y484397D01*
X282950Y484426D01*
X282854Y484450D01*
X282757Y484471D01*
X282659Y484489D01*
X282560Y484502D01*
X282461Y484512D01*
X282362Y484518D01*
X282263Y484520D01*
X282163Y484518D01*
X282064Y484513D01*
X281965Y484504D01*
X281866Y484490D01*
X281768Y484474D01*
X281671Y484453D01*
X281574Y484429D01*
X281479Y484401D01*
X281385Y484369D01*
X281292Y484334D01*
X281200Y484295D01*
X281110Y484253D01*
X281022Y484207D01*
X280935Y484158D01*
X280851Y484106D01*
X280768Y484051D01*
X277578Y481817D01*
X272908Y478547D02*
X279609Y468976D01*
X274292Y465253D02*
X272908Y478547D01*
X267591Y474824D02*
X274292Y465253D01*
X269622Y461983D02*
X262921Y471554D01*
X260262Y469692D01*
X260262Y469693D02*
X260171Y469626D01*
X260081Y469557D01*
X259994Y469484D01*
X259910Y469408D01*
X259829Y469329D01*
X259750Y469248D01*
X259674Y469164D01*
X259601Y469077D01*
X259532Y468988D01*
X259465Y468896D01*
X259402Y468802D01*
X259342Y468706D01*
X259285Y468608D01*
X259232Y468508D01*
X259182Y468406D01*
X259136Y468302D01*
X259094Y468197D01*
X259055Y468091D01*
X259020Y467983D01*
X258989Y467874D01*
X258961Y467764D01*
X258938Y467653D01*
X258918Y467542D01*
X258902Y467430D01*
X258890Y467317D01*
X258882Y467204D01*
X258878Y467091D01*
X258878Y466977D01*
X258882Y466864D01*
X258890Y466751D01*
X258902Y466638D01*
X258918Y466526D01*
X258938Y466415D01*
X258961Y466304D01*
X258989Y466194D01*
X259020Y466085D01*
X259055Y465977D01*
X259094Y465871D01*
X259136Y465766D01*
X259182Y465662D01*
X259232Y465560D01*
X259285Y465460D01*
X259342Y465362D01*
X259402Y465266D01*
X259465Y465172D01*
X262444Y460918D01*
X262443Y460918D02*
X262510Y460827D01*
X262579Y460737D01*
X262652Y460650D01*
X262728Y460566D01*
X262807Y460485D01*
X262888Y460406D01*
X262972Y460330D01*
X263059Y460257D01*
X263149Y460188D01*
X263240Y460121D01*
X263334Y460058D01*
X263430Y459998D01*
X263528Y459941D01*
X263628Y459888D01*
X263730Y459838D01*
X263834Y459792D01*
X263939Y459750D01*
X264045Y459711D01*
X264153Y459676D01*
X264262Y459645D01*
X264372Y459617D01*
X264483Y459594D01*
X264594Y459574D01*
X264706Y459558D01*
X264819Y459546D01*
X264932Y459538D01*
X265045Y459534D01*
X265159Y459534D01*
X265272Y459538D01*
X265385Y459546D01*
X265498Y459558D01*
X265610Y459574D01*
X265721Y459594D01*
X265832Y459617D01*
X265942Y459645D01*
X266051Y459676D01*
X266159Y459711D01*
X266265Y459750D01*
X266370Y459792D01*
X266474Y459838D01*
X266576Y459888D01*
X266676Y459941D01*
X266774Y459998D01*
X266870Y460058D01*
X266964Y460121D01*
X269622Y461983D01*
D10*
X454615Y419002D02*
X454615Y401222D01*
X454615Y419002D02*
X449677Y419002D01*
X449537Y419000D01*
X449398Y418994D01*
X449258Y418984D01*
X449119Y418970D01*
X448980Y418953D01*
X448842Y418931D01*
X448705Y418905D01*
X448568Y418876D01*
X448432Y418843D01*
X448298Y418806D01*
X448164Y418765D01*
X448032Y418720D01*
X447900Y418671D01*
X447771Y418619D01*
X447643Y418564D01*
X447516Y418504D01*
X447391Y418441D01*
X447268Y418375D01*
X447147Y418305D01*
X447028Y418232D01*
X446911Y418155D01*
X446797Y418075D01*
X446684Y417992D01*
X446574Y417906D01*
X446467Y417816D01*
X446362Y417724D01*
X446260Y417629D01*
X446160Y417531D01*
X446063Y417430D01*
X445969Y417326D01*
X445879Y417220D01*
X445791Y417111D01*
X445706Y417000D01*
X445625Y416886D01*
X445546Y416771D01*
X445471Y416653D01*
X445400Y416533D01*
X445332Y416410D01*
X445267Y416287D01*
X445206Y416161D01*
X445148Y416033D01*
X445094Y415905D01*
X445044Y415774D01*
X444997Y415642D01*
X444954Y415509D01*
X444915Y415375D01*
X444880Y415240D01*
X444849Y415104D01*
X444821Y414966D01*
X444798Y414829D01*
X444778Y414690D01*
X444762Y414551D01*
X444750Y414412D01*
X444742Y414273D01*
X444738Y414133D01*
X444738Y413993D01*
X444742Y413853D01*
X444750Y413714D01*
X444762Y413575D01*
X444778Y413436D01*
X444798Y413297D01*
X444821Y413160D01*
X444849Y413022D01*
X444880Y412886D01*
X444915Y412751D01*
X444954Y412617D01*
X444997Y412484D01*
X445044Y412352D01*
X445094Y412221D01*
X445148Y412093D01*
X445206Y411965D01*
X445267Y411839D01*
X445332Y411716D01*
X445400Y411594D01*
X445471Y411473D01*
X445546Y411355D01*
X445625Y411240D01*
X445706Y411126D01*
X445791Y411015D01*
X445879Y410906D01*
X445969Y410800D01*
X446063Y410696D01*
X446160Y410595D01*
X446260Y410497D01*
X446362Y410402D01*
X446467Y410310D01*
X446574Y410220D01*
X446684Y410134D01*
X446797Y410051D01*
X446911Y409971D01*
X447028Y409894D01*
X447147Y409821D01*
X447268Y409751D01*
X447391Y409685D01*
X447516Y409622D01*
X447643Y409562D01*
X447771Y409507D01*
X447900Y409455D01*
X448032Y409406D01*
X448164Y409361D01*
X448298Y409320D01*
X448432Y409283D01*
X448568Y409250D01*
X448705Y409221D01*
X448842Y409195D01*
X448980Y409173D01*
X449119Y409156D01*
X449258Y409142D01*
X449398Y409132D01*
X449537Y409126D01*
X449677Y409124D01*
X454615Y409124D01*
X438620Y415051D02*
X433681Y419002D01*
X433681Y401222D01*
X428743Y401222D02*
X438620Y401222D01*
X453726Y269842D02*
X453726Y252062D01*
X453726Y269842D02*
X448788Y269842D01*
X448648Y269840D01*
X448509Y269834D01*
X448369Y269824D01*
X448230Y269810D01*
X448091Y269793D01*
X447953Y269771D01*
X447816Y269745D01*
X447679Y269716D01*
X447543Y269683D01*
X447409Y269646D01*
X447275Y269605D01*
X447143Y269560D01*
X447011Y269511D01*
X446882Y269459D01*
X446754Y269404D01*
X446627Y269344D01*
X446502Y269281D01*
X446379Y269215D01*
X446258Y269145D01*
X446139Y269072D01*
X446022Y268995D01*
X445908Y268915D01*
X445795Y268832D01*
X445685Y268746D01*
X445578Y268656D01*
X445473Y268564D01*
X445371Y268469D01*
X445271Y268371D01*
X445174Y268270D01*
X445080Y268166D01*
X444990Y268060D01*
X444902Y267951D01*
X444817Y267840D01*
X444736Y267726D01*
X444657Y267611D01*
X444582Y267493D01*
X444511Y267373D01*
X444443Y267250D01*
X444378Y267127D01*
X444317Y267001D01*
X444259Y266873D01*
X444205Y266745D01*
X444155Y266614D01*
X444108Y266482D01*
X444065Y266349D01*
X444026Y266215D01*
X443991Y266080D01*
X443960Y265944D01*
X443932Y265806D01*
X443909Y265669D01*
X443889Y265530D01*
X443873Y265391D01*
X443861Y265252D01*
X443853Y265113D01*
X443849Y264973D01*
X443849Y264833D01*
X443853Y264693D01*
X443861Y264554D01*
X443873Y264415D01*
X443889Y264276D01*
X443909Y264137D01*
X443932Y264000D01*
X443960Y263862D01*
X443991Y263726D01*
X444026Y263591D01*
X444065Y263457D01*
X444108Y263324D01*
X444155Y263192D01*
X444205Y263061D01*
X444259Y262933D01*
X444317Y262805D01*
X444378Y262679D01*
X444443Y262556D01*
X444511Y262434D01*
X444582Y262313D01*
X444657Y262195D01*
X444736Y262080D01*
X444817Y261966D01*
X444902Y261855D01*
X444990Y261746D01*
X445080Y261640D01*
X445174Y261536D01*
X445271Y261435D01*
X445371Y261337D01*
X445473Y261242D01*
X445578Y261150D01*
X445685Y261060D01*
X445795Y260974D01*
X445908Y260891D01*
X446022Y260811D01*
X446139Y260734D01*
X446258Y260661D01*
X446379Y260591D01*
X446502Y260525D01*
X446627Y260462D01*
X446754Y260402D01*
X446882Y260347D01*
X447011Y260295D01*
X447143Y260246D01*
X447275Y260201D01*
X447409Y260160D01*
X447543Y260123D01*
X447679Y260090D01*
X447816Y260061D01*
X447953Y260035D01*
X448091Y260013D01*
X448230Y259996D01*
X448369Y259982D01*
X448509Y259972D01*
X448648Y259966D01*
X448788Y259964D01*
X453726Y259964D01*
X432299Y269842D02*
X432167Y269840D01*
X432036Y269834D01*
X431904Y269824D01*
X431773Y269811D01*
X431643Y269793D01*
X431513Y269772D01*
X431383Y269747D01*
X431255Y269718D01*
X431127Y269685D01*
X431001Y269648D01*
X430875Y269608D01*
X430751Y269564D01*
X430628Y269516D01*
X430507Y269465D01*
X430387Y269410D01*
X430269Y269352D01*
X430153Y269290D01*
X430039Y269224D01*
X429926Y269156D01*
X429816Y269084D01*
X429708Y269009D01*
X429602Y268930D01*
X429498Y268849D01*
X429397Y268764D01*
X429299Y268677D01*
X429203Y268586D01*
X429110Y268493D01*
X429019Y268397D01*
X428932Y268299D01*
X428847Y268198D01*
X428766Y268094D01*
X428687Y267988D01*
X428612Y267880D01*
X428540Y267770D01*
X428472Y267657D01*
X428406Y267543D01*
X428344Y267427D01*
X428286Y267309D01*
X428231Y267189D01*
X428180Y267068D01*
X428132Y266945D01*
X428088Y266821D01*
X428048Y266695D01*
X428011Y266569D01*
X427978Y266441D01*
X427949Y266313D01*
X427924Y266183D01*
X427903Y266053D01*
X427885Y265923D01*
X427872Y265792D01*
X427862Y265660D01*
X427856Y265529D01*
X427854Y265397D01*
X432299Y269842D02*
X432449Y269840D01*
X432598Y269834D01*
X432747Y269824D01*
X432896Y269811D01*
X433045Y269793D01*
X433193Y269772D01*
X433341Y269746D01*
X433487Y269717D01*
X433633Y269684D01*
X433778Y269647D01*
X433922Y269606D01*
X434065Y269562D01*
X434207Y269514D01*
X434347Y269462D01*
X434486Y269407D01*
X434624Y269348D01*
X434759Y269285D01*
X434894Y269219D01*
X435026Y269149D01*
X435156Y269076D01*
X435285Y268999D01*
X435412Y268919D01*
X435536Y268836D01*
X435658Y268750D01*
X435778Y268660D01*
X435895Y268567D01*
X436010Y268472D01*
X436123Y268373D01*
X436233Y268271D01*
X436340Y268167D01*
X436444Y268060D01*
X436546Y267950D01*
X436644Y267837D01*
X436740Y267722D01*
X436832Y267604D01*
X436922Y267484D01*
X437008Y267362D01*
X437091Y267238D01*
X437171Y267111D01*
X437247Y266983D01*
X437320Y266852D01*
X437390Y266719D01*
X437456Y266585D01*
X437518Y266449D01*
X437577Y266312D01*
X437633Y266173D01*
X437684Y266032D01*
X437732Y265891D01*
X429336Y261940D02*
X429240Y262033D01*
X429148Y262129D01*
X429058Y262228D01*
X428971Y262329D01*
X428887Y262432D01*
X428805Y262537D01*
X428727Y262645D01*
X428652Y262755D01*
X428579Y262867D01*
X428510Y262981D01*
X428444Y263097D01*
X428382Y263215D01*
X428323Y263334D01*
X428267Y263455D01*
X428214Y263578D01*
X428165Y263702D01*
X428120Y263827D01*
X428077Y263954D01*
X428039Y264081D01*
X428004Y264210D01*
X427973Y264339D01*
X427945Y264470D01*
X427921Y264601D01*
X427900Y264733D01*
X427884Y264865D01*
X427871Y264998D01*
X427861Y265131D01*
X427856Y265264D01*
X427854Y265397D01*
X429335Y261940D02*
X437731Y252062D01*
X427854Y252062D01*
X269880Y251427D02*
X269880Y269207D01*
X264942Y269207D01*
X264802Y269205D01*
X264663Y269199D01*
X264523Y269189D01*
X264384Y269175D01*
X264245Y269158D01*
X264107Y269136D01*
X263970Y269110D01*
X263833Y269081D01*
X263697Y269048D01*
X263563Y269011D01*
X263429Y268970D01*
X263297Y268925D01*
X263165Y268876D01*
X263036Y268824D01*
X262908Y268769D01*
X262781Y268709D01*
X262656Y268646D01*
X262533Y268580D01*
X262412Y268510D01*
X262293Y268437D01*
X262176Y268360D01*
X262062Y268280D01*
X261949Y268197D01*
X261839Y268111D01*
X261732Y268021D01*
X261627Y267929D01*
X261525Y267834D01*
X261425Y267736D01*
X261328Y267635D01*
X261234Y267531D01*
X261144Y267425D01*
X261056Y267316D01*
X260971Y267205D01*
X260890Y267091D01*
X260811Y266976D01*
X260736Y266858D01*
X260665Y266738D01*
X260597Y266615D01*
X260532Y266492D01*
X260471Y266366D01*
X260413Y266238D01*
X260359Y266110D01*
X260309Y265979D01*
X260262Y265847D01*
X260219Y265714D01*
X260180Y265580D01*
X260145Y265445D01*
X260114Y265309D01*
X260086Y265171D01*
X260063Y265034D01*
X260043Y264895D01*
X260027Y264756D01*
X260015Y264617D01*
X260007Y264478D01*
X260003Y264338D01*
X260003Y264198D01*
X260007Y264058D01*
X260015Y263919D01*
X260027Y263780D01*
X260043Y263641D01*
X260063Y263502D01*
X260086Y263365D01*
X260114Y263227D01*
X260145Y263091D01*
X260180Y262956D01*
X260219Y262822D01*
X260262Y262689D01*
X260309Y262557D01*
X260359Y262426D01*
X260413Y262298D01*
X260471Y262170D01*
X260532Y262044D01*
X260597Y261921D01*
X260665Y261798D01*
X260736Y261678D01*
X260811Y261560D01*
X260890Y261445D01*
X260971Y261331D01*
X261056Y261220D01*
X261144Y261111D01*
X261234Y261005D01*
X261328Y260901D01*
X261425Y260800D01*
X261525Y260702D01*
X261627Y260607D01*
X261732Y260515D01*
X261839Y260425D01*
X261949Y260339D01*
X262062Y260256D01*
X262176Y260176D01*
X262293Y260099D01*
X262412Y260026D01*
X262533Y259956D01*
X262656Y259890D01*
X262781Y259827D01*
X262908Y259767D01*
X263036Y259712D01*
X263165Y259660D01*
X263297Y259611D01*
X263429Y259566D01*
X263563Y259525D01*
X263697Y259488D01*
X263833Y259455D01*
X263970Y259426D01*
X264107Y259400D01*
X264245Y259378D01*
X264384Y259361D01*
X264523Y259347D01*
X264663Y259337D01*
X264802Y259331D01*
X264942Y259329D01*
X269880Y259329D01*
X253885Y251427D02*
X248946Y251427D01*
X248806Y251429D01*
X248667Y251435D01*
X248527Y251445D01*
X248388Y251459D01*
X248249Y251476D01*
X248111Y251498D01*
X247974Y251524D01*
X247837Y251553D01*
X247701Y251586D01*
X247567Y251623D01*
X247433Y251664D01*
X247301Y251709D01*
X247169Y251758D01*
X247040Y251810D01*
X246912Y251865D01*
X246785Y251925D01*
X246660Y251988D01*
X246537Y252054D01*
X246416Y252124D01*
X246297Y252197D01*
X246180Y252274D01*
X246066Y252354D01*
X245953Y252437D01*
X245843Y252523D01*
X245736Y252613D01*
X245631Y252705D01*
X245529Y252800D01*
X245429Y252898D01*
X245332Y252999D01*
X245238Y253103D01*
X245148Y253209D01*
X245060Y253318D01*
X244975Y253429D01*
X244894Y253543D01*
X244815Y253658D01*
X244740Y253776D01*
X244669Y253896D01*
X244601Y254019D01*
X244536Y254142D01*
X244475Y254268D01*
X244417Y254396D01*
X244363Y254524D01*
X244313Y254655D01*
X244266Y254787D01*
X244223Y254920D01*
X244184Y255054D01*
X244149Y255189D01*
X244118Y255325D01*
X244090Y255463D01*
X244067Y255600D01*
X244047Y255739D01*
X244031Y255878D01*
X244019Y256017D01*
X244011Y256156D01*
X244007Y256296D01*
X244007Y256436D01*
X244011Y256576D01*
X244019Y256715D01*
X244031Y256854D01*
X244047Y256993D01*
X244067Y257132D01*
X244090Y257269D01*
X244118Y257407D01*
X244149Y257543D01*
X244184Y257678D01*
X244223Y257812D01*
X244266Y257945D01*
X244313Y258077D01*
X244363Y258208D01*
X244417Y258336D01*
X244475Y258464D01*
X244536Y258590D01*
X244601Y258713D01*
X244669Y258836D01*
X244740Y258956D01*
X244815Y259074D01*
X244894Y259189D01*
X244975Y259303D01*
X245060Y259414D01*
X245148Y259523D01*
X245238Y259629D01*
X245332Y259733D01*
X245429Y259834D01*
X245529Y259932D01*
X245631Y260027D01*
X245736Y260119D01*
X245843Y260209D01*
X245953Y260295D01*
X246066Y260378D01*
X246180Y260458D01*
X246297Y260535D01*
X246416Y260608D01*
X246537Y260678D01*
X246660Y260744D01*
X246785Y260807D01*
X246912Y260867D01*
X247040Y260922D01*
X247169Y260974D01*
X247301Y261023D01*
X247433Y261068D01*
X247567Y261109D01*
X247701Y261146D01*
X247837Y261179D01*
X247974Y261208D01*
X248111Y261234D01*
X248249Y261256D01*
X248388Y261273D01*
X248527Y261287D01*
X248667Y261297D01*
X248806Y261303D01*
X248946Y261305D01*
X247959Y269207D02*
X253885Y269207D01*
X247959Y269207D02*
X247835Y269205D01*
X247711Y269199D01*
X247587Y269189D01*
X247464Y269176D01*
X247341Y269158D01*
X247219Y269137D01*
X247097Y269112D01*
X246976Y269083D01*
X246857Y269050D01*
X246738Y269014D01*
X246621Y268973D01*
X246505Y268930D01*
X246390Y268882D01*
X246277Y268831D01*
X246165Y268776D01*
X246056Y268718D01*
X245948Y268657D01*
X245842Y268592D01*
X245738Y268524D01*
X245637Y268452D01*
X245537Y268378D01*
X245441Y268300D01*
X245346Y268220D01*
X245254Y268136D01*
X245165Y268050D01*
X245079Y267961D01*
X244995Y267869D01*
X244915Y267774D01*
X244837Y267678D01*
X244763Y267578D01*
X244691Y267477D01*
X244623Y267373D01*
X244558Y267267D01*
X244497Y267159D01*
X244439Y267050D01*
X244384Y266938D01*
X244333Y266825D01*
X244285Y266710D01*
X244242Y266594D01*
X244201Y266477D01*
X244165Y266358D01*
X244132Y266239D01*
X244103Y266118D01*
X244078Y265996D01*
X244057Y265874D01*
X244039Y265751D01*
X244026Y265628D01*
X244016Y265504D01*
X244010Y265380D01*
X244008Y265256D01*
X244010Y265132D01*
X244016Y265008D01*
X244026Y264884D01*
X244039Y264761D01*
X244057Y264638D01*
X244078Y264516D01*
X244103Y264394D01*
X244132Y264273D01*
X244165Y264154D01*
X244201Y264035D01*
X244242Y263918D01*
X244285Y263802D01*
X244333Y263687D01*
X244384Y263574D01*
X244439Y263462D01*
X244497Y263353D01*
X244558Y263245D01*
X244623Y263139D01*
X244691Y263035D01*
X244763Y262934D01*
X244837Y262834D01*
X244915Y262738D01*
X244995Y262643D01*
X245079Y262551D01*
X245165Y262462D01*
X245254Y262376D01*
X245346Y262292D01*
X245441Y262212D01*
X245537Y262134D01*
X245637Y262060D01*
X245738Y261988D01*
X245842Y261920D01*
X245948Y261855D01*
X246056Y261794D01*
X246165Y261736D01*
X246277Y261681D01*
X246390Y261630D01*
X246505Y261582D01*
X246621Y261539D01*
X246738Y261498D01*
X246857Y261462D01*
X246976Y261429D01*
X247097Y261400D01*
X247219Y261375D01*
X247341Y261354D01*
X247464Y261336D01*
X247587Y261323D01*
X247711Y261313D01*
X247835Y261307D01*
X247959Y261305D01*
X251910Y261305D01*
X260736Y398047D02*
X260736Y415827D01*
X255798Y415827D01*
X255658Y415825D01*
X255519Y415819D01*
X255379Y415809D01*
X255240Y415795D01*
X255101Y415778D01*
X254963Y415756D01*
X254826Y415730D01*
X254689Y415701D01*
X254553Y415668D01*
X254419Y415631D01*
X254285Y415590D01*
X254153Y415545D01*
X254021Y415496D01*
X253892Y415444D01*
X253764Y415389D01*
X253637Y415329D01*
X253512Y415266D01*
X253389Y415200D01*
X253268Y415130D01*
X253149Y415057D01*
X253032Y414980D01*
X252918Y414900D01*
X252805Y414817D01*
X252695Y414731D01*
X252588Y414641D01*
X252483Y414549D01*
X252381Y414454D01*
X252281Y414356D01*
X252184Y414255D01*
X252090Y414151D01*
X252000Y414045D01*
X251912Y413936D01*
X251827Y413825D01*
X251746Y413711D01*
X251667Y413596D01*
X251592Y413478D01*
X251521Y413358D01*
X251453Y413235D01*
X251388Y413112D01*
X251327Y412986D01*
X251269Y412858D01*
X251215Y412730D01*
X251165Y412599D01*
X251118Y412467D01*
X251075Y412334D01*
X251036Y412200D01*
X251001Y412065D01*
X250970Y411929D01*
X250942Y411791D01*
X250919Y411654D01*
X250899Y411515D01*
X250883Y411376D01*
X250871Y411237D01*
X250863Y411098D01*
X250859Y410958D01*
X250859Y410818D01*
X250863Y410678D01*
X250871Y410539D01*
X250883Y410400D01*
X250899Y410261D01*
X250919Y410122D01*
X250942Y409985D01*
X250970Y409847D01*
X251001Y409711D01*
X251036Y409576D01*
X251075Y409442D01*
X251118Y409309D01*
X251165Y409177D01*
X251215Y409046D01*
X251269Y408918D01*
X251327Y408790D01*
X251388Y408664D01*
X251453Y408541D01*
X251521Y408419D01*
X251592Y408298D01*
X251667Y408180D01*
X251746Y408065D01*
X251827Y407951D01*
X251912Y407840D01*
X252000Y407731D01*
X252090Y407625D01*
X252184Y407521D01*
X252281Y407420D01*
X252381Y407322D01*
X252483Y407227D01*
X252588Y407135D01*
X252695Y407045D01*
X252805Y406959D01*
X252918Y406876D01*
X253032Y406796D01*
X253149Y406719D01*
X253268Y406646D01*
X253389Y406576D01*
X253512Y406510D01*
X253637Y406447D01*
X253764Y406387D01*
X253892Y406332D01*
X254021Y406280D01*
X254153Y406231D01*
X254285Y406186D01*
X254419Y406145D01*
X254553Y406108D01*
X254689Y406075D01*
X254826Y406046D01*
X254963Y406020D01*
X255101Y405998D01*
X255240Y405981D01*
X255379Y405967D01*
X255519Y405957D01*
X255658Y405951D01*
X255798Y405949D01*
X260736Y405949D01*
X244741Y401998D02*
X240790Y415827D01*
X244741Y401998D02*
X234864Y401998D01*
X237827Y405949D02*
X237827Y398047D01*
X396750Y273827D02*
X396750Y256047D01*
X396750Y265925D02*
X386873Y265925D01*
X386873Y273827D02*
X386873Y256047D01*
X379442Y269876D02*
X374503Y273827D01*
X374503Y256047D01*
X379442Y256047D02*
X369564Y256047D01*
X352813Y269382D02*
X352815Y269514D01*
X352821Y269645D01*
X352831Y269777D01*
X352844Y269908D01*
X352862Y270038D01*
X352883Y270168D01*
X352908Y270298D01*
X352937Y270426D01*
X352970Y270554D01*
X353007Y270680D01*
X353047Y270806D01*
X353091Y270930D01*
X353139Y271053D01*
X353190Y271174D01*
X353245Y271294D01*
X353303Y271412D01*
X353365Y271528D01*
X353431Y271642D01*
X353499Y271755D01*
X353571Y271865D01*
X353646Y271973D01*
X353725Y272079D01*
X353806Y272183D01*
X353891Y272284D01*
X353978Y272382D01*
X354069Y272478D01*
X354162Y272571D01*
X354258Y272662D01*
X354356Y272749D01*
X354457Y272834D01*
X354561Y272915D01*
X354667Y272994D01*
X354775Y273069D01*
X354885Y273141D01*
X354998Y273209D01*
X355112Y273275D01*
X355228Y273337D01*
X355346Y273395D01*
X355466Y273450D01*
X355587Y273501D01*
X355710Y273549D01*
X355834Y273593D01*
X355960Y273633D01*
X356086Y273670D01*
X356214Y273703D01*
X356342Y273732D01*
X356472Y273757D01*
X356602Y273778D01*
X356732Y273796D01*
X356863Y273809D01*
X356995Y273819D01*
X357126Y273825D01*
X357258Y273827D01*
X357258Y273828D02*
X357408Y273826D01*
X357557Y273820D01*
X357706Y273810D01*
X357855Y273797D01*
X358004Y273779D01*
X358152Y273758D01*
X358300Y273732D01*
X358446Y273703D01*
X358592Y273670D01*
X358737Y273633D01*
X358881Y273592D01*
X359024Y273548D01*
X359166Y273500D01*
X359306Y273448D01*
X359445Y273393D01*
X359583Y273334D01*
X359718Y273271D01*
X359853Y273205D01*
X359985Y273135D01*
X360115Y273062D01*
X360244Y272985D01*
X360371Y272905D01*
X360495Y272822D01*
X360617Y272736D01*
X360737Y272646D01*
X360854Y272553D01*
X360969Y272458D01*
X361082Y272359D01*
X361192Y272257D01*
X361299Y272153D01*
X361403Y272046D01*
X361505Y271936D01*
X361603Y271823D01*
X361699Y271708D01*
X361791Y271590D01*
X361881Y271470D01*
X361967Y271348D01*
X362050Y271224D01*
X362130Y271097D01*
X362206Y270969D01*
X362279Y270838D01*
X362349Y270705D01*
X362415Y270571D01*
X362477Y270435D01*
X362536Y270298D01*
X362592Y270159D01*
X362643Y270018D01*
X362691Y269877D01*
X354296Y265925D02*
X354200Y266018D01*
X354108Y266114D01*
X354018Y266213D01*
X353931Y266314D01*
X353847Y266417D01*
X353765Y266522D01*
X353687Y266630D01*
X353612Y266740D01*
X353539Y266852D01*
X353470Y266966D01*
X353404Y267082D01*
X353342Y267200D01*
X353283Y267319D01*
X353227Y267440D01*
X353174Y267563D01*
X353125Y267687D01*
X353080Y267812D01*
X353037Y267939D01*
X352999Y268066D01*
X352964Y268195D01*
X352933Y268324D01*
X352905Y268455D01*
X352881Y268586D01*
X352860Y268718D01*
X352844Y268850D01*
X352831Y268983D01*
X352821Y269116D01*
X352816Y269249D01*
X352814Y269382D01*
X354295Y265925D02*
X362691Y256047D01*
X352813Y256047D01*
X345297Y256047D02*
X345297Y273827D01*
X340358Y273827D01*
X340218Y273825D01*
X340079Y273819D01*
X339939Y273809D01*
X339800Y273795D01*
X339661Y273778D01*
X339523Y273756D01*
X339386Y273730D01*
X339249Y273701D01*
X339113Y273668D01*
X338979Y273631D01*
X338845Y273590D01*
X338713Y273545D01*
X338581Y273496D01*
X338452Y273444D01*
X338324Y273389D01*
X338197Y273329D01*
X338072Y273266D01*
X337949Y273200D01*
X337828Y273130D01*
X337709Y273057D01*
X337592Y272980D01*
X337478Y272900D01*
X337365Y272817D01*
X337255Y272731D01*
X337148Y272641D01*
X337043Y272549D01*
X336941Y272454D01*
X336841Y272356D01*
X336744Y272255D01*
X336650Y272151D01*
X336560Y272045D01*
X336472Y271936D01*
X336387Y271825D01*
X336306Y271711D01*
X336227Y271596D01*
X336152Y271478D01*
X336081Y271358D01*
X336013Y271235D01*
X335948Y271112D01*
X335887Y270986D01*
X335829Y270858D01*
X335775Y270730D01*
X335725Y270599D01*
X335678Y270467D01*
X335635Y270334D01*
X335596Y270200D01*
X335561Y270065D01*
X335530Y269929D01*
X335502Y269791D01*
X335479Y269654D01*
X335459Y269515D01*
X335443Y269376D01*
X335431Y269237D01*
X335423Y269098D01*
X335419Y268958D01*
X335419Y268818D01*
X335423Y268678D01*
X335431Y268539D01*
X335443Y268400D01*
X335459Y268261D01*
X335479Y268122D01*
X335502Y267985D01*
X335530Y267847D01*
X335561Y267711D01*
X335596Y267576D01*
X335635Y267442D01*
X335678Y267309D01*
X335725Y267177D01*
X335775Y267046D01*
X335829Y266918D01*
X335887Y266790D01*
X335948Y266664D01*
X336013Y266541D01*
X336081Y266419D01*
X336152Y266298D01*
X336227Y266180D01*
X336306Y266065D01*
X336387Y265951D01*
X336472Y265840D01*
X336560Y265731D01*
X336650Y265625D01*
X336744Y265521D01*
X336841Y265420D01*
X336941Y265322D01*
X337043Y265227D01*
X337148Y265135D01*
X337255Y265045D01*
X337365Y264959D01*
X337478Y264876D01*
X337592Y264796D01*
X337709Y264719D01*
X337828Y264646D01*
X337949Y264576D01*
X338072Y264510D01*
X338197Y264447D01*
X338324Y264387D01*
X338452Y264332D01*
X338581Y264280D01*
X338713Y264231D01*
X338845Y264186D01*
X338979Y264145D01*
X339113Y264108D01*
X339249Y264075D01*
X339386Y264046D01*
X339523Y264020D01*
X339661Y263998D01*
X339800Y263981D01*
X339939Y263967D01*
X340079Y263957D01*
X340218Y263951D01*
X340358Y263949D01*
X345297Y263949D01*
X339370Y263949D02*
X335419Y256047D01*
X328632Y264937D02*
X328628Y265287D01*
X328615Y265636D01*
X328594Y265985D01*
X328565Y266334D01*
X328528Y266682D01*
X328482Y267029D01*
X328428Y267374D01*
X328366Y267718D01*
X328295Y268061D01*
X328216Y268402D01*
X328130Y268741D01*
X328035Y269077D01*
X327932Y269412D01*
X327821Y269743D01*
X327703Y270073D01*
X327576Y270399D01*
X327442Y270722D01*
X327300Y271041D01*
X327150Y271358D01*
X327110Y271471D01*
X327066Y271581D01*
X327018Y271691D01*
X326967Y271798D01*
X326912Y271904D01*
X326854Y272009D01*
X326792Y272111D01*
X326727Y272211D01*
X326659Y272309D01*
X326588Y272405D01*
X326513Y272498D01*
X326436Y272589D01*
X326356Y272677D01*
X326273Y272762D01*
X326187Y272845D01*
X326098Y272925D01*
X326007Y273002D01*
X325913Y273076D01*
X325817Y273147D01*
X325719Y273215D01*
X325619Y273279D01*
X325516Y273341D01*
X325412Y273398D01*
X325306Y273453D01*
X325198Y273504D01*
X325088Y273551D01*
X324977Y273595D01*
X324865Y273635D01*
X324751Y273671D01*
X324637Y273704D01*
X324521Y273733D01*
X324404Y273758D01*
X324287Y273779D01*
X324169Y273797D01*
X324050Y273810D01*
X323931Y273820D01*
X323812Y273826D01*
X323693Y273828D01*
X323693Y273827D02*
X323574Y273825D01*
X323455Y273819D01*
X323336Y273809D01*
X323217Y273796D01*
X323099Y273778D01*
X322982Y273757D01*
X322865Y273732D01*
X322749Y273703D01*
X322635Y273670D01*
X322521Y273634D01*
X322409Y273594D01*
X322298Y273550D01*
X322188Y273503D01*
X322080Y273452D01*
X321974Y273397D01*
X321870Y273340D01*
X321767Y273278D01*
X321667Y273214D01*
X321569Y273146D01*
X321473Y273075D01*
X321379Y273001D01*
X321288Y272924D01*
X321199Y272844D01*
X321114Y272761D01*
X321030Y272676D01*
X320950Y272588D01*
X320873Y272497D01*
X320798Y272404D01*
X320727Y272308D01*
X320659Y272210D01*
X320594Y272110D01*
X320532Y272008D01*
X320474Y271903D01*
X320419Y271798D01*
X320368Y271690D01*
X320320Y271580D01*
X320276Y271470D01*
X320236Y271357D01*
X320236Y271358D02*
X320086Y271041D01*
X319944Y270722D01*
X319810Y270399D01*
X319683Y270073D01*
X319565Y269743D01*
X319454Y269412D01*
X319351Y269077D01*
X319256Y268741D01*
X319170Y268402D01*
X319091Y268061D01*
X319020Y267718D01*
X318958Y267374D01*
X318904Y267029D01*
X318858Y266682D01*
X318821Y266334D01*
X318792Y265985D01*
X318771Y265636D01*
X318758Y265287D01*
X318754Y264937D01*
X328632Y264937D02*
X328628Y264587D01*
X328615Y264238D01*
X328594Y263889D01*
X328565Y263540D01*
X328528Y263192D01*
X328482Y262845D01*
X328428Y262500D01*
X328366Y262156D01*
X328295Y261813D01*
X328216Y261472D01*
X328130Y261133D01*
X328035Y260797D01*
X327932Y260462D01*
X327821Y260131D01*
X327703Y259802D01*
X327576Y259475D01*
X327442Y259152D01*
X327300Y258833D01*
X327150Y258517D01*
X327110Y258404D01*
X327066Y258294D01*
X327018Y258184D01*
X326967Y258077D01*
X326912Y257971D01*
X326854Y257866D01*
X326792Y257764D01*
X326727Y257664D01*
X326659Y257566D01*
X326588Y257470D01*
X326513Y257377D01*
X326436Y257286D01*
X326356Y257198D01*
X326273Y257113D01*
X326187Y257030D01*
X326098Y256950D01*
X326007Y256873D01*
X325913Y256799D01*
X325817Y256728D01*
X325719Y256660D01*
X325619Y256596D01*
X325516Y256534D01*
X325412Y256477D01*
X325306Y256422D01*
X325198Y256371D01*
X325088Y256324D01*
X324977Y256280D01*
X324865Y256240D01*
X324751Y256204D01*
X324637Y256171D01*
X324521Y256142D01*
X324404Y256117D01*
X324287Y256096D01*
X324169Y256078D01*
X324050Y256065D01*
X323931Y256055D01*
X323812Y256049D01*
X323693Y256047D01*
X320236Y258517D02*
X320086Y258833D01*
X319944Y259152D01*
X319810Y259475D01*
X319683Y259802D01*
X319565Y260131D01*
X319454Y260462D01*
X319351Y260797D01*
X319256Y261133D01*
X319170Y261472D01*
X319091Y261813D01*
X319020Y262156D01*
X318958Y262500D01*
X318904Y262845D01*
X318858Y263192D01*
X318821Y263540D01*
X318792Y263889D01*
X318771Y264238D01*
X318758Y264587D01*
X318754Y264937D01*
X320236Y258517D02*
X320276Y258404D01*
X320320Y258294D01*
X320368Y258184D01*
X320419Y258076D01*
X320474Y257970D01*
X320532Y257866D01*
X320594Y257764D01*
X320659Y257664D01*
X320727Y257566D01*
X320798Y257470D01*
X320873Y257377D01*
X320950Y257286D01*
X321030Y257198D01*
X321114Y257113D01*
X321199Y257030D01*
X321288Y256950D01*
X321379Y256873D01*
X321473Y256799D01*
X321569Y256728D01*
X321667Y256660D01*
X321767Y256596D01*
X321870Y256534D01*
X321974Y256476D01*
X322080Y256422D01*
X322188Y256371D01*
X322298Y256324D01*
X322409Y256280D01*
X322521Y256240D01*
X322635Y256204D01*
X322749Y256171D01*
X322865Y256142D01*
X322982Y256117D01*
X323099Y256096D01*
X323217Y256078D01*
X323336Y256065D01*
X323455Y256055D01*
X323574Y256049D01*
X323693Y256047D01*
X327644Y259998D02*
X319742Y269876D01*
X311881Y264937D02*
X311877Y265287D01*
X311864Y265636D01*
X311843Y265985D01*
X311814Y266334D01*
X311777Y266682D01*
X311731Y267029D01*
X311677Y267374D01*
X311615Y267718D01*
X311544Y268061D01*
X311465Y268402D01*
X311379Y268741D01*
X311284Y269077D01*
X311181Y269412D01*
X311070Y269743D01*
X310952Y270073D01*
X310825Y270399D01*
X310691Y270722D01*
X310549Y271041D01*
X310399Y271358D01*
X310400Y271358D02*
X310360Y271471D01*
X310316Y271581D01*
X310268Y271691D01*
X310217Y271798D01*
X310162Y271904D01*
X310104Y272009D01*
X310042Y272111D01*
X309977Y272211D01*
X309909Y272309D01*
X309838Y272405D01*
X309763Y272498D01*
X309686Y272589D01*
X309606Y272677D01*
X309523Y272762D01*
X309437Y272845D01*
X309348Y272925D01*
X309257Y273002D01*
X309163Y273076D01*
X309067Y273147D01*
X308969Y273215D01*
X308869Y273279D01*
X308766Y273341D01*
X308662Y273398D01*
X308556Y273453D01*
X308448Y273504D01*
X308338Y273551D01*
X308227Y273595D01*
X308115Y273635D01*
X308001Y273671D01*
X307887Y273704D01*
X307771Y273733D01*
X307654Y273758D01*
X307537Y273779D01*
X307419Y273797D01*
X307300Y273810D01*
X307181Y273820D01*
X307062Y273826D01*
X306943Y273828D01*
X306943Y273827D02*
X306824Y273825D01*
X306705Y273819D01*
X306586Y273809D01*
X306467Y273796D01*
X306349Y273778D01*
X306232Y273757D01*
X306115Y273732D01*
X305999Y273703D01*
X305885Y273670D01*
X305771Y273634D01*
X305659Y273594D01*
X305548Y273550D01*
X305438Y273503D01*
X305330Y273452D01*
X305224Y273397D01*
X305120Y273340D01*
X305017Y273278D01*
X304917Y273214D01*
X304819Y273146D01*
X304723Y273075D01*
X304629Y273001D01*
X304538Y272924D01*
X304449Y272844D01*
X304364Y272761D01*
X304280Y272676D01*
X304200Y272588D01*
X304123Y272497D01*
X304048Y272404D01*
X303977Y272308D01*
X303909Y272210D01*
X303844Y272110D01*
X303782Y272008D01*
X303724Y271903D01*
X303669Y271798D01*
X303618Y271690D01*
X303570Y271580D01*
X303526Y271470D01*
X303486Y271357D01*
X303486Y271358D02*
X303336Y271041D01*
X303194Y270722D01*
X303060Y270399D01*
X302933Y270073D01*
X302815Y269743D01*
X302704Y269412D01*
X302601Y269077D01*
X302506Y268741D01*
X302420Y268402D01*
X302341Y268061D01*
X302270Y267718D01*
X302208Y267374D01*
X302154Y267029D01*
X302108Y266682D01*
X302071Y266334D01*
X302042Y265985D01*
X302021Y265636D01*
X302008Y265287D01*
X302004Y264937D01*
X311881Y264937D02*
X311877Y264587D01*
X311864Y264238D01*
X311843Y263889D01*
X311814Y263540D01*
X311777Y263192D01*
X311731Y262845D01*
X311677Y262500D01*
X311615Y262156D01*
X311544Y261813D01*
X311465Y261472D01*
X311379Y261133D01*
X311284Y260797D01*
X311181Y260462D01*
X311070Y260131D01*
X310952Y259802D01*
X310825Y259475D01*
X310691Y259152D01*
X310549Y258833D01*
X310399Y258517D01*
X310400Y258517D02*
X310360Y258404D01*
X310316Y258294D01*
X310268Y258184D01*
X310217Y258077D01*
X310162Y257971D01*
X310104Y257866D01*
X310042Y257764D01*
X309977Y257664D01*
X309909Y257566D01*
X309838Y257470D01*
X309763Y257377D01*
X309686Y257286D01*
X309606Y257198D01*
X309523Y257113D01*
X309437Y257030D01*
X309348Y256950D01*
X309257Y256873D01*
X309163Y256799D01*
X309067Y256728D01*
X308969Y256660D01*
X308869Y256596D01*
X308766Y256534D01*
X308662Y256477D01*
X308556Y256422D01*
X308448Y256371D01*
X308338Y256324D01*
X308227Y256280D01*
X308115Y256240D01*
X308001Y256204D01*
X307887Y256171D01*
X307771Y256142D01*
X307654Y256117D01*
X307537Y256096D01*
X307419Y256078D01*
X307300Y256065D01*
X307181Y256055D01*
X307062Y256049D01*
X306943Y256047D01*
X303486Y258517D02*
X303336Y258833D01*
X303194Y259152D01*
X303060Y259475D01*
X302933Y259802D01*
X302815Y260131D01*
X302704Y260462D01*
X302601Y260797D01*
X302506Y261133D01*
X302420Y261472D01*
X302341Y261813D01*
X302270Y262156D01*
X302208Y262500D01*
X302154Y262845D01*
X302108Y263192D01*
X302071Y263540D01*
X302042Y263889D01*
X302021Y264238D01*
X302008Y264587D01*
X302004Y264937D01*
X303486Y258517D02*
X303526Y258404D01*
X303570Y258294D01*
X303618Y258184D01*
X303669Y258076D01*
X303724Y257970D01*
X303782Y257866D01*
X303844Y257764D01*
X303909Y257664D01*
X303977Y257566D01*
X304048Y257470D01*
X304123Y257377D01*
X304200Y257286D01*
X304280Y257198D01*
X304364Y257113D01*
X304449Y257030D01*
X304538Y256950D01*
X304629Y256873D01*
X304723Y256799D01*
X304819Y256728D01*
X304917Y256660D01*
X305017Y256596D01*
X305120Y256534D01*
X305224Y256476D01*
X305330Y256422D01*
X305438Y256371D01*
X305548Y256324D01*
X305659Y256280D01*
X305771Y256240D01*
X305885Y256204D01*
X305999Y256171D01*
X306115Y256142D01*
X306232Y256117D01*
X306349Y256096D01*
X306467Y256078D01*
X306586Y256065D01*
X306705Y256055D01*
X306824Y256049D01*
X306943Y256047D01*
X310894Y259998D02*
X302991Y269876D01*
D12*
X455984Y355495D02*
X458072Y355495D01*
X458072Y355496D02*
X458161Y355498D01*
X458249Y355504D01*
X458337Y355513D01*
X458425Y355526D01*
X458512Y355543D01*
X458598Y355563D01*
X458683Y355588D01*
X458768Y355615D01*
X458851Y355647D01*
X458932Y355681D01*
X459012Y355720D01*
X459090Y355761D01*
X459167Y355806D01*
X459241Y355854D01*
X459314Y355905D01*
X459384Y355959D01*
X459451Y356017D01*
X459517Y356077D01*
X459579Y356139D01*
X459639Y356205D01*
X459697Y356272D01*
X459751Y356342D01*
X459802Y356415D01*
X459850Y356489D01*
X459895Y356566D01*
X459936Y356644D01*
X459975Y356724D01*
X460009Y356805D01*
X460041Y356888D01*
X460068Y356973D01*
X460093Y357058D01*
X460113Y357144D01*
X460130Y357231D01*
X460143Y357319D01*
X460152Y357407D01*
X460158Y357495D01*
X460160Y357584D01*
X460161Y357584D02*
X460161Y362805D01*
X460160Y362805D02*
X460158Y362894D01*
X460152Y362982D01*
X460143Y363070D01*
X460130Y363158D01*
X460113Y363245D01*
X460093Y363331D01*
X460068Y363416D01*
X460041Y363501D01*
X460009Y363584D01*
X459975Y363665D01*
X459936Y363745D01*
X459895Y363823D01*
X459850Y363900D01*
X459802Y363974D01*
X459751Y364047D01*
X459697Y364117D01*
X459639Y364184D01*
X459579Y364250D01*
X459517Y364312D01*
X459451Y364372D01*
X459384Y364430D01*
X459314Y364484D01*
X459241Y364535D01*
X459167Y364583D01*
X459090Y364628D01*
X459012Y364669D01*
X458932Y364708D01*
X458851Y364742D01*
X458768Y364774D01*
X458683Y364801D01*
X458598Y364826D01*
X458512Y364846D01*
X458425Y364863D01*
X458337Y364876D01*
X458249Y364885D01*
X458161Y364891D01*
X458072Y364893D01*
X455984Y364893D01*
X452516Y358106D02*
X452514Y358207D01*
X452508Y358308D01*
X452498Y358409D01*
X452485Y358509D01*
X452467Y358609D01*
X452446Y358708D01*
X452420Y358806D01*
X452391Y358903D01*
X452359Y358999D01*
X452322Y359093D01*
X452282Y359186D01*
X452238Y359278D01*
X452191Y359367D01*
X452140Y359455D01*
X452086Y359541D01*
X452029Y359624D01*
X451969Y359706D01*
X451905Y359784D01*
X451839Y359861D01*
X451769Y359934D01*
X451697Y360005D01*
X451622Y360073D01*
X451544Y360138D01*
X451464Y360200D01*
X451382Y360259D01*
X451297Y360315D01*
X451211Y360367D01*
X451122Y360416D01*
X451031Y360462D01*
X450939Y360503D01*
X450845Y360542D01*
X450750Y360576D01*
X450654Y360607D01*
X450556Y360634D01*
X450458Y360658D01*
X450358Y360677D01*
X450258Y360693D01*
X450158Y360705D01*
X450057Y360713D01*
X449956Y360717D01*
X449854Y360717D01*
X449753Y360713D01*
X449652Y360705D01*
X449552Y360693D01*
X449452Y360677D01*
X449352Y360658D01*
X449254Y360634D01*
X449156Y360607D01*
X449060Y360576D01*
X448965Y360542D01*
X448871Y360503D01*
X448779Y360462D01*
X448688Y360416D01*
X448600Y360367D01*
X448513Y360315D01*
X448428Y360259D01*
X448346Y360200D01*
X448266Y360138D01*
X448188Y360073D01*
X448113Y360005D01*
X448041Y359934D01*
X447971Y359861D01*
X447905Y359784D01*
X447841Y359706D01*
X447781Y359624D01*
X447724Y359541D01*
X447670Y359455D01*
X447619Y359367D01*
X447572Y359278D01*
X447528Y359186D01*
X447488Y359093D01*
X447451Y358999D01*
X447419Y358903D01*
X447390Y358806D01*
X447364Y358708D01*
X447343Y358609D01*
X447325Y358509D01*
X447312Y358409D01*
X447302Y358308D01*
X447296Y358207D01*
X447294Y358106D01*
X447296Y358005D01*
X447302Y357904D01*
X447312Y357803D01*
X447325Y357703D01*
X447343Y357603D01*
X447364Y357504D01*
X447390Y357406D01*
X447419Y357309D01*
X447451Y357213D01*
X447488Y357119D01*
X447528Y357026D01*
X447572Y356934D01*
X447619Y356845D01*
X447670Y356757D01*
X447724Y356671D01*
X447781Y356588D01*
X447841Y356506D01*
X447905Y356428D01*
X447971Y356351D01*
X448041Y356278D01*
X448113Y356207D01*
X448188Y356139D01*
X448266Y356074D01*
X448346Y356012D01*
X448428Y355953D01*
X448513Y355897D01*
X448600Y355845D01*
X448688Y355796D01*
X448779Y355750D01*
X448871Y355709D01*
X448965Y355670D01*
X449060Y355636D01*
X449156Y355605D01*
X449254Y355578D01*
X449352Y355554D01*
X449452Y355535D01*
X449552Y355519D01*
X449652Y355507D01*
X449753Y355499D01*
X449854Y355495D01*
X449956Y355495D01*
X450057Y355499D01*
X450158Y355507D01*
X450258Y355519D01*
X450358Y355535D01*
X450458Y355554D01*
X450556Y355578D01*
X450654Y355605D01*
X450750Y355636D01*
X450845Y355670D01*
X450939Y355709D01*
X451031Y355750D01*
X451122Y355796D01*
X451210Y355845D01*
X451297Y355897D01*
X451382Y355953D01*
X451464Y356012D01*
X451544Y356074D01*
X451622Y356139D01*
X451697Y356207D01*
X451769Y356278D01*
X451839Y356351D01*
X451905Y356428D01*
X451969Y356506D01*
X452029Y356588D01*
X452086Y356671D01*
X452140Y356757D01*
X452191Y356845D01*
X452238Y356934D01*
X452282Y357026D01*
X452322Y357119D01*
X452359Y357213D01*
X452391Y357309D01*
X452420Y357406D01*
X452446Y357504D01*
X452467Y357603D01*
X452485Y357703D01*
X452498Y357803D01*
X452508Y357904D01*
X452514Y358005D01*
X452516Y358106D01*
X451993Y362805D02*
X451991Y362895D01*
X451985Y362984D01*
X451976Y363074D01*
X451962Y363163D01*
X451945Y363251D01*
X451924Y363338D01*
X451899Y363425D01*
X451870Y363510D01*
X451838Y363594D01*
X451803Y363676D01*
X451763Y363757D01*
X451721Y363836D01*
X451675Y363913D01*
X451625Y363988D01*
X451573Y364061D01*
X451517Y364132D01*
X451459Y364200D01*
X451397Y364265D01*
X451333Y364328D01*
X451266Y364388D01*
X451197Y364445D01*
X451125Y364499D01*
X451051Y364550D01*
X450975Y364598D01*
X450897Y364642D01*
X450817Y364683D01*
X450735Y364721D01*
X450652Y364755D01*
X450567Y364785D01*
X450481Y364812D01*
X450395Y364835D01*
X450307Y364854D01*
X450218Y364869D01*
X450129Y364881D01*
X450040Y364889D01*
X449950Y364893D01*
X449860Y364893D01*
X449770Y364889D01*
X449681Y364881D01*
X449592Y364869D01*
X449503Y364854D01*
X449415Y364835D01*
X449329Y364812D01*
X449243Y364785D01*
X449158Y364755D01*
X449075Y364721D01*
X448993Y364683D01*
X448913Y364642D01*
X448835Y364598D01*
X448759Y364550D01*
X448685Y364499D01*
X448613Y364445D01*
X448544Y364388D01*
X448477Y364328D01*
X448413Y364265D01*
X448351Y364200D01*
X448293Y364132D01*
X448237Y364061D01*
X448185Y363988D01*
X448135Y363913D01*
X448089Y363836D01*
X448047Y363757D01*
X448007Y363676D01*
X447972Y363594D01*
X447940Y363510D01*
X447911Y363425D01*
X447886Y363338D01*
X447865Y363251D01*
X447848Y363163D01*
X447834Y363074D01*
X447825Y362984D01*
X447819Y362895D01*
X447817Y362805D01*
X447819Y362715D01*
X447825Y362626D01*
X447834Y362536D01*
X447848Y362447D01*
X447865Y362359D01*
X447886Y362272D01*
X447911Y362185D01*
X447940Y362100D01*
X447972Y362016D01*
X448007Y361934D01*
X448047Y361853D01*
X448089Y361774D01*
X448135Y361697D01*
X448185Y361622D01*
X448237Y361549D01*
X448293Y361478D01*
X448351Y361410D01*
X448413Y361345D01*
X448477Y361282D01*
X448544Y361222D01*
X448613Y361165D01*
X448685Y361111D01*
X448759Y361060D01*
X448835Y361012D01*
X448913Y360968D01*
X448993Y360927D01*
X449075Y360889D01*
X449158Y360855D01*
X449243Y360825D01*
X449329Y360798D01*
X449415Y360775D01*
X449503Y360756D01*
X449592Y360741D01*
X449681Y360729D01*
X449770Y360721D01*
X449860Y360717D01*
X449950Y360717D01*
X450040Y360721D01*
X450129Y360729D01*
X450218Y360741D01*
X450307Y360756D01*
X450395Y360775D01*
X450481Y360798D01*
X450567Y360825D01*
X450652Y360855D01*
X450735Y360889D01*
X450817Y360927D01*
X450897Y360968D01*
X450975Y361012D01*
X451051Y361060D01*
X451125Y361111D01*
X451197Y361165D01*
X451266Y361222D01*
X451333Y361282D01*
X451397Y361345D01*
X451459Y361410D01*
X451517Y361478D01*
X451573Y361549D01*
X451625Y361622D01*
X451675Y361697D01*
X451721Y361774D01*
X451763Y361853D01*
X451803Y361934D01*
X451838Y362016D01*
X451870Y362100D01*
X451899Y362185D01*
X451924Y362272D01*
X451945Y362359D01*
X451962Y362447D01*
X451976Y362536D01*
X451985Y362626D01*
X451991Y362715D01*
X451993Y362805D01*
D10*
X435162Y297816D02*
X415033Y297816D01*
D12*
X420452Y285637D02*
X420452Y283548D01*
X420454Y283459D01*
X420460Y283371D01*
X420469Y283283D01*
X420482Y283195D01*
X420499Y283108D01*
X420519Y283022D01*
X420544Y282937D01*
X420571Y282852D01*
X420603Y282769D01*
X420637Y282688D01*
X420676Y282608D01*
X420717Y282530D01*
X420762Y282453D01*
X420810Y282379D01*
X420861Y282306D01*
X420915Y282236D01*
X420973Y282169D01*
X421033Y282103D01*
X421095Y282041D01*
X421161Y281981D01*
X421228Y281923D01*
X421298Y281869D01*
X421371Y281818D01*
X421445Y281770D01*
X421522Y281725D01*
X421600Y281684D01*
X421680Y281645D01*
X421761Y281611D01*
X421844Y281579D01*
X421929Y281552D01*
X422014Y281527D01*
X422100Y281507D01*
X422187Y281490D01*
X422275Y281477D01*
X422363Y281468D01*
X422451Y281462D01*
X422540Y281460D01*
X427762Y281460D01*
X427853Y281462D01*
X427944Y281468D01*
X428035Y281478D01*
X428125Y281492D01*
X428214Y281509D01*
X428302Y281531D01*
X428390Y281557D01*
X428476Y281586D01*
X428561Y281619D01*
X428644Y281656D01*
X428726Y281696D01*
X428806Y281740D01*
X428884Y281787D01*
X428960Y281838D01*
X429033Y281891D01*
X429104Y281948D01*
X429173Y282009D01*
X429238Y282072D01*
X429301Y282137D01*
X429361Y282206D01*
X429419Y282277D01*
X429472Y282350D01*
X429523Y282426D01*
X429570Y282504D01*
X429614Y282584D01*
X429654Y282666D01*
X429691Y282749D01*
X429724Y282834D01*
X429753Y282920D01*
X429779Y283008D01*
X429801Y283096D01*
X429818Y283185D01*
X429832Y283275D01*
X429842Y283366D01*
X429848Y283457D01*
X429850Y283548D01*
X429850Y285637D01*
X429851Y291977D02*
X429849Y292072D01*
X429843Y292166D01*
X429834Y292260D01*
X429821Y292354D01*
X429804Y292447D01*
X429783Y292539D01*
X429758Y292631D01*
X429730Y292721D01*
X429698Y292810D01*
X429663Y292898D01*
X429624Y292984D01*
X429582Y293069D01*
X429536Y293152D01*
X429487Y293233D01*
X429435Y293312D01*
X429380Y293389D01*
X429321Y293463D01*
X429260Y293535D01*
X429196Y293605D01*
X429129Y293672D01*
X429059Y293736D01*
X428987Y293797D01*
X428913Y293856D01*
X428836Y293911D01*
X428757Y293963D01*
X428676Y294012D01*
X428593Y294058D01*
X428508Y294100D01*
X428422Y294139D01*
X428334Y294174D01*
X428245Y294206D01*
X428155Y294234D01*
X428063Y294259D01*
X427971Y294280D01*
X427878Y294297D01*
X427784Y294310D01*
X427690Y294319D01*
X427596Y294325D01*
X427501Y294327D01*
X429850Y291977D02*
X429848Y291869D01*
X429842Y291760D01*
X429832Y291652D01*
X429819Y291545D01*
X429801Y291438D01*
X429780Y291331D01*
X429755Y291226D01*
X429726Y291121D01*
X429694Y291018D01*
X429657Y290916D01*
X429617Y290815D01*
X429574Y290716D01*
X429527Y290618D01*
X429476Y290522D01*
X429422Y290428D01*
X429365Y290336D01*
X429304Y290246D01*
X429240Y290158D01*
X429174Y290073D01*
X429104Y289990D01*
X429031Y289910D01*
X428955Y289832D01*
X428877Y289757D01*
X428796Y289685D01*
X428712Y289616D01*
X428626Y289550D01*
X428538Y289487D01*
X428447Y289428D01*
X428355Y289371D01*
X428260Y289318D01*
X428164Y289269D01*
X428065Y289223D01*
X427966Y289180D01*
X427864Y289141D01*
X427762Y289106D01*
X425673Y293544D02*
X425742Y293613D01*
X425813Y293679D01*
X425886Y293743D01*
X425962Y293804D01*
X426041Y293862D01*
X426121Y293916D01*
X426204Y293968D01*
X426288Y294016D01*
X426374Y294062D01*
X426462Y294103D01*
X426552Y294142D01*
X426643Y294177D01*
X426735Y294208D01*
X426828Y294236D01*
X426922Y294260D01*
X427017Y294280D01*
X427113Y294297D01*
X427210Y294310D01*
X427307Y294319D01*
X427404Y294325D01*
X427501Y294327D01*
X425673Y293543D02*
X420452Y289105D01*
X420452Y294327D01*
D13*
X381202Y376202D02*
X376202Y381202D01*
X311202Y311212D02*
X311202Y311202D01*
X385972Y373852D02*
X385974Y373941D01*
X385980Y374030D01*
X385990Y374119D01*
X386004Y374207D01*
X386021Y374294D01*
X386043Y374380D01*
X386069Y374466D01*
X386098Y374550D01*
X386131Y374633D01*
X386167Y374714D01*
X386208Y374794D01*
X386251Y374871D01*
X386298Y374947D01*
X386349Y375020D01*
X386402Y375091D01*
X386459Y375160D01*
X386519Y375226D01*
X386582Y375290D01*
X386647Y375350D01*
X386715Y375408D01*
X386786Y375462D01*
X386859Y375513D01*
X386934Y375561D01*
X387011Y375606D01*
X387090Y375647D01*
X387171Y375684D01*
X387253Y375718D01*
X387337Y375749D01*
X387422Y375775D01*
X387508Y375798D01*
X387595Y375816D01*
X387683Y375831D01*
X387772Y375842D01*
X387861Y375849D01*
X387950Y375852D01*
X388039Y375851D01*
X388128Y375846D01*
X388216Y375837D01*
X388305Y375824D01*
X388392Y375807D01*
X388479Y375787D01*
X388565Y375762D01*
X388649Y375734D01*
X388732Y375702D01*
X388814Y375666D01*
X388894Y375627D01*
X388972Y375584D01*
X389048Y375538D01*
X389122Y375488D01*
X389194Y375435D01*
X389263Y375379D01*
X389330Y375320D01*
X389394Y375258D01*
X389455Y375194D01*
X389514Y375126D01*
X389569Y375056D01*
X389621Y374984D01*
X389670Y374909D01*
X389715Y374833D01*
X389757Y374754D01*
X389795Y374674D01*
X389830Y374592D01*
X389861Y374508D01*
X389889Y374423D01*
X389912Y374337D01*
X389932Y374250D01*
X389948Y374163D01*
X389960Y374074D01*
X389968Y373986D01*
X389972Y373897D01*
X389972Y373807D01*
X389968Y373718D01*
X389960Y373630D01*
X389948Y373541D01*
X389932Y373454D01*
X389912Y373367D01*
X389889Y373281D01*
X389861Y373196D01*
X389830Y373112D01*
X389795Y373030D01*
X389757Y372950D01*
X389715Y372871D01*
X389670Y372795D01*
X389621Y372720D01*
X389569Y372648D01*
X389514Y372578D01*
X389455Y372510D01*
X389394Y372446D01*
X389330Y372384D01*
X389263Y372325D01*
X389194Y372269D01*
X389122Y372216D01*
X389048Y372166D01*
X388972Y372120D01*
X388894Y372077D01*
X388814Y372038D01*
X388732Y372002D01*
X388649Y371970D01*
X388565Y371942D01*
X388479Y371917D01*
X388392Y371897D01*
X388305Y371880D01*
X388216Y371867D01*
X388128Y371858D01*
X388039Y371853D01*
X387950Y371852D01*
X387861Y371855D01*
X387772Y371862D01*
X387683Y371873D01*
X387595Y371888D01*
X387508Y371906D01*
X387422Y371929D01*
X387337Y371955D01*
X387253Y371986D01*
X387171Y372020D01*
X387090Y372057D01*
X387011Y372098D01*
X386934Y372143D01*
X386859Y372191D01*
X386786Y372242D01*
X386715Y372296D01*
X386647Y372354D01*
X386582Y372414D01*
X386519Y372478D01*
X386459Y372544D01*
X386402Y372613D01*
X386349Y372684D01*
X386298Y372757D01*
X386251Y372833D01*
X386208Y372910D01*
X386167Y372990D01*
X386131Y373071D01*
X386098Y373154D01*
X386069Y373238D01*
X386043Y373324D01*
X386021Y373410D01*
X386004Y373497D01*
X385990Y373585D01*
X385980Y373674D01*
X385974Y373763D01*
X385972Y373852D01*
X311242Y381212D02*
X311242Y381222D01*
X315942Y381222D01*
X315902Y311212D02*
X311202Y311212D01*
X311242Y376522D02*
X311242Y381212D01*
X311192Y315902D02*
X311192Y311202D01*
X376522Y311202D02*
X381222Y311202D01*
X381222Y311192D02*
X381222Y315892D01*
D12*
X326467Y390024D02*
X326467Y396811D01*
X326467Y390024D02*
X326465Y389923D01*
X326459Y389822D01*
X326449Y389721D01*
X326436Y389621D01*
X326418Y389521D01*
X326397Y389422D01*
X326371Y389324D01*
X326342Y389227D01*
X326310Y389131D01*
X326273Y389037D01*
X326233Y388944D01*
X326189Y388852D01*
X326142Y388763D01*
X326091Y388675D01*
X326037Y388589D01*
X325980Y388506D01*
X325920Y388424D01*
X325856Y388346D01*
X325790Y388269D01*
X325720Y388196D01*
X325648Y388125D01*
X325573Y388057D01*
X325495Y387992D01*
X325415Y387930D01*
X325333Y387871D01*
X325248Y387815D01*
X325161Y387763D01*
X325073Y387714D01*
X324982Y387668D01*
X324890Y387627D01*
X324796Y387588D01*
X324701Y387554D01*
X324605Y387523D01*
X324507Y387496D01*
X324409Y387472D01*
X324309Y387453D01*
X324209Y387437D01*
X324109Y387425D01*
X324008Y387417D01*
X323907Y387413D01*
X323805Y387413D01*
X323704Y387417D01*
X323603Y387425D01*
X323503Y387437D01*
X323403Y387453D01*
X323303Y387472D01*
X323205Y387496D01*
X323107Y387523D01*
X323011Y387554D01*
X322916Y387588D01*
X322822Y387627D01*
X322730Y387668D01*
X322639Y387714D01*
X322551Y387763D01*
X322464Y387815D01*
X322379Y387871D01*
X322297Y387930D01*
X322217Y387992D01*
X322139Y388057D01*
X322064Y388125D01*
X321992Y388196D01*
X321922Y388269D01*
X321856Y388346D01*
X321792Y388424D01*
X321732Y388506D01*
X321675Y388589D01*
X321621Y388675D01*
X321570Y388763D01*
X321523Y388852D01*
X321479Y388944D01*
X321439Y389037D01*
X321402Y389131D01*
X321370Y389227D01*
X321341Y389324D01*
X321315Y389422D01*
X321294Y389521D01*
X321276Y389621D01*
X321263Y389721D01*
X321253Y389822D01*
X321247Y389923D01*
X321245Y390024D01*
X321246Y390024D02*
X321246Y396811D01*
X317018Y394723D02*
X314408Y396811D01*
X314408Y387413D01*
X317018Y387413D02*
X311797Y387413D01*
D14*
X392270Y375267D02*
X392270Y339707D01*
X412590Y339707D01*
X412590Y375267D01*
X392270Y375267D01*
D12*
X415907Y337957D02*
X425305Y344222D01*
X425305Y337957D02*
X415907Y344222D01*
X423217Y347623D02*
X425305Y350233D01*
X415907Y350233D01*
X415907Y347623D02*
X415907Y352844D01*
X357789Y420690D02*
X348391Y420690D01*
X357789Y420690D02*
X357789Y423301D01*
X357790Y423301D02*
X357788Y423402D01*
X357782Y423503D01*
X357772Y423604D01*
X357759Y423704D01*
X357741Y423804D01*
X357720Y423903D01*
X357694Y424001D01*
X357665Y424098D01*
X357633Y424194D01*
X357596Y424288D01*
X357556Y424381D01*
X357512Y424473D01*
X357465Y424562D01*
X357414Y424650D01*
X357360Y424736D01*
X357303Y424819D01*
X357243Y424901D01*
X357179Y424979D01*
X357113Y425056D01*
X357043Y425129D01*
X356971Y425200D01*
X356896Y425268D01*
X356818Y425333D01*
X356738Y425395D01*
X356656Y425454D01*
X356571Y425510D01*
X356485Y425562D01*
X356396Y425611D01*
X356305Y425657D01*
X356213Y425698D01*
X356119Y425737D01*
X356024Y425771D01*
X355928Y425802D01*
X355830Y425829D01*
X355732Y425853D01*
X355632Y425872D01*
X355532Y425888D01*
X355432Y425900D01*
X355331Y425908D01*
X355230Y425912D01*
X355128Y425912D01*
X355027Y425908D01*
X354926Y425900D01*
X354826Y425888D01*
X354726Y425872D01*
X354626Y425853D01*
X354528Y425829D01*
X354430Y425802D01*
X354334Y425771D01*
X354239Y425737D01*
X354145Y425698D01*
X354053Y425657D01*
X353962Y425611D01*
X353874Y425562D01*
X353787Y425510D01*
X353702Y425454D01*
X353620Y425395D01*
X353540Y425333D01*
X353462Y425268D01*
X353387Y425200D01*
X353315Y425129D01*
X353245Y425056D01*
X353179Y424979D01*
X353115Y424901D01*
X353055Y424819D01*
X352998Y424736D01*
X352944Y424650D01*
X352893Y424562D01*
X352846Y424473D01*
X352802Y424381D01*
X352762Y424288D01*
X352725Y424194D01*
X352693Y424098D01*
X352664Y424001D01*
X352638Y423903D01*
X352617Y423804D01*
X352599Y423704D01*
X352586Y423604D01*
X352576Y423503D01*
X352570Y423402D01*
X352568Y423301D01*
X352568Y420690D01*
X352568Y423823D02*
X348391Y425911D01*
X348391Y429777D02*
X348391Y432387D01*
X348393Y432488D01*
X348399Y432589D01*
X348409Y432690D01*
X348422Y432790D01*
X348440Y432890D01*
X348461Y432989D01*
X348487Y433087D01*
X348516Y433184D01*
X348548Y433280D01*
X348585Y433374D01*
X348625Y433467D01*
X348669Y433559D01*
X348716Y433648D01*
X348767Y433736D01*
X348821Y433822D01*
X348878Y433905D01*
X348938Y433987D01*
X349002Y434065D01*
X349068Y434142D01*
X349138Y434215D01*
X349210Y434286D01*
X349285Y434354D01*
X349363Y434419D01*
X349443Y434481D01*
X349525Y434540D01*
X349610Y434596D01*
X349697Y434648D01*
X349785Y434697D01*
X349876Y434743D01*
X349968Y434784D01*
X350062Y434823D01*
X350157Y434857D01*
X350253Y434888D01*
X350351Y434915D01*
X350449Y434939D01*
X350549Y434958D01*
X350649Y434974D01*
X350749Y434986D01*
X350850Y434994D01*
X350951Y434998D01*
X351053Y434998D01*
X351154Y434994D01*
X351255Y434986D01*
X351355Y434974D01*
X351455Y434958D01*
X351555Y434939D01*
X351653Y434915D01*
X351751Y434888D01*
X351847Y434857D01*
X351942Y434823D01*
X352036Y434784D01*
X352128Y434743D01*
X352219Y434697D01*
X352308Y434648D01*
X352394Y434596D01*
X352479Y434540D01*
X352561Y434481D01*
X352641Y434419D01*
X352719Y434354D01*
X352794Y434286D01*
X352866Y434215D01*
X352936Y434142D01*
X353002Y434065D01*
X353066Y433987D01*
X353126Y433905D01*
X353183Y433822D01*
X353237Y433736D01*
X353288Y433648D01*
X353335Y433559D01*
X353379Y433467D01*
X353419Y433374D01*
X353456Y433280D01*
X353488Y433184D01*
X353517Y433087D01*
X353543Y432989D01*
X353564Y432890D01*
X353582Y432790D01*
X353595Y432690D01*
X353605Y432589D01*
X353611Y432488D01*
X353613Y432387D01*
X357789Y432910D02*
X357789Y429777D01*
X357789Y432910D02*
X357787Y433000D01*
X357781Y433089D01*
X357772Y433179D01*
X357758Y433268D01*
X357741Y433356D01*
X357720Y433443D01*
X357695Y433530D01*
X357666Y433615D01*
X357634Y433699D01*
X357599Y433781D01*
X357559Y433862D01*
X357517Y433941D01*
X357471Y434018D01*
X357421Y434093D01*
X357369Y434166D01*
X357313Y434237D01*
X357255Y434305D01*
X357193Y434370D01*
X357129Y434433D01*
X357062Y434493D01*
X356993Y434550D01*
X356921Y434604D01*
X356847Y434655D01*
X356771Y434703D01*
X356693Y434747D01*
X356613Y434788D01*
X356531Y434826D01*
X356448Y434860D01*
X356363Y434890D01*
X356277Y434917D01*
X356191Y434940D01*
X356103Y434959D01*
X356014Y434974D01*
X355925Y434986D01*
X355836Y434994D01*
X355746Y434998D01*
X355656Y434998D01*
X355566Y434994D01*
X355477Y434986D01*
X355388Y434974D01*
X355299Y434959D01*
X355211Y434940D01*
X355125Y434917D01*
X355039Y434890D01*
X354954Y434860D01*
X354871Y434826D01*
X354789Y434788D01*
X354709Y434747D01*
X354631Y434703D01*
X354555Y434655D01*
X354481Y434604D01*
X354409Y434550D01*
X354340Y434493D01*
X354273Y434433D01*
X354209Y434370D01*
X354147Y434305D01*
X354089Y434237D01*
X354033Y434166D01*
X353981Y434093D01*
X353931Y434018D01*
X353885Y433941D01*
X353843Y433862D01*
X353803Y433781D01*
X353768Y433699D01*
X353736Y433615D01*
X353707Y433530D01*
X353682Y433443D01*
X353661Y433356D01*
X353644Y433268D01*
X353630Y433179D01*
X353621Y433089D01*
X353615Y433000D01*
X353613Y432910D01*
X353613Y430821D01*
D10*
X305768Y330566D02*
X305768Y310436D01*
D12*
X260797Y316555D02*
X258708Y316555D01*
X260797Y316556D02*
X260886Y316558D01*
X260974Y316564D01*
X261062Y316573D01*
X261150Y316586D01*
X261237Y316603D01*
X261323Y316623D01*
X261408Y316648D01*
X261493Y316675D01*
X261576Y316707D01*
X261657Y316741D01*
X261737Y316780D01*
X261815Y316821D01*
X261892Y316866D01*
X261966Y316914D01*
X262039Y316965D01*
X262109Y317019D01*
X262176Y317077D01*
X262242Y317137D01*
X262304Y317199D01*
X262364Y317265D01*
X262422Y317332D01*
X262476Y317402D01*
X262527Y317475D01*
X262575Y317549D01*
X262620Y317626D01*
X262661Y317704D01*
X262700Y317784D01*
X262734Y317865D01*
X262766Y317948D01*
X262793Y318033D01*
X262818Y318118D01*
X262838Y318204D01*
X262855Y318291D01*
X262868Y318379D01*
X262877Y318467D01*
X262883Y318555D01*
X262885Y318644D01*
X262885Y323865D01*
X262883Y323954D01*
X262877Y324042D01*
X262868Y324130D01*
X262855Y324218D01*
X262838Y324305D01*
X262818Y324391D01*
X262793Y324476D01*
X262766Y324561D01*
X262734Y324644D01*
X262700Y324725D01*
X262661Y324805D01*
X262620Y324883D01*
X262575Y324960D01*
X262527Y325034D01*
X262476Y325107D01*
X262422Y325177D01*
X262364Y325244D01*
X262304Y325310D01*
X262242Y325372D01*
X262176Y325432D01*
X262109Y325490D01*
X262039Y325544D01*
X261966Y325595D01*
X261892Y325643D01*
X261815Y325688D01*
X261737Y325729D01*
X261657Y325768D01*
X261576Y325802D01*
X261493Y325834D01*
X261408Y325861D01*
X261323Y325886D01*
X261237Y325906D01*
X261150Y325923D01*
X261062Y325936D01*
X260974Y325945D01*
X260886Y325951D01*
X260797Y325953D01*
X258708Y325953D01*
X253151Y325953D02*
X255239Y318644D01*
X250018Y318644D01*
X251585Y320732D02*
X251585Y316555D01*
D10*
X264081Y362994D02*
X284211Y362994D01*
D12*
X268161Y350085D02*
X268161Y347997D01*
X268163Y347908D01*
X268169Y347820D01*
X268178Y347732D01*
X268191Y347644D01*
X268208Y347557D01*
X268228Y347471D01*
X268253Y347386D01*
X268280Y347301D01*
X268312Y347218D01*
X268346Y347137D01*
X268385Y347057D01*
X268426Y346979D01*
X268471Y346902D01*
X268519Y346828D01*
X268570Y346755D01*
X268624Y346685D01*
X268682Y346618D01*
X268742Y346552D01*
X268804Y346490D01*
X268870Y346430D01*
X268937Y346372D01*
X269007Y346318D01*
X269080Y346267D01*
X269154Y346219D01*
X269231Y346174D01*
X269309Y346133D01*
X269389Y346094D01*
X269470Y346060D01*
X269553Y346028D01*
X269638Y346001D01*
X269723Y345976D01*
X269809Y345956D01*
X269896Y345939D01*
X269984Y345926D01*
X270072Y345917D01*
X270160Y345911D01*
X270249Y345909D01*
X275470Y345909D01*
X275561Y345911D01*
X275652Y345917D01*
X275743Y345927D01*
X275833Y345941D01*
X275922Y345958D01*
X276010Y345980D01*
X276098Y346006D01*
X276184Y346035D01*
X276269Y346068D01*
X276352Y346105D01*
X276434Y346145D01*
X276514Y346189D01*
X276592Y346236D01*
X276668Y346287D01*
X276741Y346340D01*
X276812Y346397D01*
X276881Y346458D01*
X276946Y346521D01*
X277009Y346586D01*
X277069Y346655D01*
X277127Y346726D01*
X277180Y346799D01*
X277231Y346875D01*
X277278Y346953D01*
X277322Y347033D01*
X277362Y347115D01*
X277399Y347198D01*
X277432Y347283D01*
X277461Y347369D01*
X277487Y347457D01*
X277509Y347545D01*
X277526Y347634D01*
X277540Y347724D01*
X277550Y347815D01*
X277556Y347906D01*
X277558Y347997D01*
X277559Y347997D02*
X277559Y350085D01*
X277559Y353554D02*
X276514Y353554D01*
X277559Y353554D02*
X277559Y358775D01*
X268161Y356165D01*
X400088Y295763D02*
X400088Y293674D01*
X400089Y293674D02*
X400091Y293585D01*
X400097Y293497D01*
X400106Y293409D01*
X400119Y293321D01*
X400136Y293234D01*
X400156Y293148D01*
X400181Y293063D01*
X400208Y292978D01*
X400240Y292895D01*
X400274Y292814D01*
X400313Y292734D01*
X400354Y292656D01*
X400399Y292579D01*
X400447Y292505D01*
X400498Y292432D01*
X400552Y292362D01*
X400610Y292295D01*
X400670Y292229D01*
X400732Y292167D01*
X400798Y292107D01*
X400865Y292049D01*
X400935Y291995D01*
X401008Y291944D01*
X401082Y291896D01*
X401159Y291851D01*
X401237Y291810D01*
X401317Y291771D01*
X401398Y291737D01*
X401481Y291705D01*
X401566Y291678D01*
X401651Y291653D01*
X401737Y291633D01*
X401824Y291616D01*
X401912Y291603D01*
X402000Y291594D01*
X402088Y291588D01*
X402177Y291586D01*
X407398Y291586D01*
X407489Y291588D01*
X407580Y291594D01*
X407671Y291604D01*
X407761Y291618D01*
X407850Y291635D01*
X407938Y291657D01*
X408026Y291683D01*
X408112Y291712D01*
X408197Y291745D01*
X408280Y291782D01*
X408362Y291822D01*
X408442Y291866D01*
X408520Y291913D01*
X408596Y291964D01*
X408669Y292017D01*
X408740Y292074D01*
X408809Y292135D01*
X408874Y292198D01*
X408937Y292263D01*
X408997Y292332D01*
X409055Y292403D01*
X409108Y292476D01*
X409159Y292552D01*
X409206Y292630D01*
X409250Y292710D01*
X409290Y292792D01*
X409327Y292875D01*
X409360Y292960D01*
X409389Y293046D01*
X409415Y293134D01*
X409437Y293222D01*
X409454Y293311D01*
X409468Y293401D01*
X409478Y293492D01*
X409484Y293583D01*
X409486Y293674D01*
X409486Y295763D01*
X407398Y299231D02*
X409486Y301842D01*
X400088Y301842D01*
X400088Y299231D02*
X400088Y304453D01*
X370266Y422405D02*
X370266Y424494D01*
X370266Y422405D02*
X370268Y422316D01*
X370274Y422228D01*
X370283Y422140D01*
X370296Y422052D01*
X370313Y421965D01*
X370333Y421879D01*
X370358Y421794D01*
X370385Y421709D01*
X370417Y421626D01*
X370451Y421545D01*
X370490Y421465D01*
X370531Y421387D01*
X370576Y421310D01*
X370624Y421236D01*
X370675Y421163D01*
X370729Y421093D01*
X370787Y421026D01*
X370847Y420960D01*
X370909Y420898D01*
X370975Y420838D01*
X371042Y420780D01*
X371112Y420726D01*
X371185Y420675D01*
X371259Y420627D01*
X371336Y420582D01*
X371414Y420541D01*
X371494Y420502D01*
X371575Y420468D01*
X371658Y420436D01*
X371743Y420409D01*
X371828Y420384D01*
X371914Y420364D01*
X372001Y420347D01*
X372089Y420334D01*
X372177Y420325D01*
X372265Y420319D01*
X372354Y420317D01*
X377576Y420317D01*
X377667Y420319D01*
X377758Y420325D01*
X377849Y420335D01*
X377939Y420349D01*
X378028Y420366D01*
X378116Y420388D01*
X378204Y420414D01*
X378290Y420443D01*
X378375Y420476D01*
X378458Y420513D01*
X378540Y420553D01*
X378620Y420597D01*
X378698Y420644D01*
X378774Y420695D01*
X378847Y420748D01*
X378918Y420805D01*
X378987Y420866D01*
X379052Y420929D01*
X379115Y420994D01*
X379175Y421063D01*
X379233Y421134D01*
X379286Y421207D01*
X379337Y421283D01*
X379384Y421361D01*
X379428Y421441D01*
X379468Y421523D01*
X379505Y421606D01*
X379538Y421691D01*
X379567Y421777D01*
X379593Y421865D01*
X379615Y421953D01*
X379632Y422042D01*
X379646Y422132D01*
X379656Y422223D01*
X379662Y422314D01*
X379664Y422405D01*
X379664Y424494D01*
X370266Y427962D02*
X370266Y430573D01*
X370268Y430674D01*
X370274Y430775D01*
X370284Y430876D01*
X370297Y430976D01*
X370315Y431076D01*
X370336Y431175D01*
X370362Y431273D01*
X370391Y431370D01*
X370423Y431466D01*
X370460Y431560D01*
X370500Y431653D01*
X370544Y431745D01*
X370591Y431834D01*
X370642Y431922D01*
X370696Y432008D01*
X370753Y432091D01*
X370813Y432173D01*
X370877Y432251D01*
X370943Y432328D01*
X371013Y432401D01*
X371085Y432472D01*
X371160Y432540D01*
X371238Y432605D01*
X371318Y432667D01*
X371400Y432726D01*
X371485Y432782D01*
X371572Y432834D01*
X371660Y432883D01*
X371751Y432929D01*
X371843Y432970D01*
X371937Y433009D01*
X372032Y433043D01*
X372128Y433074D01*
X372226Y433101D01*
X372324Y433125D01*
X372424Y433144D01*
X372524Y433160D01*
X372624Y433172D01*
X372725Y433180D01*
X372826Y433184D01*
X372928Y433184D01*
X373029Y433180D01*
X373130Y433172D01*
X373230Y433160D01*
X373330Y433144D01*
X373430Y433125D01*
X373528Y433101D01*
X373626Y433074D01*
X373722Y433043D01*
X373817Y433009D01*
X373911Y432970D01*
X374003Y432929D01*
X374094Y432883D01*
X374183Y432834D01*
X374269Y432782D01*
X374354Y432726D01*
X374436Y432667D01*
X374516Y432605D01*
X374594Y432540D01*
X374669Y432472D01*
X374741Y432401D01*
X374811Y432328D01*
X374877Y432251D01*
X374941Y432173D01*
X375001Y432091D01*
X375058Y432008D01*
X375112Y431922D01*
X375163Y431834D01*
X375210Y431745D01*
X375254Y431653D01*
X375294Y431560D01*
X375331Y431466D01*
X375363Y431370D01*
X375392Y431273D01*
X375418Y431175D01*
X375439Y431076D01*
X375457Y430976D01*
X375470Y430876D01*
X375480Y430775D01*
X375486Y430674D01*
X375488Y430573D01*
X379664Y431095D02*
X379664Y427962D01*
X379664Y431095D02*
X379662Y431185D01*
X379656Y431274D01*
X379647Y431364D01*
X379633Y431453D01*
X379616Y431541D01*
X379595Y431628D01*
X379570Y431715D01*
X379541Y431800D01*
X379509Y431884D01*
X379474Y431966D01*
X379434Y432047D01*
X379392Y432126D01*
X379346Y432203D01*
X379296Y432278D01*
X379244Y432351D01*
X379188Y432422D01*
X379130Y432490D01*
X379068Y432555D01*
X379004Y432618D01*
X378937Y432678D01*
X378868Y432735D01*
X378796Y432789D01*
X378722Y432840D01*
X378646Y432888D01*
X378568Y432932D01*
X378488Y432973D01*
X378406Y433011D01*
X378323Y433045D01*
X378238Y433075D01*
X378152Y433102D01*
X378066Y433125D01*
X377978Y433144D01*
X377889Y433159D01*
X377800Y433171D01*
X377711Y433179D01*
X377621Y433183D01*
X377531Y433183D01*
X377441Y433179D01*
X377352Y433171D01*
X377263Y433159D01*
X377174Y433144D01*
X377086Y433125D01*
X377000Y433102D01*
X376914Y433075D01*
X376829Y433045D01*
X376746Y433011D01*
X376664Y432973D01*
X376584Y432932D01*
X376506Y432888D01*
X376430Y432840D01*
X376356Y432789D01*
X376284Y432735D01*
X376215Y432678D01*
X376148Y432618D01*
X376084Y432555D01*
X376022Y432490D01*
X375964Y432422D01*
X375908Y432351D01*
X375856Y432278D01*
X375806Y432203D01*
X375760Y432126D01*
X375718Y432047D01*
X375678Y431966D01*
X375643Y431884D01*
X375611Y431800D01*
X375582Y431715D01*
X375557Y431628D01*
X375536Y431541D01*
X375519Y431453D01*
X375505Y431364D01*
X375496Y431274D01*
X375490Y431185D01*
X375488Y431095D01*
X375487Y431095D02*
X375487Y429007D01*
X289435Y355724D02*
X289435Y353635D01*
X289436Y353635D02*
X289438Y353546D01*
X289444Y353458D01*
X289453Y353370D01*
X289466Y353282D01*
X289483Y353195D01*
X289503Y353109D01*
X289528Y353024D01*
X289555Y352939D01*
X289587Y352856D01*
X289621Y352775D01*
X289660Y352695D01*
X289701Y352617D01*
X289746Y352540D01*
X289794Y352466D01*
X289845Y352393D01*
X289899Y352323D01*
X289957Y352256D01*
X290017Y352190D01*
X290079Y352128D01*
X290145Y352068D01*
X290212Y352010D01*
X290282Y351956D01*
X290355Y351905D01*
X290429Y351857D01*
X290506Y351812D01*
X290584Y351771D01*
X290664Y351732D01*
X290745Y351698D01*
X290828Y351666D01*
X290913Y351639D01*
X290998Y351614D01*
X291084Y351594D01*
X291171Y351577D01*
X291259Y351564D01*
X291347Y351555D01*
X291435Y351549D01*
X291524Y351547D01*
X296745Y351547D01*
X296836Y351549D01*
X296927Y351555D01*
X297018Y351565D01*
X297108Y351579D01*
X297197Y351596D01*
X297285Y351618D01*
X297373Y351644D01*
X297459Y351673D01*
X297544Y351706D01*
X297627Y351743D01*
X297709Y351783D01*
X297789Y351827D01*
X297867Y351874D01*
X297943Y351925D01*
X298016Y351978D01*
X298087Y352035D01*
X298156Y352096D01*
X298221Y352159D01*
X298284Y352224D01*
X298344Y352293D01*
X298402Y352364D01*
X298455Y352437D01*
X298506Y352513D01*
X298553Y352591D01*
X298597Y352671D01*
X298637Y352753D01*
X298674Y352836D01*
X298707Y352921D01*
X298736Y353007D01*
X298762Y353095D01*
X298784Y353183D01*
X298801Y353272D01*
X298815Y353362D01*
X298825Y353453D01*
X298831Y353544D01*
X298833Y353635D01*
X298833Y355724D01*
X289435Y359193D02*
X289435Y362325D01*
X289436Y362325D02*
X289438Y362414D01*
X289444Y362502D01*
X289453Y362590D01*
X289466Y362678D01*
X289483Y362765D01*
X289503Y362851D01*
X289528Y362936D01*
X289555Y363021D01*
X289587Y363104D01*
X289621Y363185D01*
X289660Y363265D01*
X289701Y363343D01*
X289746Y363420D01*
X289794Y363494D01*
X289845Y363567D01*
X289899Y363637D01*
X289957Y363704D01*
X290017Y363770D01*
X290079Y363832D01*
X290145Y363892D01*
X290212Y363950D01*
X290282Y364004D01*
X290355Y364055D01*
X290429Y364103D01*
X290506Y364148D01*
X290584Y364189D01*
X290664Y364228D01*
X290745Y364262D01*
X290828Y364294D01*
X290913Y364321D01*
X290998Y364346D01*
X291084Y364366D01*
X291171Y364383D01*
X291259Y364396D01*
X291347Y364405D01*
X291435Y364411D01*
X291524Y364413D01*
X291524Y364414D02*
X292568Y364414D01*
X292568Y364413D02*
X292657Y364411D01*
X292745Y364405D01*
X292833Y364396D01*
X292921Y364383D01*
X293008Y364366D01*
X293094Y364346D01*
X293179Y364321D01*
X293264Y364294D01*
X293347Y364262D01*
X293428Y364228D01*
X293508Y364189D01*
X293586Y364148D01*
X293663Y364103D01*
X293737Y364055D01*
X293810Y364004D01*
X293880Y363950D01*
X293947Y363892D01*
X294013Y363832D01*
X294075Y363770D01*
X294135Y363704D01*
X294193Y363637D01*
X294247Y363567D01*
X294298Y363494D01*
X294346Y363420D01*
X294391Y363343D01*
X294432Y363265D01*
X294471Y363185D01*
X294505Y363104D01*
X294537Y363021D01*
X294564Y362936D01*
X294589Y362851D01*
X294609Y362765D01*
X294626Y362678D01*
X294639Y362590D01*
X294648Y362502D01*
X294654Y362414D01*
X294656Y362325D01*
X294657Y362325D02*
X294657Y359193D01*
X298833Y359193D01*
X298833Y364414D01*
X267030Y295634D02*
X264942Y295634D01*
X267030Y295634D02*
X267119Y295636D01*
X267207Y295642D01*
X267295Y295651D01*
X267383Y295664D01*
X267470Y295681D01*
X267556Y295701D01*
X267641Y295726D01*
X267726Y295753D01*
X267809Y295785D01*
X267890Y295819D01*
X267970Y295858D01*
X268048Y295899D01*
X268125Y295944D01*
X268199Y295992D01*
X268272Y296043D01*
X268342Y296097D01*
X268409Y296155D01*
X268475Y296215D01*
X268537Y296277D01*
X268597Y296343D01*
X268655Y296410D01*
X268709Y296480D01*
X268760Y296553D01*
X268808Y296627D01*
X268853Y296704D01*
X268894Y296782D01*
X268933Y296862D01*
X268967Y296943D01*
X268999Y297026D01*
X269026Y297111D01*
X269051Y297196D01*
X269071Y297282D01*
X269088Y297369D01*
X269101Y297457D01*
X269110Y297545D01*
X269116Y297633D01*
X269118Y297722D01*
X269119Y297722D02*
X269119Y302943D01*
X269118Y302943D02*
X269116Y303032D01*
X269110Y303120D01*
X269101Y303208D01*
X269088Y303296D01*
X269071Y303383D01*
X269051Y303469D01*
X269026Y303554D01*
X268999Y303639D01*
X268967Y303722D01*
X268933Y303803D01*
X268894Y303883D01*
X268853Y303961D01*
X268808Y304038D01*
X268760Y304112D01*
X268709Y304185D01*
X268655Y304255D01*
X268597Y304322D01*
X268537Y304388D01*
X268475Y304450D01*
X268409Y304510D01*
X268342Y304568D01*
X268272Y304622D01*
X268199Y304673D01*
X268125Y304721D01*
X268048Y304766D01*
X267970Y304807D01*
X267890Y304846D01*
X267809Y304880D01*
X267726Y304912D01*
X267641Y304939D01*
X267556Y304964D01*
X267470Y304984D01*
X267383Y305001D01*
X267295Y305014D01*
X267207Y305023D01*
X267119Y305029D01*
X267030Y305031D01*
X267030Y305032D02*
X264942Y305032D01*
X261473Y300855D02*
X258340Y300855D01*
X258340Y300854D02*
X258251Y300852D01*
X258163Y300846D01*
X258075Y300837D01*
X257987Y300824D01*
X257900Y300807D01*
X257814Y300787D01*
X257729Y300762D01*
X257644Y300735D01*
X257561Y300703D01*
X257480Y300669D01*
X257400Y300630D01*
X257322Y300589D01*
X257245Y300544D01*
X257171Y300496D01*
X257098Y300445D01*
X257028Y300391D01*
X256961Y300333D01*
X256895Y300273D01*
X256833Y300211D01*
X256773Y300145D01*
X256715Y300078D01*
X256661Y300008D01*
X256610Y299935D01*
X256562Y299861D01*
X256517Y299784D01*
X256476Y299706D01*
X256437Y299626D01*
X256403Y299545D01*
X256371Y299462D01*
X256344Y299377D01*
X256319Y299292D01*
X256299Y299206D01*
X256282Y299119D01*
X256269Y299031D01*
X256260Y298943D01*
X256254Y298855D01*
X256252Y298766D01*
X256252Y298244D01*
X256251Y298244D02*
X256253Y298143D01*
X256259Y298042D01*
X256269Y297941D01*
X256282Y297841D01*
X256300Y297741D01*
X256321Y297642D01*
X256347Y297544D01*
X256376Y297447D01*
X256408Y297351D01*
X256445Y297257D01*
X256485Y297164D01*
X256529Y297072D01*
X256576Y296983D01*
X256627Y296895D01*
X256681Y296809D01*
X256738Y296726D01*
X256798Y296644D01*
X256862Y296566D01*
X256928Y296489D01*
X256998Y296416D01*
X257070Y296345D01*
X257145Y296277D01*
X257223Y296212D01*
X257303Y296150D01*
X257385Y296091D01*
X257470Y296035D01*
X257557Y295983D01*
X257645Y295934D01*
X257736Y295888D01*
X257828Y295847D01*
X257922Y295808D01*
X258017Y295774D01*
X258113Y295743D01*
X258211Y295716D01*
X258309Y295692D01*
X258409Y295673D01*
X258509Y295657D01*
X258609Y295645D01*
X258710Y295637D01*
X258811Y295633D01*
X258913Y295633D01*
X259014Y295637D01*
X259115Y295645D01*
X259215Y295657D01*
X259315Y295673D01*
X259415Y295692D01*
X259513Y295716D01*
X259611Y295743D01*
X259707Y295774D01*
X259802Y295808D01*
X259896Y295847D01*
X259988Y295888D01*
X260079Y295934D01*
X260167Y295983D01*
X260254Y296035D01*
X260339Y296091D01*
X260421Y296150D01*
X260501Y296212D01*
X260579Y296277D01*
X260654Y296345D01*
X260726Y296416D01*
X260796Y296489D01*
X260862Y296566D01*
X260926Y296644D01*
X260986Y296726D01*
X261043Y296809D01*
X261097Y296895D01*
X261148Y296983D01*
X261195Y297072D01*
X261239Y297164D01*
X261279Y297257D01*
X261316Y297351D01*
X261348Y297447D01*
X261377Y297544D01*
X261403Y297642D01*
X261424Y297741D01*
X261442Y297841D01*
X261455Y297941D01*
X261465Y298042D01*
X261471Y298143D01*
X261473Y298244D01*
X261473Y300855D01*
X261471Y300981D01*
X261465Y301107D01*
X261456Y301233D01*
X261443Y301358D01*
X261425Y301483D01*
X261405Y301608D01*
X261380Y301732D01*
X261352Y301855D01*
X261320Y301977D01*
X261284Y302098D01*
X261245Y302218D01*
X261202Y302336D01*
X261155Y302453D01*
X261105Y302569D01*
X261051Y302684D01*
X260995Y302796D01*
X260934Y302907D01*
X260871Y303016D01*
X260804Y303123D01*
X260734Y303228D01*
X260660Y303331D01*
X260584Y303431D01*
X260505Y303529D01*
X260423Y303625D01*
X260337Y303718D01*
X260250Y303809D01*
X260159Y303896D01*
X260066Y303982D01*
X259970Y304064D01*
X259872Y304143D01*
X259772Y304219D01*
X259669Y304293D01*
X259564Y304363D01*
X259457Y304430D01*
X259348Y304493D01*
X259237Y304554D01*
X259125Y304610D01*
X259010Y304664D01*
X258894Y304714D01*
X258777Y304761D01*
X258659Y304804D01*
X258539Y304843D01*
X258418Y304879D01*
X258296Y304911D01*
X258173Y304939D01*
X258049Y304964D01*
X257924Y304984D01*
X257799Y305002D01*
X257674Y305015D01*
X257548Y305024D01*
X257422Y305030D01*
X257296Y305032D01*
X410031Y399110D02*
X412120Y399110D01*
X412120Y399111D02*
X412209Y399113D01*
X412297Y399119D01*
X412385Y399128D01*
X412473Y399141D01*
X412560Y399158D01*
X412646Y399178D01*
X412731Y399203D01*
X412816Y399230D01*
X412899Y399262D01*
X412980Y399296D01*
X413060Y399335D01*
X413138Y399376D01*
X413215Y399421D01*
X413289Y399469D01*
X413362Y399520D01*
X413432Y399574D01*
X413499Y399632D01*
X413565Y399692D01*
X413627Y399754D01*
X413687Y399820D01*
X413745Y399887D01*
X413799Y399957D01*
X413850Y400030D01*
X413898Y400104D01*
X413943Y400181D01*
X413984Y400259D01*
X414023Y400339D01*
X414057Y400420D01*
X414089Y400503D01*
X414116Y400588D01*
X414141Y400673D01*
X414161Y400759D01*
X414178Y400846D01*
X414191Y400934D01*
X414200Y401022D01*
X414206Y401110D01*
X414208Y401199D01*
X414208Y406420D01*
X414206Y406509D01*
X414200Y406597D01*
X414191Y406685D01*
X414178Y406773D01*
X414161Y406860D01*
X414141Y406946D01*
X414116Y407031D01*
X414089Y407116D01*
X414057Y407199D01*
X414023Y407280D01*
X413984Y407360D01*
X413943Y407438D01*
X413898Y407515D01*
X413850Y407589D01*
X413799Y407662D01*
X413745Y407732D01*
X413687Y407799D01*
X413627Y407865D01*
X413565Y407927D01*
X413499Y407987D01*
X413432Y408045D01*
X413362Y408099D01*
X413289Y408150D01*
X413215Y408198D01*
X413138Y408243D01*
X413060Y408284D01*
X412980Y408323D01*
X412899Y408357D01*
X412816Y408389D01*
X412731Y408416D01*
X412646Y408441D01*
X412560Y408461D01*
X412473Y408478D01*
X412385Y408491D01*
X412297Y408500D01*
X412209Y408506D01*
X412120Y408508D01*
X410031Y408508D01*
X404474Y403287D02*
X401341Y403287D01*
X404474Y403288D02*
X404563Y403290D01*
X404651Y403296D01*
X404739Y403305D01*
X404827Y403318D01*
X404914Y403335D01*
X405000Y403355D01*
X405085Y403380D01*
X405170Y403407D01*
X405253Y403439D01*
X405334Y403473D01*
X405414Y403512D01*
X405492Y403553D01*
X405569Y403598D01*
X405643Y403646D01*
X405716Y403697D01*
X405786Y403751D01*
X405853Y403809D01*
X405919Y403869D01*
X405981Y403931D01*
X406041Y403997D01*
X406099Y404064D01*
X406153Y404134D01*
X406204Y404207D01*
X406252Y404281D01*
X406297Y404358D01*
X406338Y404436D01*
X406377Y404516D01*
X406411Y404597D01*
X406443Y404680D01*
X406470Y404765D01*
X406495Y404850D01*
X406515Y404936D01*
X406532Y405023D01*
X406545Y405111D01*
X406554Y405199D01*
X406560Y405287D01*
X406562Y405376D01*
X406562Y405898D01*
X406563Y405898D02*
X406561Y405999D01*
X406555Y406100D01*
X406545Y406201D01*
X406532Y406301D01*
X406514Y406401D01*
X406493Y406500D01*
X406467Y406598D01*
X406438Y406695D01*
X406406Y406791D01*
X406369Y406885D01*
X406329Y406978D01*
X406285Y407070D01*
X406238Y407159D01*
X406187Y407247D01*
X406133Y407333D01*
X406076Y407416D01*
X406016Y407498D01*
X405952Y407576D01*
X405886Y407653D01*
X405816Y407726D01*
X405744Y407797D01*
X405669Y407865D01*
X405591Y407930D01*
X405511Y407992D01*
X405429Y408051D01*
X405344Y408107D01*
X405258Y408159D01*
X405169Y408208D01*
X405078Y408254D01*
X404986Y408295D01*
X404892Y408334D01*
X404797Y408368D01*
X404701Y408399D01*
X404603Y408426D01*
X404505Y408450D01*
X404405Y408469D01*
X404305Y408485D01*
X404205Y408497D01*
X404104Y408505D01*
X404003Y408509D01*
X403901Y408509D01*
X403800Y408505D01*
X403699Y408497D01*
X403599Y408485D01*
X403499Y408469D01*
X403399Y408450D01*
X403301Y408426D01*
X403203Y408399D01*
X403107Y408368D01*
X403012Y408334D01*
X402918Y408295D01*
X402826Y408254D01*
X402735Y408208D01*
X402647Y408159D01*
X402560Y408107D01*
X402475Y408051D01*
X402393Y407992D01*
X402313Y407930D01*
X402235Y407865D01*
X402160Y407797D01*
X402088Y407726D01*
X402018Y407653D01*
X401952Y407576D01*
X401888Y407498D01*
X401828Y407416D01*
X401771Y407333D01*
X401717Y407247D01*
X401666Y407159D01*
X401619Y407070D01*
X401575Y406978D01*
X401535Y406885D01*
X401498Y406791D01*
X401466Y406695D01*
X401437Y406598D01*
X401411Y406500D01*
X401390Y406401D01*
X401372Y406301D01*
X401359Y406201D01*
X401349Y406100D01*
X401343Y405999D01*
X401341Y405898D01*
X401341Y403287D01*
X401343Y403161D01*
X401349Y403035D01*
X401358Y402909D01*
X401371Y402784D01*
X401389Y402659D01*
X401409Y402534D01*
X401434Y402410D01*
X401462Y402287D01*
X401494Y402165D01*
X401530Y402044D01*
X401569Y401924D01*
X401612Y401806D01*
X401659Y401689D01*
X401709Y401573D01*
X401763Y401458D01*
X401819Y401346D01*
X401880Y401235D01*
X401943Y401126D01*
X402010Y401019D01*
X402080Y400914D01*
X402154Y400811D01*
X402230Y400711D01*
X402309Y400613D01*
X402391Y400517D01*
X402477Y400424D01*
X402564Y400333D01*
X402655Y400246D01*
X402748Y400160D01*
X402844Y400078D01*
X402942Y399999D01*
X403042Y399923D01*
X403145Y399849D01*
X403250Y399779D01*
X403357Y399712D01*
X403466Y399649D01*
X403577Y399588D01*
X403689Y399532D01*
X403804Y399478D01*
X403920Y399428D01*
X404037Y399381D01*
X404155Y399338D01*
X404275Y399299D01*
X404396Y399263D01*
X404518Y399231D01*
X404641Y399203D01*
X404765Y399178D01*
X404890Y399158D01*
X405015Y399140D01*
X405140Y399127D01*
X405266Y399118D01*
X405392Y399112D01*
X405518Y399110D01*
X440357Y298003D02*
X449755Y298003D01*
X449755Y300613D01*
X449756Y300613D02*
X449754Y300714D01*
X449748Y300815D01*
X449738Y300916D01*
X449725Y301016D01*
X449707Y301116D01*
X449686Y301215D01*
X449660Y301313D01*
X449631Y301410D01*
X449599Y301506D01*
X449562Y301600D01*
X449522Y301693D01*
X449478Y301785D01*
X449431Y301874D01*
X449380Y301962D01*
X449326Y302048D01*
X449269Y302131D01*
X449209Y302213D01*
X449145Y302291D01*
X449079Y302368D01*
X449009Y302441D01*
X448937Y302512D01*
X448862Y302580D01*
X448784Y302645D01*
X448704Y302707D01*
X448622Y302766D01*
X448537Y302822D01*
X448451Y302874D01*
X448362Y302923D01*
X448271Y302969D01*
X448179Y303010D01*
X448085Y303049D01*
X447990Y303083D01*
X447894Y303114D01*
X447796Y303141D01*
X447698Y303165D01*
X447598Y303184D01*
X447498Y303200D01*
X447398Y303212D01*
X447297Y303220D01*
X447196Y303224D01*
X447094Y303224D01*
X446993Y303220D01*
X446892Y303212D01*
X446792Y303200D01*
X446692Y303184D01*
X446592Y303165D01*
X446494Y303141D01*
X446396Y303114D01*
X446300Y303083D01*
X446205Y303049D01*
X446111Y303010D01*
X446019Y302969D01*
X445928Y302923D01*
X445840Y302874D01*
X445753Y302822D01*
X445668Y302766D01*
X445586Y302707D01*
X445506Y302645D01*
X445428Y302580D01*
X445353Y302512D01*
X445281Y302441D01*
X445211Y302368D01*
X445145Y302291D01*
X445081Y302213D01*
X445021Y302131D01*
X444964Y302048D01*
X444910Y301962D01*
X444859Y301874D01*
X444812Y301785D01*
X444768Y301693D01*
X444728Y301600D01*
X444691Y301506D01*
X444659Y301410D01*
X444630Y301313D01*
X444604Y301215D01*
X444583Y301116D01*
X444565Y301016D01*
X444552Y300916D01*
X444542Y300815D01*
X444536Y300714D01*
X444534Y300613D01*
X444534Y298003D01*
X444534Y301135D02*
X440357Y303224D01*
X447406Y312311D02*
X447501Y312309D01*
X447595Y312303D01*
X447689Y312294D01*
X447783Y312281D01*
X447876Y312264D01*
X447968Y312243D01*
X448060Y312218D01*
X448150Y312190D01*
X448239Y312158D01*
X448327Y312123D01*
X448413Y312084D01*
X448498Y312042D01*
X448581Y311996D01*
X448662Y311947D01*
X448741Y311895D01*
X448818Y311840D01*
X448892Y311781D01*
X448964Y311720D01*
X449034Y311656D01*
X449101Y311589D01*
X449165Y311519D01*
X449226Y311447D01*
X449285Y311373D01*
X449340Y311296D01*
X449392Y311217D01*
X449441Y311136D01*
X449487Y311053D01*
X449529Y310968D01*
X449568Y310882D01*
X449603Y310794D01*
X449635Y310705D01*
X449663Y310615D01*
X449688Y310523D01*
X449709Y310431D01*
X449726Y310338D01*
X449739Y310244D01*
X449748Y310150D01*
X449754Y310056D01*
X449756Y309961D01*
X449755Y309961D02*
X449753Y309853D01*
X449747Y309744D01*
X449737Y309636D01*
X449724Y309529D01*
X449706Y309422D01*
X449685Y309315D01*
X449660Y309210D01*
X449631Y309105D01*
X449599Y309002D01*
X449562Y308900D01*
X449522Y308799D01*
X449479Y308700D01*
X449432Y308602D01*
X449381Y308506D01*
X449327Y308412D01*
X449270Y308320D01*
X449209Y308230D01*
X449145Y308142D01*
X449079Y308057D01*
X449009Y307974D01*
X448936Y307894D01*
X448860Y307816D01*
X448782Y307741D01*
X448701Y307669D01*
X448617Y307600D01*
X448531Y307534D01*
X448443Y307471D01*
X448352Y307412D01*
X448260Y307355D01*
X448165Y307302D01*
X448069Y307253D01*
X447970Y307207D01*
X447871Y307164D01*
X447769Y307125D01*
X447667Y307090D01*
X445578Y311528D02*
X445647Y311597D01*
X445718Y311663D01*
X445791Y311727D01*
X445867Y311788D01*
X445946Y311846D01*
X446026Y311900D01*
X446109Y311952D01*
X446193Y312000D01*
X446279Y312046D01*
X446367Y312087D01*
X446457Y312126D01*
X446548Y312161D01*
X446640Y312192D01*
X446733Y312220D01*
X446827Y312244D01*
X446922Y312264D01*
X447018Y312281D01*
X447115Y312294D01*
X447212Y312303D01*
X447309Y312309D01*
X447406Y312311D01*
X445578Y311528D02*
X440357Y307090D01*
X440357Y312311D01*
M02*
