G04 EAGLE Gerber RS-274X export*
G75*
%MOMM*%
%FSLAX34Y34*%
%LPD*%
%INSilkscreen Top*%
%IPPOS*%
%AMOC8*
5,1,8,0,0,1.08239X$1,22.5*%
G01*
%ADD10C,0.101600*%
%ADD11C,0.152400*%
%ADD12R,0.014731X0.014731*%
%ADD13R,0.147319X0.014731*%
%ADD14R,0.265175X0.014731*%
%ADD15R,0.383031X0.014731*%
%ADD16R,0.515619X0.014731*%
%ADD17R,0.633475X0.014731*%
%ADD18R,0.751331X0.014731*%
%ADD19R,0.883919X0.014731*%
%ADD20R,1.001775X0.014731*%
%ADD21R,1.119631X0.014731*%
%ADD22R,1.134363X0.014731*%
%ADD23R,1.149094X0.014731*%
%ADD24R,1.163825X0.014731*%
%ADD25R,1.178556X0.014731*%
%ADD26R,1.193288X0.014731*%
%ADD27R,1.222756X0.014731*%
%ADD28R,1.237488X0.014731*%
%ADD29R,1.266950X0.014731*%
%ADD30R,1.281681X0.014731*%
%ADD31R,1.311144X0.014731*%
%ADD32R,1.325881X0.014731*%
%ADD33R,1.355344X0.014731*%
%ADD34R,1.370075X0.014731*%
%ADD35R,1.384806X0.014731*%
%ADD36R,1.399538X0.014731*%
%ADD37R,1.414275X0.014731*%
%ADD38R,1.443738X0.014731*%
%ADD39R,1.458469X0.014731*%
%ADD40R,1.487931X0.014731*%
%ADD41R,1.502663X0.014731*%
%ADD42R,1.517394X0.014731*%
%ADD43R,1.532125X0.014731*%
%ADD44R,1.546856X0.014731*%
%ADD45R,1.576319X0.014731*%
%ADD46R,1.605788X0.014731*%
%ADD47R,1.620519X0.014731*%
%ADD48R,1.649981X0.014731*%
%ADD49R,1.664713X0.014731*%
%ADD50R,1.694175X0.014731*%
%ADD51R,1.708913X0.014731*%
%ADD52R,1.738375X0.014731*%
%ADD53R,1.753106X0.014731*%
%ADD54R,1.767838X0.014731*%
%ADD55R,1.782569X0.014731*%
%ADD56R,1.797306X0.014731*%
%ADD57R,0.117856X0.014731*%
%ADD58R,1.826769X0.014731*%
%ADD59R,0.235713X0.014731*%
%ADD60R,0.353569X0.014731*%
%ADD61R,1.856231X0.014731*%
%ADD62R,0.486156X0.014731*%
%ADD63R,1.870963X0.014731*%
%ADD64R,0.604013X0.014731*%
%ADD65R,0.721869X0.014731*%
%ADD66R,1.885694X0.014731*%
%ADD67R,0.839719X0.014731*%
%ADD68R,0.972306X0.014731*%
%ADD69R,1.090169X0.014731*%
%ADD70R,1.208025X0.014731*%
%ADD71R,1.252219X0.014731*%
%ADD72R,1.296412X0.014731*%
%ADD73R,1.340612X0.014731*%
%ADD74R,1.826763X0.014731*%
%ADD75R,1.414269X0.014731*%
%ADD76R,1.812031X0.014731*%
%ADD77R,1.429000X0.014731*%
%ADD78R,1.458462X0.014731*%
%ADD79R,1.473200X0.014731*%
%ADD80R,1.723644X0.014731*%
%ADD81R,1.694181X0.014731*%
%ADD82R,1.679450X0.014731*%
%ADD83R,1.561594X0.014731*%
%ADD84R,1.576325X0.014731*%
%ADD85R,1.591056X0.014731*%
%ADD86R,1.635250X0.014731*%
%ADD87R,1.561588X0.014731*%
%ADD88R,1.443731X0.014731*%
%ADD89R,1.797300X0.014731*%
%ADD90R,1.841500X0.014731*%
%ADD91R,1.311150X0.014731*%
%ADD92R,1.296419X0.014731*%
%ADD93R,1.193294X0.014731*%
%ADD94R,0.957575X0.014731*%
%ADD95R,0.589281X0.014731*%
%ADD96R,0.471425X0.014731*%
%ADD97R,0.220975X0.014731*%
%ADD98R,1.812038X0.014731*%
%ADD99R,0.103119X0.014731*%
%ADD100R,0.029463X0.014731*%
%ADD101R,0.162050X0.014731*%
%ADD102R,0.397763X0.014731*%
%ADD103R,0.648206X0.014731*%
%ADD104R,1.679444X0.014731*%
%ADD105R,1.016506X0.014731*%
%ADD106R,1.104900X0.014731*%
%ADD107R,1.222750X0.014731*%
%ADD108R,1.429006X0.014731*%
%ADD109R,1.208019X0.014731*%
%ADD110R,0.987044X0.014731*%
%ADD111R,0.854456X0.014731*%
%ADD112R,0.618744X0.014731*%
%ADD113R,0.500888X0.014731*%
%ADD114R,0.368300X0.014731*%
%ADD115R,0.132587X0.014731*%
%ADD116R,1.664719X0.014731*%
%ADD117R,1.075438X0.014731*%
%ADD118R,0.942844X0.014731*%
%ADD119R,0.707131X0.014731*%
%ADD120R,0.456694X0.014731*%
%ADD121R,0.088388X0.014731*%
%ADD122C,0.127000*%
%ADD123C,0.076200*%
%ADD124C,0.200000*%

G36*
X384734Y255021D02*
X384734Y255021D01*
X384756Y255019D01*
X384831Y255041D01*
X384909Y255056D01*
X384927Y255069D01*
X384948Y255075D01*
X385009Y255125D01*
X385074Y255169D01*
X385086Y255188D01*
X385104Y255202D01*
X385141Y255271D01*
X385184Y255337D01*
X385187Y255359D01*
X385198Y255378D01*
X385205Y255457D01*
X385219Y255534D01*
X385214Y255556D01*
X385216Y255578D01*
X385187Y255677D01*
X385176Y255730D01*
X385169Y255739D01*
X385166Y255751D01*
X381991Y262101D01*
X381949Y262154D01*
X381915Y262212D01*
X381888Y262232D01*
X381867Y262259D01*
X381809Y262292D01*
X381755Y262332D01*
X381722Y262340D01*
X381693Y262357D01*
X381626Y262364D01*
X381560Y262381D01*
X381527Y262376D01*
X381493Y262379D01*
X381429Y262360D01*
X381362Y262350D01*
X381333Y262332D01*
X381301Y262323D01*
X381249Y262280D01*
X381191Y262245D01*
X381169Y262216D01*
X381145Y262197D01*
X381122Y262153D01*
X381083Y262101D01*
X377908Y255751D01*
X377903Y255729D01*
X377890Y255711D01*
X377876Y255633D01*
X377856Y255557D01*
X377859Y255535D01*
X377855Y255514D01*
X377872Y255437D01*
X377882Y255359D01*
X377894Y255340D01*
X377898Y255318D01*
X377944Y255254D01*
X377984Y255186D01*
X378002Y255173D01*
X378014Y255155D01*
X378081Y255113D01*
X378144Y255066D01*
X378166Y255060D01*
X378185Y255049D01*
X378286Y255030D01*
X378339Y255017D01*
X378350Y255019D01*
X378362Y255017D01*
X384712Y255017D01*
X384734Y255021D01*
G37*
D10*
X403428Y475532D02*
X406086Y473670D01*
X406180Y473607D01*
X406276Y473547D01*
X406374Y473490D01*
X406474Y473437D01*
X406576Y473387D01*
X406680Y473341D01*
X406785Y473299D01*
X406891Y473260D01*
X406999Y473225D01*
X407108Y473194D01*
X407218Y473166D01*
X407329Y473143D01*
X407440Y473123D01*
X407552Y473107D01*
X407665Y473095D01*
X407778Y473087D01*
X407891Y473083D01*
X408005Y473083D01*
X408118Y473087D01*
X408231Y473095D01*
X408344Y473107D01*
X408456Y473123D01*
X408567Y473143D01*
X408678Y473166D01*
X408788Y473194D01*
X408897Y473225D01*
X409005Y473260D01*
X409111Y473299D01*
X409216Y473341D01*
X409320Y473387D01*
X409422Y473437D01*
X409522Y473490D01*
X409620Y473547D01*
X409716Y473607D01*
X409810Y473670D01*
X409901Y473737D01*
X409991Y473806D01*
X410078Y473879D01*
X410162Y473955D01*
X410243Y474034D01*
X410322Y474115D01*
X410398Y474199D01*
X410471Y474286D01*
X410540Y474376D01*
X410607Y474467D01*
X410670Y474561D01*
X410730Y474657D01*
X410787Y474755D01*
X410840Y474855D01*
X410890Y474957D01*
X410936Y475061D01*
X410978Y475166D01*
X411017Y475272D01*
X411052Y475380D01*
X411083Y475489D01*
X411111Y475599D01*
X411134Y475710D01*
X411154Y475821D01*
X411170Y475933D01*
X411182Y476046D01*
X411190Y476159D01*
X411194Y476272D01*
X411194Y476386D01*
X411190Y476499D01*
X411182Y476612D01*
X411170Y476725D01*
X411154Y476837D01*
X411134Y476948D01*
X411111Y477059D01*
X411083Y477169D01*
X411052Y477278D01*
X411017Y477386D01*
X410978Y477492D01*
X410936Y477597D01*
X410890Y477701D01*
X410840Y477803D01*
X410787Y477903D01*
X410730Y478001D01*
X410670Y478097D01*
X410607Y478191D01*
X410540Y478282D01*
X410471Y478372D01*
X410398Y478459D01*
X410322Y478543D01*
X410243Y478624D01*
X410162Y478703D01*
X410078Y478779D01*
X409991Y478852D01*
X409902Y478921D01*
X409810Y478988D01*
X413320Y482869D02*
X410129Y485103D01*
X413319Y482869D02*
X413400Y482809D01*
X413479Y482747D01*
X413556Y482681D01*
X413630Y482613D01*
X413701Y482542D01*
X413769Y482468D01*
X413835Y482391D01*
X413897Y482312D01*
X413957Y482231D01*
X414013Y482147D01*
X414066Y482062D01*
X414115Y481974D01*
X414161Y481885D01*
X414204Y481793D01*
X414243Y481700D01*
X414278Y481606D01*
X414310Y481511D01*
X414338Y481414D01*
X414362Y481316D01*
X414382Y481218D01*
X414399Y481118D01*
X414411Y481018D01*
X414420Y480918D01*
X414425Y480818D01*
X414426Y480717D01*
X414423Y480616D01*
X414416Y480516D01*
X414405Y480416D01*
X414391Y480316D01*
X414372Y480217D01*
X414350Y480119D01*
X414324Y480022D01*
X414294Y479925D01*
X414261Y479831D01*
X414224Y479737D01*
X414183Y479645D01*
X414138Y479554D01*
X414091Y479466D01*
X414039Y479379D01*
X413985Y479295D01*
X413927Y479212D01*
X413866Y479132D01*
X413802Y479054D01*
X413735Y478979D01*
X413666Y478906D01*
X413593Y478837D01*
X413518Y478770D01*
X413440Y478706D01*
X413360Y478645D01*
X413277Y478587D01*
X413193Y478533D01*
X413106Y478481D01*
X413018Y478434D01*
X412927Y478389D01*
X412835Y478348D01*
X412741Y478311D01*
X412647Y478278D01*
X412550Y478248D01*
X412453Y478222D01*
X412355Y478200D01*
X412256Y478181D01*
X412156Y478167D01*
X412056Y478156D01*
X411956Y478149D01*
X411855Y478146D01*
X411754Y478147D01*
X411654Y478152D01*
X411554Y478161D01*
X411454Y478173D01*
X411354Y478190D01*
X411256Y478210D01*
X411158Y478234D01*
X411061Y478262D01*
X410966Y478294D01*
X410872Y478329D01*
X410779Y478368D01*
X410687Y478411D01*
X410598Y478457D01*
X410510Y478506D01*
X410425Y478559D01*
X410341Y478615D01*
X408214Y480105D01*
X418960Y478919D02*
X415449Y467114D01*
X425341Y474452D01*
X422153Y462420D02*
X424812Y460558D01*
X424906Y460495D01*
X425002Y460435D01*
X425100Y460378D01*
X425200Y460325D01*
X425302Y460275D01*
X425406Y460229D01*
X425511Y460187D01*
X425617Y460148D01*
X425725Y460113D01*
X425834Y460082D01*
X425944Y460054D01*
X426055Y460031D01*
X426166Y460011D01*
X426278Y459995D01*
X426391Y459983D01*
X426504Y459975D01*
X426617Y459971D01*
X426731Y459971D01*
X426844Y459975D01*
X426957Y459983D01*
X427070Y459995D01*
X427182Y460011D01*
X427293Y460031D01*
X427404Y460054D01*
X427514Y460082D01*
X427623Y460113D01*
X427731Y460148D01*
X427837Y460187D01*
X427942Y460229D01*
X428046Y460275D01*
X428148Y460325D01*
X428248Y460378D01*
X428346Y460435D01*
X428442Y460495D01*
X428536Y460558D01*
X428627Y460625D01*
X428717Y460694D01*
X428804Y460767D01*
X428888Y460843D01*
X428969Y460922D01*
X429048Y461003D01*
X429124Y461087D01*
X429197Y461174D01*
X429266Y461264D01*
X429333Y461355D01*
X429396Y461449D01*
X429456Y461545D01*
X429513Y461643D01*
X429566Y461743D01*
X429616Y461845D01*
X429662Y461949D01*
X429704Y462054D01*
X429743Y462160D01*
X429778Y462268D01*
X429809Y462377D01*
X429837Y462487D01*
X429860Y462598D01*
X429880Y462709D01*
X429896Y462821D01*
X429908Y462934D01*
X429916Y463047D01*
X429920Y463160D01*
X429920Y463274D01*
X429916Y463387D01*
X429908Y463500D01*
X429896Y463613D01*
X429880Y463725D01*
X429860Y463836D01*
X429837Y463947D01*
X429809Y464057D01*
X429778Y464166D01*
X429743Y464274D01*
X429704Y464380D01*
X429662Y464485D01*
X429616Y464589D01*
X429566Y464691D01*
X429513Y464791D01*
X429456Y464889D01*
X429396Y464985D01*
X429333Y465079D01*
X429266Y465170D01*
X429197Y465260D01*
X429124Y465347D01*
X429048Y465431D01*
X428969Y465512D01*
X428888Y465591D01*
X428804Y465667D01*
X428717Y465740D01*
X428628Y465809D01*
X428536Y465876D01*
X432045Y469757D02*
X428855Y471991D01*
X432045Y469757D02*
X432126Y469697D01*
X432205Y469635D01*
X432282Y469569D01*
X432356Y469501D01*
X432427Y469430D01*
X432495Y469356D01*
X432561Y469279D01*
X432623Y469200D01*
X432683Y469119D01*
X432739Y469035D01*
X432792Y468950D01*
X432841Y468862D01*
X432887Y468773D01*
X432930Y468681D01*
X432969Y468588D01*
X433004Y468494D01*
X433036Y468399D01*
X433064Y468302D01*
X433088Y468204D01*
X433108Y468106D01*
X433125Y468006D01*
X433137Y467906D01*
X433146Y467806D01*
X433151Y467706D01*
X433152Y467605D01*
X433149Y467504D01*
X433142Y467404D01*
X433131Y467304D01*
X433117Y467204D01*
X433098Y467105D01*
X433076Y467007D01*
X433050Y466910D01*
X433020Y466813D01*
X432987Y466719D01*
X432950Y466625D01*
X432909Y466533D01*
X432864Y466442D01*
X432817Y466354D01*
X432765Y466267D01*
X432711Y466183D01*
X432653Y466100D01*
X432592Y466020D01*
X432528Y465942D01*
X432461Y465867D01*
X432392Y465794D01*
X432319Y465725D01*
X432244Y465658D01*
X432166Y465594D01*
X432086Y465533D01*
X432003Y465475D01*
X431919Y465421D01*
X431832Y465369D01*
X431744Y465322D01*
X431653Y465277D01*
X431561Y465236D01*
X431467Y465199D01*
X431373Y465166D01*
X431276Y465136D01*
X431179Y465110D01*
X431081Y465088D01*
X430982Y465069D01*
X430882Y465055D01*
X430782Y465044D01*
X430682Y465037D01*
X430581Y465034D01*
X430480Y465035D01*
X430380Y465040D01*
X430280Y465049D01*
X430180Y465061D01*
X430080Y465078D01*
X429982Y465098D01*
X429884Y465122D01*
X429787Y465150D01*
X429692Y465182D01*
X429598Y465217D01*
X429505Y465256D01*
X429413Y465299D01*
X429324Y465345D01*
X429236Y465394D01*
X429151Y465447D01*
X429067Y465503D01*
X426940Y466993D01*
X497242Y334770D02*
X497242Y331524D01*
X497242Y334770D02*
X497240Y334883D01*
X497234Y334996D01*
X497224Y335109D01*
X497210Y335222D01*
X497193Y335334D01*
X497171Y335445D01*
X497146Y335555D01*
X497116Y335665D01*
X497083Y335773D01*
X497046Y335880D01*
X497006Y335986D01*
X496961Y336090D01*
X496913Y336193D01*
X496862Y336294D01*
X496807Y336393D01*
X496749Y336490D01*
X496687Y336585D01*
X496622Y336678D01*
X496554Y336768D01*
X496483Y336856D01*
X496408Y336942D01*
X496331Y337025D01*
X496251Y337105D01*
X496168Y337182D01*
X496082Y337257D01*
X495994Y337328D01*
X495904Y337396D01*
X495811Y337461D01*
X495716Y337523D01*
X495619Y337581D01*
X495520Y337636D01*
X495419Y337687D01*
X495316Y337735D01*
X495212Y337780D01*
X495106Y337820D01*
X494999Y337857D01*
X494891Y337890D01*
X494781Y337920D01*
X494671Y337945D01*
X494560Y337967D01*
X494448Y337984D01*
X494335Y337998D01*
X494222Y338008D01*
X494109Y338014D01*
X493996Y338016D01*
X493883Y338014D01*
X493770Y338008D01*
X493657Y337998D01*
X493544Y337984D01*
X493432Y337967D01*
X493321Y337945D01*
X493211Y337920D01*
X493101Y337890D01*
X492993Y337857D01*
X492886Y337820D01*
X492780Y337780D01*
X492676Y337735D01*
X492573Y337687D01*
X492472Y337636D01*
X492373Y337581D01*
X492276Y337523D01*
X492181Y337461D01*
X492088Y337396D01*
X491998Y337328D01*
X491910Y337257D01*
X491824Y337182D01*
X491741Y337105D01*
X491661Y337025D01*
X491584Y336942D01*
X491509Y336856D01*
X491438Y336768D01*
X491370Y336678D01*
X491305Y336585D01*
X491243Y336490D01*
X491185Y336393D01*
X491130Y336294D01*
X491079Y336193D01*
X491031Y336090D01*
X490986Y335986D01*
X490946Y335880D01*
X490909Y335773D01*
X490876Y335665D01*
X490846Y335555D01*
X490821Y335445D01*
X490799Y335334D01*
X490782Y335222D01*
X490768Y335109D01*
X490758Y334996D01*
X490752Y334883D01*
X490750Y334770D01*
X485558Y335419D02*
X485558Y331524D01*
X485558Y335419D02*
X485560Y335520D01*
X485566Y335620D01*
X485576Y335720D01*
X485589Y335820D01*
X485607Y335919D01*
X485628Y336018D01*
X485653Y336115D01*
X485682Y336212D01*
X485715Y336307D01*
X485751Y336401D01*
X485791Y336493D01*
X485834Y336584D01*
X485881Y336673D01*
X485931Y336760D01*
X485985Y336846D01*
X486042Y336929D01*
X486102Y337009D01*
X486165Y337088D01*
X486232Y337164D01*
X486301Y337237D01*
X486373Y337307D01*
X486447Y337375D01*
X486524Y337440D01*
X486604Y337501D01*
X486686Y337560D01*
X486770Y337615D01*
X486856Y337667D01*
X486944Y337716D01*
X487034Y337761D01*
X487126Y337803D01*
X487219Y337841D01*
X487314Y337875D01*
X487409Y337906D01*
X487506Y337933D01*
X487604Y337956D01*
X487703Y337976D01*
X487803Y337991D01*
X487903Y338003D01*
X488003Y338011D01*
X488104Y338015D01*
X488204Y338015D01*
X488305Y338011D01*
X488405Y338003D01*
X488505Y337991D01*
X488605Y337976D01*
X488704Y337956D01*
X488802Y337933D01*
X488899Y337906D01*
X488994Y337875D01*
X489089Y337841D01*
X489182Y337803D01*
X489274Y337761D01*
X489364Y337716D01*
X489452Y337667D01*
X489538Y337615D01*
X489622Y337560D01*
X489704Y337501D01*
X489784Y337440D01*
X489861Y337375D01*
X489935Y337307D01*
X490007Y337237D01*
X490076Y337164D01*
X490143Y337088D01*
X490206Y337009D01*
X490266Y336929D01*
X490323Y336846D01*
X490377Y336760D01*
X490427Y336673D01*
X490474Y336584D01*
X490517Y336493D01*
X490557Y336401D01*
X490593Y336307D01*
X490626Y336212D01*
X490655Y336115D01*
X490680Y336018D01*
X490701Y335919D01*
X490719Y335820D01*
X490732Y335720D01*
X490742Y335620D01*
X490748Y335520D01*
X490750Y335419D01*
X490751Y335419D02*
X490751Y332823D01*
X485558Y342305D02*
X497242Y346200D01*
X485558Y350095D01*
X497242Y354384D02*
X497242Y357630D01*
X497240Y357743D01*
X497234Y357856D01*
X497224Y357969D01*
X497210Y358082D01*
X497193Y358194D01*
X497171Y358305D01*
X497146Y358415D01*
X497116Y358525D01*
X497083Y358633D01*
X497046Y358740D01*
X497006Y358846D01*
X496961Y358950D01*
X496913Y359053D01*
X496862Y359154D01*
X496807Y359253D01*
X496749Y359350D01*
X496687Y359445D01*
X496622Y359538D01*
X496554Y359628D01*
X496483Y359716D01*
X496408Y359802D01*
X496331Y359885D01*
X496251Y359965D01*
X496168Y360042D01*
X496082Y360117D01*
X495994Y360188D01*
X495904Y360256D01*
X495811Y360321D01*
X495716Y360383D01*
X495619Y360441D01*
X495520Y360496D01*
X495419Y360547D01*
X495316Y360595D01*
X495212Y360640D01*
X495106Y360680D01*
X494999Y360717D01*
X494891Y360750D01*
X494781Y360780D01*
X494671Y360805D01*
X494560Y360827D01*
X494448Y360844D01*
X494335Y360858D01*
X494222Y360868D01*
X494109Y360874D01*
X493996Y360876D01*
X493883Y360874D01*
X493770Y360868D01*
X493657Y360858D01*
X493544Y360844D01*
X493432Y360827D01*
X493321Y360805D01*
X493211Y360780D01*
X493101Y360750D01*
X492993Y360717D01*
X492886Y360680D01*
X492780Y360640D01*
X492676Y360595D01*
X492573Y360547D01*
X492472Y360496D01*
X492373Y360441D01*
X492276Y360383D01*
X492181Y360321D01*
X492088Y360256D01*
X491998Y360188D01*
X491910Y360117D01*
X491824Y360042D01*
X491741Y359965D01*
X491661Y359885D01*
X491584Y359802D01*
X491509Y359716D01*
X491438Y359628D01*
X491370Y359538D01*
X491305Y359445D01*
X491243Y359350D01*
X491185Y359253D01*
X491130Y359154D01*
X491079Y359053D01*
X491031Y358950D01*
X490986Y358846D01*
X490946Y358740D01*
X490909Y358633D01*
X490876Y358525D01*
X490846Y358415D01*
X490821Y358305D01*
X490799Y358194D01*
X490782Y358082D01*
X490768Y357969D01*
X490758Y357856D01*
X490752Y357743D01*
X490750Y357630D01*
X485558Y358279D02*
X485558Y354384D01*
X485558Y358279D02*
X485560Y358380D01*
X485566Y358480D01*
X485576Y358580D01*
X485589Y358680D01*
X485607Y358779D01*
X485628Y358878D01*
X485653Y358975D01*
X485682Y359072D01*
X485715Y359167D01*
X485751Y359261D01*
X485791Y359353D01*
X485834Y359444D01*
X485881Y359533D01*
X485931Y359620D01*
X485985Y359706D01*
X486042Y359789D01*
X486102Y359869D01*
X486165Y359948D01*
X486232Y360024D01*
X486301Y360097D01*
X486373Y360167D01*
X486447Y360235D01*
X486524Y360300D01*
X486604Y360361D01*
X486686Y360420D01*
X486770Y360475D01*
X486856Y360527D01*
X486944Y360576D01*
X487034Y360621D01*
X487126Y360663D01*
X487219Y360701D01*
X487314Y360735D01*
X487409Y360766D01*
X487506Y360793D01*
X487604Y360816D01*
X487703Y360836D01*
X487803Y360851D01*
X487903Y360863D01*
X488003Y360871D01*
X488104Y360875D01*
X488204Y360875D01*
X488305Y360871D01*
X488405Y360863D01*
X488505Y360851D01*
X488605Y360836D01*
X488704Y360816D01*
X488802Y360793D01*
X488899Y360766D01*
X488994Y360735D01*
X489089Y360701D01*
X489182Y360663D01*
X489274Y360621D01*
X489364Y360576D01*
X489452Y360527D01*
X489538Y360475D01*
X489622Y360420D01*
X489704Y360361D01*
X489784Y360300D01*
X489861Y360235D01*
X489935Y360167D01*
X490007Y360097D01*
X490076Y360024D01*
X490143Y359948D01*
X490206Y359869D01*
X490266Y359789D01*
X490323Y359706D01*
X490377Y359620D01*
X490427Y359533D01*
X490474Y359444D01*
X490517Y359353D01*
X490557Y359261D01*
X490593Y359167D01*
X490626Y359072D01*
X490655Y358975D01*
X490680Y358878D01*
X490701Y358779D01*
X490719Y358680D01*
X490732Y358580D01*
X490742Y358480D01*
X490748Y358380D01*
X490750Y358279D01*
X490751Y358279D02*
X490751Y355683D01*
X412788Y209159D02*
X410129Y207297D01*
X412788Y209158D02*
X412879Y209225D01*
X412969Y209294D01*
X413056Y209367D01*
X413140Y209443D01*
X413221Y209522D01*
X413300Y209603D01*
X413376Y209687D01*
X413449Y209774D01*
X413518Y209864D01*
X413585Y209955D01*
X413648Y210049D01*
X413708Y210145D01*
X413765Y210243D01*
X413818Y210343D01*
X413868Y210445D01*
X413914Y210549D01*
X413956Y210654D01*
X413995Y210760D01*
X414030Y210868D01*
X414061Y210977D01*
X414089Y211087D01*
X414112Y211198D01*
X414132Y211309D01*
X414148Y211421D01*
X414160Y211534D01*
X414168Y211647D01*
X414172Y211760D01*
X414172Y211874D01*
X414168Y211987D01*
X414160Y212100D01*
X414148Y212213D01*
X414132Y212325D01*
X414112Y212436D01*
X414089Y212547D01*
X414061Y212657D01*
X414030Y212766D01*
X413995Y212874D01*
X413956Y212980D01*
X413914Y213085D01*
X413868Y213189D01*
X413818Y213291D01*
X413765Y213391D01*
X413708Y213489D01*
X413648Y213585D01*
X413585Y213679D01*
X413518Y213770D01*
X413449Y213860D01*
X413376Y213947D01*
X413300Y214031D01*
X413221Y214112D01*
X413140Y214191D01*
X413056Y214267D01*
X412969Y214340D01*
X412880Y214409D01*
X412788Y214476D01*
X412694Y214539D01*
X412598Y214599D01*
X412500Y214656D01*
X412400Y214709D01*
X412298Y214759D01*
X412194Y214805D01*
X412089Y214847D01*
X411983Y214886D01*
X411875Y214921D01*
X411766Y214952D01*
X411656Y214980D01*
X411545Y215003D01*
X411434Y215023D01*
X411322Y215039D01*
X411209Y215051D01*
X411096Y215059D01*
X410983Y215063D01*
X410869Y215063D01*
X410756Y215059D01*
X410643Y215051D01*
X410530Y215039D01*
X410418Y215023D01*
X410307Y215003D01*
X410196Y214980D01*
X410086Y214952D01*
X409977Y214921D01*
X409869Y214886D01*
X409763Y214847D01*
X409658Y214805D01*
X409554Y214759D01*
X409452Y214709D01*
X409352Y214656D01*
X409254Y214599D01*
X409158Y214539D01*
X409064Y214476D01*
X406618Y219102D02*
X403428Y216868D01*
X406618Y219102D02*
X406702Y219158D01*
X406787Y219211D01*
X406875Y219260D01*
X406964Y219306D01*
X407056Y219349D01*
X407149Y219388D01*
X407243Y219423D01*
X407338Y219455D01*
X407435Y219483D01*
X407533Y219507D01*
X407631Y219527D01*
X407731Y219544D01*
X407831Y219556D01*
X407931Y219565D01*
X408032Y219570D01*
X408132Y219571D01*
X408233Y219568D01*
X408333Y219561D01*
X408433Y219550D01*
X408533Y219536D01*
X408632Y219517D01*
X408730Y219495D01*
X408827Y219469D01*
X408924Y219439D01*
X409019Y219406D01*
X409112Y219369D01*
X409204Y219328D01*
X409295Y219283D01*
X409383Y219236D01*
X409470Y219184D01*
X409554Y219130D01*
X409637Y219072D01*
X409717Y219011D01*
X409795Y218947D01*
X409870Y218880D01*
X409943Y218811D01*
X410012Y218738D01*
X410079Y218663D01*
X410143Y218585D01*
X410204Y218505D01*
X410262Y218422D01*
X410316Y218338D01*
X410368Y218251D01*
X410415Y218163D01*
X410460Y218072D01*
X410501Y217980D01*
X410538Y217886D01*
X410571Y217792D01*
X410601Y217695D01*
X410627Y217598D01*
X410649Y217500D01*
X410668Y217401D01*
X410682Y217301D01*
X410693Y217201D01*
X410700Y217101D01*
X410703Y217000D01*
X410702Y216900D01*
X410697Y216799D01*
X410688Y216699D01*
X410676Y216599D01*
X410659Y216499D01*
X410639Y216401D01*
X410615Y216303D01*
X410587Y216206D01*
X410555Y216111D01*
X410520Y216017D01*
X410481Y215924D01*
X410438Y215832D01*
X410392Y215743D01*
X410343Y215655D01*
X410290Y215570D01*
X410234Y215486D01*
X410174Y215405D01*
X410112Y215326D01*
X410046Y215249D01*
X409978Y215175D01*
X409907Y215104D01*
X409833Y215036D01*
X409756Y214970D01*
X409677Y214908D01*
X409596Y214848D01*
X407470Y213359D01*
X412259Y223052D02*
X422151Y215714D01*
X418639Y227519D01*
X428855Y220409D02*
X431514Y222270D01*
X431605Y222337D01*
X431695Y222406D01*
X431782Y222479D01*
X431866Y222555D01*
X431947Y222634D01*
X432026Y222715D01*
X432102Y222799D01*
X432175Y222886D01*
X432244Y222976D01*
X432311Y223067D01*
X432374Y223161D01*
X432434Y223257D01*
X432491Y223355D01*
X432544Y223455D01*
X432594Y223557D01*
X432640Y223661D01*
X432682Y223766D01*
X432721Y223872D01*
X432756Y223980D01*
X432787Y224089D01*
X432815Y224199D01*
X432838Y224310D01*
X432858Y224421D01*
X432874Y224533D01*
X432886Y224646D01*
X432894Y224759D01*
X432898Y224872D01*
X432898Y224986D01*
X432894Y225099D01*
X432886Y225212D01*
X432874Y225325D01*
X432858Y225437D01*
X432838Y225548D01*
X432815Y225659D01*
X432787Y225769D01*
X432756Y225878D01*
X432721Y225986D01*
X432682Y226092D01*
X432640Y226197D01*
X432594Y226301D01*
X432544Y226403D01*
X432491Y226503D01*
X432434Y226601D01*
X432374Y226697D01*
X432311Y226791D01*
X432244Y226882D01*
X432175Y226972D01*
X432102Y227059D01*
X432026Y227143D01*
X431947Y227224D01*
X431866Y227303D01*
X431782Y227379D01*
X431695Y227452D01*
X431606Y227521D01*
X431514Y227588D01*
X431420Y227651D01*
X431324Y227711D01*
X431226Y227768D01*
X431126Y227821D01*
X431024Y227871D01*
X430920Y227917D01*
X430815Y227959D01*
X430709Y227998D01*
X430601Y228033D01*
X430492Y228064D01*
X430382Y228092D01*
X430271Y228115D01*
X430160Y228135D01*
X430048Y228151D01*
X429935Y228163D01*
X429822Y228171D01*
X429709Y228175D01*
X429595Y228175D01*
X429482Y228171D01*
X429369Y228163D01*
X429256Y228151D01*
X429144Y228135D01*
X429033Y228115D01*
X428922Y228092D01*
X428812Y228064D01*
X428703Y228033D01*
X428595Y227998D01*
X428489Y227959D01*
X428384Y227917D01*
X428280Y227871D01*
X428178Y227821D01*
X428078Y227768D01*
X427980Y227711D01*
X427884Y227651D01*
X427790Y227588D01*
X425344Y232214D02*
X422153Y229980D01*
X425344Y232214D02*
X425428Y232270D01*
X425513Y232323D01*
X425601Y232372D01*
X425690Y232418D01*
X425782Y232461D01*
X425875Y232500D01*
X425969Y232535D01*
X426064Y232567D01*
X426161Y232595D01*
X426259Y232619D01*
X426357Y232639D01*
X426457Y232656D01*
X426557Y232668D01*
X426657Y232677D01*
X426758Y232682D01*
X426858Y232683D01*
X426959Y232680D01*
X427059Y232673D01*
X427159Y232662D01*
X427259Y232648D01*
X427358Y232629D01*
X427456Y232607D01*
X427553Y232581D01*
X427650Y232551D01*
X427745Y232518D01*
X427838Y232481D01*
X427930Y232440D01*
X428021Y232395D01*
X428109Y232348D01*
X428196Y232296D01*
X428280Y232242D01*
X428363Y232184D01*
X428443Y232123D01*
X428521Y232059D01*
X428596Y231992D01*
X428669Y231923D01*
X428738Y231850D01*
X428805Y231775D01*
X428869Y231697D01*
X428930Y231617D01*
X428988Y231534D01*
X429042Y231450D01*
X429094Y231363D01*
X429141Y231275D01*
X429186Y231184D01*
X429227Y231092D01*
X429264Y230998D01*
X429297Y230904D01*
X429327Y230807D01*
X429353Y230710D01*
X429375Y230612D01*
X429394Y230513D01*
X429408Y230413D01*
X429419Y230313D01*
X429426Y230213D01*
X429429Y230112D01*
X429428Y230012D01*
X429423Y229911D01*
X429414Y229811D01*
X429402Y229711D01*
X429385Y229611D01*
X429365Y229513D01*
X429341Y229415D01*
X429313Y229318D01*
X429281Y229223D01*
X429246Y229129D01*
X429207Y229036D01*
X429164Y228944D01*
X429118Y228855D01*
X429069Y228767D01*
X429016Y228682D01*
X428960Y228598D01*
X428900Y228517D01*
X428838Y228438D01*
X428772Y228361D01*
X428704Y228287D01*
X428633Y228216D01*
X428559Y228148D01*
X428482Y228082D01*
X428403Y228020D01*
X428322Y227960D01*
X426195Y226471D01*
X260886Y222270D02*
X258228Y224132D01*
X260886Y222270D02*
X260980Y222207D01*
X261076Y222147D01*
X261174Y222090D01*
X261274Y222037D01*
X261376Y221987D01*
X261480Y221941D01*
X261585Y221899D01*
X261691Y221860D01*
X261799Y221825D01*
X261908Y221794D01*
X262018Y221766D01*
X262129Y221743D01*
X262240Y221723D01*
X262352Y221707D01*
X262465Y221695D01*
X262578Y221687D01*
X262691Y221683D01*
X262805Y221683D01*
X262918Y221687D01*
X263031Y221695D01*
X263144Y221707D01*
X263256Y221723D01*
X263367Y221743D01*
X263478Y221766D01*
X263588Y221794D01*
X263697Y221825D01*
X263805Y221860D01*
X263911Y221899D01*
X264016Y221941D01*
X264120Y221987D01*
X264222Y222037D01*
X264322Y222090D01*
X264420Y222147D01*
X264516Y222207D01*
X264610Y222270D01*
X264701Y222337D01*
X264791Y222406D01*
X264878Y222479D01*
X264962Y222555D01*
X265043Y222634D01*
X265122Y222715D01*
X265198Y222799D01*
X265271Y222886D01*
X265340Y222976D01*
X265407Y223067D01*
X265470Y223161D01*
X265530Y223257D01*
X265587Y223355D01*
X265640Y223455D01*
X265690Y223557D01*
X265736Y223661D01*
X265778Y223766D01*
X265817Y223872D01*
X265852Y223980D01*
X265883Y224089D01*
X265911Y224199D01*
X265934Y224310D01*
X265954Y224421D01*
X265970Y224533D01*
X265982Y224646D01*
X265990Y224759D01*
X265994Y224872D01*
X265994Y224986D01*
X265990Y225099D01*
X265982Y225212D01*
X265970Y225325D01*
X265954Y225437D01*
X265934Y225548D01*
X265911Y225659D01*
X265883Y225769D01*
X265852Y225878D01*
X265817Y225986D01*
X265778Y226092D01*
X265736Y226197D01*
X265690Y226301D01*
X265640Y226403D01*
X265587Y226503D01*
X265530Y226601D01*
X265470Y226697D01*
X265407Y226791D01*
X265340Y226882D01*
X265271Y226972D01*
X265198Y227059D01*
X265122Y227143D01*
X265043Y227224D01*
X264962Y227303D01*
X264878Y227379D01*
X264791Y227452D01*
X264702Y227521D01*
X264610Y227588D01*
X268120Y231469D02*
X264929Y233703D01*
X268119Y231469D02*
X268200Y231409D01*
X268279Y231347D01*
X268356Y231281D01*
X268430Y231213D01*
X268501Y231142D01*
X268569Y231068D01*
X268635Y230991D01*
X268697Y230912D01*
X268757Y230831D01*
X268813Y230747D01*
X268866Y230662D01*
X268915Y230574D01*
X268961Y230485D01*
X269004Y230393D01*
X269043Y230300D01*
X269078Y230206D01*
X269110Y230111D01*
X269138Y230014D01*
X269162Y229916D01*
X269182Y229818D01*
X269199Y229718D01*
X269211Y229618D01*
X269220Y229518D01*
X269225Y229418D01*
X269226Y229317D01*
X269223Y229216D01*
X269216Y229116D01*
X269205Y229016D01*
X269191Y228916D01*
X269172Y228817D01*
X269150Y228719D01*
X269124Y228622D01*
X269094Y228525D01*
X269061Y228431D01*
X269024Y228337D01*
X268983Y228245D01*
X268938Y228154D01*
X268891Y228066D01*
X268839Y227979D01*
X268785Y227895D01*
X268727Y227812D01*
X268666Y227732D01*
X268602Y227654D01*
X268535Y227579D01*
X268466Y227506D01*
X268393Y227437D01*
X268318Y227370D01*
X268240Y227306D01*
X268160Y227245D01*
X268077Y227187D01*
X267993Y227133D01*
X267906Y227081D01*
X267818Y227034D01*
X267727Y226989D01*
X267635Y226948D01*
X267541Y226911D01*
X267447Y226878D01*
X267350Y226848D01*
X267253Y226822D01*
X267155Y226800D01*
X267056Y226781D01*
X266956Y226767D01*
X266856Y226756D01*
X266756Y226749D01*
X266655Y226746D01*
X266554Y226747D01*
X266454Y226752D01*
X266354Y226761D01*
X266254Y226773D01*
X266154Y226790D01*
X266056Y226810D01*
X265958Y226834D01*
X265861Y226862D01*
X265766Y226894D01*
X265672Y226929D01*
X265579Y226968D01*
X265487Y227011D01*
X265398Y227057D01*
X265310Y227106D01*
X265225Y227159D01*
X265141Y227215D01*
X263014Y228705D01*
X273760Y227519D02*
X270249Y215714D01*
X280141Y223052D01*
X276953Y211020D02*
X279612Y209158D01*
X279706Y209095D01*
X279802Y209035D01*
X279900Y208978D01*
X280000Y208925D01*
X280102Y208875D01*
X280206Y208829D01*
X280311Y208787D01*
X280417Y208748D01*
X280525Y208713D01*
X280634Y208682D01*
X280744Y208654D01*
X280855Y208631D01*
X280966Y208611D01*
X281078Y208595D01*
X281191Y208583D01*
X281304Y208575D01*
X281417Y208571D01*
X281531Y208571D01*
X281644Y208575D01*
X281757Y208583D01*
X281870Y208595D01*
X281982Y208611D01*
X282093Y208631D01*
X282204Y208654D01*
X282314Y208682D01*
X282423Y208713D01*
X282531Y208748D01*
X282637Y208787D01*
X282742Y208829D01*
X282846Y208875D01*
X282948Y208925D01*
X283048Y208978D01*
X283146Y209035D01*
X283242Y209095D01*
X283336Y209158D01*
X283427Y209225D01*
X283517Y209294D01*
X283604Y209367D01*
X283688Y209443D01*
X283769Y209522D01*
X283848Y209603D01*
X283924Y209687D01*
X283997Y209774D01*
X284066Y209864D01*
X284133Y209955D01*
X284196Y210049D01*
X284256Y210145D01*
X284313Y210243D01*
X284366Y210343D01*
X284416Y210445D01*
X284462Y210549D01*
X284504Y210654D01*
X284543Y210760D01*
X284578Y210868D01*
X284609Y210977D01*
X284637Y211087D01*
X284660Y211198D01*
X284680Y211309D01*
X284696Y211421D01*
X284708Y211534D01*
X284716Y211647D01*
X284720Y211760D01*
X284720Y211874D01*
X284716Y211987D01*
X284708Y212100D01*
X284696Y212213D01*
X284680Y212325D01*
X284660Y212436D01*
X284637Y212547D01*
X284609Y212657D01*
X284578Y212766D01*
X284543Y212874D01*
X284504Y212980D01*
X284462Y213085D01*
X284416Y213189D01*
X284366Y213291D01*
X284313Y213391D01*
X284256Y213489D01*
X284196Y213585D01*
X284133Y213679D01*
X284066Y213770D01*
X283997Y213860D01*
X283924Y213947D01*
X283848Y214031D01*
X283769Y214112D01*
X283688Y214191D01*
X283604Y214267D01*
X283517Y214340D01*
X283428Y214409D01*
X283336Y214476D01*
X286845Y218357D02*
X283655Y220591D01*
X286845Y218357D02*
X286926Y218297D01*
X287005Y218235D01*
X287082Y218169D01*
X287156Y218101D01*
X287227Y218030D01*
X287295Y217956D01*
X287361Y217879D01*
X287423Y217800D01*
X287483Y217719D01*
X287539Y217635D01*
X287592Y217550D01*
X287641Y217462D01*
X287687Y217373D01*
X287730Y217281D01*
X287769Y217188D01*
X287804Y217094D01*
X287836Y216999D01*
X287864Y216902D01*
X287888Y216804D01*
X287908Y216706D01*
X287925Y216606D01*
X287937Y216506D01*
X287946Y216406D01*
X287951Y216306D01*
X287952Y216205D01*
X287949Y216104D01*
X287942Y216004D01*
X287931Y215904D01*
X287917Y215804D01*
X287898Y215705D01*
X287876Y215607D01*
X287850Y215510D01*
X287820Y215413D01*
X287787Y215319D01*
X287750Y215225D01*
X287709Y215133D01*
X287664Y215042D01*
X287617Y214954D01*
X287565Y214867D01*
X287511Y214783D01*
X287453Y214700D01*
X287392Y214620D01*
X287328Y214542D01*
X287261Y214467D01*
X287192Y214394D01*
X287119Y214325D01*
X287044Y214258D01*
X286966Y214194D01*
X286886Y214133D01*
X286803Y214075D01*
X286719Y214021D01*
X286632Y213969D01*
X286544Y213922D01*
X286453Y213877D01*
X286361Y213836D01*
X286267Y213799D01*
X286173Y213766D01*
X286076Y213736D01*
X285979Y213710D01*
X285881Y213688D01*
X285782Y213669D01*
X285682Y213655D01*
X285582Y213644D01*
X285482Y213637D01*
X285381Y213634D01*
X285280Y213635D01*
X285180Y213640D01*
X285080Y213649D01*
X284980Y213661D01*
X284880Y213678D01*
X284782Y213698D01*
X284684Y213722D01*
X284587Y213750D01*
X284492Y213782D01*
X284398Y213817D01*
X284305Y213856D01*
X284213Y213899D01*
X284124Y213945D01*
X284036Y213994D01*
X283951Y214047D01*
X283867Y214103D01*
X281740Y215593D01*
X206842Y331524D02*
X206842Y334770D01*
X206840Y334883D01*
X206834Y334996D01*
X206824Y335109D01*
X206810Y335222D01*
X206793Y335334D01*
X206771Y335445D01*
X206746Y335555D01*
X206716Y335665D01*
X206683Y335773D01*
X206646Y335880D01*
X206606Y335986D01*
X206561Y336090D01*
X206513Y336193D01*
X206462Y336294D01*
X206407Y336393D01*
X206349Y336490D01*
X206287Y336585D01*
X206222Y336678D01*
X206154Y336768D01*
X206083Y336856D01*
X206008Y336942D01*
X205931Y337025D01*
X205851Y337105D01*
X205768Y337182D01*
X205682Y337257D01*
X205594Y337328D01*
X205504Y337396D01*
X205411Y337461D01*
X205316Y337523D01*
X205219Y337581D01*
X205120Y337636D01*
X205019Y337687D01*
X204916Y337735D01*
X204812Y337780D01*
X204706Y337820D01*
X204599Y337857D01*
X204491Y337890D01*
X204381Y337920D01*
X204271Y337945D01*
X204160Y337967D01*
X204048Y337984D01*
X203935Y337998D01*
X203822Y338008D01*
X203709Y338014D01*
X203596Y338016D01*
X203483Y338014D01*
X203370Y338008D01*
X203257Y337998D01*
X203144Y337984D01*
X203032Y337967D01*
X202921Y337945D01*
X202811Y337920D01*
X202701Y337890D01*
X202593Y337857D01*
X202486Y337820D01*
X202380Y337780D01*
X202276Y337735D01*
X202173Y337687D01*
X202072Y337636D01*
X201973Y337581D01*
X201876Y337523D01*
X201781Y337461D01*
X201688Y337396D01*
X201598Y337328D01*
X201510Y337257D01*
X201424Y337182D01*
X201341Y337105D01*
X201261Y337025D01*
X201184Y336942D01*
X201109Y336856D01*
X201038Y336768D01*
X200970Y336678D01*
X200905Y336585D01*
X200843Y336490D01*
X200785Y336393D01*
X200730Y336294D01*
X200679Y336193D01*
X200631Y336090D01*
X200586Y335986D01*
X200546Y335880D01*
X200509Y335773D01*
X200476Y335665D01*
X200446Y335555D01*
X200421Y335445D01*
X200399Y335334D01*
X200382Y335222D01*
X200368Y335109D01*
X200358Y334996D01*
X200352Y334883D01*
X200350Y334770D01*
X195158Y335419D02*
X195158Y331524D01*
X195158Y335419D02*
X195160Y335520D01*
X195166Y335620D01*
X195176Y335720D01*
X195189Y335820D01*
X195207Y335919D01*
X195228Y336018D01*
X195253Y336115D01*
X195282Y336212D01*
X195315Y336307D01*
X195351Y336401D01*
X195391Y336493D01*
X195434Y336584D01*
X195481Y336673D01*
X195531Y336760D01*
X195585Y336846D01*
X195642Y336929D01*
X195702Y337009D01*
X195765Y337088D01*
X195832Y337164D01*
X195901Y337237D01*
X195973Y337307D01*
X196047Y337375D01*
X196124Y337440D01*
X196204Y337501D01*
X196286Y337560D01*
X196370Y337615D01*
X196456Y337667D01*
X196544Y337716D01*
X196634Y337761D01*
X196726Y337803D01*
X196819Y337841D01*
X196914Y337875D01*
X197009Y337906D01*
X197106Y337933D01*
X197204Y337956D01*
X197303Y337976D01*
X197403Y337991D01*
X197503Y338003D01*
X197603Y338011D01*
X197704Y338015D01*
X197804Y338015D01*
X197905Y338011D01*
X198005Y338003D01*
X198105Y337991D01*
X198205Y337976D01*
X198304Y337956D01*
X198402Y337933D01*
X198499Y337906D01*
X198594Y337875D01*
X198689Y337841D01*
X198782Y337803D01*
X198874Y337761D01*
X198964Y337716D01*
X199052Y337667D01*
X199138Y337615D01*
X199222Y337560D01*
X199304Y337501D01*
X199384Y337440D01*
X199461Y337375D01*
X199535Y337307D01*
X199607Y337237D01*
X199676Y337164D01*
X199743Y337088D01*
X199806Y337009D01*
X199866Y336929D01*
X199923Y336846D01*
X199977Y336760D01*
X200027Y336673D01*
X200074Y336584D01*
X200117Y336493D01*
X200157Y336401D01*
X200193Y336307D01*
X200226Y336212D01*
X200255Y336115D01*
X200280Y336018D01*
X200301Y335919D01*
X200319Y335820D01*
X200332Y335720D01*
X200342Y335620D01*
X200348Y335520D01*
X200350Y335419D01*
X200351Y335419D02*
X200351Y332823D01*
X195158Y342305D02*
X206842Y346200D01*
X195158Y350095D01*
X206842Y354384D02*
X206842Y357630D01*
X206840Y357743D01*
X206834Y357856D01*
X206824Y357969D01*
X206810Y358082D01*
X206793Y358194D01*
X206771Y358305D01*
X206746Y358415D01*
X206716Y358525D01*
X206683Y358633D01*
X206646Y358740D01*
X206606Y358846D01*
X206561Y358950D01*
X206513Y359053D01*
X206462Y359154D01*
X206407Y359253D01*
X206349Y359350D01*
X206287Y359445D01*
X206222Y359538D01*
X206154Y359628D01*
X206083Y359716D01*
X206008Y359802D01*
X205931Y359885D01*
X205851Y359965D01*
X205768Y360042D01*
X205682Y360117D01*
X205594Y360188D01*
X205504Y360256D01*
X205411Y360321D01*
X205316Y360383D01*
X205219Y360441D01*
X205120Y360496D01*
X205019Y360547D01*
X204916Y360595D01*
X204812Y360640D01*
X204706Y360680D01*
X204599Y360717D01*
X204491Y360750D01*
X204381Y360780D01*
X204271Y360805D01*
X204160Y360827D01*
X204048Y360844D01*
X203935Y360858D01*
X203822Y360868D01*
X203709Y360874D01*
X203596Y360876D01*
X203483Y360874D01*
X203370Y360868D01*
X203257Y360858D01*
X203144Y360844D01*
X203032Y360827D01*
X202921Y360805D01*
X202811Y360780D01*
X202701Y360750D01*
X202593Y360717D01*
X202486Y360680D01*
X202380Y360640D01*
X202276Y360595D01*
X202173Y360547D01*
X202072Y360496D01*
X201973Y360441D01*
X201876Y360383D01*
X201781Y360321D01*
X201688Y360256D01*
X201598Y360188D01*
X201510Y360117D01*
X201424Y360042D01*
X201341Y359965D01*
X201261Y359885D01*
X201184Y359802D01*
X201109Y359716D01*
X201038Y359628D01*
X200970Y359538D01*
X200905Y359445D01*
X200843Y359350D01*
X200785Y359253D01*
X200730Y359154D01*
X200679Y359053D01*
X200631Y358950D01*
X200586Y358846D01*
X200546Y358740D01*
X200509Y358633D01*
X200476Y358525D01*
X200446Y358415D01*
X200421Y358305D01*
X200399Y358194D01*
X200382Y358082D01*
X200368Y357969D01*
X200358Y357856D01*
X200352Y357743D01*
X200350Y357630D01*
X195158Y358279D02*
X195158Y354384D01*
X195158Y358279D02*
X195160Y358380D01*
X195166Y358480D01*
X195176Y358580D01*
X195189Y358680D01*
X195207Y358779D01*
X195228Y358878D01*
X195253Y358975D01*
X195282Y359072D01*
X195315Y359167D01*
X195351Y359261D01*
X195391Y359353D01*
X195434Y359444D01*
X195481Y359533D01*
X195531Y359620D01*
X195585Y359706D01*
X195642Y359789D01*
X195702Y359869D01*
X195765Y359948D01*
X195832Y360024D01*
X195901Y360097D01*
X195973Y360167D01*
X196047Y360235D01*
X196124Y360300D01*
X196204Y360361D01*
X196286Y360420D01*
X196370Y360475D01*
X196456Y360527D01*
X196544Y360576D01*
X196634Y360621D01*
X196726Y360663D01*
X196819Y360701D01*
X196914Y360735D01*
X197009Y360766D01*
X197106Y360793D01*
X197204Y360816D01*
X197303Y360836D01*
X197403Y360851D01*
X197503Y360863D01*
X197603Y360871D01*
X197704Y360875D01*
X197804Y360875D01*
X197905Y360871D01*
X198005Y360863D01*
X198105Y360851D01*
X198205Y360836D01*
X198304Y360816D01*
X198402Y360793D01*
X198499Y360766D01*
X198594Y360735D01*
X198689Y360701D01*
X198782Y360663D01*
X198874Y360621D01*
X198964Y360576D01*
X199052Y360527D01*
X199138Y360475D01*
X199222Y360420D01*
X199304Y360361D01*
X199384Y360300D01*
X199461Y360235D01*
X199535Y360167D01*
X199607Y360097D01*
X199676Y360024D01*
X199743Y359948D01*
X199806Y359869D01*
X199866Y359789D01*
X199923Y359706D01*
X199977Y359620D01*
X200027Y359533D01*
X200074Y359444D01*
X200117Y359353D01*
X200157Y359261D01*
X200193Y359167D01*
X200226Y359072D01*
X200255Y358975D01*
X200280Y358878D01*
X200301Y358779D01*
X200319Y358680D01*
X200332Y358580D01*
X200342Y358480D01*
X200348Y358380D01*
X200350Y358279D01*
X200351Y358279D02*
X200351Y355683D01*
X264929Y458697D02*
X267588Y460559D01*
X267588Y460558D02*
X267679Y460625D01*
X267769Y460694D01*
X267856Y460767D01*
X267940Y460843D01*
X268021Y460922D01*
X268100Y461003D01*
X268176Y461087D01*
X268249Y461174D01*
X268318Y461264D01*
X268385Y461355D01*
X268448Y461449D01*
X268508Y461545D01*
X268565Y461643D01*
X268618Y461743D01*
X268668Y461845D01*
X268714Y461949D01*
X268756Y462054D01*
X268795Y462160D01*
X268830Y462268D01*
X268861Y462377D01*
X268889Y462487D01*
X268912Y462598D01*
X268932Y462709D01*
X268948Y462821D01*
X268960Y462934D01*
X268968Y463047D01*
X268972Y463160D01*
X268972Y463274D01*
X268968Y463387D01*
X268960Y463500D01*
X268948Y463613D01*
X268932Y463725D01*
X268912Y463836D01*
X268889Y463947D01*
X268861Y464057D01*
X268830Y464166D01*
X268795Y464274D01*
X268756Y464380D01*
X268714Y464485D01*
X268668Y464589D01*
X268618Y464691D01*
X268565Y464791D01*
X268508Y464889D01*
X268448Y464985D01*
X268385Y465079D01*
X268318Y465170D01*
X268249Y465260D01*
X268176Y465347D01*
X268100Y465431D01*
X268021Y465512D01*
X267940Y465591D01*
X267856Y465667D01*
X267769Y465740D01*
X267680Y465809D01*
X267588Y465876D01*
X267494Y465939D01*
X267398Y465999D01*
X267300Y466056D01*
X267200Y466109D01*
X267098Y466159D01*
X266994Y466205D01*
X266889Y466247D01*
X266783Y466286D01*
X266675Y466321D01*
X266566Y466352D01*
X266456Y466380D01*
X266345Y466403D01*
X266234Y466423D01*
X266122Y466439D01*
X266009Y466451D01*
X265896Y466459D01*
X265783Y466463D01*
X265669Y466463D01*
X265556Y466459D01*
X265443Y466451D01*
X265330Y466439D01*
X265218Y466423D01*
X265107Y466403D01*
X264996Y466380D01*
X264886Y466352D01*
X264777Y466321D01*
X264669Y466286D01*
X264563Y466247D01*
X264458Y466205D01*
X264354Y466159D01*
X264252Y466109D01*
X264152Y466056D01*
X264054Y465999D01*
X263958Y465939D01*
X263864Y465876D01*
X261418Y470502D02*
X258228Y468268D01*
X261418Y470502D02*
X261502Y470558D01*
X261587Y470611D01*
X261675Y470660D01*
X261764Y470706D01*
X261856Y470749D01*
X261949Y470788D01*
X262043Y470823D01*
X262138Y470855D01*
X262235Y470883D01*
X262333Y470907D01*
X262431Y470927D01*
X262531Y470944D01*
X262631Y470956D01*
X262731Y470965D01*
X262832Y470970D01*
X262932Y470971D01*
X263033Y470968D01*
X263133Y470961D01*
X263233Y470950D01*
X263333Y470936D01*
X263432Y470917D01*
X263530Y470895D01*
X263627Y470869D01*
X263724Y470839D01*
X263819Y470806D01*
X263912Y470769D01*
X264004Y470728D01*
X264095Y470683D01*
X264183Y470636D01*
X264270Y470584D01*
X264354Y470530D01*
X264437Y470472D01*
X264517Y470411D01*
X264595Y470347D01*
X264670Y470280D01*
X264743Y470211D01*
X264812Y470138D01*
X264879Y470063D01*
X264943Y469985D01*
X265004Y469905D01*
X265062Y469822D01*
X265116Y469738D01*
X265168Y469651D01*
X265215Y469563D01*
X265260Y469472D01*
X265301Y469380D01*
X265338Y469286D01*
X265371Y469192D01*
X265401Y469095D01*
X265427Y468998D01*
X265449Y468900D01*
X265468Y468801D01*
X265482Y468701D01*
X265493Y468601D01*
X265500Y468501D01*
X265503Y468400D01*
X265502Y468300D01*
X265497Y468199D01*
X265488Y468099D01*
X265476Y467999D01*
X265459Y467899D01*
X265439Y467801D01*
X265415Y467703D01*
X265387Y467606D01*
X265355Y467511D01*
X265320Y467417D01*
X265281Y467324D01*
X265238Y467232D01*
X265192Y467143D01*
X265143Y467055D01*
X265090Y466970D01*
X265034Y466886D01*
X264974Y466805D01*
X264912Y466726D01*
X264846Y466649D01*
X264778Y466575D01*
X264707Y466504D01*
X264633Y466436D01*
X264556Y466370D01*
X264477Y466308D01*
X264396Y466248D01*
X262270Y464759D01*
X267059Y474452D02*
X276951Y467114D01*
X273439Y478919D01*
X283655Y471809D02*
X286314Y473670D01*
X286405Y473737D01*
X286495Y473806D01*
X286582Y473879D01*
X286666Y473955D01*
X286747Y474034D01*
X286826Y474115D01*
X286902Y474199D01*
X286975Y474286D01*
X287044Y474376D01*
X287111Y474467D01*
X287174Y474561D01*
X287234Y474657D01*
X287291Y474755D01*
X287344Y474855D01*
X287394Y474957D01*
X287440Y475061D01*
X287482Y475166D01*
X287521Y475272D01*
X287556Y475380D01*
X287587Y475489D01*
X287615Y475599D01*
X287638Y475710D01*
X287658Y475821D01*
X287674Y475933D01*
X287686Y476046D01*
X287694Y476159D01*
X287698Y476272D01*
X287698Y476386D01*
X287694Y476499D01*
X287686Y476612D01*
X287674Y476725D01*
X287658Y476837D01*
X287638Y476948D01*
X287615Y477059D01*
X287587Y477169D01*
X287556Y477278D01*
X287521Y477386D01*
X287482Y477492D01*
X287440Y477597D01*
X287394Y477701D01*
X287344Y477803D01*
X287291Y477903D01*
X287234Y478001D01*
X287174Y478097D01*
X287111Y478191D01*
X287044Y478282D01*
X286975Y478372D01*
X286902Y478459D01*
X286826Y478543D01*
X286747Y478624D01*
X286666Y478703D01*
X286582Y478779D01*
X286495Y478852D01*
X286406Y478921D01*
X286314Y478988D01*
X286220Y479051D01*
X286124Y479111D01*
X286026Y479168D01*
X285926Y479221D01*
X285824Y479271D01*
X285720Y479317D01*
X285615Y479359D01*
X285509Y479398D01*
X285401Y479433D01*
X285292Y479464D01*
X285182Y479492D01*
X285071Y479515D01*
X284960Y479535D01*
X284848Y479551D01*
X284735Y479563D01*
X284622Y479571D01*
X284509Y479575D01*
X284395Y479575D01*
X284282Y479571D01*
X284169Y479563D01*
X284056Y479551D01*
X283944Y479535D01*
X283833Y479515D01*
X283722Y479492D01*
X283612Y479464D01*
X283503Y479433D01*
X283395Y479398D01*
X283289Y479359D01*
X283184Y479317D01*
X283080Y479271D01*
X282978Y479221D01*
X282878Y479168D01*
X282780Y479111D01*
X282684Y479051D01*
X282590Y478988D01*
X280144Y483614D02*
X276953Y481380D01*
X280144Y483614D02*
X280228Y483670D01*
X280313Y483723D01*
X280401Y483772D01*
X280490Y483818D01*
X280582Y483861D01*
X280675Y483900D01*
X280769Y483935D01*
X280864Y483967D01*
X280961Y483995D01*
X281059Y484019D01*
X281157Y484039D01*
X281257Y484056D01*
X281357Y484068D01*
X281457Y484077D01*
X281558Y484082D01*
X281658Y484083D01*
X281759Y484080D01*
X281859Y484073D01*
X281959Y484062D01*
X282059Y484048D01*
X282158Y484029D01*
X282256Y484007D01*
X282353Y483981D01*
X282450Y483951D01*
X282545Y483918D01*
X282638Y483881D01*
X282730Y483840D01*
X282821Y483795D01*
X282909Y483748D01*
X282996Y483696D01*
X283080Y483642D01*
X283163Y483584D01*
X283243Y483523D01*
X283321Y483459D01*
X283396Y483392D01*
X283469Y483323D01*
X283538Y483250D01*
X283605Y483175D01*
X283669Y483097D01*
X283730Y483017D01*
X283788Y482934D01*
X283842Y482850D01*
X283894Y482763D01*
X283941Y482675D01*
X283986Y482584D01*
X284027Y482492D01*
X284064Y482398D01*
X284097Y482304D01*
X284127Y482207D01*
X284153Y482110D01*
X284175Y482012D01*
X284194Y481913D01*
X284208Y481813D01*
X284219Y481713D01*
X284226Y481613D01*
X284229Y481512D01*
X284228Y481412D01*
X284223Y481311D01*
X284214Y481211D01*
X284202Y481111D01*
X284185Y481011D01*
X284165Y480913D01*
X284141Y480815D01*
X284113Y480718D01*
X284081Y480623D01*
X284046Y480529D01*
X284007Y480436D01*
X283964Y480344D01*
X283918Y480255D01*
X283869Y480167D01*
X283816Y480082D01*
X283760Y479998D01*
X283700Y479917D01*
X283638Y479838D01*
X283572Y479761D01*
X283504Y479687D01*
X283433Y479616D01*
X283359Y479548D01*
X283282Y479482D01*
X283203Y479420D01*
X283122Y479360D01*
X280995Y477871D01*
D11*
X428743Y418748D02*
X428743Y400968D01*
X428743Y418748D02*
X433682Y418748D01*
X433822Y418746D01*
X433961Y418740D01*
X434101Y418730D01*
X434240Y418716D01*
X434379Y418699D01*
X434517Y418677D01*
X434654Y418651D01*
X434791Y418622D01*
X434927Y418589D01*
X435061Y418552D01*
X435195Y418511D01*
X435327Y418466D01*
X435459Y418417D01*
X435588Y418365D01*
X435716Y418310D01*
X435843Y418250D01*
X435968Y418187D01*
X436091Y418121D01*
X436212Y418051D01*
X436331Y417978D01*
X436448Y417901D01*
X436562Y417821D01*
X436675Y417738D01*
X436785Y417652D01*
X436892Y417562D01*
X436997Y417470D01*
X437099Y417375D01*
X437199Y417277D01*
X437296Y417176D01*
X437390Y417072D01*
X437480Y416966D01*
X437568Y416857D01*
X437653Y416746D01*
X437734Y416632D01*
X437813Y416517D01*
X437888Y416399D01*
X437959Y416279D01*
X438027Y416156D01*
X438092Y416033D01*
X438153Y415907D01*
X438211Y415779D01*
X438265Y415651D01*
X438315Y415520D01*
X438362Y415388D01*
X438405Y415255D01*
X438444Y415121D01*
X438479Y414986D01*
X438510Y414850D01*
X438538Y414712D01*
X438561Y414575D01*
X438581Y414436D01*
X438597Y414297D01*
X438609Y414158D01*
X438617Y414019D01*
X438621Y413879D01*
X438621Y413739D01*
X438617Y413599D01*
X438609Y413460D01*
X438597Y413321D01*
X438581Y413182D01*
X438561Y413043D01*
X438538Y412906D01*
X438510Y412768D01*
X438479Y412632D01*
X438444Y412497D01*
X438405Y412363D01*
X438362Y412230D01*
X438315Y412098D01*
X438265Y411967D01*
X438211Y411839D01*
X438153Y411711D01*
X438092Y411585D01*
X438027Y411462D01*
X437959Y411340D01*
X437888Y411219D01*
X437813Y411101D01*
X437734Y410986D01*
X437653Y410872D01*
X437568Y410761D01*
X437480Y410652D01*
X437390Y410546D01*
X437296Y410442D01*
X437199Y410341D01*
X437099Y410243D01*
X436997Y410148D01*
X436892Y410056D01*
X436785Y409966D01*
X436675Y409880D01*
X436562Y409797D01*
X436448Y409717D01*
X436331Y409640D01*
X436212Y409567D01*
X436091Y409497D01*
X435968Y409431D01*
X435843Y409368D01*
X435716Y409308D01*
X435588Y409253D01*
X435459Y409201D01*
X435327Y409152D01*
X435195Y409107D01*
X435061Y409066D01*
X434927Y409029D01*
X434791Y408996D01*
X434654Y408967D01*
X434517Y408941D01*
X434379Y408919D01*
X434240Y408902D01*
X434101Y408888D01*
X433961Y408878D01*
X433822Y408872D01*
X433682Y408870D01*
X428743Y408870D01*
X444738Y414797D02*
X449677Y418748D01*
X449677Y400968D01*
X454615Y400968D02*
X444738Y400968D01*
X428108Y270096D02*
X428108Y252316D01*
X428108Y270096D02*
X433047Y270096D01*
X433187Y270094D01*
X433326Y270088D01*
X433466Y270078D01*
X433605Y270064D01*
X433744Y270047D01*
X433882Y270025D01*
X434019Y269999D01*
X434156Y269970D01*
X434292Y269937D01*
X434426Y269900D01*
X434560Y269859D01*
X434692Y269814D01*
X434824Y269765D01*
X434953Y269713D01*
X435081Y269658D01*
X435208Y269598D01*
X435333Y269535D01*
X435456Y269469D01*
X435577Y269399D01*
X435696Y269326D01*
X435813Y269249D01*
X435927Y269169D01*
X436040Y269086D01*
X436150Y269000D01*
X436257Y268910D01*
X436362Y268818D01*
X436464Y268723D01*
X436564Y268625D01*
X436661Y268524D01*
X436755Y268420D01*
X436845Y268314D01*
X436933Y268205D01*
X437018Y268094D01*
X437099Y267980D01*
X437178Y267865D01*
X437253Y267747D01*
X437324Y267627D01*
X437392Y267504D01*
X437457Y267381D01*
X437518Y267255D01*
X437576Y267127D01*
X437630Y266999D01*
X437680Y266868D01*
X437727Y266736D01*
X437770Y266603D01*
X437809Y266469D01*
X437844Y266334D01*
X437875Y266198D01*
X437903Y266060D01*
X437926Y265923D01*
X437946Y265784D01*
X437962Y265645D01*
X437974Y265506D01*
X437982Y265367D01*
X437986Y265227D01*
X437986Y265087D01*
X437982Y264947D01*
X437974Y264808D01*
X437962Y264669D01*
X437946Y264530D01*
X437926Y264391D01*
X437903Y264254D01*
X437875Y264116D01*
X437844Y263980D01*
X437809Y263845D01*
X437770Y263711D01*
X437727Y263578D01*
X437680Y263446D01*
X437630Y263315D01*
X437576Y263187D01*
X437518Y263059D01*
X437457Y262933D01*
X437392Y262810D01*
X437324Y262688D01*
X437253Y262567D01*
X437178Y262449D01*
X437099Y262334D01*
X437018Y262220D01*
X436933Y262109D01*
X436845Y262000D01*
X436755Y261894D01*
X436661Y261790D01*
X436564Y261689D01*
X436464Y261591D01*
X436362Y261496D01*
X436257Y261404D01*
X436150Y261314D01*
X436040Y261228D01*
X435927Y261145D01*
X435813Y261065D01*
X435696Y260988D01*
X435577Y260915D01*
X435456Y260845D01*
X435333Y260779D01*
X435208Y260716D01*
X435081Y260656D01*
X434953Y260601D01*
X434824Y260549D01*
X434692Y260500D01*
X434560Y260455D01*
X434426Y260414D01*
X434292Y260377D01*
X434156Y260344D01*
X434019Y260315D01*
X433882Y260289D01*
X433744Y260267D01*
X433605Y260250D01*
X433466Y260236D01*
X433326Y260226D01*
X433187Y260220D01*
X433047Y260218D01*
X428108Y260218D01*
X449535Y270096D02*
X449667Y270094D01*
X449798Y270088D01*
X449930Y270078D01*
X450061Y270065D01*
X450191Y270047D01*
X450321Y270026D01*
X450451Y270001D01*
X450579Y269972D01*
X450707Y269939D01*
X450833Y269902D01*
X450959Y269862D01*
X451083Y269818D01*
X451206Y269770D01*
X451327Y269719D01*
X451447Y269664D01*
X451565Y269606D01*
X451681Y269544D01*
X451795Y269478D01*
X451908Y269410D01*
X452018Y269338D01*
X452126Y269263D01*
X452232Y269184D01*
X452336Y269103D01*
X452437Y269018D01*
X452535Y268931D01*
X452631Y268840D01*
X452724Y268747D01*
X452815Y268651D01*
X452902Y268553D01*
X452987Y268452D01*
X453068Y268348D01*
X453147Y268242D01*
X453222Y268134D01*
X453294Y268024D01*
X453362Y267911D01*
X453428Y267797D01*
X453490Y267681D01*
X453548Y267563D01*
X453603Y267443D01*
X453654Y267322D01*
X453702Y267199D01*
X453746Y267075D01*
X453786Y266949D01*
X453823Y266823D01*
X453856Y266695D01*
X453885Y266567D01*
X453910Y266437D01*
X453931Y266307D01*
X453949Y266177D01*
X453962Y266046D01*
X453972Y265914D01*
X453978Y265783D01*
X453980Y265651D01*
X449535Y270096D02*
X449385Y270094D01*
X449236Y270088D01*
X449087Y270078D01*
X448938Y270065D01*
X448789Y270047D01*
X448641Y270026D01*
X448493Y270000D01*
X448347Y269971D01*
X448201Y269938D01*
X448056Y269901D01*
X447912Y269860D01*
X447769Y269816D01*
X447627Y269768D01*
X447487Y269716D01*
X447348Y269661D01*
X447210Y269602D01*
X447075Y269539D01*
X446940Y269473D01*
X446808Y269403D01*
X446678Y269330D01*
X446549Y269253D01*
X446422Y269173D01*
X446298Y269090D01*
X446176Y269004D01*
X446056Y268914D01*
X445939Y268821D01*
X445824Y268726D01*
X445711Y268627D01*
X445601Y268525D01*
X445494Y268421D01*
X445390Y268314D01*
X445288Y268204D01*
X445190Y268091D01*
X445094Y267976D01*
X445002Y267858D01*
X444912Y267738D01*
X444826Y267616D01*
X444743Y267492D01*
X444663Y267365D01*
X444587Y267237D01*
X444514Y267106D01*
X444444Y266973D01*
X444378Y266839D01*
X444316Y266703D01*
X444257Y266566D01*
X444201Y266427D01*
X444150Y266286D01*
X444102Y266145D01*
X452498Y262194D02*
X452594Y262287D01*
X452686Y262383D01*
X452776Y262482D01*
X452863Y262583D01*
X452948Y262686D01*
X453029Y262791D01*
X453107Y262899D01*
X453182Y263009D01*
X453255Y263121D01*
X453324Y263235D01*
X453390Y263351D01*
X453452Y263469D01*
X453511Y263588D01*
X453567Y263709D01*
X453620Y263832D01*
X453669Y263956D01*
X453714Y264081D01*
X453757Y264208D01*
X453795Y264335D01*
X453830Y264464D01*
X453861Y264593D01*
X453889Y264724D01*
X453913Y264855D01*
X453934Y264987D01*
X453950Y265119D01*
X453963Y265252D01*
X453973Y265385D01*
X453978Y265518D01*
X453980Y265651D01*
X452499Y262194D02*
X444103Y252316D01*
X453980Y252316D01*
X243881Y251300D02*
X243881Y269080D01*
X248820Y269080D01*
X248960Y269078D01*
X249099Y269072D01*
X249239Y269062D01*
X249378Y269048D01*
X249517Y269031D01*
X249655Y269009D01*
X249792Y268983D01*
X249929Y268954D01*
X250065Y268921D01*
X250199Y268884D01*
X250333Y268843D01*
X250465Y268798D01*
X250597Y268749D01*
X250726Y268697D01*
X250854Y268642D01*
X250981Y268582D01*
X251106Y268519D01*
X251229Y268453D01*
X251350Y268383D01*
X251469Y268310D01*
X251586Y268233D01*
X251700Y268153D01*
X251813Y268070D01*
X251923Y267984D01*
X252030Y267894D01*
X252135Y267802D01*
X252237Y267707D01*
X252337Y267609D01*
X252434Y267508D01*
X252528Y267404D01*
X252618Y267298D01*
X252706Y267189D01*
X252791Y267078D01*
X252872Y266964D01*
X252951Y266849D01*
X253026Y266731D01*
X253097Y266611D01*
X253165Y266488D01*
X253230Y266365D01*
X253291Y266239D01*
X253349Y266111D01*
X253403Y265983D01*
X253453Y265852D01*
X253500Y265720D01*
X253543Y265587D01*
X253582Y265453D01*
X253617Y265318D01*
X253648Y265182D01*
X253676Y265044D01*
X253699Y264907D01*
X253719Y264768D01*
X253735Y264629D01*
X253747Y264490D01*
X253755Y264351D01*
X253759Y264211D01*
X253759Y264071D01*
X253755Y263931D01*
X253747Y263792D01*
X253735Y263653D01*
X253719Y263514D01*
X253699Y263375D01*
X253676Y263238D01*
X253648Y263100D01*
X253617Y262964D01*
X253582Y262829D01*
X253543Y262695D01*
X253500Y262562D01*
X253453Y262430D01*
X253403Y262299D01*
X253349Y262171D01*
X253291Y262043D01*
X253230Y261917D01*
X253165Y261794D01*
X253097Y261672D01*
X253026Y261551D01*
X252951Y261433D01*
X252872Y261318D01*
X252791Y261204D01*
X252706Y261093D01*
X252618Y260984D01*
X252528Y260878D01*
X252434Y260774D01*
X252337Y260673D01*
X252237Y260575D01*
X252135Y260480D01*
X252030Y260388D01*
X251923Y260298D01*
X251813Y260212D01*
X251700Y260129D01*
X251586Y260049D01*
X251469Y259972D01*
X251350Y259899D01*
X251229Y259829D01*
X251106Y259763D01*
X250981Y259700D01*
X250854Y259640D01*
X250726Y259585D01*
X250597Y259533D01*
X250465Y259484D01*
X250333Y259439D01*
X250199Y259398D01*
X250065Y259361D01*
X249929Y259328D01*
X249792Y259299D01*
X249655Y259273D01*
X249517Y259251D01*
X249378Y259234D01*
X249239Y259220D01*
X249099Y259210D01*
X248960Y259204D01*
X248820Y259202D01*
X243881Y259202D01*
X259876Y251300D02*
X264815Y251300D01*
X264955Y251302D01*
X265094Y251308D01*
X265234Y251318D01*
X265373Y251332D01*
X265512Y251349D01*
X265650Y251371D01*
X265787Y251397D01*
X265924Y251426D01*
X266060Y251459D01*
X266194Y251496D01*
X266328Y251537D01*
X266460Y251582D01*
X266592Y251631D01*
X266721Y251683D01*
X266849Y251738D01*
X266976Y251798D01*
X267101Y251861D01*
X267224Y251927D01*
X267345Y251997D01*
X267464Y252070D01*
X267581Y252147D01*
X267695Y252227D01*
X267808Y252310D01*
X267918Y252396D01*
X268025Y252486D01*
X268130Y252578D01*
X268232Y252673D01*
X268332Y252771D01*
X268429Y252872D01*
X268523Y252976D01*
X268613Y253082D01*
X268701Y253191D01*
X268786Y253302D01*
X268867Y253416D01*
X268946Y253531D01*
X269021Y253649D01*
X269092Y253770D01*
X269160Y253892D01*
X269225Y254015D01*
X269286Y254141D01*
X269344Y254269D01*
X269398Y254397D01*
X269448Y254528D01*
X269495Y254660D01*
X269538Y254793D01*
X269577Y254927D01*
X269612Y255062D01*
X269643Y255198D01*
X269671Y255336D01*
X269694Y255473D01*
X269714Y255612D01*
X269730Y255751D01*
X269742Y255890D01*
X269750Y256029D01*
X269754Y256169D01*
X269754Y256309D01*
X269750Y256449D01*
X269742Y256588D01*
X269730Y256727D01*
X269714Y256866D01*
X269694Y257005D01*
X269671Y257142D01*
X269643Y257280D01*
X269612Y257416D01*
X269577Y257551D01*
X269538Y257685D01*
X269495Y257818D01*
X269448Y257950D01*
X269398Y258081D01*
X269344Y258209D01*
X269286Y258337D01*
X269225Y258463D01*
X269160Y258586D01*
X269092Y258709D01*
X269021Y258829D01*
X268946Y258947D01*
X268867Y259062D01*
X268786Y259176D01*
X268701Y259287D01*
X268613Y259396D01*
X268523Y259502D01*
X268429Y259606D01*
X268332Y259707D01*
X268232Y259805D01*
X268130Y259900D01*
X268025Y259992D01*
X267918Y260082D01*
X267808Y260168D01*
X267695Y260251D01*
X267581Y260331D01*
X267464Y260408D01*
X267345Y260481D01*
X267224Y260551D01*
X267101Y260617D01*
X266976Y260680D01*
X266849Y260740D01*
X266721Y260795D01*
X266592Y260847D01*
X266460Y260896D01*
X266328Y260941D01*
X266194Y260982D01*
X266060Y261019D01*
X265924Y261052D01*
X265787Y261081D01*
X265650Y261107D01*
X265512Y261129D01*
X265373Y261146D01*
X265234Y261160D01*
X265094Y261170D01*
X264955Y261176D01*
X264815Y261178D01*
X265802Y269080D02*
X259876Y269080D01*
X265802Y269080D02*
X265926Y269078D01*
X266050Y269072D01*
X266174Y269062D01*
X266297Y269049D01*
X266420Y269031D01*
X266542Y269010D01*
X266664Y268985D01*
X266785Y268956D01*
X266904Y268923D01*
X267023Y268887D01*
X267140Y268846D01*
X267256Y268803D01*
X267371Y268755D01*
X267484Y268704D01*
X267596Y268649D01*
X267705Y268591D01*
X267813Y268530D01*
X267919Y268465D01*
X268023Y268397D01*
X268124Y268325D01*
X268224Y268251D01*
X268320Y268173D01*
X268415Y268093D01*
X268507Y268009D01*
X268596Y267923D01*
X268682Y267834D01*
X268766Y267742D01*
X268846Y267647D01*
X268924Y267551D01*
X268998Y267451D01*
X269070Y267350D01*
X269138Y267246D01*
X269203Y267140D01*
X269264Y267032D01*
X269322Y266923D01*
X269377Y266811D01*
X269428Y266698D01*
X269476Y266583D01*
X269519Y266467D01*
X269560Y266350D01*
X269596Y266231D01*
X269629Y266112D01*
X269658Y265991D01*
X269683Y265869D01*
X269704Y265747D01*
X269722Y265624D01*
X269735Y265501D01*
X269745Y265377D01*
X269751Y265253D01*
X269753Y265129D01*
X269751Y265005D01*
X269745Y264881D01*
X269735Y264757D01*
X269722Y264634D01*
X269704Y264511D01*
X269683Y264389D01*
X269658Y264267D01*
X269629Y264146D01*
X269596Y264027D01*
X269560Y263908D01*
X269519Y263791D01*
X269476Y263675D01*
X269428Y263560D01*
X269377Y263447D01*
X269322Y263335D01*
X269264Y263226D01*
X269203Y263118D01*
X269138Y263012D01*
X269070Y262908D01*
X268998Y262807D01*
X268924Y262707D01*
X268846Y262611D01*
X268766Y262516D01*
X268682Y262424D01*
X268596Y262335D01*
X268507Y262249D01*
X268415Y262165D01*
X268320Y262085D01*
X268224Y262007D01*
X268124Y261933D01*
X268023Y261861D01*
X267919Y261793D01*
X267813Y261728D01*
X267705Y261667D01*
X267596Y261609D01*
X267484Y261554D01*
X267371Y261503D01*
X267256Y261455D01*
X267140Y261412D01*
X267023Y261371D01*
X266904Y261335D01*
X266785Y261302D01*
X266664Y261273D01*
X266542Y261248D01*
X266420Y261227D01*
X266297Y261209D01*
X266174Y261196D01*
X266050Y261186D01*
X265926Y261180D01*
X265802Y261178D01*
X261851Y261178D01*
X234737Y398047D02*
X234737Y415827D01*
X239676Y415827D01*
X239816Y415825D01*
X239955Y415819D01*
X240095Y415809D01*
X240234Y415795D01*
X240373Y415778D01*
X240511Y415756D01*
X240648Y415730D01*
X240785Y415701D01*
X240921Y415668D01*
X241055Y415631D01*
X241189Y415590D01*
X241321Y415545D01*
X241453Y415496D01*
X241582Y415444D01*
X241710Y415389D01*
X241837Y415329D01*
X241962Y415266D01*
X242085Y415200D01*
X242206Y415130D01*
X242325Y415057D01*
X242442Y414980D01*
X242556Y414900D01*
X242669Y414817D01*
X242779Y414731D01*
X242886Y414641D01*
X242991Y414549D01*
X243093Y414454D01*
X243193Y414356D01*
X243290Y414255D01*
X243384Y414151D01*
X243474Y414045D01*
X243562Y413936D01*
X243647Y413825D01*
X243728Y413711D01*
X243807Y413596D01*
X243882Y413478D01*
X243953Y413358D01*
X244021Y413235D01*
X244086Y413112D01*
X244147Y412986D01*
X244205Y412858D01*
X244259Y412730D01*
X244309Y412599D01*
X244356Y412467D01*
X244399Y412334D01*
X244438Y412200D01*
X244473Y412065D01*
X244504Y411929D01*
X244532Y411791D01*
X244555Y411654D01*
X244575Y411515D01*
X244591Y411376D01*
X244603Y411237D01*
X244611Y411098D01*
X244615Y410958D01*
X244615Y410818D01*
X244611Y410678D01*
X244603Y410539D01*
X244591Y410400D01*
X244575Y410261D01*
X244555Y410122D01*
X244532Y409985D01*
X244504Y409847D01*
X244473Y409711D01*
X244438Y409576D01*
X244399Y409442D01*
X244356Y409309D01*
X244309Y409177D01*
X244259Y409046D01*
X244205Y408918D01*
X244147Y408790D01*
X244086Y408664D01*
X244021Y408541D01*
X243953Y408419D01*
X243882Y408298D01*
X243807Y408180D01*
X243728Y408065D01*
X243647Y407951D01*
X243562Y407840D01*
X243474Y407731D01*
X243384Y407625D01*
X243290Y407521D01*
X243193Y407420D01*
X243093Y407322D01*
X242991Y407227D01*
X242886Y407135D01*
X242779Y407045D01*
X242669Y406959D01*
X242556Y406876D01*
X242442Y406796D01*
X242325Y406719D01*
X242206Y406646D01*
X242085Y406576D01*
X241962Y406510D01*
X241837Y406447D01*
X241710Y406387D01*
X241582Y406332D01*
X241453Y406280D01*
X241321Y406231D01*
X241189Y406186D01*
X241055Y406145D01*
X240921Y406108D01*
X240785Y406075D01*
X240648Y406046D01*
X240511Y406020D01*
X240373Y405998D01*
X240234Y405981D01*
X240095Y405967D01*
X239955Y405957D01*
X239816Y405951D01*
X239676Y405949D01*
X234737Y405949D01*
X250732Y401998D02*
X254683Y415827D01*
X250732Y401998D02*
X260609Y401998D01*
X257646Y405949D02*
X257646Y398047D01*
D12*
X274279Y363200D03*
D13*
X273764Y363347D03*
D14*
X273174Y363494D03*
D15*
X272733Y363642D03*
D16*
X272217Y363789D03*
D17*
X271775Y363936D03*
D18*
X271186Y364084D03*
D19*
X270670Y364231D03*
D20*
X270228Y364378D03*
D21*
X269786Y364526D03*
D22*
X269712Y364673D03*
D23*
X269786Y364820D03*
D24*
X269860Y364968D03*
D25*
X269786Y365115D03*
D26*
X269860Y365262D03*
D27*
X269860Y365409D03*
D28*
X269933Y365557D03*
X269933Y365704D03*
D29*
X269933Y365851D03*
D30*
X270007Y365999D03*
D31*
X270007Y366146D03*
X270007Y366293D03*
D32*
X270081Y366441D03*
D33*
X270081Y366588D03*
D34*
X270154Y366735D03*
D35*
X270081Y366883D03*
D36*
X270154Y367030D03*
D37*
X270228Y367177D03*
D38*
X270228Y367325D03*
X270228Y367472D03*
D39*
X270302Y367619D03*
D40*
X270302Y367767D03*
D41*
X270375Y367914D03*
D42*
X270302Y368061D03*
D43*
X270375Y368209D03*
D44*
X270449Y368356D03*
D45*
X270449Y368503D03*
X270449Y368651D03*
D46*
X270449Y368798D03*
D47*
X270523Y368945D03*
X270523Y369092D03*
D48*
X270523Y369240D03*
D49*
X270596Y369387D03*
D50*
X270596Y369534D03*
X270596Y369682D03*
D51*
X270670Y369829D03*
D52*
X270670Y369976D03*
D53*
X270744Y370124D03*
D54*
X270670Y370271D03*
D55*
X270744Y370418D03*
D56*
X270817Y370566D03*
D57*
X291295Y370566D03*
D58*
X270817Y370713D03*
D59*
X290706Y370713D03*
D58*
X270817Y370860D03*
D60*
X290264Y370860D03*
D61*
X270817Y371008D03*
D62*
X289748Y371008D03*
D63*
X270891Y371155D03*
D64*
X289306Y371155D03*
D63*
X270891Y371302D03*
D65*
X288717Y371302D03*
D66*
X270817Y371450D03*
D67*
X288275Y371450D03*
D66*
X270817Y371597D03*
D68*
X287759Y371597D03*
D63*
X270744Y371744D03*
D69*
X287317Y371744D03*
D66*
X270670Y371892D03*
D21*
X287170Y371892D03*
D66*
X270670Y372039D03*
D23*
X287170Y372039D03*
D66*
X270523Y372186D03*
D24*
X287244Y372186D03*
D66*
X270523Y372334D03*
D25*
X287317Y372334D03*
D63*
X270449Y372481D03*
D26*
X287244Y372481D03*
D66*
X270375Y372628D03*
D70*
X287317Y372628D03*
D66*
X270375Y372775D03*
D28*
X287317Y372775D03*
D66*
X270228Y372923D03*
D71*
X287391Y372923D03*
D66*
X270228Y373070D03*
D71*
X287391Y373070D03*
D63*
X270154Y373217D03*
D30*
X287391Y373217D03*
D66*
X270081Y373365D03*
D72*
X287465Y373365D03*
D66*
X270081Y373512D03*
D32*
X287465Y373512D03*
D66*
X269933Y373659D03*
D32*
X287465Y373659D03*
D66*
X269933Y373807D03*
D73*
X287538Y373807D03*
D63*
X269860Y373954D03*
D34*
X287538Y373954D03*
D61*
X269933Y374101D03*
D35*
X287612Y374101D03*
D61*
X269933Y374249D03*
D36*
X287538Y374249D03*
D74*
X269933Y374396D03*
D75*
X287612Y374396D03*
D76*
X270007Y374543D03*
D77*
X287685Y374543D03*
D55*
X270007Y374691D03*
D78*
X287685Y374691D03*
D55*
X270007Y374838D03*
D78*
X287685Y374838D03*
D54*
X270081Y374985D03*
D79*
X287759Y374985D03*
D52*
X270081Y375133D03*
D41*
X287759Y375133D03*
D80*
X270154Y375280D03*
D41*
X287759Y375280D03*
D51*
X270081Y375427D03*
D43*
X287759Y375427D03*
D81*
X270154Y375575D03*
D44*
X287833Y375575D03*
D82*
X270228Y375722D03*
D83*
X287906Y375722D03*
D48*
X270228Y375869D03*
D84*
X287833Y375869D03*
D48*
X270228Y376017D03*
D85*
X287906Y376017D03*
D86*
X270302Y376164D03*
D47*
X287906Y376164D03*
D46*
X270302Y376311D03*
D86*
X287980Y376311D03*
D46*
X270302Y376458D03*
D86*
X287980Y376458D03*
D84*
X270302Y376606D03*
D49*
X287980Y376606D03*
D87*
X270375Y376753D03*
D82*
X288054Y376753D03*
D44*
X270449Y376900D03*
D51*
X288054Y376900D03*
D43*
X270375Y377048D03*
D51*
X288054Y377048D03*
D42*
X270449Y377195D03*
D80*
X288127Y377195D03*
D40*
X270449Y377342D03*
D53*
X288127Y377342D03*
D79*
X270523Y377490D03*
D54*
X288201Y377490D03*
D79*
X270523Y377637D03*
D55*
X288127Y377637D03*
D88*
X270523Y377784D03*
D89*
X288201Y377784D03*
D77*
X270596Y377932D03*
D76*
X288275Y377932D03*
D36*
X270596Y378079D03*
D90*
X288275Y378079D03*
D36*
X270596Y378226D03*
D90*
X288275Y378226D03*
D35*
X270670Y378374D03*
D63*
X288275Y378374D03*
D33*
X270670Y378521D03*
D66*
X288348Y378521D03*
D73*
X270744Y378668D03*
D63*
X288275Y378668D03*
D32*
X270670Y378816D03*
D66*
X288201Y378816D03*
D91*
X270744Y378963D03*
D66*
X288201Y378963D03*
D92*
X270817Y379110D03*
D63*
X288127Y379110D03*
D29*
X270817Y379258D03*
D66*
X288054Y379258D03*
D29*
X270817Y379405D03*
D66*
X288054Y379405D03*
D71*
X270891Y379552D03*
D66*
X287906Y379552D03*
D27*
X270891Y379700D03*
D66*
X287906Y379700D03*
D70*
X270965Y379847D03*
D63*
X287833Y379847D03*
D93*
X270891Y379994D03*
D66*
X287759Y379994D03*
D25*
X270965Y380141D03*
D66*
X287759Y380141D03*
D24*
X271038Y380289D03*
D66*
X287612Y380289D03*
D23*
X270965Y380436D03*
D66*
X287612Y380436D03*
D22*
X271038Y380583D03*
D63*
X287538Y380583D03*
D69*
X270965Y380731D03*
D66*
X287465Y380731D03*
D94*
X270449Y380878D03*
D66*
X287465Y380878D03*
D67*
X269860Y381025D03*
D66*
X287317Y381025D03*
D65*
X269418Y381173D03*
D66*
X287317Y381173D03*
D95*
X268902Y381320D03*
D61*
X287317Y381320D03*
D96*
X268460Y381467D03*
D90*
X287391Y381467D03*
D60*
X267871Y381615D03*
D90*
X287391Y381615D03*
D97*
X267355Y381762D03*
D98*
X287391Y381762D03*
D99*
X266913Y381909D03*
D56*
X287465Y381909D03*
D100*
X276710Y382057D03*
D55*
X287391Y382057D03*
D101*
X276195Y382204D03*
D54*
X287465Y382204D03*
D14*
X275679Y382351D03*
D53*
X287538Y382351D03*
D102*
X275163Y382499D03*
D80*
X287538Y382499D03*
D16*
X274721Y382646D03*
D80*
X287538Y382646D03*
D103*
X274206Y382793D03*
D81*
X287538Y382793D03*
D18*
X273690Y382941D03*
D104*
X287612Y382941D03*
D19*
X273174Y383088D03*
D49*
X287685Y383088D03*
D105*
X272659Y383235D03*
D48*
X287612Y383235D03*
D106*
X272217Y383383D03*
D86*
X287685Y383383D03*
D22*
X272217Y383530D03*
D47*
X287759Y383530D03*
D23*
X272291Y383677D03*
D85*
X287759Y383677D03*
D24*
X272364Y383824D03*
D85*
X287759Y383824D03*
D25*
X272291Y383972D03*
D87*
X287759Y383972D03*
D26*
X272364Y384119D03*
D44*
X287833Y384119D03*
D107*
X272364Y384266D03*
D43*
X287906Y384266D03*
D28*
X272438Y384414D03*
D42*
X287833Y384414D03*
D28*
X272438Y384561D03*
D41*
X287906Y384561D03*
D29*
X272438Y384708D03*
D79*
X287906Y384708D03*
D30*
X272512Y384856D03*
D39*
X287980Y384856D03*
D31*
X272512Y385003D03*
D39*
X287980Y385003D03*
D31*
X272512Y385150D03*
D108*
X287980Y385150D03*
D32*
X272585Y385298D03*
D75*
X288054Y385298D03*
D33*
X272585Y385445D03*
D35*
X288054Y385445D03*
D34*
X272659Y385592D03*
D35*
X288054Y385592D03*
X272585Y385740D03*
D34*
X288127Y385740D03*
D36*
X272659Y385887D03*
D73*
X288127Y385887D03*
D75*
X272733Y386034D03*
D73*
X288127Y386034D03*
D38*
X272733Y386182D03*
D91*
X288127Y386182D03*
D38*
X272733Y386329D03*
D72*
X288201Y386329D03*
D79*
X272733Y386476D03*
D30*
X288275Y386476D03*
D40*
X272806Y386624D03*
D29*
X288201Y386624D03*
D41*
X272880Y386771D03*
D71*
X288275Y386771D03*
D42*
X272806Y386918D03*
D27*
X288275Y386918D03*
D43*
X272880Y387066D03*
D109*
X288348Y387066D03*
D87*
X272880Y387213D03*
D109*
X288348Y387213D03*
D45*
X272953Y387360D03*
D25*
X288348Y387360D03*
D45*
X272953Y387507D03*
D24*
X288422Y387507D03*
D46*
X272953Y387655D03*
D23*
X288496Y387655D03*
D47*
X273027Y387802D03*
D22*
X288422Y387802D03*
D47*
X273027Y387949D03*
D106*
X288422Y387949D03*
D48*
X273027Y388097D03*
D110*
X287980Y388097D03*
D49*
X273101Y388244D03*
D111*
X287465Y388244D03*
D50*
X273101Y388391D03*
D18*
X286949Y388391D03*
D50*
X273101Y388539D03*
D112*
X286433Y388539D03*
D51*
X273174Y388686D03*
D113*
X285991Y388686D03*
D52*
X273174Y388833D03*
D114*
X285476Y388833D03*
D53*
X273248Y388981D03*
D14*
X284960Y388981D03*
D54*
X273174Y389128D03*
D115*
X284444Y389128D03*
D55*
X273248Y389275D03*
D12*
X284002Y389275D03*
D56*
X273322Y389423D03*
D58*
X273322Y389570D03*
X273322Y389717D03*
D61*
X273322Y389865D03*
D63*
X273395Y390012D03*
X273395Y390159D03*
D66*
X273322Y390307D03*
X273322Y390454D03*
X273174Y390601D03*
X273174Y390749D03*
D63*
X273101Y390896D03*
D66*
X273027Y391043D03*
X273027Y391190D03*
X272880Y391338D03*
X272880Y391485D03*
D63*
X272806Y391632D03*
D66*
X272733Y391780D03*
X272733Y391927D03*
D63*
X272659Y392074D03*
D66*
X272585Y392222D03*
X272585Y392369D03*
X272438Y392516D03*
X272438Y392664D03*
D63*
X272364Y392811D03*
D61*
X272438Y392958D03*
X272438Y393106D03*
D74*
X272438Y393253D03*
D76*
X272512Y393400D03*
D55*
X272512Y393548D03*
X272512Y393695D03*
D54*
X272585Y393842D03*
D52*
X272585Y393990D03*
D80*
X272659Y394137D03*
D51*
X272585Y394284D03*
D81*
X272659Y394432D03*
D82*
X272733Y394579D03*
D116*
X272659Y394726D03*
D48*
X272733Y394873D03*
D47*
X272733Y395021D03*
D46*
X272806Y395168D03*
X272806Y395315D03*
D84*
X272806Y395463D03*
D87*
X272880Y395610D03*
D43*
X272880Y395757D03*
X272880Y395905D03*
D42*
X272953Y396052D03*
D40*
X272953Y396199D03*
D79*
X273027Y396347D03*
X273027Y396494D03*
D88*
X273027Y396641D03*
D77*
X273101Y396789D03*
D36*
X273101Y396936D03*
X273101Y397083D03*
D35*
X273174Y397231D03*
D33*
X273174Y397378D03*
D73*
X273248Y397525D03*
D32*
X273174Y397673D03*
D91*
X273248Y397820D03*
D92*
X273322Y397967D03*
D29*
X273322Y398115D03*
X273322Y398262D03*
D28*
X273322Y398409D03*
D27*
X273395Y398556D03*
D70*
X273469Y398704D03*
D93*
X273395Y398851D03*
D25*
X273469Y398998D03*
D23*
X273469Y399146D03*
X273469Y399293D03*
D22*
X273543Y399440D03*
D117*
X273395Y399588D03*
D118*
X272880Y399735D03*
D67*
X272364Y399882D03*
D119*
X271849Y400030D03*
D95*
X271407Y400177D03*
D120*
X270891Y400324D03*
D60*
X270375Y400472D03*
D97*
X269860Y400619D03*
D121*
X269344Y400766D03*
D122*
X254232Y312611D02*
X254232Y310111D01*
X254232Y312611D02*
X254232Y315111D01*
X254232Y312611D02*
X249232Y310111D01*
X249232Y315111D02*
X254232Y312611D01*
X249232Y315111D02*
X249232Y310111D01*
X239232Y307611D02*
X239232Y317611D01*
X264232Y317611D01*
X264232Y307611D01*
X239232Y307611D01*
D123*
X222274Y307699D02*
X222274Y317097D01*
X224885Y317097D01*
X224885Y317098D02*
X224985Y317096D01*
X225085Y317090D01*
X225184Y317081D01*
X225284Y317067D01*
X225382Y317050D01*
X225480Y317029D01*
X225577Y317005D01*
X225673Y316976D01*
X225768Y316944D01*
X225861Y316909D01*
X225953Y316870D01*
X226044Y316827D01*
X226132Y316781D01*
X226219Y316731D01*
X226304Y316679D01*
X226387Y316623D01*
X226468Y316564D01*
X226546Y316501D01*
X226622Y316436D01*
X226696Y316368D01*
X226766Y316298D01*
X226834Y316224D01*
X226899Y316148D01*
X226962Y316070D01*
X227021Y315989D01*
X227077Y315906D01*
X227129Y315821D01*
X227179Y315734D01*
X227225Y315646D01*
X227268Y315555D01*
X227307Y315463D01*
X227342Y315370D01*
X227374Y315275D01*
X227403Y315179D01*
X227427Y315082D01*
X227448Y314984D01*
X227465Y314886D01*
X227479Y314786D01*
X227488Y314687D01*
X227494Y314587D01*
X227496Y314487D01*
X227495Y314487D02*
X227495Y310310D01*
X227496Y310310D02*
X227494Y310210D01*
X227488Y310110D01*
X227479Y310011D01*
X227465Y309911D01*
X227448Y309813D01*
X227427Y309715D01*
X227403Y309618D01*
X227374Y309522D01*
X227342Y309427D01*
X227307Y309334D01*
X227268Y309242D01*
X227225Y309151D01*
X227179Y309063D01*
X227129Y308976D01*
X227077Y308891D01*
X227021Y308808D01*
X226962Y308727D01*
X226899Y308649D01*
X226834Y308573D01*
X226766Y308499D01*
X226696Y308429D01*
X226622Y308361D01*
X226546Y308296D01*
X226468Y308233D01*
X226387Y308174D01*
X226304Y308118D01*
X226219Y308066D01*
X226132Y308016D01*
X226044Y307970D01*
X225953Y307927D01*
X225861Y307888D01*
X225768Y307853D01*
X225673Y307821D01*
X225577Y307792D01*
X225480Y307768D01*
X225382Y307747D01*
X225284Y307730D01*
X225184Y307716D01*
X225085Y307707D01*
X224985Y307701D01*
X224885Y307699D01*
X222274Y307699D01*
X231723Y315009D02*
X234333Y317097D01*
X234333Y307699D01*
X231723Y307699D02*
X236944Y307699D01*
X439207Y345238D02*
X448605Y345238D01*
X439207Y345238D02*
X439207Y349414D01*
X443384Y349414D02*
X443384Y345238D01*
X443384Y353276D02*
X443384Y355887D01*
X443383Y355887D02*
X443385Y355988D01*
X443391Y356089D01*
X443401Y356190D01*
X443414Y356290D01*
X443432Y356390D01*
X443453Y356489D01*
X443479Y356587D01*
X443508Y356684D01*
X443540Y356780D01*
X443577Y356874D01*
X443617Y356967D01*
X443661Y357059D01*
X443708Y357148D01*
X443759Y357236D01*
X443813Y357322D01*
X443870Y357405D01*
X443930Y357487D01*
X443994Y357565D01*
X444060Y357642D01*
X444130Y357715D01*
X444202Y357786D01*
X444277Y357854D01*
X444355Y357919D01*
X444435Y357981D01*
X444517Y358040D01*
X444602Y358096D01*
X444689Y358148D01*
X444777Y358197D01*
X444868Y358243D01*
X444960Y358284D01*
X445054Y358323D01*
X445149Y358357D01*
X445245Y358388D01*
X445343Y358415D01*
X445441Y358439D01*
X445541Y358458D01*
X445641Y358474D01*
X445741Y358486D01*
X445842Y358494D01*
X445943Y358498D01*
X446045Y358498D01*
X446146Y358494D01*
X446247Y358486D01*
X446347Y358474D01*
X446447Y358458D01*
X446547Y358439D01*
X446645Y358415D01*
X446743Y358388D01*
X446839Y358357D01*
X446934Y358323D01*
X447028Y358284D01*
X447120Y358243D01*
X447211Y358197D01*
X447300Y358148D01*
X447386Y358096D01*
X447471Y358040D01*
X447553Y357981D01*
X447633Y357919D01*
X447711Y357854D01*
X447786Y357786D01*
X447858Y357715D01*
X447928Y357642D01*
X447994Y357565D01*
X448058Y357487D01*
X448118Y357405D01*
X448175Y357322D01*
X448229Y357236D01*
X448280Y357148D01*
X448327Y357059D01*
X448371Y356967D01*
X448411Y356874D01*
X448448Y356780D01*
X448480Y356684D01*
X448509Y356587D01*
X448535Y356489D01*
X448556Y356390D01*
X448574Y356290D01*
X448587Y356190D01*
X448597Y356089D01*
X448603Y355988D01*
X448605Y355887D01*
X448605Y353276D01*
X439207Y353276D01*
X439207Y355887D01*
X439209Y355977D01*
X439215Y356066D01*
X439224Y356156D01*
X439238Y356245D01*
X439255Y356333D01*
X439276Y356420D01*
X439301Y356507D01*
X439330Y356592D01*
X439362Y356676D01*
X439397Y356758D01*
X439437Y356839D01*
X439479Y356918D01*
X439525Y356995D01*
X439575Y357070D01*
X439627Y357143D01*
X439683Y357214D01*
X439741Y357282D01*
X439803Y357347D01*
X439867Y357410D01*
X439934Y357470D01*
X440003Y357527D01*
X440075Y357581D01*
X440149Y357632D01*
X440225Y357680D01*
X440303Y357724D01*
X440383Y357765D01*
X440465Y357803D01*
X440548Y357837D01*
X440633Y357867D01*
X440719Y357894D01*
X440805Y357917D01*
X440893Y357936D01*
X440982Y357951D01*
X441071Y357963D01*
X441160Y357971D01*
X441250Y357975D01*
X441340Y357975D01*
X441430Y357971D01*
X441519Y357963D01*
X441608Y357951D01*
X441697Y357936D01*
X441785Y357917D01*
X441871Y357894D01*
X441957Y357867D01*
X442042Y357837D01*
X442125Y357803D01*
X442207Y357765D01*
X442287Y357724D01*
X442365Y357680D01*
X442441Y357632D01*
X442515Y357581D01*
X442587Y357527D01*
X442656Y357470D01*
X442723Y357410D01*
X442787Y357347D01*
X442849Y357282D01*
X442907Y357214D01*
X442963Y357143D01*
X443015Y357070D01*
X443065Y356995D01*
X443111Y356918D01*
X443153Y356839D01*
X443193Y356758D01*
X443228Y356676D01*
X443260Y356592D01*
X443289Y356507D01*
X443314Y356420D01*
X443335Y356333D01*
X443352Y356245D01*
X443366Y356156D01*
X443375Y356066D01*
X443381Y355977D01*
X443383Y355887D01*
X441295Y361984D02*
X439207Y364595D01*
X448605Y364595D01*
X448605Y367205D02*
X448605Y361984D01*
X248174Y352603D02*
X238776Y352603D01*
X238776Y355213D01*
X238778Y355314D01*
X238784Y355415D01*
X238794Y355516D01*
X238807Y355616D01*
X238825Y355716D01*
X238846Y355815D01*
X238872Y355913D01*
X238901Y356010D01*
X238933Y356106D01*
X238970Y356200D01*
X239010Y356293D01*
X239054Y356385D01*
X239101Y356474D01*
X239152Y356562D01*
X239206Y356648D01*
X239263Y356731D01*
X239323Y356813D01*
X239387Y356891D01*
X239453Y356968D01*
X239523Y357041D01*
X239595Y357112D01*
X239670Y357180D01*
X239748Y357245D01*
X239828Y357307D01*
X239910Y357366D01*
X239995Y357422D01*
X240082Y357474D01*
X240170Y357523D01*
X240261Y357569D01*
X240353Y357610D01*
X240447Y357649D01*
X240542Y357683D01*
X240638Y357714D01*
X240736Y357741D01*
X240834Y357765D01*
X240934Y357784D01*
X241034Y357800D01*
X241134Y357812D01*
X241235Y357820D01*
X241336Y357824D01*
X241438Y357824D01*
X241539Y357820D01*
X241640Y357812D01*
X241740Y357800D01*
X241840Y357784D01*
X241940Y357765D01*
X242038Y357741D01*
X242136Y357714D01*
X242232Y357683D01*
X242327Y357649D01*
X242421Y357610D01*
X242513Y357569D01*
X242604Y357523D01*
X242693Y357474D01*
X242779Y357422D01*
X242864Y357366D01*
X242946Y357307D01*
X243026Y357245D01*
X243104Y357180D01*
X243179Y357112D01*
X243251Y357041D01*
X243321Y356968D01*
X243387Y356891D01*
X243451Y356813D01*
X243511Y356731D01*
X243568Y356648D01*
X243622Y356562D01*
X243673Y356474D01*
X243720Y356385D01*
X243764Y356293D01*
X243804Y356200D01*
X243841Y356106D01*
X243873Y356010D01*
X243902Y355913D01*
X243928Y355815D01*
X243949Y355716D01*
X243967Y355616D01*
X243980Y355516D01*
X243990Y355415D01*
X243996Y355314D01*
X243998Y355213D01*
X243997Y355213D02*
X243997Y352603D01*
X243997Y355735D02*
X248174Y357824D01*
X240865Y361690D02*
X238776Y364300D01*
X248174Y364300D01*
X248174Y361690D02*
X248174Y366911D01*
D11*
X267831Y412227D02*
X267831Y430007D01*
X272769Y430007D01*
X272908Y430005D01*
X273046Y429999D01*
X273184Y429990D01*
X273322Y429976D01*
X273459Y429959D01*
X273596Y429937D01*
X273733Y429912D01*
X273868Y429883D01*
X274003Y429850D01*
X274136Y429814D01*
X274269Y429774D01*
X274400Y429730D01*
X274530Y429682D01*
X274659Y429631D01*
X274786Y429576D01*
X274912Y429518D01*
X275036Y429456D01*
X275158Y429391D01*
X275278Y429322D01*
X275397Y429250D01*
X275513Y429175D01*
X275627Y429096D01*
X275739Y429014D01*
X275848Y428929D01*
X275956Y428842D01*
X276060Y428751D01*
X276162Y428657D01*
X276261Y428560D01*
X276358Y428461D01*
X276452Y428359D01*
X276543Y428255D01*
X276630Y428147D01*
X276715Y428038D01*
X276797Y427926D01*
X276876Y427812D01*
X276951Y427696D01*
X277023Y427577D01*
X277092Y427457D01*
X277157Y427335D01*
X277219Y427211D01*
X277277Y427085D01*
X277332Y426958D01*
X277383Y426829D01*
X277431Y426699D01*
X277475Y426568D01*
X277515Y426435D01*
X277551Y426302D01*
X277584Y426167D01*
X277613Y426032D01*
X277638Y425895D01*
X277660Y425758D01*
X277677Y425621D01*
X277691Y425483D01*
X277700Y425345D01*
X277706Y425207D01*
X277708Y425068D01*
X277708Y417166D01*
X277706Y417027D01*
X277700Y416889D01*
X277691Y416751D01*
X277677Y416613D01*
X277660Y416476D01*
X277638Y416339D01*
X277613Y416202D01*
X277584Y416067D01*
X277551Y415932D01*
X277515Y415799D01*
X277475Y415666D01*
X277431Y415535D01*
X277383Y415405D01*
X277332Y415276D01*
X277277Y415149D01*
X277219Y415023D01*
X277157Y414899D01*
X277092Y414777D01*
X277023Y414657D01*
X276951Y414538D01*
X276876Y414422D01*
X276797Y414308D01*
X276715Y414196D01*
X276630Y414087D01*
X276543Y413979D01*
X276452Y413875D01*
X276358Y413773D01*
X276261Y413674D01*
X276162Y413577D01*
X276060Y413483D01*
X275956Y413392D01*
X275848Y413305D01*
X275739Y413220D01*
X275627Y413138D01*
X275513Y413059D01*
X275397Y412984D01*
X275278Y412912D01*
X275158Y412843D01*
X275036Y412778D01*
X274912Y412716D01*
X274786Y412658D01*
X274659Y412603D01*
X274530Y412552D01*
X274400Y412504D01*
X274269Y412460D01*
X274136Y412420D01*
X274003Y412384D01*
X273868Y412351D01*
X273733Y412322D01*
X273596Y412297D01*
X273459Y412275D01*
X273322Y412258D01*
X273184Y412244D01*
X273046Y412235D01*
X272908Y412229D01*
X272769Y412227D01*
X267831Y412227D01*
X271029Y436971D02*
X274980Y436971D01*
X271029Y436972D02*
X270905Y436974D01*
X270781Y436980D01*
X270657Y436990D01*
X270534Y437003D01*
X270411Y437021D01*
X270289Y437042D01*
X270167Y437067D01*
X270046Y437096D01*
X269927Y437129D01*
X269808Y437165D01*
X269691Y437206D01*
X269575Y437249D01*
X269460Y437297D01*
X269347Y437348D01*
X269235Y437403D01*
X269126Y437461D01*
X269018Y437522D01*
X268912Y437587D01*
X268808Y437655D01*
X268707Y437727D01*
X268607Y437801D01*
X268511Y437879D01*
X268416Y437959D01*
X268324Y438043D01*
X268235Y438129D01*
X268149Y438218D01*
X268065Y438310D01*
X267985Y438405D01*
X267907Y438501D01*
X267833Y438601D01*
X267761Y438702D01*
X267693Y438806D01*
X267628Y438912D01*
X267567Y439020D01*
X267509Y439129D01*
X267454Y439241D01*
X267403Y439354D01*
X267355Y439469D01*
X267312Y439585D01*
X267271Y439702D01*
X267235Y439821D01*
X267202Y439940D01*
X267173Y440061D01*
X267148Y440183D01*
X267127Y440305D01*
X267109Y440428D01*
X267096Y440551D01*
X267086Y440675D01*
X267080Y440799D01*
X267078Y440923D01*
X267078Y450800D01*
X267080Y450924D01*
X267086Y451048D01*
X267096Y451172D01*
X267109Y451295D01*
X267127Y451418D01*
X267148Y451540D01*
X267173Y451662D01*
X267202Y451783D01*
X267235Y451902D01*
X267271Y452021D01*
X267312Y452138D01*
X267355Y452254D01*
X267403Y452369D01*
X267454Y452482D01*
X267509Y452594D01*
X267567Y452703D01*
X267628Y452811D01*
X267693Y452917D01*
X267761Y453021D01*
X267833Y453122D01*
X267907Y453222D01*
X267985Y453318D01*
X268065Y453413D01*
X268149Y453505D01*
X268235Y453594D01*
X268324Y453680D01*
X268416Y453764D01*
X268511Y453844D01*
X268607Y453922D01*
X268707Y453996D01*
X268808Y454068D01*
X268912Y454136D01*
X269018Y454201D01*
X269126Y454262D01*
X269235Y454320D01*
X269347Y454375D01*
X269460Y454426D01*
X269575Y454474D01*
X269691Y454517D01*
X269808Y454558D01*
X269927Y454594D01*
X270046Y454627D01*
X270167Y454656D01*
X270289Y454681D01*
X270411Y454702D01*
X270534Y454720D01*
X270657Y454733D01*
X270781Y454743D01*
X270905Y454749D01*
X271029Y454751D01*
X274980Y454751D01*
X403573Y457499D02*
X408512Y457499D01*
X408652Y457497D01*
X408791Y457491D01*
X408931Y457481D01*
X409070Y457467D01*
X409209Y457450D01*
X409347Y457428D01*
X409484Y457402D01*
X409621Y457373D01*
X409757Y457340D01*
X409891Y457303D01*
X410025Y457262D01*
X410157Y457217D01*
X410289Y457168D01*
X410418Y457116D01*
X410546Y457061D01*
X410673Y457001D01*
X410798Y456938D01*
X410921Y456872D01*
X411042Y456802D01*
X411161Y456729D01*
X411278Y456652D01*
X411392Y456572D01*
X411505Y456489D01*
X411615Y456403D01*
X411722Y456313D01*
X411827Y456221D01*
X411929Y456126D01*
X412029Y456028D01*
X412126Y455927D01*
X412220Y455823D01*
X412310Y455717D01*
X412398Y455608D01*
X412483Y455497D01*
X412564Y455383D01*
X412643Y455268D01*
X412718Y455150D01*
X412789Y455030D01*
X412857Y454907D01*
X412922Y454784D01*
X412983Y454658D01*
X413041Y454530D01*
X413095Y454402D01*
X413145Y454271D01*
X413192Y454139D01*
X413235Y454006D01*
X413274Y453872D01*
X413309Y453737D01*
X413340Y453601D01*
X413368Y453463D01*
X413391Y453326D01*
X413411Y453187D01*
X413427Y453048D01*
X413439Y452909D01*
X413447Y452770D01*
X413451Y452630D01*
X413451Y452490D01*
X413447Y452350D01*
X413439Y452211D01*
X413427Y452072D01*
X413411Y451933D01*
X413391Y451794D01*
X413368Y451657D01*
X413340Y451519D01*
X413309Y451383D01*
X413274Y451248D01*
X413235Y451114D01*
X413192Y450981D01*
X413145Y450849D01*
X413095Y450718D01*
X413041Y450590D01*
X412983Y450462D01*
X412922Y450336D01*
X412857Y450213D01*
X412789Y450091D01*
X412718Y449970D01*
X412643Y449852D01*
X412564Y449737D01*
X412483Y449623D01*
X412398Y449512D01*
X412310Y449403D01*
X412220Y449297D01*
X412126Y449193D01*
X412029Y449092D01*
X411929Y448994D01*
X411827Y448899D01*
X411722Y448807D01*
X411615Y448717D01*
X411505Y448631D01*
X411392Y448548D01*
X411278Y448468D01*
X411161Y448391D01*
X411042Y448318D01*
X410921Y448248D01*
X410798Y448182D01*
X410673Y448119D01*
X410546Y448059D01*
X410418Y448004D01*
X410289Y447952D01*
X410157Y447903D01*
X410025Y447858D01*
X409891Y447817D01*
X409757Y447780D01*
X409621Y447747D01*
X409484Y447718D01*
X409347Y447692D01*
X409209Y447670D01*
X409070Y447653D01*
X408931Y447639D01*
X408791Y447629D01*
X408652Y447623D01*
X408512Y447621D01*
X408512Y447622D02*
X403573Y447622D01*
X403573Y465402D01*
X408512Y465402D01*
X408512Y465401D02*
X408636Y465399D01*
X408760Y465393D01*
X408884Y465383D01*
X409007Y465370D01*
X409130Y465352D01*
X409252Y465331D01*
X409374Y465306D01*
X409495Y465277D01*
X409614Y465244D01*
X409733Y465208D01*
X409850Y465167D01*
X409966Y465124D01*
X410081Y465076D01*
X410194Y465025D01*
X410306Y464970D01*
X410415Y464912D01*
X410523Y464851D01*
X410629Y464786D01*
X410733Y464718D01*
X410834Y464646D01*
X410934Y464572D01*
X411030Y464494D01*
X411125Y464414D01*
X411217Y464330D01*
X411306Y464244D01*
X411392Y464155D01*
X411476Y464063D01*
X411556Y463968D01*
X411634Y463872D01*
X411708Y463772D01*
X411780Y463671D01*
X411848Y463567D01*
X411913Y463461D01*
X411974Y463353D01*
X412032Y463244D01*
X412087Y463132D01*
X412138Y463019D01*
X412186Y462904D01*
X412229Y462788D01*
X412270Y462671D01*
X412306Y462552D01*
X412339Y462433D01*
X412368Y462312D01*
X412393Y462190D01*
X412414Y462068D01*
X412432Y461945D01*
X412445Y461822D01*
X412455Y461698D01*
X412461Y461574D01*
X412463Y461450D01*
X412461Y461326D01*
X412455Y461202D01*
X412445Y461078D01*
X412432Y460955D01*
X412414Y460832D01*
X412393Y460710D01*
X412368Y460588D01*
X412339Y460467D01*
X412306Y460348D01*
X412270Y460229D01*
X412229Y460112D01*
X412186Y459996D01*
X412138Y459881D01*
X412087Y459768D01*
X412032Y459656D01*
X411974Y459547D01*
X411913Y459439D01*
X411848Y459333D01*
X411780Y459229D01*
X411708Y459128D01*
X411634Y459028D01*
X411556Y458932D01*
X411476Y458837D01*
X411392Y458745D01*
X411306Y458656D01*
X411217Y458570D01*
X411125Y458486D01*
X411030Y458406D01*
X410934Y458328D01*
X410834Y458254D01*
X410733Y458182D01*
X410629Y458114D01*
X410523Y458049D01*
X410415Y457988D01*
X410306Y457930D01*
X410194Y457875D01*
X410081Y457824D01*
X409966Y457776D01*
X409850Y457733D01*
X409733Y457692D01*
X409614Y457656D01*
X409495Y457623D01*
X409374Y457594D01*
X409252Y457569D01*
X409130Y457548D01*
X409007Y457530D01*
X408884Y457517D01*
X408760Y457507D01*
X408636Y457501D01*
X408512Y457499D01*
X435387Y397586D02*
X435387Y379806D01*
X435387Y397586D02*
X440325Y397586D01*
X440465Y397584D01*
X440604Y397578D01*
X440744Y397568D01*
X440883Y397554D01*
X441022Y397537D01*
X441160Y397515D01*
X441297Y397489D01*
X441434Y397460D01*
X441570Y397427D01*
X441704Y397390D01*
X441838Y397349D01*
X441970Y397304D01*
X442102Y397255D01*
X442231Y397203D01*
X442359Y397148D01*
X442486Y397088D01*
X442611Y397025D01*
X442734Y396959D01*
X442855Y396889D01*
X442974Y396816D01*
X443091Y396739D01*
X443205Y396659D01*
X443318Y396576D01*
X443428Y396490D01*
X443535Y396400D01*
X443640Y396308D01*
X443742Y396213D01*
X443842Y396115D01*
X443939Y396014D01*
X444033Y395910D01*
X444123Y395804D01*
X444211Y395695D01*
X444296Y395584D01*
X444377Y395470D01*
X444456Y395355D01*
X444531Y395237D01*
X444602Y395117D01*
X444670Y394994D01*
X444735Y394871D01*
X444796Y394745D01*
X444854Y394617D01*
X444908Y394489D01*
X444958Y394358D01*
X445005Y394226D01*
X445048Y394093D01*
X445087Y393959D01*
X445122Y393824D01*
X445153Y393688D01*
X445181Y393550D01*
X445204Y393413D01*
X445224Y393274D01*
X445240Y393135D01*
X445252Y392996D01*
X445260Y392857D01*
X445264Y392717D01*
X445264Y392577D01*
X445260Y392437D01*
X445252Y392298D01*
X445240Y392159D01*
X445224Y392020D01*
X445204Y391881D01*
X445181Y391744D01*
X445153Y391606D01*
X445122Y391470D01*
X445087Y391335D01*
X445048Y391201D01*
X445005Y391068D01*
X444958Y390936D01*
X444908Y390805D01*
X444854Y390677D01*
X444796Y390549D01*
X444735Y390423D01*
X444670Y390300D01*
X444602Y390178D01*
X444531Y390057D01*
X444456Y389939D01*
X444377Y389824D01*
X444296Y389710D01*
X444211Y389599D01*
X444123Y389490D01*
X444033Y389384D01*
X443939Y389280D01*
X443842Y389179D01*
X443742Y389081D01*
X443640Y388986D01*
X443535Y388894D01*
X443428Y388804D01*
X443318Y388718D01*
X443205Y388635D01*
X443091Y388555D01*
X442974Y388478D01*
X442855Y388405D01*
X442734Y388335D01*
X442611Y388269D01*
X442486Y388206D01*
X442359Y388146D01*
X442231Y388091D01*
X442102Y388039D01*
X441970Y387990D01*
X441838Y387945D01*
X441704Y387904D01*
X441570Y387867D01*
X441434Y387834D01*
X441297Y387805D01*
X441160Y387779D01*
X441022Y387757D01*
X440883Y387740D01*
X440744Y387726D01*
X440604Y387716D01*
X440465Y387710D01*
X440325Y387708D01*
X435387Y387708D01*
X441313Y387708D02*
X445264Y379806D01*
D122*
X373511Y468380D02*
X373511Y491740D01*
X325751Y491740D02*
X325751Y468380D01*
X373511Y468380D01*
X373511Y491740D02*
X325751Y491740D01*
D124*
X379011Y480060D02*
X379013Y480123D01*
X379019Y480185D01*
X379029Y480247D01*
X379042Y480309D01*
X379060Y480369D01*
X379081Y480428D01*
X379106Y480486D01*
X379135Y480542D01*
X379167Y480596D01*
X379202Y480648D01*
X379240Y480697D01*
X379282Y480745D01*
X379326Y480789D01*
X379374Y480831D01*
X379423Y480869D01*
X379475Y480904D01*
X379529Y480936D01*
X379585Y480965D01*
X379643Y480990D01*
X379702Y481011D01*
X379762Y481029D01*
X379824Y481042D01*
X379886Y481052D01*
X379948Y481058D01*
X380011Y481060D01*
X380074Y481058D01*
X380136Y481052D01*
X380198Y481042D01*
X380260Y481029D01*
X380320Y481011D01*
X380379Y480990D01*
X380437Y480965D01*
X380493Y480936D01*
X380547Y480904D01*
X380599Y480869D01*
X380648Y480831D01*
X380696Y480789D01*
X380740Y480745D01*
X380782Y480697D01*
X380820Y480648D01*
X380855Y480596D01*
X380887Y480542D01*
X380916Y480486D01*
X380941Y480428D01*
X380962Y480369D01*
X380980Y480309D01*
X380993Y480247D01*
X381003Y480185D01*
X381009Y480123D01*
X381011Y480060D01*
X381009Y479997D01*
X381003Y479935D01*
X380993Y479873D01*
X380980Y479811D01*
X380962Y479751D01*
X380941Y479692D01*
X380916Y479634D01*
X380887Y479578D01*
X380855Y479524D01*
X380820Y479472D01*
X380782Y479423D01*
X380740Y479375D01*
X380696Y479331D01*
X380648Y479289D01*
X380599Y479251D01*
X380547Y479216D01*
X380493Y479184D01*
X380437Y479155D01*
X380379Y479130D01*
X380320Y479109D01*
X380260Y479091D01*
X380198Y479078D01*
X380136Y479068D01*
X380074Y479062D01*
X380011Y479060D01*
X379948Y479062D01*
X379886Y479068D01*
X379824Y479078D01*
X379762Y479091D01*
X379702Y479109D01*
X379643Y479130D01*
X379585Y479155D01*
X379529Y479184D01*
X379475Y479216D01*
X379423Y479251D01*
X379374Y479289D01*
X379326Y479331D01*
X379282Y479375D01*
X379240Y479423D01*
X379202Y479472D01*
X379167Y479524D01*
X379135Y479578D01*
X379106Y479634D01*
X379081Y479692D01*
X379060Y479751D01*
X379042Y479811D01*
X379029Y479873D01*
X379019Y479935D01*
X379013Y479997D01*
X379011Y480060D01*
D10*
X289867Y481153D02*
X289867Y492837D01*
X293112Y492837D01*
X293225Y492835D01*
X293338Y492829D01*
X293451Y492819D01*
X293564Y492805D01*
X293676Y492788D01*
X293787Y492766D01*
X293897Y492741D01*
X294007Y492711D01*
X294115Y492678D01*
X294222Y492641D01*
X294328Y492601D01*
X294432Y492556D01*
X294535Y492508D01*
X294636Y492457D01*
X294735Y492402D01*
X294832Y492344D01*
X294927Y492282D01*
X295020Y492217D01*
X295110Y492149D01*
X295198Y492078D01*
X295284Y492003D01*
X295367Y491926D01*
X295447Y491846D01*
X295524Y491763D01*
X295599Y491677D01*
X295670Y491589D01*
X295738Y491499D01*
X295803Y491406D01*
X295865Y491311D01*
X295923Y491214D01*
X295978Y491115D01*
X296029Y491014D01*
X296077Y490911D01*
X296122Y490807D01*
X296162Y490701D01*
X296199Y490594D01*
X296232Y490486D01*
X296262Y490376D01*
X296287Y490266D01*
X296309Y490155D01*
X296326Y490043D01*
X296340Y489930D01*
X296350Y489817D01*
X296356Y489704D01*
X296358Y489591D01*
X296356Y489478D01*
X296350Y489365D01*
X296340Y489252D01*
X296326Y489139D01*
X296309Y489027D01*
X296287Y488916D01*
X296262Y488806D01*
X296232Y488696D01*
X296199Y488588D01*
X296162Y488481D01*
X296122Y488375D01*
X296077Y488271D01*
X296029Y488168D01*
X295978Y488067D01*
X295923Y487968D01*
X295865Y487871D01*
X295803Y487776D01*
X295738Y487683D01*
X295670Y487593D01*
X295599Y487505D01*
X295524Y487419D01*
X295447Y487336D01*
X295367Y487256D01*
X295284Y487179D01*
X295198Y487104D01*
X295110Y487033D01*
X295020Y486965D01*
X294927Y486900D01*
X294832Y486838D01*
X294735Y486780D01*
X294636Y486725D01*
X294535Y486674D01*
X294432Y486626D01*
X294328Y486581D01*
X294222Y486541D01*
X294115Y486504D01*
X294007Y486471D01*
X293897Y486441D01*
X293787Y486416D01*
X293676Y486394D01*
X293564Y486377D01*
X293451Y486363D01*
X293338Y486353D01*
X293225Y486347D01*
X293112Y486345D01*
X293112Y486346D02*
X289867Y486346D01*
X300323Y492837D02*
X302919Y481153D01*
X305516Y488942D01*
X308112Y481153D01*
X310709Y492837D01*
X315679Y492837D02*
X315679Y481153D01*
X315679Y492837D02*
X318924Y492837D01*
X319037Y492835D01*
X319150Y492829D01*
X319263Y492819D01*
X319376Y492805D01*
X319488Y492788D01*
X319599Y492766D01*
X319709Y492741D01*
X319819Y492711D01*
X319927Y492678D01*
X320034Y492641D01*
X320140Y492601D01*
X320244Y492556D01*
X320347Y492508D01*
X320448Y492457D01*
X320547Y492402D01*
X320644Y492344D01*
X320739Y492282D01*
X320832Y492217D01*
X320922Y492149D01*
X321010Y492078D01*
X321096Y492003D01*
X321179Y491926D01*
X321259Y491846D01*
X321336Y491763D01*
X321411Y491677D01*
X321482Y491589D01*
X321550Y491499D01*
X321615Y491406D01*
X321677Y491311D01*
X321735Y491214D01*
X321790Y491115D01*
X321841Y491014D01*
X321889Y490911D01*
X321934Y490807D01*
X321974Y490701D01*
X322011Y490594D01*
X322044Y490486D01*
X322074Y490376D01*
X322099Y490266D01*
X322121Y490155D01*
X322138Y490043D01*
X322152Y489930D01*
X322162Y489817D01*
X322168Y489704D01*
X322170Y489591D01*
X322168Y489478D01*
X322162Y489365D01*
X322152Y489252D01*
X322138Y489139D01*
X322121Y489027D01*
X322099Y488916D01*
X322074Y488806D01*
X322044Y488696D01*
X322011Y488588D01*
X321974Y488481D01*
X321934Y488375D01*
X321889Y488271D01*
X321841Y488168D01*
X321790Y488067D01*
X321735Y487968D01*
X321677Y487871D01*
X321615Y487776D01*
X321550Y487683D01*
X321482Y487593D01*
X321411Y487505D01*
X321336Y487419D01*
X321259Y487336D01*
X321179Y487256D01*
X321096Y487179D01*
X321010Y487104D01*
X320922Y487033D01*
X320832Y486965D01*
X320739Y486900D01*
X320644Y486838D01*
X320547Y486780D01*
X320448Y486725D01*
X320347Y486674D01*
X320244Y486626D01*
X320140Y486581D01*
X320034Y486541D01*
X319927Y486504D01*
X319819Y486471D01*
X319709Y486441D01*
X319599Y486416D01*
X319488Y486394D01*
X319376Y486377D01*
X319263Y486363D01*
X319150Y486353D01*
X319037Y486347D01*
X318924Y486345D01*
X318924Y486346D02*
X315679Y486346D01*
X319574Y486346D02*
X322170Y481153D01*
D123*
X306649Y447089D02*
X304561Y447089D01*
X304472Y447091D01*
X304384Y447097D01*
X304296Y447106D01*
X304208Y447119D01*
X304121Y447136D01*
X304035Y447156D01*
X303950Y447181D01*
X303865Y447208D01*
X303782Y447240D01*
X303701Y447274D01*
X303621Y447313D01*
X303543Y447354D01*
X303466Y447399D01*
X303392Y447447D01*
X303319Y447498D01*
X303249Y447552D01*
X303182Y447610D01*
X303116Y447670D01*
X303054Y447732D01*
X302994Y447798D01*
X302936Y447865D01*
X302882Y447935D01*
X302831Y448008D01*
X302783Y448082D01*
X302738Y448159D01*
X302697Y448237D01*
X302658Y448317D01*
X302624Y448398D01*
X302592Y448481D01*
X302565Y448566D01*
X302540Y448651D01*
X302520Y448737D01*
X302503Y448824D01*
X302490Y448912D01*
X302481Y449000D01*
X302475Y449088D01*
X302473Y449177D01*
X302472Y449177D02*
X302472Y454399D01*
X302473Y454399D02*
X302475Y454490D01*
X302481Y454581D01*
X302491Y454672D01*
X302505Y454762D01*
X302522Y454851D01*
X302544Y454939D01*
X302570Y455027D01*
X302599Y455113D01*
X302632Y455198D01*
X302669Y455281D01*
X302709Y455363D01*
X302753Y455443D01*
X302800Y455521D01*
X302851Y455597D01*
X302904Y455670D01*
X302961Y455741D01*
X303022Y455810D01*
X303085Y455875D01*
X303150Y455938D01*
X303219Y455998D01*
X303290Y456056D01*
X303363Y456109D01*
X303439Y456160D01*
X303517Y456207D01*
X303597Y456251D01*
X303679Y456291D01*
X303762Y456328D01*
X303847Y456361D01*
X303933Y456390D01*
X304021Y456416D01*
X304109Y456438D01*
X304198Y456455D01*
X304288Y456469D01*
X304379Y456479D01*
X304470Y456485D01*
X304561Y456487D01*
X306649Y456487D01*
X310118Y454399D02*
X312728Y456487D01*
X312728Y447089D01*
X310118Y447089D02*
X315339Y447089D01*
X319262Y454399D02*
X321872Y456487D01*
X321872Y447089D01*
X319262Y447089D02*
X324483Y447089D01*
D122*
X321656Y388091D02*
X396656Y388091D01*
X396656Y433091D02*
X321656Y433091D01*
D11*
X309626Y435991D02*
X309626Y385191D01*
D123*
X407941Y426710D02*
X410030Y426710D01*
X407941Y426710D02*
X407852Y426712D01*
X407764Y426718D01*
X407676Y426727D01*
X407588Y426740D01*
X407501Y426757D01*
X407415Y426777D01*
X407330Y426802D01*
X407245Y426829D01*
X407162Y426861D01*
X407081Y426895D01*
X407001Y426934D01*
X406923Y426975D01*
X406846Y427020D01*
X406772Y427068D01*
X406699Y427119D01*
X406629Y427173D01*
X406562Y427231D01*
X406496Y427291D01*
X406434Y427353D01*
X406374Y427419D01*
X406316Y427486D01*
X406262Y427556D01*
X406211Y427629D01*
X406163Y427703D01*
X406118Y427780D01*
X406077Y427858D01*
X406038Y427938D01*
X406004Y428019D01*
X405972Y428102D01*
X405945Y428187D01*
X405920Y428272D01*
X405900Y428358D01*
X405883Y428445D01*
X405870Y428533D01*
X405861Y428621D01*
X405855Y428709D01*
X405853Y428798D01*
X405853Y434020D01*
X405855Y434111D01*
X405861Y434202D01*
X405871Y434293D01*
X405885Y434383D01*
X405902Y434472D01*
X405924Y434560D01*
X405950Y434648D01*
X405979Y434734D01*
X406012Y434819D01*
X406049Y434902D01*
X406089Y434984D01*
X406133Y435064D01*
X406180Y435142D01*
X406231Y435218D01*
X406284Y435291D01*
X406341Y435362D01*
X406402Y435431D01*
X406465Y435496D01*
X406530Y435559D01*
X406599Y435619D01*
X406670Y435677D01*
X406743Y435730D01*
X406819Y435781D01*
X406897Y435828D01*
X406977Y435872D01*
X407059Y435912D01*
X407142Y435949D01*
X407227Y435982D01*
X407313Y436011D01*
X407401Y436037D01*
X407489Y436059D01*
X407578Y436076D01*
X407668Y436090D01*
X407759Y436100D01*
X407850Y436106D01*
X407941Y436108D01*
X410030Y436108D01*
X413499Y434020D02*
X416109Y436108D01*
X416109Y426710D01*
X413499Y426710D02*
X418720Y426710D01*
X422642Y431409D02*
X422644Y431594D01*
X422651Y431779D01*
X422662Y431963D01*
X422677Y432147D01*
X422697Y432331D01*
X422721Y432515D01*
X422750Y432697D01*
X422783Y432879D01*
X422820Y433060D01*
X422862Y433240D01*
X422908Y433420D01*
X422958Y433598D01*
X423012Y433774D01*
X423071Y433950D01*
X423133Y434124D01*
X423200Y434296D01*
X423271Y434467D01*
X423346Y434636D01*
X423425Y434803D01*
X423455Y434883D01*
X423488Y434962D01*
X423525Y435039D01*
X423565Y435115D01*
X423608Y435189D01*
X423654Y435261D01*
X423704Y435330D01*
X423756Y435398D01*
X423812Y435463D01*
X423870Y435526D01*
X423932Y435585D01*
X423995Y435643D01*
X424062Y435697D01*
X424130Y435748D01*
X424201Y435796D01*
X424274Y435841D01*
X424348Y435883D01*
X424425Y435921D01*
X424503Y435956D01*
X424582Y435988D01*
X424663Y436016D01*
X424745Y436040D01*
X424829Y436061D01*
X424912Y436078D01*
X424997Y436091D01*
X425082Y436100D01*
X425167Y436106D01*
X425253Y436108D01*
X425339Y436106D01*
X425424Y436100D01*
X425509Y436091D01*
X425594Y436078D01*
X425677Y436061D01*
X425761Y436040D01*
X425843Y436016D01*
X425924Y435988D01*
X426003Y435956D01*
X426081Y435921D01*
X426158Y435883D01*
X426232Y435841D01*
X426305Y435796D01*
X426376Y435748D01*
X426444Y435697D01*
X426511Y435643D01*
X426574Y435585D01*
X426636Y435526D01*
X426694Y435463D01*
X426750Y435398D01*
X426802Y435330D01*
X426852Y435261D01*
X426898Y435189D01*
X426941Y435115D01*
X426981Y435039D01*
X427018Y434962D01*
X427051Y434883D01*
X427081Y434803D01*
X427160Y434636D01*
X427235Y434467D01*
X427306Y434296D01*
X427373Y434124D01*
X427435Y433950D01*
X427494Y433774D01*
X427548Y433598D01*
X427598Y433420D01*
X427644Y433240D01*
X427686Y433060D01*
X427723Y432879D01*
X427756Y432697D01*
X427785Y432515D01*
X427809Y432331D01*
X427829Y432147D01*
X427844Y431963D01*
X427855Y431779D01*
X427862Y431594D01*
X427864Y431409D01*
X422643Y431409D02*
X422645Y431224D01*
X422652Y431039D01*
X422663Y430855D01*
X422678Y430671D01*
X422698Y430487D01*
X422722Y430303D01*
X422751Y430121D01*
X422784Y429939D01*
X422821Y429758D01*
X422863Y429578D01*
X422909Y429398D01*
X422959Y429220D01*
X423013Y429044D01*
X423072Y428868D01*
X423134Y428694D01*
X423201Y428522D01*
X423272Y428351D01*
X423347Y428182D01*
X423426Y428015D01*
X423425Y428015D02*
X423455Y427935D01*
X423488Y427856D01*
X423525Y427779D01*
X423565Y427703D01*
X423608Y427629D01*
X423654Y427557D01*
X423704Y427488D01*
X423757Y427420D01*
X423812Y427355D01*
X423871Y427292D01*
X423932Y427233D01*
X423995Y427175D01*
X424062Y427121D01*
X424130Y427070D01*
X424201Y427022D01*
X424274Y426977D01*
X424348Y426935D01*
X424425Y426897D01*
X424503Y426862D01*
X424582Y426830D01*
X424663Y426802D01*
X424745Y426778D01*
X424829Y426757D01*
X424912Y426740D01*
X424997Y426727D01*
X425082Y426718D01*
X425167Y426712D01*
X425253Y426710D01*
X427081Y428015D02*
X427160Y428182D01*
X427235Y428351D01*
X427306Y428522D01*
X427373Y428694D01*
X427435Y428868D01*
X427494Y429044D01*
X427548Y429220D01*
X427598Y429398D01*
X427644Y429578D01*
X427686Y429758D01*
X427723Y429939D01*
X427756Y430121D01*
X427785Y430303D01*
X427809Y430487D01*
X427829Y430671D01*
X427844Y430855D01*
X427855Y431039D01*
X427862Y431224D01*
X427864Y431409D01*
X427081Y428015D02*
X427051Y427935D01*
X427018Y427856D01*
X426981Y427779D01*
X426941Y427703D01*
X426898Y427629D01*
X426852Y427557D01*
X426802Y427488D01*
X426750Y427420D01*
X426694Y427355D01*
X426636Y427292D01*
X426574Y427233D01*
X426511Y427175D01*
X426444Y427121D01*
X426376Y427070D01*
X426305Y427022D01*
X426232Y426977D01*
X426158Y426935D01*
X426081Y426897D01*
X426003Y426862D01*
X425924Y426830D01*
X425843Y426802D01*
X425761Y426778D01*
X425677Y426757D01*
X425594Y426740D01*
X425509Y426727D01*
X425424Y426718D01*
X425339Y426712D01*
X425253Y426710D01*
X423165Y428798D02*
X427342Y434020D01*
D11*
X350266Y319913D02*
X322834Y319913D01*
X339598Y369697D02*
X350266Y369697D01*
X339598Y369697D02*
X333502Y369697D01*
X322834Y369697D01*
X333502Y369697D02*
X333504Y369588D01*
X333510Y369480D01*
X333519Y369371D01*
X333533Y369263D01*
X333550Y369156D01*
X333572Y369049D01*
X333597Y368943D01*
X333625Y368838D01*
X333658Y368734D01*
X333694Y368632D01*
X333734Y368531D01*
X333777Y368431D01*
X333824Y368333D01*
X333875Y368236D01*
X333929Y368142D01*
X333986Y368049D01*
X334046Y367959D01*
X334110Y367870D01*
X334177Y367784D01*
X334246Y367701D01*
X334319Y367620D01*
X334395Y367542D01*
X334473Y367466D01*
X334554Y367393D01*
X334637Y367324D01*
X334723Y367257D01*
X334812Y367193D01*
X334902Y367133D01*
X334995Y367076D01*
X335089Y367022D01*
X335186Y366971D01*
X335284Y366924D01*
X335384Y366881D01*
X335485Y366841D01*
X335587Y366805D01*
X335691Y366772D01*
X335796Y366744D01*
X335902Y366719D01*
X336009Y366697D01*
X336116Y366680D01*
X336224Y366666D01*
X336333Y366657D01*
X336441Y366651D01*
X336550Y366649D01*
X336659Y366651D01*
X336767Y366657D01*
X336876Y366666D01*
X336984Y366680D01*
X337091Y366697D01*
X337198Y366719D01*
X337304Y366744D01*
X337409Y366772D01*
X337513Y366805D01*
X337615Y366841D01*
X337716Y366881D01*
X337816Y366924D01*
X337914Y366971D01*
X338011Y367022D01*
X338105Y367076D01*
X338198Y367133D01*
X338288Y367193D01*
X338377Y367257D01*
X338463Y367324D01*
X338546Y367393D01*
X338627Y367466D01*
X338705Y367542D01*
X338781Y367620D01*
X338854Y367701D01*
X338923Y367784D01*
X338990Y367870D01*
X339054Y367959D01*
X339114Y368049D01*
X339171Y368142D01*
X339225Y368236D01*
X339276Y368333D01*
X339323Y368431D01*
X339366Y368531D01*
X339406Y368632D01*
X339442Y368734D01*
X339475Y368838D01*
X339503Y368943D01*
X339528Y369049D01*
X339550Y369156D01*
X339567Y369263D01*
X339581Y369371D01*
X339590Y369480D01*
X339596Y369588D01*
X339598Y369697D01*
D123*
X313863Y369431D02*
X313863Y373417D01*
X313863Y369431D02*
X316188Y366442D01*
X313863Y369431D02*
X311538Y366442D01*
X313863Y369431D02*
X317517Y370760D01*
X313863Y369431D02*
X310209Y370760D01*
D10*
X320120Y374965D02*
X320120Y381569D01*
X320120Y374965D02*
X320122Y374865D01*
X320128Y374766D01*
X320138Y374666D01*
X320151Y374568D01*
X320169Y374469D01*
X320190Y374372D01*
X320215Y374276D01*
X320244Y374180D01*
X320277Y374086D01*
X320313Y373993D01*
X320353Y373902D01*
X320397Y373812D01*
X320444Y373724D01*
X320494Y373638D01*
X320548Y373554D01*
X320605Y373472D01*
X320665Y373393D01*
X320729Y373315D01*
X320795Y373241D01*
X320864Y373169D01*
X320936Y373100D01*
X321010Y373034D01*
X321088Y372970D01*
X321167Y372910D01*
X321249Y372853D01*
X321333Y372799D01*
X321419Y372749D01*
X321507Y372702D01*
X321597Y372658D01*
X321688Y372618D01*
X321781Y372582D01*
X321875Y372549D01*
X321971Y372520D01*
X322067Y372495D01*
X322164Y372474D01*
X322263Y372456D01*
X322361Y372443D01*
X322461Y372433D01*
X322560Y372427D01*
X322660Y372425D01*
X322760Y372427D01*
X322859Y372433D01*
X322959Y372443D01*
X323057Y372456D01*
X323156Y372474D01*
X323253Y372495D01*
X323349Y372520D01*
X323445Y372549D01*
X323539Y372582D01*
X323632Y372618D01*
X323723Y372658D01*
X323813Y372702D01*
X323901Y372749D01*
X323987Y372799D01*
X324071Y372853D01*
X324153Y372910D01*
X324232Y372970D01*
X324310Y373034D01*
X324384Y373100D01*
X324456Y373169D01*
X324525Y373241D01*
X324591Y373315D01*
X324655Y373393D01*
X324715Y373472D01*
X324772Y373554D01*
X324826Y373638D01*
X324876Y373724D01*
X324923Y373812D01*
X324967Y373902D01*
X325007Y373993D01*
X325043Y374086D01*
X325076Y374180D01*
X325105Y374276D01*
X325130Y374372D01*
X325151Y374469D01*
X325169Y374568D01*
X325182Y374666D01*
X325192Y374766D01*
X325198Y374865D01*
X325200Y374965D01*
X325200Y381569D01*
X332362Y381569D02*
X332456Y381567D01*
X332551Y381561D01*
X332645Y381551D01*
X332738Y381538D01*
X332831Y381520D01*
X332923Y381499D01*
X333014Y381474D01*
X333104Y381445D01*
X333193Y381413D01*
X333280Y381376D01*
X333366Y381337D01*
X333450Y381293D01*
X333532Y381247D01*
X333612Y381197D01*
X333690Y381143D01*
X333766Y381087D01*
X333839Y381027D01*
X333910Y380965D01*
X333978Y380899D01*
X334044Y380831D01*
X334106Y380760D01*
X334166Y380687D01*
X334222Y380611D01*
X334276Y380533D01*
X334326Y380453D01*
X334372Y380371D01*
X334416Y380287D01*
X334455Y380201D01*
X334492Y380114D01*
X334524Y380025D01*
X334553Y379935D01*
X334578Y379844D01*
X334599Y379752D01*
X334617Y379659D01*
X334630Y379566D01*
X334640Y379472D01*
X334646Y379377D01*
X334648Y379283D01*
X332362Y381569D02*
X332256Y381567D01*
X332151Y381561D01*
X332046Y381552D01*
X331941Y381539D01*
X331837Y381522D01*
X331734Y381501D01*
X331631Y381477D01*
X331529Y381448D01*
X331429Y381417D01*
X331329Y381381D01*
X331231Y381343D01*
X331135Y381300D01*
X331039Y381254D01*
X330946Y381205D01*
X330855Y381153D01*
X330765Y381097D01*
X330677Y381038D01*
X330592Y380976D01*
X330509Y380911D01*
X330428Y380843D01*
X330350Y380772D01*
X330275Y380698D01*
X330202Y380622D01*
X330132Y380543D01*
X330065Y380462D01*
X330000Y380378D01*
X329939Y380292D01*
X329881Y380204D01*
X329826Y380114D01*
X329775Y380022D01*
X329726Y379928D01*
X329681Y379832D01*
X329640Y379735D01*
X329602Y379637D01*
X329568Y379537D01*
X333886Y377505D02*
X333953Y377572D01*
X334018Y377641D01*
X334080Y377713D01*
X334139Y377786D01*
X334195Y377863D01*
X334249Y377941D01*
X334299Y378021D01*
X334346Y378103D01*
X334390Y378187D01*
X334430Y378273D01*
X334468Y378360D01*
X334502Y378448D01*
X334532Y378538D01*
X334559Y378628D01*
X334583Y378720D01*
X334603Y378813D01*
X334619Y378906D01*
X334632Y379000D01*
X334641Y379094D01*
X334646Y379188D01*
X334648Y379283D01*
X333886Y377505D02*
X329568Y372425D01*
X334648Y372425D01*
D123*
X293497Y290268D02*
X293497Y288180D01*
X293495Y288091D01*
X293489Y288003D01*
X293480Y287915D01*
X293467Y287827D01*
X293450Y287740D01*
X293430Y287654D01*
X293405Y287569D01*
X293378Y287484D01*
X293346Y287401D01*
X293312Y287320D01*
X293273Y287240D01*
X293232Y287162D01*
X293187Y287085D01*
X293139Y287011D01*
X293088Y286938D01*
X293034Y286868D01*
X292976Y286801D01*
X292916Y286735D01*
X292854Y286673D01*
X292788Y286613D01*
X292721Y286555D01*
X292651Y286501D01*
X292578Y286450D01*
X292504Y286402D01*
X292427Y286357D01*
X292349Y286316D01*
X292269Y286277D01*
X292188Y286243D01*
X292105Y286211D01*
X292020Y286184D01*
X291935Y286159D01*
X291849Y286139D01*
X291762Y286122D01*
X291674Y286109D01*
X291586Y286100D01*
X291498Y286094D01*
X291409Y286092D01*
X291409Y286091D02*
X286187Y286091D01*
X286096Y286093D01*
X286005Y286099D01*
X285914Y286109D01*
X285824Y286123D01*
X285735Y286141D01*
X285646Y286162D01*
X285559Y286188D01*
X285473Y286217D01*
X285388Y286250D01*
X285304Y286287D01*
X285222Y286327D01*
X285143Y286371D01*
X285065Y286418D01*
X284989Y286469D01*
X284915Y286523D01*
X284844Y286580D01*
X284776Y286640D01*
X284710Y286703D01*
X284647Y286769D01*
X284587Y286837D01*
X284530Y286908D01*
X284476Y286982D01*
X284425Y287058D01*
X284378Y287135D01*
X284334Y287215D01*
X284294Y287297D01*
X284257Y287381D01*
X284224Y287465D01*
X284195Y287552D01*
X284169Y287639D01*
X284148Y287728D01*
X284130Y287817D01*
X284116Y287907D01*
X284106Y287998D01*
X284100Y288089D01*
X284098Y288180D01*
X284099Y288180D02*
X284099Y290268D01*
X286187Y293737D02*
X284099Y296347D01*
X293497Y296347D01*
X293497Y293737D02*
X293497Y298958D01*
X293497Y302881D02*
X293497Y305491D01*
X293495Y305592D01*
X293489Y305693D01*
X293479Y305794D01*
X293466Y305894D01*
X293448Y305994D01*
X293427Y306093D01*
X293401Y306191D01*
X293372Y306288D01*
X293340Y306384D01*
X293303Y306478D01*
X293263Y306571D01*
X293219Y306663D01*
X293172Y306752D01*
X293121Y306840D01*
X293067Y306926D01*
X293010Y307009D01*
X292950Y307091D01*
X292886Y307169D01*
X292820Y307246D01*
X292750Y307319D01*
X292678Y307390D01*
X292603Y307458D01*
X292525Y307523D01*
X292445Y307585D01*
X292363Y307644D01*
X292278Y307700D01*
X292192Y307752D01*
X292103Y307801D01*
X292012Y307847D01*
X291920Y307888D01*
X291826Y307927D01*
X291731Y307961D01*
X291635Y307992D01*
X291537Y308019D01*
X291439Y308043D01*
X291339Y308062D01*
X291239Y308078D01*
X291139Y308090D01*
X291038Y308098D01*
X290937Y308102D01*
X290835Y308102D01*
X290734Y308098D01*
X290633Y308090D01*
X290533Y308078D01*
X290433Y308062D01*
X290333Y308043D01*
X290235Y308019D01*
X290137Y307992D01*
X290041Y307961D01*
X289946Y307927D01*
X289852Y307888D01*
X289760Y307847D01*
X289669Y307801D01*
X289581Y307752D01*
X289494Y307700D01*
X289409Y307644D01*
X289327Y307585D01*
X289247Y307523D01*
X289169Y307458D01*
X289094Y307390D01*
X289022Y307319D01*
X288952Y307246D01*
X288886Y307169D01*
X288822Y307091D01*
X288762Y307009D01*
X288705Y306926D01*
X288651Y306840D01*
X288600Y306752D01*
X288553Y306663D01*
X288509Y306571D01*
X288469Y306478D01*
X288432Y306384D01*
X288400Y306288D01*
X288371Y306191D01*
X288345Y306093D01*
X288324Y305994D01*
X288306Y305894D01*
X288293Y305794D01*
X288283Y305693D01*
X288277Y305592D01*
X288275Y305491D01*
X284099Y306014D02*
X284099Y302881D01*
X284099Y306014D02*
X284101Y306104D01*
X284107Y306193D01*
X284116Y306283D01*
X284130Y306372D01*
X284147Y306460D01*
X284168Y306547D01*
X284193Y306634D01*
X284222Y306719D01*
X284254Y306803D01*
X284289Y306885D01*
X284329Y306966D01*
X284371Y307045D01*
X284417Y307122D01*
X284467Y307197D01*
X284519Y307270D01*
X284575Y307341D01*
X284633Y307409D01*
X284695Y307474D01*
X284759Y307537D01*
X284826Y307597D01*
X284895Y307654D01*
X284967Y307708D01*
X285041Y307759D01*
X285117Y307807D01*
X285195Y307851D01*
X285275Y307892D01*
X285357Y307930D01*
X285440Y307964D01*
X285525Y307994D01*
X285611Y308021D01*
X285697Y308044D01*
X285785Y308063D01*
X285874Y308078D01*
X285963Y308090D01*
X286052Y308098D01*
X286142Y308102D01*
X286232Y308102D01*
X286322Y308098D01*
X286411Y308090D01*
X286500Y308078D01*
X286589Y308063D01*
X286677Y308044D01*
X286763Y308021D01*
X286849Y307994D01*
X286934Y307964D01*
X287017Y307930D01*
X287099Y307892D01*
X287179Y307851D01*
X287257Y307807D01*
X287333Y307759D01*
X287407Y307708D01*
X287479Y307654D01*
X287548Y307597D01*
X287615Y307537D01*
X287679Y307474D01*
X287741Y307409D01*
X287799Y307341D01*
X287855Y307270D01*
X287907Y307197D01*
X287957Y307122D01*
X288003Y307045D01*
X288045Y306966D01*
X288085Y306885D01*
X288120Y306803D01*
X288152Y306719D01*
X288181Y306634D01*
X288206Y306547D01*
X288227Y306460D01*
X288244Y306372D01*
X288258Y306283D01*
X288267Y306193D01*
X288273Y306104D01*
X288275Y306014D01*
X288276Y306014D02*
X288276Y303925D01*
X399034Y350393D02*
X399034Y359791D01*
X401645Y359791D01*
X401746Y359789D01*
X401847Y359783D01*
X401948Y359773D01*
X402048Y359760D01*
X402148Y359742D01*
X402247Y359721D01*
X402345Y359695D01*
X402442Y359666D01*
X402538Y359634D01*
X402632Y359597D01*
X402725Y359557D01*
X402817Y359513D01*
X402906Y359466D01*
X402994Y359415D01*
X403080Y359361D01*
X403163Y359304D01*
X403245Y359244D01*
X403323Y359180D01*
X403400Y359114D01*
X403473Y359044D01*
X403544Y358972D01*
X403612Y358897D01*
X403677Y358819D01*
X403739Y358739D01*
X403798Y358657D01*
X403854Y358572D01*
X403906Y358485D01*
X403955Y358397D01*
X404001Y358306D01*
X404042Y358214D01*
X404081Y358120D01*
X404115Y358025D01*
X404146Y357929D01*
X404173Y357831D01*
X404197Y357733D01*
X404216Y357633D01*
X404232Y357533D01*
X404244Y357433D01*
X404252Y357332D01*
X404256Y357231D01*
X404256Y357129D01*
X404252Y357028D01*
X404244Y356927D01*
X404232Y356827D01*
X404216Y356727D01*
X404197Y356627D01*
X404173Y356529D01*
X404146Y356431D01*
X404115Y356335D01*
X404081Y356240D01*
X404042Y356146D01*
X404001Y356054D01*
X403955Y355963D01*
X403906Y355875D01*
X403854Y355788D01*
X403798Y355703D01*
X403739Y355621D01*
X403677Y355541D01*
X403612Y355463D01*
X403544Y355388D01*
X403473Y355316D01*
X403400Y355246D01*
X403323Y355180D01*
X403245Y355116D01*
X403163Y355056D01*
X403080Y354999D01*
X402994Y354945D01*
X402906Y354894D01*
X402817Y354847D01*
X402725Y354803D01*
X402632Y354763D01*
X402538Y354726D01*
X402442Y354694D01*
X402345Y354665D01*
X402247Y354639D01*
X402148Y354618D01*
X402048Y354600D01*
X401948Y354587D01*
X401847Y354577D01*
X401746Y354571D01*
X401645Y354569D01*
X401645Y354570D02*
X399034Y354570D01*
X402167Y354570D02*
X404255Y350393D01*
X408121Y352481D02*
X410209Y359791D01*
X408121Y352481D02*
X413342Y352481D01*
X411776Y354570D02*
X411776Y350393D01*
X423799Y349123D02*
X433197Y349123D01*
X423799Y349123D02*
X423799Y351734D01*
X423801Y351835D01*
X423807Y351936D01*
X423817Y352037D01*
X423830Y352137D01*
X423848Y352237D01*
X423869Y352336D01*
X423895Y352434D01*
X423924Y352531D01*
X423956Y352627D01*
X423993Y352721D01*
X424033Y352814D01*
X424077Y352906D01*
X424124Y352995D01*
X424175Y353083D01*
X424229Y353169D01*
X424286Y353252D01*
X424346Y353334D01*
X424410Y353412D01*
X424476Y353489D01*
X424546Y353562D01*
X424618Y353633D01*
X424693Y353701D01*
X424771Y353766D01*
X424851Y353828D01*
X424933Y353887D01*
X425018Y353943D01*
X425105Y353995D01*
X425193Y354044D01*
X425284Y354090D01*
X425376Y354131D01*
X425470Y354170D01*
X425565Y354204D01*
X425661Y354235D01*
X425759Y354262D01*
X425857Y354286D01*
X425957Y354305D01*
X426057Y354321D01*
X426157Y354333D01*
X426258Y354341D01*
X426359Y354345D01*
X426461Y354345D01*
X426562Y354341D01*
X426663Y354333D01*
X426763Y354321D01*
X426863Y354305D01*
X426963Y354286D01*
X427061Y354262D01*
X427159Y354235D01*
X427255Y354204D01*
X427350Y354170D01*
X427444Y354131D01*
X427536Y354090D01*
X427627Y354044D01*
X427716Y353995D01*
X427802Y353943D01*
X427887Y353887D01*
X427969Y353828D01*
X428049Y353766D01*
X428127Y353701D01*
X428202Y353633D01*
X428274Y353562D01*
X428344Y353489D01*
X428410Y353412D01*
X428474Y353334D01*
X428534Y353252D01*
X428591Y353169D01*
X428645Y353083D01*
X428696Y352995D01*
X428743Y352906D01*
X428787Y352814D01*
X428827Y352721D01*
X428864Y352627D01*
X428896Y352531D01*
X428925Y352434D01*
X428951Y352336D01*
X428972Y352237D01*
X428990Y352137D01*
X429003Y352037D01*
X429013Y351936D01*
X429019Y351835D01*
X429021Y351734D01*
X429020Y351734D02*
X429020Y349123D01*
X429020Y352256D02*
X433197Y354344D01*
X433197Y358210D02*
X433197Y361343D01*
X433195Y361432D01*
X433189Y361520D01*
X433180Y361608D01*
X433167Y361696D01*
X433150Y361783D01*
X433130Y361869D01*
X433105Y361954D01*
X433078Y362039D01*
X433046Y362122D01*
X433012Y362203D01*
X432973Y362283D01*
X432932Y362361D01*
X432887Y362438D01*
X432839Y362512D01*
X432788Y362585D01*
X432734Y362655D01*
X432676Y362722D01*
X432616Y362788D01*
X432554Y362850D01*
X432488Y362910D01*
X432421Y362968D01*
X432351Y363022D01*
X432278Y363073D01*
X432204Y363121D01*
X432127Y363166D01*
X432049Y363207D01*
X431969Y363246D01*
X431888Y363280D01*
X431805Y363312D01*
X431720Y363339D01*
X431635Y363364D01*
X431549Y363384D01*
X431462Y363401D01*
X431374Y363414D01*
X431286Y363423D01*
X431198Y363429D01*
X431109Y363431D01*
X430064Y363431D01*
X429975Y363429D01*
X429887Y363423D01*
X429799Y363414D01*
X429711Y363401D01*
X429624Y363384D01*
X429538Y363364D01*
X429453Y363339D01*
X429368Y363312D01*
X429285Y363280D01*
X429204Y363246D01*
X429124Y363207D01*
X429046Y363166D01*
X428969Y363121D01*
X428895Y363073D01*
X428822Y363022D01*
X428752Y362968D01*
X428685Y362910D01*
X428619Y362850D01*
X428557Y362788D01*
X428497Y362722D01*
X428439Y362655D01*
X428385Y362585D01*
X428334Y362512D01*
X428286Y362438D01*
X428241Y362361D01*
X428200Y362283D01*
X428161Y362203D01*
X428127Y362122D01*
X428095Y362039D01*
X428068Y361954D01*
X428043Y361869D01*
X428023Y361783D01*
X428006Y361696D01*
X427993Y361608D01*
X427984Y361520D01*
X427978Y361432D01*
X427976Y361343D01*
X427976Y358210D01*
X423799Y358210D01*
X423799Y363431D01*
X400093Y306197D02*
X400093Y296799D01*
X400093Y306197D02*
X402704Y306197D01*
X402805Y306195D01*
X402906Y306189D01*
X403007Y306179D01*
X403107Y306166D01*
X403207Y306148D01*
X403306Y306127D01*
X403404Y306101D01*
X403501Y306072D01*
X403597Y306040D01*
X403691Y306003D01*
X403784Y305963D01*
X403876Y305919D01*
X403965Y305872D01*
X404053Y305821D01*
X404139Y305767D01*
X404222Y305710D01*
X404304Y305650D01*
X404382Y305586D01*
X404459Y305520D01*
X404532Y305450D01*
X404603Y305378D01*
X404671Y305303D01*
X404736Y305225D01*
X404798Y305145D01*
X404857Y305063D01*
X404913Y304978D01*
X404965Y304891D01*
X405014Y304803D01*
X405060Y304712D01*
X405101Y304620D01*
X405140Y304526D01*
X405174Y304431D01*
X405205Y304335D01*
X405232Y304237D01*
X405256Y304139D01*
X405275Y304039D01*
X405291Y303939D01*
X405303Y303839D01*
X405311Y303738D01*
X405315Y303637D01*
X405315Y303535D01*
X405311Y303434D01*
X405303Y303333D01*
X405291Y303233D01*
X405275Y303133D01*
X405256Y303033D01*
X405232Y302935D01*
X405205Y302837D01*
X405174Y302741D01*
X405140Y302646D01*
X405101Y302552D01*
X405060Y302460D01*
X405014Y302369D01*
X404965Y302281D01*
X404913Y302194D01*
X404857Y302109D01*
X404798Y302027D01*
X404736Y301947D01*
X404671Y301869D01*
X404603Y301794D01*
X404532Y301722D01*
X404459Y301652D01*
X404382Y301586D01*
X404304Y301522D01*
X404222Y301462D01*
X404139Y301405D01*
X404053Y301351D01*
X403965Y301300D01*
X403876Y301253D01*
X403784Y301209D01*
X403691Y301169D01*
X403597Y301132D01*
X403501Y301100D01*
X403404Y301071D01*
X403306Y301045D01*
X403207Y301024D01*
X403107Y301006D01*
X403007Y300993D01*
X402906Y300983D01*
X402805Y300977D01*
X402704Y300975D01*
X402704Y300976D02*
X400093Y300976D01*
X403226Y300976D02*
X405314Y296799D01*
X409180Y302020D02*
X412313Y302020D01*
X412402Y302018D01*
X412490Y302012D01*
X412578Y302003D01*
X412666Y301990D01*
X412753Y301973D01*
X412839Y301953D01*
X412924Y301928D01*
X413009Y301901D01*
X413092Y301869D01*
X413173Y301835D01*
X413253Y301796D01*
X413331Y301755D01*
X413408Y301710D01*
X413482Y301662D01*
X413555Y301611D01*
X413625Y301557D01*
X413692Y301499D01*
X413758Y301439D01*
X413820Y301377D01*
X413880Y301311D01*
X413938Y301244D01*
X413992Y301174D01*
X414043Y301101D01*
X414091Y301027D01*
X414136Y300950D01*
X414177Y300872D01*
X414216Y300792D01*
X414250Y300711D01*
X414282Y300628D01*
X414309Y300543D01*
X414334Y300458D01*
X414354Y300372D01*
X414371Y300285D01*
X414384Y300197D01*
X414393Y300109D01*
X414399Y300021D01*
X414401Y299932D01*
X414401Y299410D01*
X414399Y299309D01*
X414393Y299208D01*
X414383Y299107D01*
X414370Y299007D01*
X414352Y298907D01*
X414331Y298808D01*
X414305Y298710D01*
X414276Y298613D01*
X414244Y298517D01*
X414207Y298423D01*
X414167Y298330D01*
X414123Y298238D01*
X414076Y298149D01*
X414025Y298061D01*
X413971Y297975D01*
X413914Y297892D01*
X413854Y297810D01*
X413790Y297732D01*
X413724Y297655D01*
X413654Y297582D01*
X413582Y297511D01*
X413507Y297443D01*
X413429Y297378D01*
X413349Y297316D01*
X413267Y297257D01*
X413182Y297201D01*
X413095Y297149D01*
X413007Y297100D01*
X412916Y297054D01*
X412824Y297013D01*
X412730Y296974D01*
X412635Y296940D01*
X412539Y296909D01*
X412441Y296882D01*
X412343Y296858D01*
X412243Y296839D01*
X412143Y296823D01*
X412043Y296811D01*
X411942Y296803D01*
X411841Y296799D01*
X411739Y296799D01*
X411638Y296803D01*
X411537Y296811D01*
X411437Y296823D01*
X411337Y296839D01*
X411237Y296858D01*
X411139Y296882D01*
X411041Y296909D01*
X410945Y296940D01*
X410850Y296974D01*
X410756Y297013D01*
X410664Y297054D01*
X410573Y297100D01*
X410485Y297149D01*
X410398Y297201D01*
X410313Y297257D01*
X410231Y297316D01*
X410151Y297378D01*
X410073Y297443D01*
X409998Y297511D01*
X409926Y297582D01*
X409856Y297655D01*
X409790Y297732D01*
X409726Y297810D01*
X409666Y297892D01*
X409609Y297975D01*
X409555Y298061D01*
X409504Y298149D01*
X409457Y298238D01*
X409413Y298330D01*
X409373Y298423D01*
X409336Y298517D01*
X409304Y298613D01*
X409275Y298710D01*
X409249Y298808D01*
X409228Y298907D01*
X409210Y299007D01*
X409197Y299107D01*
X409187Y299208D01*
X409181Y299309D01*
X409179Y299410D01*
X409180Y299410D02*
X409180Y302020D01*
X409182Y302149D01*
X409188Y302277D01*
X409198Y302405D01*
X409212Y302533D01*
X409229Y302661D01*
X409251Y302788D01*
X409277Y302914D01*
X409306Y303039D01*
X409339Y303163D01*
X409377Y303286D01*
X409417Y303408D01*
X409462Y303529D01*
X409510Y303648D01*
X409562Y303766D01*
X409618Y303882D01*
X409677Y303996D01*
X409740Y304108D01*
X409806Y304219D01*
X409875Y304327D01*
X409948Y304433D01*
X410024Y304537D01*
X410103Y304639D01*
X410185Y304738D01*
X410270Y304834D01*
X410358Y304928D01*
X410449Y305019D01*
X410543Y305107D01*
X410639Y305192D01*
X410738Y305274D01*
X410840Y305353D01*
X410944Y305429D01*
X411050Y305502D01*
X411158Y305571D01*
X411268Y305637D01*
X411381Y305700D01*
X411495Y305759D01*
X411611Y305815D01*
X411729Y305867D01*
X411848Y305915D01*
X411969Y305960D01*
X412091Y306000D01*
X412214Y306038D01*
X412338Y306071D01*
X412463Y306100D01*
X412589Y306126D01*
X412716Y306148D01*
X412844Y306165D01*
X412972Y306179D01*
X413100Y306189D01*
X413228Y306195D01*
X413357Y306197D01*
D10*
X347599Y292862D02*
X335915Y292862D01*
X335915Y296108D01*
X335917Y296221D01*
X335923Y296334D01*
X335933Y296447D01*
X335947Y296560D01*
X335964Y296672D01*
X335986Y296783D01*
X336011Y296893D01*
X336041Y297003D01*
X336074Y297111D01*
X336111Y297218D01*
X336151Y297324D01*
X336196Y297428D01*
X336244Y297531D01*
X336295Y297632D01*
X336350Y297731D01*
X336408Y297828D01*
X336470Y297923D01*
X336535Y298016D01*
X336603Y298106D01*
X336674Y298194D01*
X336749Y298280D01*
X336826Y298363D01*
X336906Y298443D01*
X336989Y298520D01*
X337075Y298595D01*
X337163Y298666D01*
X337253Y298734D01*
X337346Y298799D01*
X337441Y298861D01*
X337538Y298919D01*
X337637Y298974D01*
X337738Y299025D01*
X337841Y299073D01*
X337945Y299118D01*
X338051Y299158D01*
X338158Y299195D01*
X338266Y299228D01*
X338376Y299258D01*
X338486Y299283D01*
X338597Y299305D01*
X338709Y299322D01*
X338822Y299336D01*
X338935Y299346D01*
X339048Y299352D01*
X339161Y299354D01*
X339274Y299352D01*
X339387Y299346D01*
X339500Y299336D01*
X339613Y299322D01*
X339725Y299305D01*
X339836Y299283D01*
X339946Y299258D01*
X340056Y299228D01*
X340164Y299195D01*
X340271Y299158D01*
X340377Y299118D01*
X340481Y299073D01*
X340584Y299025D01*
X340685Y298974D01*
X340784Y298919D01*
X340881Y298861D01*
X340976Y298799D01*
X341069Y298734D01*
X341159Y298666D01*
X341247Y298595D01*
X341333Y298520D01*
X341416Y298443D01*
X341496Y298363D01*
X341573Y298280D01*
X341648Y298194D01*
X341719Y298106D01*
X341787Y298016D01*
X341852Y297923D01*
X341914Y297828D01*
X341972Y297731D01*
X342027Y297632D01*
X342078Y297531D01*
X342126Y297428D01*
X342171Y297324D01*
X342211Y297218D01*
X342248Y297111D01*
X342281Y297003D01*
X342311Y296893D01*
X342336Y296783D01*
X342358Y296672D01*
X342375Y296560D01*
X342389Y296447D01*
X342399Y296334D01*
X342405Y296221D01*
X342407Y296108D01*
X342406Y296108D02*
X342406Y292862D01*
X342406Y296757D02*
X347599Y299353D01*
X337213Y304218D02*
X335915Y304218D01*
X335915Y310709D01*
X347599Y307464D01*
D123*
X408615Y284988D02*
X410704Y284988D01*
X408615Y284988D02*
X408526Y284990D01*
X408438Y284996D01*
X408350Y285005D01*
X408262Y285018D01*
X408175Y285035D01*
X408089Y285055D01*
X408004Y285080D01*
X407919Y285107D01*
X407836Y285139D01*
X407755Y285173D01*
X407675Y285212D01*
X407597Y285253D01*
X407520Y285298D01*
X407446Y285346D01*
X407373Y285397D01*
X407303Y285451D01*
X407236Y285509D01*
X407170Y285569D01*
X407108Y285631D01*
X407048Y285697D01*
X406990Y285764D01*
X406936Y285834D01*
X406885Y285907D01*
X406837Y285981D01*
X406792Y286058D01*
X406751Y286136D01*
X406712Y286216D01*
X406678Y286297D01*
X406646Y286380D01*
X406619Y286465D01*
X406594Y286550D01*
X406574Y286636D01*
X406557Y286723D01*
X406544Y286811D01*
X406535Y286899D01*
X406529Y286987D01*
X406527Y287076D01*
X406527Y292298D01*
X406529Y292389D01*
X406535Y292480D01*
X406545Y292571D01*
X406559Y292661D01*
X406576Y292750D01*
X406598Y292838D01*
X406624Y292926D01*
X406653Y293012D01*
X406686Y293097D01*
X406723Y293180D01*
X406763Y293262D01*
X406807Y293342D01*
X406854Y293420D01*
X406905Y293496D01*
X406958Y293569D01*
X407015Y293640D01*
X407076Y293709D01*
X407139Y293774D01*
X407204Y293837D01*
X407273Y293897D01*
X407344Y293955D01*
X407417Y294008D01*
X407493Y294059D01*
X407571Y294106D01*
X407651Y294150D01*
X407733Y294190D01*
X407816Y294227D01*
X407901Y294260D01*
X407987Y294289D01*
X408075Y294315D01*
X408163Y294337D01*
X408252Y294354D01*
X408342Y294368D01*
X408433Y294378D01*
X408524Y294384D01*
X408615Y294386D01*
X410704Y294386D01*
X414173Y292298D02*
X416783Y294386D01*
X416783Y284988D01*
X414173Y284988D02*
X419394Y284988D01*
X428538Y292037D02*
X428536Y292132D01*
X428530Y292226D01*
X428521Y292320D01*
X428508Y292414D01*
X428491Y292507D01*
X428470Y292599D01*
X428445Y292691D01*
X428417Y292781D01*
X428385Y292870D01*
X428350Y292958D01*
X428311Y293044D01*
X428269Y293129D01*
X428223Y293212D01*
X428174Y293293D01*
X428122Y293372D01*
X428067Y293449D01*
X428008Y293523D01*
X427947Y293595D01*
X427883Y293665D01*
X427816Y293732D01*
X427746Y293796D01*
X427674Y293857D01*
X427600Y293916D01*
X427523Y293971D01*
X427444Y294023D01*
X427363Y294072D01*
X427280Y294118D01*
X427195Y294160D01*
X427109Y294199D01*
X427021Y294234D01*
X426932Y294266D01*
X426842Y294294D01*
X426750Y294319D01*
X426658Y294340D01*
X426565Y294357D01*
X426471Y294370D01*
X426377Y294379D01*
X426283Y294385D01*
X426188Y294387D01*
X426188Y294386D02*
X426080Y294384D01*
X425971Y294378D01*
X425863Y294368D01*
X425756Y294355D01*
X425649Y294337D01*
X425542Y294316D01*
X425437Y294291D01*
X425332Y294262D01*
X425229Y294230D01*
X425127Y294193D01*
X425026Y294153D01*
X424927Y294110D01*
X424829Y294063D01*
X424733Y294012D01*
X424639Y293958D01*
X424547Y293901D01*
X424457Y293840D01*
X424369Y293776D01*
X424284Y293710D01*
X424201Y293640D01*
X424121Y293567D01*
X424043Y293491D01*
X423968Y293413D01*
X423896Y293332D01*
X423827Y293248D01*
X423761Y293162D01*
X423698Y293074D01*
X423639Y292983D01*
X423582Y292891D01*
X423529Y292796D01*
X423480Y292700D01*
X423434Y292601D01*
X423391Y292502D01*
X423352Y292400D01*
X423317Y292298D01*
X427755Y290209D02*
X427824Y290278D01*
X427890Y290349D01*
X427954Y290422D01*
X428015Y290498D01*
X428073Y290577D01*
X428127Y290657D01*
X428179Y290740D01*
X428227Y290824D01*
X428273Y290910D01*
X428314Y290998D01*
X428353Y291088D01*
X428388Y291179D01*
X428419Y291271D01*
X428447Y291364D01*
X428471Y291458D01*
X428491Y291553D01*
X428508Y291649D01*
X428521Y291746D01*
X428530Y291843D01*
X428536Y291940D01*
X428538Y292037D01*
X427755Y290209D02*
X423317Y284988D01*
X428538Y284988D01*
D10*
X353012Y234299D02*
X353016Y234655D01*
X353029Y235010D01*
X353051Y235366D01*
X353082Y235720D01*
X353121Y236074D01*
X353169Y236427D01*
X353225Y236778D01*
X353291Y237128D01*
X353364Y237476D01*
X353447Y237822D01*
X353537Y238166D01*
X353636Y238508D01*
X353744Y238847D01*
X353860Y239184D01*
X353984Y239517D01*
X354116Y239848D01*
X354256Y240175D01*
X354404Y240499D01*
X354560Y240818D01*
X354724Y241134D01*
X354896Y241446D01*
X355075Y241753D01*
X355262Y242056D01*
X355456Y242355D01*
X355657Y242648D01*
X355865Y242937D01*
X356081Y243220D01*
X356303Y243498D01*
X356532Y243770D01*
X356768Y244037D01*
X357010Y244297D01*
X357259Y244552D01*
X357514Y244801D01*
X357774Y245043D01*
X358041Y245279D01*
X358313Y245508D01*
X358591Y245730D01*
X358874Y245946D01*
X359163Y246154D01*
X359456Y246355D01*
X359755Y246549D01*
X360058Y246736D01*
X360365Y246915D01*
X360677Y247087D01*
X360993Y247251D01*
X361312Y247407D01*
X361636Y247555D01*
X361963Y247695D01*
X362294Y247827D01*
X362627Y247951D01*
X362964Y248067D01*
X363303Y248175D01*
X363645Y248274D01*
X363989Y248364D01*
X364335Y248447D01*
X364683Y248520D01*
X365033Y248586D01*
X365384Y248642D01*
X365737Y248690D01*
X366091Y248729D01*
X366445Y248760D01*
X366801Y248782D01*
X367156Y248795D01*
X367512Y248799D01*
X367868Y248795D01*
X368223Y248782D01*
X368579Y248760D01*
X368933Y248729D01*
X369287Y248690D01*
X369640Y248642D01*
X369991Y248586D01*
X370341Y248520D01*
X370689Y248447D01*
X371035Y248364D01*
X371379Y248274D01*
X371721Y248175D01*
X372060Y248067D01*
X372397Y247951D01*
X372730Y247827D01*
X373061Y247695D01*
X373388Y247555D01*
X373712Y247407D01*
X374031Y247251D01*
X374347Y247087D01*
X374659Y246915D01*
X374966Y246736D01*
X375269Y246549D01*
X375568Y246355D01*
X375861Y246154D01*
X376150Y245946D01*
X376433Y245730D01*
X376711Y245508D01*
X376983Y245279D01*
X377250Y245043D01*
X377510Y244801D01*
X377765Y244552D01*
X378014Y244297D01*
X378256Y244037D01*
X378492Y243770D01*
X378721Y243498D01*
X378943Y243220D01*
X379159Y242937D01*
X379367Y242648D01*
X379568Y242355D01*
X379762Y242056D01*
X379949Y241753D01*
X380128Y241446D01*
X380300Y241134D01*
X380464Y240818D01*
X380620Y240499D01*
X380768Y240175D01*
X380908Y239848D01*
X381040Y239517D01*
X381164Y239184D01*
X381280Y238847D01*
X381388Y238508D01*
X381487Y238166D01*
X381577Y237822D01*
X381660Y237476D01*
X381733Y237128D01*
X381799Y236778D01*
X381855Y236427D01*
X381903Y236074D01*
X381942Y235720D01*
X381973Y235366D01*
X381995Y235010D01*
X382008Y234655D01*
X382012Y234299D01*
X382008Y233943D01*
X381995Y233588D01*
X381973Y233232D01*
X381942Y232878D01*
X381903Y232524D01*
X381855Y232171D01*
X381799Y231820D01*
X381733Y231470D01*
X381660Y231122D01*
X381577Y230776D01*
X381487Y230432D01*
X381388Y230090D01*
X381280Y229751D01*
X381164Y229414D01*
X381040Y229081D01*
X380908Y228750D01*
X380768Y228423D01*
X380620Y228099D01*
X380464Y227780D01*
X380300Y227464D01*
X380128Y227152D01*
X379949Y226845D01*
X379762Y226542D01*
X379568Y226243D01*
X379367Y225950D01*
X379159Y225661D01*
X378943Y225378D01*
X378721Y225100D01*
X378492Y224828D01*
X378256Y224561D01*
X378014Y224301D01*
X377765Y224046D01*
X377510Y223797D01*
X377250Y223555D01*
X376983Y223319D01*
X376711Y223090D01*
X376433Y222868D01*
X376150Y222652D01*
X375861Y222444D01*
X375568Y222243D01*
X375269Y222049D01*
X374966Y221862D01*
X374659Y221683D01*
X374347Y221511D01*
X374031Y221347D01*
X373712Y221191D01*
X373388Y221043D01*
X373061Y220903D01*
X372730Y220771D01*
X372397Y220647D01*
X372060Y220531D01*
X371721Y220423D01*
X371379Y220324D01*
X371035Y220234D01*
X370689Y220151D01*
X370341Y220078D01*
X369991Y220012D01*
X369640Y219956D01*
X369287Y219908D01*
X368933Y219869D01*
X368579Y219838D01*
X368223Y219816D01*
X367868Y219803D01*
X367512Y219799D01*
X367156Y219803D01*
X366801Y219816D01*
X366445Y219838D01*
X366091Y219869D01*
X365737Y219908D01*
X365384Y219956D01*
X365033Y220012D01*
X364683Y220078D01*
X364335Y220151D01*
X363989Y220234D01*
X363645Y220324D01*
X363303Y220423D01*
X362964Y220531D01*
X362627Y220647D01*
X362294Y220771D01*
X361963Y220903D01*
X361636Y221043D01*
X361312Y221191D01*
X360993Y221347D01*
X360677Y221511D01*
X360365Y221683D01*
X360058Y221862D01*
X359755Y222049D01*
X359456Y222243D01*
X359163Y222444D01*
X358874Y222652D01*
X358591Y222868D01*
X358313Y223090D01*
X358041Y223319D01*
X357774Y223555D01*
X357514Y223797D01*
X357259Y224046D01*
X357010Y224301D01*
X356768Y224561D01*
X356532Y224828D01*
X356303Y225100D01*
X356081Y225378D01*
X355865Y225661D01*
X355657Y225950D01*
X355456Y226243D01*
X355262Y226542D01*
X355075Y226845D01*
X354896Y227152D01*
X354724Y227464D01*
X354560Y227780D01*
X354404Y228099D01*
X354256Y228423D01*
X354116Y228750D01*
X353984Y229081D01*
X353860Y229414D01*
X353744Y229751D01*
X353636Y230090D01*
X353537Y230432D01*
X353447Y230776D01*
X353364Y231122D01*
X353291Y231470D01*
X353225Y231820D01*
X353169Y232171D01*
X353121Y232524D01*
X353082Y232878D01*
X353051Y233232D01*
X353029Y233588D01*
X353016Y233943D01*
X353012Y234299D01*
X318012Y234299D02*
X318016Y234655D01*
X318029Y235010D01*
X318051Y235366D01*
X318082Y235720D01*
X318121Y236074D01*
X318169Y236427D01*
X318225Y236778D01*
X318291Y237128D01*
X318364Y237476D01*
X318447Y237822D01*
X318537Y238166D01*
X318636Y238508D01*
X318744Y238847D01*
X318860Y239184D01*
X318984Y239517D01*
X319116Y239848D01*
X319256Y240175D01*
X319404Y240499D01*
X319560Y240818D01*
X319724Y241134D01*
X319896Y241446D01*
X320075Y241753D01*
X320262Y242056D01*
X320456Y242355D01*
X320657Y242648D01*
X320865Y242937D01*
X321081Y243220D01*
X321303Y243498D01*
X321532Y243770D01*
X321768Y244037D01*
X322010Y244297D01*
X322259Y244552D01*
X322514Y244801D01*
X322774Y245043D01*
X323041Y245279D01*
X323313Y245508D01*
X323591Y245730D01*
X323874Y245946D01*
X324163Y246154D01*
X324456Y246355D01*
X324755Y246549D01*
X325058Y246736D01*
X325365Y246915D01*
X325677Y247087D01*
X325993Y247251D01*
X326312Y247407D01*
X326636Y247555D01*
X326963Y247695D01*
X327294Y247827D01*
X327627Y247951D01*
X327964Y248067D01*
X328303Y248175D01*
X328645Y248274D01*
X328989Y248364D01*
X329335Y248447D01*
X329683Y248520D01*
X330033Y248586D01*
X330384Y248642D01*
X330737Y248690D01*
X331091Y248729D01*
X331445Y248760D01*
X331801Y248782D01*
X332156Y248795D01*
X332512Y248799D01*
X332868Y248795D01*
X333223Y248782D01*
X333579Y248760D01*
X333933Y248729D01*
X334287Y248690D01*
X334640Y248642D01*
X334991Y248586D01*
X335341Y248520D01*
X335689Y248447D01*
X336035Y248364D01*
X336379Y248274D01*
X336721Y248175D01*
X337060Y248067D01*
X337397Y247951D01*
X337730Y247827D01*
X338061Y247695D01*
X338388Y247555D01*
X338712Y247407D01*
X339031Y247251D01*
X339347Y247087D01*
X339659Y246915D01*
X339966Y246736D01*
X340269Y246549D01*
X340568Y246355D01*
X340861Y246154D01*
X341150Y245946D01*
X341433Y245730D01*
X341711Y245508D01*
X341983Y245279D01*
X342250Y245043D01*
X342510Y244801D01*
X342765Y244552D01*
X343014Y244297D01*
X343256Y244037D01*
X343492Y243770D01*
X343721Y243498D01*
X343943Y243220D01*
X344159Y242937D01*
X344367Y242648D01*
X344568Y242355D01*
X344762Y242056D01*
X344949Y241753D01*
X345128Y241446D01*
X345300Y241134D01*
X345464Y240818D01*
X345620Y240499D01*
X345768Y240175D01*
X345908Y239848D01*
X346040Y239517D01*
X346164Y239184D01*
X346280Y238847D01*
X346388Y238508D01*
X346487Y238166D01*
X346577Y237822D01*
X346660Y237476D01*
X346733Y237128D01*
X346799Y236778D01*
X346855Y236427D01*
X346903Y236074D01*
X346942Y235720D01*
X346973Y235366D01*
X346995Y235010D01*
X347008Y234655D01*
X347012Y234299D01*
X347008Y233943D01*
X346995Y233588D01*
X346973Y233232D01*
X346942Y232878D01*
X346903Y232524D01*
X346855Y232171D01*
X346799Y231820D01*
X346733Y231470D01*
X346660Y231122D01*
X346577Y230776D01*
X346487Y230432D01*
X346388Y230090D01*
X346280Y229751D01*
X346164Y229414D01*
X346040Y229081D01*
X345908Y228750D01*
X345768Y228423D01*
X345620Y228099D01*
X345464Y227780D01*
X345300Y227464D01*
X345128Y227152D01*
X344949Y226845D01*
X344762Y226542D01*
X344568Y226243D01*
X344367Y225950D01*
X344159Y225661D01*
X343943Y225378D01*
X343721Y225100D01*
X343492Y224828D01*
X343256Y224561D01*
X343014Y224301D01*
X342765Y224046D01*
X342510Y223797D01*
X342250Y223555D01*
X341983Y223319D01*
X341711Y223090D01*
X341433Y222868D01*
X341150Y222652D01*
X340861Y222444D01*
X340568Y222243D01*
X340269Y222049D01*
X339966Y221862D01*
X339659Y221683D01*
X339347Y221511D01*
X339031Y221347D01*
X338712Y221191D01*
X338388Y221043D01*
X338061Y220903D01*
X337730Y220771D01*
X337397Y220647D01*
X337060Y220531D01*
X336721Y220423D01*
X336379Y220324D01*
X336035Y220234D01*
X335689Y220151D01*
X335341Y220078D01*
X334991Y220012D01*
X334640Y219956D01*
X334287Y219908D01*
X333933Y219869D01*
X333579Y219838D01*
X333223Y219816D01*
X332868Y219803D01*
X332512Y219799D01*
X332156Y219803D01*
X331801Y219816D01*
X331445Y219838D01*
X331091Y219869D01*
X330737Y219908D01*
X330384Y219956D01*
X330033Y220012D01*
X329683Y220078D01*
X329335Y220151D01*
X328989Y220234D01*
X328645Y220324D01*
X328303Y220423D01*
X327964Y220531D01*
X327627Y220647D01*
X327294Y220771D01*
X326963Y220903D01*
X326636Y221043D01*
X326312Y221191D01*
X325993Y221347D01*
X325677Y221511D01*
X325365Y221683D01*
X325058Y221862D01*
X324755Y222049D01*
X324456Y222243D01*
X324163Y222444D01*
X323874Y222652D01*
X323591Y222868D01*
X323313Y223090D01*
X323041Y223319D01*
X322774Y223555D01*
X322514Y223797D01*
X322259Y224046D01*
X322010Y224301D01*
X321768Y224561D01*
X321532Y224828D01*
X321303Y225100D01*
X321081Y225378D01*
X320865Y225661D01*
X320657Y225950D01*
X320456Y226243D01*
X320262Y226542D01*
X320075Y226845D01*
X319896Y227152D01*
X319724Y227464D01*
X319560Y227780D01*
X319404Y228099D01*
X319256Y228423D01*
X319116Y228750D01*
X318984Y229081D01*
X318860Y229414D01*
X318744Y229751D01*
X318636Y230090D01*
X318537Y230432D01*
X318447Y230776D01*
X318364Y231122D01*
X318291Y231470D01*
X318225Y231820D01*
X318169Y232171D01*
X318121Y232524D01*
X318082Y232878D01*
X318051Y233232D01*
X318029Y233588D01*
X318016Y233943D01*
X318012Y234299D01*
X312512Y196799D02*
X387512Y196799D01*
X387512Y214176D01*
X387512Y254292D02*
X312512Y254292D01*
X312512Y249462D01*
X312512Y218932D01*
X312512Y214176D01*
X312512Y254292D02*
X312512Y262409D01*
X312512Y214176D02*
X387512Y214176D01*
X387512Y218932D02*
X387512Y249462D01*
X387512Y218932D02*
X387512Y214176D01*
X387512Y218932D02*
X312512Y218932D01*
X312512Y249462D02*
X387512Y249462D01*
X312512Y214176D02*
X312512Y196799D01*
X387512Y249462D02*
X387512Y254292D01*
X387512Y262409D01*
X312512Y262409D01*
X312512Y269799D02*
X387512Y269799D01*
X312512Y269799D02*
X312512Y266799D01*
X387512Y266799D01*
X387512Y269799D01*
X387512Y266799D02*
X387512Y262409D01*
X312512Y262409D02*
X312512Y266799D01*
X355452Y227189D02*
X355512Y227249D01*
X320512Y227249D02*
X320452Y227189D01*
X365013Y207970D02*
X368258Y210566D01*
X368258Y198882D01*
X365013Y198882D02*
X371504Y198882D01*
X336579Y207645D02*
X336577Y207752D01*
X336571Y207858D01*
X336561Y207964D01*
X336548Y208070D01*
X336530Y208176D01*
X336509Y208280D01*
X336484Y208384D01*
X336455Y208487D01*
X336423Y208588D01*
X336386Y208688D01*
X336346Y208787D01*
X336303Y208885D01*
X336256Y208981D01*
X336205Y209075D01*
X336151Y209167D01*
X336094Y209257D01*
X336034Y209345D01*
X335970Y209430D01*
X335903Y209513D01*
X335833Y209594D01*
X335761Y209672D01*
X335685Y209748D01*
X335607Y209820D01*
X335526Y209890D01*
X335443Y209957D01*
X335358Y210021D01*
X335270Y210081D01*
X335180Y210138D01*
X335088Y210192D01*
X334994Y210243D01*
X334898Y210290D01*
X334800Y210333D01*
X334701Y210373D01*
X334601Y210410D01*
X334500Y210442D01*
X334397Y210471D01*
X334293Y210496D01*
X334189Y210517D01*
X334083Y210535D01*
X333977Y210548D01*
X333871Y210558D01*
X333765Y210564D01*
X333658Y210566D01*
X333537Y210564D01*
X333416Y210558D01*
X333296Y210548D01*
X333175Y210535D01*
X333056Y210517D01*
X332936Y210496D01*
X332818Y210471D01*
X332701Y210442D01*
X332584Y210409D01*
X332469Y210373D01*
X332355Y210332D01*
X332242Y210289D01*
X332130Y210241D01*
X332021Y210190D01*
X331913Y210135D01*
X331806Y210077D01*
X331702Y210016D01*
X331600Y209951D01*
X331500Y209883D01*
X331402Y209812D01*
X331306Y209738D01*
X331213Y209661D01*
X331123Y209580D01*
X331035Y209497D01*
X330950Y209411D01*
X330867Y209322D01*
X330788Y209231D01*
X330711Y209137D01*
X330638Y209041D01*
X330568Y208943D01*
X330501Y208842D01*
X330437Y208739D01*
X330377Y208634D01*
X330320Y208527D01*
X330266Y208419D01*
X330216Y208309D01*
X330170Y208197D01*
X330127Y208084D01*
X330088Y207969D01*
X335606Y205373D02*
X335685Y205450D01*
X335761Y205531D01*
X335834Y205614D01*
X335904Y205699D01*
X335971Y205787D01*
X336035Y205877D01*
X336095Y205969D01*
X336152Y206064D01*
X336206Y206160D01*
X336257Y206258D01*
X336304Y206358D01*
X336348Y206460D01*
X336388Y206563D01*
X336424Y206667D01*
X336456Y206773D01*
X336485Y206879D01*
X336510Y206987D01*
X336532Y207095D01*
X336549Y207205D01*
X336563Y207314D01*
X336572Y207424D01*
X336578Y207535D01*
X336580Y207645D01*
X335605Y205373D02*
X330088Y198882D01*
X336579Y198882D01*
D123*
X301244Y271682D02*
X304377Y281080D01*
X307509Y271682D01*
X306726Y274032D02*
X302027Y274032D01*
X311215Y271682D02*
X311215Y281080D01*
X316436Y271682D01*
X316436Y281080D01*
X323274Y281080D02*
X320142Y271682D01*
X326407Y271682D02*
X323274Y281080D01*
X325624Y274032D02*
X320925Y274032D01*
X330130Y271682D02*
X330130Y281080D01*
X330130Y271682D02*
X334307Y271682D01*
X337732Y274293D02*
X337732Y278469D01*
X337734Y278570D01*
X337740Y278671D01*
X337750Y278772D01*
X337763Y278872D01*
X337781Y278972D01*
X337802Y279071D01*
X337828Y279169D01*
X337857Y279266D01*
X337889Y279362D01*
X337926Y279456D01*
X337966Y279549D01*
X338010Y279641D01*
X338057Y279730D01*
X338108Y279818D01*
X338162Y279904D01*
X338219Y279987D01*
X338279Y280069D01*
X338343Y280147D01*
X338409Y280224D01*
X338479Y280297D01*
X338551Y280368D01*
X338626Y280436D01*
X338704Y280501D01*
X338784Y280563D01*
X338866Y280622D01*
X338951Y280678D01*
X339038Y280730D01*
X339126Y280779D01*
X339217Y280825D01*
X339309Y280866D01*
X339403Y280905D01*
X339498Y280939D01*
X339594Y280970D01*
X339692Y280997D01*
X339790Y281021D01*
X339890Y281040D01*
X339990Y281056D01*
X340090Y281068D01*
X340191Y281076D01*
X340292Y281080D01*
X340394Y281080D01*
X340495Y281076D01*
X340596Y281068D01*
X340696Y281056D01*
X340796Y281040D01*
X340896Y281021D01*
X340994Y280997D01*
X341092Y280970D01*
X341188Y280939D01*
X341283Y280905D01*
X341377Y280866D01*
X341469Y280825D01*
X341560Y280779D01*
X341649Y280730D01*
X341735Y280678D01*
X341820Y280622D01*
X341902Y280563D01*
X341982Y280501D01*
X342060Y280436D01*
X342135Y280368D01*
X342207Y280297D01*
X342277Y280224D01*
X342343Y280147D01*
X342407Y280069D01*
X342467Y279987D01*
X342524Y279904D01*
X342578Y279818D01*
X342629Y279730D01*
X342676Y279641D01*
X342720Y279549D01*
X342760Y279456D01*
X342797Y279362D01*
X342829Y279266D01*
X342858Y279169D01*
X342884Y279071D01*
X342905Y278972D01*
X342923Y278872D01*
X342936Y278772D01*
X342946Y278671D01*
X342952Y278570D01*
X342954Y278469D01*
X342953Y278469D02*
X342953Y274293D01*
X342954Y274293D02*
X342952Y274192D01*
X342946Y274091D01*
X342936Y273990D01*
X342923Y273890D01*
X342905Y273790D01*
X342884Y273691D01*
X342858Y273593D01*
X342829Y273496D01*
X342797Y273400D01*
X342760Y273306D01*
X342720Y273213D01*
X342676Y273121D01*
X342629Y273032D01*
X342578Y272944D01*
X342524Y272858D01*
X342467Y272775D01*
X342407Y272693D01*
X342343Y272615D01*
X342277Y272538D01*
X342207Y272465D01*
X342135Y272394D01*
X342060Y272326D01*
X341982Y272261D01*
X341902Y272199D01*
X341820Y272140D01*
X341735Y272084D01*
X341648Y272032D01*
X341560Y271983D01*
X341469Y271937D01*
X341377Y271896D01*
X341283Y271857D01*
X341188Y271823D01*
X341092Y271792D01*
X340994Y271765D01*
X340896Y271741D01*
X340796Y271722D01*
X340696Y271706D01*
X340596Y271694D01*
X340495Y271686D01*
X340394Y271682D01*
X340292Y271682D01*
X340191Y271686D01*
X340090Y271694D01*
X339990Y271706D01*
X339890Y271722D01*
X339790Y271741D01*
X339692Y271765D01*
X339594Y271792D01*
X339498Y271823D01*
X339403Y271857D01*
X339309Y271896D01*
X339217Y271937D01*
X339126Y271983D01*
X339038Y272032D01*
X338951Y272084D01*
X338866Y272140D01*
X338784Y272199D01*
X338704Y272261D01*
X338626Y272326D01*
X338551Y272394D01*
X338479Y272465D01*
X338409Y272538D01*
X338343Y272615D01*
X338279Y272693D01*
X338219Y272775D01*
X338162Y272858D01*
X338108Y272944D01*
X338057Y273032D01*
X338010Y273121D01*
X337966Y273213D01*
X337926Y273306D01*
X337889Y273400D01*
X337857Y273496D01*
X337828Y273593D01*
X337802Y273691D01*
X337781Y273790D01*
X337763Y273890D01*
X337750Y273990D01*
X337740Y274091D01*
X337734Y274192D01*
X337732Y274293D01*
X350836Y276903D02*
X352402Y276903D01*
X352402Y271682D01*
X349270Y271682D01*
X349181Y271684D01*
X349093Y271690D01*
X349005Y271699D01*
X348917Y271712D01*
X348830Y271729D01*
X348744Y271749D01*
X348659Y271774D01*
X348574Y271801D01*
X348491Y271833D01*
X348410Y271867D01*
X348330Y271906D01*
X348252Y271947D01*
X348175Y271992D01*
X348101Y272040D01*
X348028Y272091D01*
X347958Y272145D01*
X347891Y272203D01*
X347825Y272263D01*
X347763Y272325D01*
X347703Y272391D01*
X347645Y272458D01*
X347591Y272528D01*
X347540Y272601D01*
X347492Y272675D01*
X347447Y272752D01*
X347406Y272830D01*
X347367Y272910D01*
X347333Y272991D01*
X347301Y273074D01*
X347274Y273159D01*
X347249Y273244D01*
X347229Y273330D01*
X347212Y273417D01*
X347199Y273505D01*
X347190Y273593D01*
X347184Y273681D01*
X347182Y273770D01*
X347181Y273770D02*
X347181Y278992D01*
X347182Y278992D02*
X347184Y279083D01*
X347190Y279174D01*
X347200Y279265D01*
X347214Y279355D01*
X347231Y279444D01*
X347253Y279532D01*
X347279Y279620D01*
X347308Y279706D01*
X347341Y279791D01*
X347378Y279874D01*
X347418Y279956D01*
X347462Y280036D01*
X347509Y280114D01*
X347560Y280190D01*
X347613Y280263D01*
X347670Y280334D01*
X347731Y280403D01*
X347794Y280468D01*
X347859Y280531D01*
X347928Y280591D01*
X347999Y280649D01*
X348072Y280702D01*
X348148Y280753D01*
X348226Y280800D01*
X348306Y280844D01*
X348388Y280884D01*
X348471Y280921D01*
X348556Y280954D01*
X348642Y280983D01*
X348730Y281009D01*
X348818Y281031D01*
X348907Y281048D01*
X348997Y281062D01*
X349088Y281072D01*
X349179Y281078D01*
X349270Y281080D01*
X352402Y281080D01*
X356238Y270638D02*
X360414Y270638D01*
X364727Y271682D02*
X364727Y281080D01*
X363683Y271682D02*
X365771Y271682D01*
X365771Y281080D02*
X363683Y281080D01*
X369736Y281080D02*
X369736Y271682D01*
X374957Y271682D02*
X369736Y281080D01*
X374957Y281080D02*
X374957Y271682D01*
X379621Y271682D02*
X379621Y281080D01*
X382232Y281080D01*
X382333Y281078D01*
X382434Y281072D01*
X382535Y281062D01*
X382635Y281049D01*
X382735Y281031D01*
X382834Y281010D01*
X382932Y280984D01*
X383029Y280955D01*
X383125Y280923D01*
X383219Y280886D01*
X383312Y280846D01*
X383404Y280802D01*
X383493Y280755D01*
X383581Y280704D01*
X383667Y280650D01*
X383750Y280593D01*
X383832Y280533D01*
X383910Y280469D01*
X383987Y280403D01*
X384060Y280333D01*
X384131Y280261D01*
X384199Y280186D01*
X384264Y280108D01*
X384326Y280028D01*
X384385Y279946D01*
X384441Y279861D01*
X384493Y279774D01*
X384542Y279686D01*
X384588Y279595D01*
X384629Y279503D01*
X384668Y279409D01*
X384702Y279314D01*
X384733Y279218D01*
X384760Y279120D01*
X384784Y279022D01*
X384803Y278922D01*
X384819Y278822D01*
X384831Y278722D01*
X384839Y278621D01*
X384843Y278520D01*
X384843Y278418D01*
X384839Y278317D01*
X384831Y278216D01*
X384819Y278116D01*
X384803Y278016D01*
X384784Y277916D01*
X384760Y277818D01*
X384733Y277720D01*
X384702Y277624D01*
X384668Y277529D01*
X384629Y277435D01*
X384588Y277343D01*
X384542Y277252D01*
X384493Y277164D01*
X384441Y277077D01*
X384385Y276992D01*
X384326Y276910D01*
X384264Y276830D01*
X384199Y276752D01*
X384131Y276677D01*
X384060Y276605D01*
X383987Y276535D01*
X383910Y276469D01*
X383832Y276405D01*
X383750Y276345D01*
X383667Y276288D01*
X383581Y276234D01*
X383493Y276183D01*
X383404Y276136D01*
X383312Y276092D01*
X383219Y276052D01*
X383125Y276015D01*
X383029Y275983D01*
X382932Y275954D01*
X382834Y275928D01*
X382735Y275907D01*
X382635Y275889D01*
X382535Y275876D01*
X382434Y275866D01*
X382333Y275860D01*
X382232Y275858D01*
X382232Y275859D02*
X379621Y275859D01*
X388634Y274293D02*
X388634Y281080D01*
X388633Y274293D02*
X388635Y274192D01*
X388641Y274091D01*
X388651Y273990D01*
X388664Y273890D01*
X388682Y273790D01*
X388703Y273691D01*
X388729Y273593D01*
X388758Y273496D01*
X388790Y273400D01*
X388827Y273306D01*
X388867Y273213D01*
X388911Y273121D01*
X388958Y273032D01*
X389009Y272944D01*
X389063Y272858D01*
X389120Y272775D01*
X389180Y272693D01*
X389244Y272615D01*
X389310Y272538D01*
X389380Y272465D01*
X389452Y272394D01*
X389527Y272326D01*
X389605Y272261D01*
X389685Y272199D01*
X389767Y272140D01*
X389852Y272084D01*
X389939Y272032D01*
X390027Y271983D01*
X390118Y271937D01*
X390210Y271896D01*
X390304Y271857D01*
X390399Y271823D01*
X390495Y271792D01*
X390593Y271765D01*
X390691Y271741D01*
X390791Y271722D01*
X390891Y271706D01*
X390991Y271694D01*
X391092Y271686D01*
X391193Y271682D01*
X391295Y271682D01*
X391396Y271686D01*
X391497Y271694D01*
X391597Y271706D01*
X391697Y271722D01*
X391797Y271741D01*
X391895Y271765D01*
X391993Y271792D01*
X392089Y271823D01*
X392184Y271857D01*
X392278Y271896D01*
X392370Y271937D01*
X392461Y271983D01*
X392549Y272032D01*
X392636Y272084D01*
X392721Y272140D01*
X392803Y272199D01*
X392883Y272261D01*
X392961Y272326D01*
X393036Y272394D01*
X393108Y272465D01*
X393178Y272538D01*
X393244Y272615D01*
X393308Y272693D01*
X393368Y272775D01*
X393425Y272858D01*
X393479Y272944D01*
X393530Y273032D01*
X393577Y273121D01*
X393621Y273213D01*
X393661Y273306D01*
X393698Y273400D01*
X393730Y273496D01*
X393759Y273593D01*
X393785Y273691D01*
X393806Y273790D01*
X393824Y273890D01*
X393837Y273990D01*
X393847Y274091D01*
X393853Y274192D01*
X393855Y274293D01*
X393855Y281080D01*
X400084Y281080D02*
X400084Y271682D01*
X397473Y281080D02*
X402694Y281080D01*
M02*
