G04 EAGLE Gerber RS-274X export*
G75*
%MOMM*%
%FSLAX34Y34*%
%LPD*%
%INSolderpaste Top*%
%IPPOS*%
%AMOC8*
5,1,8,0,0,1.08239X$1,22.5*%
G01*
%ADD10R,0.800000X0.800000*%
%ADD11R,1.000000X1.100000*%
%ADD12R,1.500000X2.000000*%
%ADD13R,2.310000X2.520000*%
%ADD14R,0.558800X1.981200*%
%ADD15R,1.500000X1.300000*%
%ADD16R,1.100000X1.000000*%
%ADD17C,0.142500*%
%ADD18R,2.000000X1.500000*%
%ADD19R,2.200000X1.800000*%
%ADD20R,1.800000X1.120000*%
%ADD21R,1.500000X1.050000*%
%ADD22R,1.500000X2.400000*%


D10*
X207074Y346318D03*
X207074Y331318D03*
D11*
X207258Y366470D03*
X224258Y366470D03*
D12*
X275096Y366141D03*
X245096Y366141D03*
D13*
X296430Y328041D03*
X234430Y328041D03*
D14*
X328930Y360553D03*
X341630Y360553D03*
X354330Y360553D03*
X367030Y360553D03*
X367030Y409829D03*
X354330Y409829D03*
X341630Y409829D03*
X328930Y409829D03*
D15*
X385064Y349529D03*
X385064Y368529D03*
X385064Y409804D03*
X385064Y390804D03*
X406019Y390804D03*
X406019Y409804D03*
D11*
X406019Y372482D03*
X406019Y355482D03*
D16*
X381390Y328168D03*
X398390Y328168D03*
D17*
X323067Y293864D02*
X323067Y275788D01*
X318791Y275788D01*
X318791Y293864D01*
X323067Y293864D01*
X323067Y277142D02*
X318791Y277142D01*
X318791Y278496D02*
X323067Y278496D01*
X323067Y279850D02*
X318791Y279850D01*
X318791Y281204D02*
X323067Y281204D01*
X323067Y282558D02*
X318791Y282558D01*
X318791Y283912D02*
X323067Y283912D01*
X323067Y285266D02*
X318791Y285266D01*
X318791Y286620D02*
X323067Y286620D01*
X323067Y287974D02*
X318791Y287974D01*
X318791Y289328D02*
X323067Y289328D01*
X323067Y290682D02*
X318791Y290682D01*
X318791Y292036D02*
X323067Y292036D01*
X323067Y293390D02*
X318791Y293390D01*
X335767Y293864D02*
X335767Y275788D01*
X331491Y275788D01*
X331491Y293864D01*
X335767Y293864D01*
X335767Y277142D02*
X331491Y277142D01*
X331491Y278496D02*
X335767Y278496D01*
X335767Y279850D02*
X331491Y279850D01*
X331491Y281204D02*
X335767Y281204D01*
X335767Y282558D02*
X331491Y282558D01*
X331491Y283912D02*
X335767Y283912D01*
X335767Y285266D02*
X331491Y285266D01*
X331491Y286620D02*
X335767Y286620D01*
X335767Y287974D02*
X331491Y287974D01*
X331491Y289328D02*
X335767Y289328D01*
X335767Y290682D02*
X331491Y290682D01*
X331491Y292036D02*
X335767Y292036D01*
X335767Y293390D02*
X331491Y293390D01*
X348467Y293864D02*
X348467Y275788D01*
X344191Y275788D01*
X344191Y293864D01*
X348467Y293864D01*
X348467Y277142D02*
X344191Y277142D01*
X344191Y278496D02*
X348467Y278496D01*
X348467Y279850D02*
X344191Y279850D01*
X344191Y281204D02*
X348467Y281204D01*
X348467Y282558D02*
X344191Y282558D01*
X344191Y283912D02*
X348467Y283912D01*
X348467Y285266D02*
X344191Y285266D01*
X344191Y286620D02*
X348467Y286620D01*
X348467Y287974D02*
X344191Y287974D01*
X344191Y289328D02*
X348467Y289328D01*
X348467Y290682D02*
X344191Y290682D01*
X344191Y292036D02*
X348467Y292036D01*
X348467Y293390D02*
X344191Y293390D01*
X361167Y293864D02*
X361167Y275788D01*
X356891Y275788D01*
X356891Y293864D01*
X361167Y293864D01*
X361167Y277142D02*
X356891Y277142D01*
X356891Y278496D02*
X361167Y278496D01*
X361167Y279850D02*
X356891Y279850D01*
X356891Y281204D02*
X361167Y281204D01*
X361167Y282558D02*
X356891Y282558D01*
X356891Y283912D02*
X361167Y283912D01*
X361167Y285266D02*
X356891Y285266D01*
X356891Y286620D02*
X361167Y286620D01*
X361167Y287974D02*
X356891Y287974D01*
X356891Y289328D02*
X361167Y289328D01*
X361167Y290682D02*
X356891Y290682D01*
X356891Y292036D02*
X361167Y292036D01*
X361167Y293390D02*
X356891Y293390D01*
X361167Y325388D02*
X361167Y343464D01*
X361167Y325388D02*
X356891Y325388D01*
X356891Y343464D01*
X361167Y343464D01*
X361167Y326742D02*
X356891Y326742D01*
X356891Y328096D02*
X361167Y328096D01*
X361167Y329450D02*
X356891Y329450D01*
X356891Y330804D02*
X361167Y330804D01*
X361167Y332158D02*
X356891Y332158D01*
X356891Y333512D02*
X361167Y333512D01*
X361167Y334866D02*
X356891Y334866D01*
X356891Y336220D02*
X361167Y336220D01*
X361167Y337574D02*
X356891Y337574D01*
X356891Y338928D02*
X361167Y338928D01*
X361167Y340282D02*
X356891Y340282D01*
X356891Y341636D02*
X361167Y341636D01*
X361167Y342990D02*
X356891Y342990D01*
X348467Y343464D02*
X348467Y325388D01*
X344191Y325388D01*
X344191Y343464D01*
X348467Y343464D01*
X348467Y326742D02*
X344191Y326742D01*
X344191Y328096D02*
X348467Y328096D01*
X348467Y329450D02*
X344191Y329450D01*
X344191Y330804D02*
X348467Y330804D01*
X348467Y332158D02*
X344191Y332158D01*
X344191Y333512D02*
X348467Y333512D01*
X348467Y334866D02*
X344191Y334866D01*
X344191Y336220D02*
X348467Y336220D01*
X348467Y337574D02*
X344191Y337574D01*
X344191Y338928D02*
X348467Y338928D01*
X348467Y340282D02*
X344191Y340282D01*
X344191Y341636D02*
X348467Y341636D01*
X348467Y342990D02*
X344191Y342990D01*
X335767Y343464D02*
X335767Y325388D01*
X331491Y325388D01*
X331491Y343464D01*
X335767Y343464D01*
X335767Y326742D02*
X331491Y326742D01*
X331491Y328096D02*
X335767Y328096D01*
X335767Y329450D02*
X331491Y329450D01*
X331491Y330804D02*
X335767Y330804D01*
X335767Y332158D02*
X331491Y332158D01*
X331491Y333512D02*
X335767Y333512D01*
X335767Y334866D02*
X331491Y334866D01*
X331491Y336220D02*
X335767Y336220D01*
X335767Y337574D02*
X331491Y337574D01*
X331491Y338928D02*
X335767Y338928D01*
X335767Y340282D02*
X331491Y340282D01*
X331491Y341636D02*
X335767Y341636D01*
X335767Y342990D02*
X331491Y342990D01*
X323067Y343464D02*
X323067Y325388D01*
X318791Y325388D01*
X318791Y343464D01*
X323067Y343464D01*
X323067Y326742D02*
X318791Y326742D01*
X318791Y328096D02*
X323067Y328096D01*
X323067Y329450D02*
X318791Y329450D01*
X318791Y330804D02*
X323067Y330804D01*
X323067Y332158D02*
X318791Y332158D01*
X318791Y333512D02*
X323067Y333512D01*
X323067Y334866D02*
X318791Y334866D01*
X318791Y336220D02*
X323067Y336220D01*
X323067Y337574D02*
X318791Y337574D01*
X318791Y338928D02*
X323067Y338928D01*
X323067Y340282D02*
X318791Y340282D01*
X318791Y341636D02*
X323067Y341636D01*
X323067Y342990D02*
X318791Y342990D01*
D18*
X310388Y363460D03*
X310388Y393460D03*
D19*
X267208Y231040D03*
X267208Y282040D03*
D20*
X293751Y237785D03*
X293751Y207985D03*
D21*
X293751Y255641D03*
D22*
X293751Y279391D03*
M02*
